<svg xmlns="http://www.w3.org/2000/svg" viewBox="0 0 128.04 53.08"><defs><style>.cls-1{fill:#f0a200;}.cls-2{fill:#193e2e;}</style></defs><title>1AlbaniaDato</title><g id="Capa_2" data-name="Capa 2"><g id="Capa_1-2" data-name="Capa 1"><path class="cls-1" d="M126.77,27.65H1.27a1.27,1.27,0,0,1,0-2.54h125.5a1.27,1.27,0,0,1,0,2.54Z"/><path class="cls-2" d="M17.18,11,21.76.18h2.75V11H25.7V13.3H24.51v2.91H22V13.3H17.18ZM22,11V5l-2.54,6Z"/><path class="cls-2" d="M27.55,4c0-2.57,1.35-4,3.82-4S35.2,1.46,35.2,4v8.33c0,2.56-1.36,4-3.83,4s-3.82-1.47-3.82-4Zm2.52,8.49c0,1.14.5,1.58,1.3,1.58s1.31-.44,1.31-1.58V3.87c0-1.15-.51-1.58-1.31-1.58s-1.3.43-1.3,1.58Z"/><path class="cls-2" d="M37.53,4c0-2.57,1.35-4,3.82-4s3.82,1.46,3.82,4v8.33c0,2.56-1.35,4-3.82,4s-3.82-1.47-3.82-4Zm2.52,8.49c0,1.14.5,1.58,1.3,1.58s1.31-.44,1.31-1.58V3.87c0-1.15-.51-1.58-1.31-1.58s-1.3.43-1.3,1.58Z"/><path class="cls-2" d="M54.7,7.3H58V9.59H54.7v6.62H52.18V.18h6.66V2.47H54.7Z"/><path class="cls-2" d="M69.39,16.21H66.85l-.43-2.91H63.33l-.44,2.91H60.58l2.56-16h3.69Zm-5.74-5.09h2.42L64.86,3Z"/><path class="cls-2" d="M77.38,11.56,79.1.18h3.5v16H80.22V4.71l-1.74,11.5H76.1L74.22,4.88V16.21H72V.18h3.51Z"/><path class="cls-2" d="M85.92.18h2.51v16H85.92Z"/><path class="cls-2" d="M91.75.18h2.52V13.92h4.14v2.29H91.75Z"/><path class="cls-2" d="M101,.18h2.52v16H101Z"/><path class="cls-2" d="M115,16.21h-2.54L112,13.3h-3.09l-.44,2.91h-2.31l2.57-16h3.68Zm-5.74-5.09h2.43L110.45,3Z"/><path class="cls-2" d="M121,0c2.45,0,3.7,1.46,3.7,4v.5h-2.38V3.87c0-1.15-.45-1.58-1.25-1.58s-1.26.43-1.26,1.58c0,3.29,4.92,3.91,4.92,8.49,0,2.56-1.28,4-3.76,4s-3.75-1.47-3.75-4v-1h2.38v1.14c0,1.14.5,1.56,1.3,1.56s1.31-.42,1.31-1.56c0-3.3-4.92-3.91-4.92-8.49C117.32,1.46,118.58,0,121,0Z"/><path class="cls-2" d="M71.62,49.93l-.72,3.15h-.85l3.11-14.26h1.36L77.7,53.08h-.94l-.71-3.15Zm.14-.81h4.15l-2.1-9.22Z"/><path class="cls-2" d="M79.94,53.08V38.84h.93V52.23h4.48v.85Z"/><path class="cls-2" d="M90.56,38.84c2.13,0,2.9,1.06,2.9,3v.82c0,1.54-.42,2.5-1.87,2.8,1.55.31,2.14,1.45,2.14,3.06v1.24c0,2.05-.94,3.29-3.11,3.29H87.57V38.84Zm-.47,6.29c1.67,0,2.44-.45,2.44-2.26V42c0-1.49-.47-2.26-2-2.26h-2v5.43Zm.53,7.1c1.56,0,2.17-.88,2.17-2.46V48.48c0-1.85-.83-2.5-2.52-2.5H88.5v6.25Z"/><path class="cls-2" d="M97.43,49.93l-.71,3.15h-.85L99,38.82h1.36l3.17,14.26h-.93l-.71-3.15Zm.15-.81h4.14L99.63,39.9Z"/><path class="cls-2" d="M106.61,53.08h-.86V38.84H107l4.27,12v-12h.85V53.08h-1l-4.45-12.69Z"/><path class="cls-2" d="M115.46,38.84V53.08h-.94V38.84Z"/><path class="cls-2" d="M119.26,49.93l-.71,3.15h-.85l3.11-14.26h1.36l3.17,14.26h-.93l-.71-3.15Zm.15-.81h4.14l-2.09-9.22Z"/></g></g></svg>