<svg xmlns="http://www.w3.org/2000/svg" viewBox="0 0 27.5 31.55"><defs><style>.cls-1{fill:#0b6d41;stroke:#006837;stroke-linecap:round;stroke-linejoin:round;stroke-width:0.5px;}</style></defs><title>1AlbaniaRoll</title><g id="Capa_2" data-name="Capa 2"><g id="Capa_1-2" data-name="Capa 1"><path class="cls-1" d="M10.06,25.88c-.28-1.29-1.5-1.93-3.48-2.83a20.81,20.81,0,0,0-2.06-.78,2,2,0,0,1-1.59-1.68,9,9,0,0,0-1.4-2.88A21.67,21.67,0,0,0,.25,15.94a1.54,1.54,0,0,0,.28-.42,8.78,8.78,0,0,1,.88-1.3A9.55,9.55,0,0,0,5.27,7a3.67,3.67,0,0,1,2.09-3c.92-.56,1.8-1.19,2.65-1.8.37-.27.75-.55,1.13-.81A1.44,1.44,0,0,0,11.75.25a6,6,0,0,0,1.8,1c1.23.43,1.48,1.11,1.56,1.65A13.46,13.46,0,0,0,18,8.75,11.82,11.82,0,0,1,20.23,13a1.81,1.81,0,0,0,.62,1c1.38,1.21,2,2.34,2,3.57a1.46,1.46,0,0,0,.89,1.39l1.28.55,2.26,1-.41.41a8.14,8.14,0,0,0-1.28,1.46c-.48.81-.58.9-1.68.46a3.18,3.18,0,0,0-3.33.42,2.88,2.88,0,0,0-.85,2.9A3.91,3.91,0,0,1,19.31,29a1.37,1.37,0,0,0-.8,0c-1,.32-2.24.6-3.41.87a33.87,33.87,0,0,0-3.84,1l-.83.32A1.53,1.53,0,0,1,8.88,31a1.5,1.5,0,0,1-.49-1.48,3.09,3.09,0,0,1,.5-.66l.08-.1A3.28,3.28,0,0,0,10.06,25.88Z"/></g></g></svg>