<svg xmlns="http://www.w3.org/2000/svg" viewBox="0 0 41.12 63.62"><defs><style>.cls-1{fill:none;stroke:#006837;stroke-linecap:round;stroke-linejoin:round;stroke-width:0.5px;}</style></defs><title>1Belen</title><g id="Capa_2" data-name="Capa 2"><g id="Capa_1-2" data-name="Capa 1"><path class="cls-1" d="M.69,26.05a4.8,4.8,0,0,1,3.07-3.24A12.16,12.16,0,0,0,7,20.57c.35-.3.7-.61,1.06-.89,3.44-2.66,7.28-6,9.67-10.74.87-1.73,1.63-3.52,2.36-5.26l.69-1.63A9.79,9.79,0,0,1,21.47.71a6.06,6.06,0,0,1,1,.28,7.26,7.26,0,0,0,6.6-.74l.33.55c.82,1.4,1.6,2.72,2.43,4,1.19,1.86,1.32,3.26.48,4.82-.63,1.15-2.08,3.84.43,6.4a6.49,6.49,0,0,1,.08,1.07,10.6,10.6,0,0,0,.08,1.24,1.4,1.4,0,0,0,.52.93,2.2,2.2,0,0,0,.82.53,6.8,6.8,0,0,0,.9.21l.29.06a1.53,1.53,0,0,1-.29.39c-1.92,1.8-1.43,4-1.13,5.28.09.39.2.78.31,1.17.42,1.47.63,2.34.07,3.29a3.19,3.19,0,0,0,0,2.6l.07.22a10.2,10.2,0,0,0,4.1,5.77c0,.21-.08.44-.11.66C38.22,40.69,38,42,37.7,43.2A14.84,14.84,0,0,0,37.32,50a17.84,17.84,0,0,1,.29,2.93c0,.85.08,1.72.21,2.61a8.33,8.33,0,0,0,.75,2.21,8.5,8.5,0,0,1,.36.82q.14.38.24.75c.09.28.18.57.28.85l.18.56a6.09,6.09,0,0,0,.93,2,2.48,2.48,0,0,1,.31.5,1.28,1.28,0,0,0-.43.14,2.61,2.61,0,0,1-.37-.14l-2.75-1.17-.44-.2a7.62,7.62,0,0,0-2.71-4.64,15,15,0,0,0-2.65-4.9,10.92,10.92,0,0,1-2.33-4.58,4.89,4.89,0,0,0-3.48-4,2.32,2.32,0,0,1-.92-.48,4.69,4.69,0,0,0-4.46-1.34,2.18,2.18,0,0,1-1.18-.21c-2.26-1.28-4.52-2.64-6.71-4l-1.8-1.09c-.1-.06-.19-.14-.29-.21A3.43,3.43,0,0,0,9,35.7c-2.11-.51-3.75-1.89-5.48-3.36-.59-.49-1.19-1-1.81-1.48C.46,29.92-.27,29.07.69,26.05Z"/></g></g></svg>