<svg xmlns="http://www.w3.org/2000/svg" viewBox="0 0 631 465.74"><defs><style>.cls-1,.cls-2{fill:none;stroke:#006837;}.cls-1{stroke-miterlimit:10;stroke-width:3px;}.cls-2{stroke-linecap:round;stroke-linejoin:round;stroke-width:0.5px;}</style></defs><title>1caqueta</title><g id="Capa_2" data-name="Capa 2"><g id="Capa_1-2" data-name="Capa 1"><path class="cls-1" d="M628.82,360.57a.53.53,0,0,1,0-.21l0-.1c.34-1.41.56-2.26,0-3.09s-1.4-.92-2.59-1.08l-.32,0c-2.22-.29-3-.61-3.21-2-.33-1.78-1.71-2.68-4.1-2.68h0a1.46,1.46,0,0,0-1.45,1.33c-.24,2.48-1.11,3.16-2.44,3.44s-2.33-.17-3.53-1.37a2.4,2.4,0,0,0,.51-1.86,3.16,3.16,0,0,0-1.61-2,1.46,1.46,0,0,0-1.24-.11,1.41,1.41,0,0,0-.88.87c-.13.33-.23.66-.33,1a6.58,6.58,0,0,1-.52,1.34l-.35.54a9.66,9.66,0,0,1-2.09,2.67,6.24,6.24,0,0,1-2.11.7l-.59.13-.29-.39,1.25-1.7a1.43,1.43,0,0,0,.2-1.34c-.68-2-2.23-2.88-4.61-2.58l-1.9.26a3.27,3.27,0,0,0-.3-3.15,1.48,1.48,0,0,0-1-.69,1.51,1.51,0,0,0-1.2.35l-2.26,2-1-.44.16-.22a1.47,1.47,0,0,0-.57-2.21c-.56-.25-1.09-.51-1.61-.77a21,21,0,0,0-3.64-1.53c-2.27-.64-3.93-2.07-5.38-4.62a9,9,0,0,0-1.15-1.71l-.19-.21a4.51,4.51,0,0,0-2.06-1.54c-.56-.17-.83-.41-1-1.35-.08-.48-.14-1-.19-1.3l0-.31a1.46,1.46,0,0,0-.57-1l-3-2.26.91-1.26a1.47,1.47,0,0,0-1.3-2.32l-3.09.24a1.47,1.47,0,0,0-1.36,1.5c0,.52,0,1.15-1.64,1.41-.49.08-.81-.12-1.53-.85,1.4-1.27,1.38-2.51,1.34-6.26a1.46,1.46,0,0,0-1.09-1.39c-.29-.08-.46-.13-.52-1.31-.17-3.13-1.23-4.32-4.35-4.88a1.49,1.49,0,0,0-1.18.31l-2,1.66-.93-.63.8-.61a1.46,1.46,0,0,0-.24-2.49,12.61,12.61,0,0,1-2.08-1.15,15.17,15.17,0,0,1,1.43-2.22,1.44,1.44,0,0,0,.13-1.47l-2.15-4.59a1.49,1.49,0,0,0-1-.8,1.43,1.43,0,0,0-1.23.25l-1.09.8-.08-.09a9.21,9.21,0,0,0-2.59-2.2c-1.39-.68-1.7-1.37-1.75-2.19a1.45,1.45,0,0,0-.78-1.21l-.16-.09a3.41,3.41,0,0,0,1.75-2.82,1.49,1.49,0,0,0-.13-.59l-1.53-3.52a1.48,1.48,0,0,0-.86-.8c-.26-.08-.52-.18-.77-.27-.61-.23-1.25-.46-1.91-.64a3.79,3.79,0,0,0-2.64,0,4.18,4.18,0,0,1-3.07.05,3.23,3.23,0,0,0,.46-3.41,3,3,0,0,0-3.34-1.81h-.11a2.54,2.54,0,0,1-2.44-1.55c-.2-.4-.4-.81-.66-1.36l-.47-1a1.47,1.47,0,0,0-2.55-.15l-.88,1.37a6.23,6.23,0,0,0-1.34-.21,1.64,1.64,0,0,0-1.4.67c-.16.23-.17.25-1,.06a4.51,4.51,0,0,0-2-.11,1.47,1.47,0,0,0-.9.62l-.88,1.33c-1.77-.62-1.71-.94-1.31-3.16.45-2.5-2.4-6.91-5-7.73a1.66,1.66,0,0,0-1.21.1l-.08,0a1.45,1.45,0,0,0-1,1.19l-.14.94a7.88,7.88,0,0,1-2.36-4.24l.6-.44a1.45,1.45,0,0,0,.5-1.71c-.6-1.55-.6-1.55.16-3.13l.07-.15a3.38,3.38,0,0,0-.15-2.91c-.67-1.17-2.4-1-3-.85a3.71,3.71,0,0,0-1.37.81l-.23.18a1.45,1.45,0,0,0-.6,1.41,12.05,12.05,0,0,1,.17,1.46c-.33-.58-.64-1.13-.9-1.68a3.81,3.81,0,0,1,0-.5,6,6,0,0,0,0-.6,5.14,5.14,0,0,1,0-.55,4.1,4.1,0,0,0-.32-2.09,2.92,2.92,0,0,1-.28-2.13,3.58,3.58,0,0,0-.1-1.61c0-.18-.09-.38-.12-.61a1.47,1.47,0,0,0-2.18-1c-.37.2-.7.42-1,.62a5.56,5.56,0,0,1-1.37.74,3.2,3.2,0,0,1-.79,0l.76-3.05a1.47,1.47,0,0,0-.64-1.6c-2.68-1.7-2.76-1.88-2.12-4.8A1.47,1.47,0,0,0,493,247c-1.34-1.11-2.15-2-2.38-3.24a2.9,2.9,0,0,0-.91-1.48,1.53,1.53,0,0,1-.18-.18L486.87,239l-1.15-1.34a1.47,1.47,0,0,0-1.52-.44l-4.42,1.27-3.63-2c-.31-.18-.63-.33-.95-.49a6.41,6.41,0,0,1-1.54-.93c-.26-.22-.51-.46-.76-.69-1.94-1.78-3.94-3.63-6.8-4.52a4.38,4.38,0,0,1-1.26-1.12c-.17-.2-.35-.39-.52-.56a6.05,6.05,0,0,1-.57-.86c-.14-.23-.28-.47-.45-.72a1.42,1.42,0,0,0-1.18-.67,1.54,1.54,0,0,0-1.22.58l-.62.84-3.21-1.24h0c-.35-.91-1.44-3.7-5-2.46a1.48,1.48,0,0,0-1,1.39v3.13a4,4,0,0,0-1.41,1.13c-.47.65-.93,1-1.23,1.07s-.83-.28-1.42-.85c-.86-.83-1.05-1.76-.74-3.58a1.45,1.45,0,0,0-.33-1.2,1.53,1.53,0,0,0-1.13-.52,3.77,3.77,0,0,1-1.05-.2,4.21,4.21,0,0,0-3.81.33,1.47,1.47,0,0,0-.66,1.22v.9l-2.09.58-.24.07c-.69.19-1.72.47-2,1.5l-.26,0a3.42,3.42,0,0,0-1.23.31,1.49,1.49,0,0,0-.76.87,3.25,3.25,0,0,0,1.63,4l.08.05a.41.41,0,0,1,0,.09,8.08,8.08,0,0,1-1.18.5,1.47,1.47,0,0,0-.79,2,5,5,0,0,1,.24.72,4.69,4.69,0,0,0,1.25,2.42,4.84,4.84,0,0,1,.24,1.81l-.14.1a6.62,6.62,0,0,0-.72.63,3.16,3.16,0,0,0-.47.7.31.31,0,0,1,0,.1l0,0a5.62,5.62,0,0,1-1,.85c-.81.45-1.67.87-2.59,1.31l-.72.36-.9-.26a1.46,1.46,0,0,0-1.73.76c-.24.49-.46,1-.67,1.45a12.45,12.45,0,0,1-1.28,2.43,8,8,0,0,1-1.67,1.43l-.49.36-1.15-.37a1.48,1.48,0,0,0-1.79.77l-.3.65-.56,1.22a.75.75,0,0,1-.07.12,2.06,2.06,0,0,0-.22,1.81c.19.48,0,.78-.6,1.69-.14.19-.27.38-.4.58h-.2l-.11,0c-1.83-.33-2.7-.18-3.38.74l0-.06a1.48,1.48,0,0,0-1.92-.36l-2.5,1.49a9.12,9.12,0,0,0-6.69-2.29c-.88.08-1.18-.1-1.45-.51a23.36,23.36,0,0,0-4.59-5.4.05.05,0,0,0,0,0,12.76,12.76,0,0,0,.74-1.25c.08-.15.15-.3.23-.44a1.46,1.46,0,0,0-.59-2c-.13-.07-.25-.16-.38-.24a3.07,3.07,0,0,0-2.11-.74,7.22,7.22,0,0,1-2.61-.18,1.42,1.42,0,0,0,.47-.87,1.44,1.44,0,0,0-1.23-1.64c-.42-.11-2.18-.94-3.24-1.43a17.4,17.4,0,0,0-3.05-1.29c-.17,0-.38-.07-.58-.1l-.43-.06a10.32,10.32,0,0,0-3.75-3.11,8.56,8.56,0,0,1-2.73-2.12,4.82,4.82,0,0,0-1-1,4.28,4.28,0,0,1-.37-.32.26.26,0,0,1,0-.1c.41-1.23-.77-2.34-1.21-2.64-.27-.17-.53-.36-.8-.54a18.93,18.93,0,0,0-3.48-2c-1.29-.53-1.29-.67-1.28-1.2a2.42,2.42,0,0,0-.89-1.77,2.08,2.08,0,0,1-.21-.22c-.19-.27-.4-.53-.62-.79a3.71,3.71,0,0,1-.72-1.05,17.87,17.87,0,0,0-.48-1.75c-.48-1.52-.75-2.51-.23-3.56a2.39,2.39,0,0,0-.44-2.7c-.56-.49-.6-1.15-.62-2.36a13.57,13.57,0,0,0-.06-1.4,1.45,1.45,0,0,0-1.25-1.29c-1.9-.28-2.51-1.08-2.84-3.73-.21-1.7-.77-6.2-5.28-7l0,0a4.17,4.17,0,0,0-3.1-2.13l-.26-.06c-2-.52-2.06-.67-2.22-2.39a7,7,0,0,0-2.3-4.59c-.26-.25-.54-.49-.82-.74a6.85,6.85,0,0,1-1.7-1.88,13.8,13.8,0,0,0-4.54-5.44,1.32,1.32,0,0,1-.29-.37c.39-2.42-1.32-3.46-2.35-4.09s-1.84-1.12-1.85-2.78a4.34,4.34,0,0,1,.22-1.14c.11-.42.18-.84.24-1.17l0-.3a1.46,1.46,0,0,0-1.07-1.68l-2.09-.53L328,170.27l-3.8-1c-1.22-.33-2.45-.64-3.69-1a3.25,3.25,0,0,0-3.81,1c-1,1.35-2.38,1.49-4.41,1.55a35.16,35.16,0,0,0-6.92.7,4.29,4.29,0,0,1-4.27-.82c-2.71-2.27-3.64-2.25-6.25.16-1.34,1.24-1.94,1.32-3.34.41a8.4,8.4,0,0,1-2.05-2c-2.42-3.17-5.36-4.09-8.75-2.74-.5.2-.64.25-1.08-.48a37,37,0,0,0-2.74-4.1c-2.37-3-6-2.94-8.16-2.94a4.25,4.25,0,0,0-3,1.67,42.56,42.56,0,0,0-3.08,4.42c-.83,1.35-1.23,1.41-2.44,1.05a3.5,3.5,0,0,1-2.85-3.74c0-.38,0-.77,0-1.15a14.24,14.24,0,0,0-.95-6,7.43,7.43,0,0,0-4.42-4.05,7.3,7.3,0,0,0-5.86.48,4.49,4.49,0,0,1-5.32-.41l-.38-.28A11.69,11.69,0,0,1,239,150a6.06,6.06,0,0,0-5.52-1.7,5.58,5.58,0,0,1-3.31-.26,15.55,15.55,0,0,1-6.72-8.62c-1-3.63-1.92-7.29-2.58-10.07a27,27,0,0,0-3.62-8.7,15.9,15.9,0,0,1-2.58-11.76l0-.17c.46-2.76.94-5.62,0-8.63-.41-1.38-.77-2.81-1.12-4.19s-.63-2.49-1-3.74a9.73,9.73,0,0,0-1.52-3.44c-2.41-3.11-2.72-6.84-2.7-10.41,0-.85,0-1.71,0-2.57,0-2.36.08-4.81-.1-7.24l-.05-.76c-.21-3.18-.43-6.46-2.78-9.48a3.82,3.82,0,0,1,0-4.64c.21-.3.4-.62.6-.93a19.18,19.18,0,0,1,1.8-2.6c1.5-1.76,3.16-3.57,5.08-5.56a16.64,16.64,0,0,0,4.27-7.62c1.42-5.86-.62-10.78-2.8-14.81a15.13,15.13,0,0,0-7.77-7,20,20,0,0,0-3.6-1,9.28,9.28,0,0,1-4.82-2.66c-.27-.29-.53-.57-.81-.85a41.62,41.62,0,0,0-3.92-3.81,15.27,15.27,0,0,0-5.17-3,79.14,79.14,0,0,0-8.16-1.74l-2-.35c-2.64-.49-7.1,1.78-8.35,4.27l-.19.37a15.27,15.27,0,0,1-1.16,2.05c-.81,1.12-1.71,2.23-2.57,3.31a37.74,37.74,0,0,0-5.71,8.65.68.68,0,0,1-.14.24,5.88,5.88,0,0,0-1.9,5.39l.15,1.63c.17,1.81.34,3.68.41,5.5a8.59,8.59,0,0,1-1.43,5.49l-.59.85a37,37,0,0,0-2.64,4.08,6.18,6.18,0,0,1-3.73,3.16,8.17,8.17,0,0,0-1.34.54c-4.17,2.23-7,5.86-8.54,11.06l-.45,1.05-.7,1.63-.16.1-2.07,1.72c-1.48,1.22-2.88,2.37-4.26,3.58-3.08,2.71-6.14,9.05-8.37,13.68-.39.82-.75,1.57-1.08,2.24a12.15,12.15,0,0,0-4.08,1.94,9.09,9.09,0,0,0-1.57.76,8.22,8.22,0,0,1-.85.46,5.79,5.79,0,0,0-3.65,3.93,23.87,23.87,0,0,0-.15,7.71,1.5,1.5,0,0,0-.41.71,12.74,12.74,0,0,0-.29,2.25c0,.44-.07.85-.13,1.24a26,26,0,0,1-2.83,5.27l0,.06a9.19,9.19,0,0,0-2.15.11,8.38,8.38,0,0,0-2.07.7l-.56.25c-.43.17-.86.36-1.28.55a12.62,12.62,0,0,1-2.21.87A8.37,8.37,0,0,0,96,112.76l-.43.67c-1.3,2.08-2.78,4.41-2.69,7.43a3.43,3.43,0,0,1-.1.57,6.56,6.56,0,0,0-.17,1,2.22,2.22,0,0,1-1.41,2.09,8.93,8.93,0,0,0-2.8,2.16c-1.7,2-3.38,4.09-5,6.09L81.63,135l-.45.58a5.74,5.74,0,0,1-.65.8,25.38,25.38,0,0,0-6.5,9.2,4.78,4.78,0,0,1-2.44,2.33,80.4,80.4,0,0,0-6.79,4.64c-1.84,1.33-3.57,2.59-4.67,3.28a1.39,1.39,0,0,0-.57.68,4.57,4.57,0,0,1-4.61.81c-3.13-1.08-4.14-.09-5.32,2.67-.24.55-.47,1.1-.7,1.65-.71,1.69-1.45,3.43-2.28,5.08-2.13,4.19-5.66,7.28-8.85,9.74-.4.32-.79.65-1.18,1a9.74,9.74,0,0,1-2.45,1.74,7.94,7.94,0,0,0-3.8,3,8.23,8.23,0,0,0-1.92-3.87,1.5,1.5,0,0,0-1.08-.38c-.24,0-.43,0-.6,0a2.79,2.79,0,0,0-1.64.34c-.26.17-.52.34-.8.5-1.72,1.06-3.67,2.26-4.55,4.75a5.72,5.72,0,0,1-1.18,1.75c-2.21,2.37-2.83,4.8-1.87,7.38-3.18,2.14-3.05,5.76-3,8.26a3.71,3.71,0,0,0,0,.47,3.76,3.76,0,0,1,0,.57l-.13.48a10.91,10.91,0,0,1-.95,2.59,3.59,3.59,0,0,0-.39,3.34c.06.15.12.31.17.47a6.9,6.9,0,0,0-3.93,3.76A5.65,5.65,0,0,1,7,214.52l-.46.44c-1.14,1.09-2.24,2.24-3.31,3.35-.44.47-.89.93-1.33,1.39a1.46,1.46,0,0,0-.2,1.79l1.16,1.9a4.88,4.88,0,0,0,.53,5.1,3.28,3.28,0,0,1,.28.87c.05.21.09.42.15.63A6.28,6.28,0,0,0,10,234.92a10.17,10.17,0,0,1,1.66.31c.34.08.69.17,1,.23l1.42.32a17.16,17.16,0,0,0,3.9.6h0a9.19,9.19,0,0,0,3.22-.8c.35-.13.69-.27,1-.37a1.62,1.62,0,0,0,.39-.21,8.46,8.46,0,0,0,3.4,4.74c.69.47,1.83,1.36,2.52,1.94A6.12,6.12,0,0,0,34.07,243a2,2,0,0,1,.44-.06,6.49,6.49,0,0,0,3.73,1.44,2.19,2.19,0,0,0,2.43-2.69c.75-.54,1.06-.31,2.32.64a15,15,0,0,1,1.41,1.27A6.15,6.15,0,0,0,49,245.88a1.59,1.59,0,0,1-.17,1.34,9.17,9.17,0,0,0-.74,2.38c0,.17-.06.31-.09.43a1.48,1.48,0,0,0,.35,1.39c.42.44.83.81,1.2,1.13a5.77,5.77,0,0,1,.94.94,6.32,6.32,0,0,0,4.22,4.68c.9.37,1.06.79,1,1.46a7.17,7.17,0,0,0,.59,2.77,4.5,4.5,0,0,0,4,2.34,3.34,3.34,0,0,0,1.34-.26,3.11,3.11,0,0,0,2-2.65l.23.27.23.27c1.19,1.4,2.31,2.83,3.5,4.33l1.47,1.84a1.46,1.46,0,0,0,1.86.37c.27-.15.56-.34.87-.55a5.35,5.35,0,0,1,1.65-.86,17.36,17.36,0,0,1,3.11-.16c.62,0,1.24,0,1.85,0h.34a3.82,3.82,0,0,0,2.44-.63c1-.81,2.19-.83,3.68-.84l1.18,0c.44,0,1.18,0,1.32.54,1.16,4.2,4.8,4.25,6.77,4.28l.81.05.62.05c1.79.09,2.45.72,2.54,2.38a4.75,4.75,0,0,1-.18,1.06c-.07.27-.14.55-.19.85a1.46,1.46,0,0,0,.52,1.42l2.66,2.09a1.64,1.64,0,0,0,2.64-1.41,5.2,5.2,0,0,1,.78-.87,4.45,4.45,0,0,0,1.25,1.87c.66.59,1.21,1.05,1.74,1.48a20.37,20.37,0,0,0,4.18,2.77,6,6,0,0,0,2.35.43,6.72,6.72,0,0,0,3.61-.95,3.27,3.27,0,0,0,.74-.69l.22.06a3.79,3.79,0,0,0,4.15-1.3c.12-.16.25-.31.38-.46.68,1.45,1.74,3.17,4.22,3.22a2.49,2.49,0,0,0,.49.36l.54.32a10,10,0,0,0,2,1c1.79.6,2.14,1.12,1.89,2.84a3.91,3.91,0,0,1-.31.88c-.09.23-.19.47-.27.72-.14.41-.27.81-.41,1.26l-.21.64a1.46,1.46,0,0,0,1.39,1.91c2.09,0,3.22,1.12,4.35,2.88.32.5.59,1.05.89,1.62q.16.35.36.69c.9,1.72.9,1.72-.29,2.8-2.16,1.94-1.94,3.93-1.53,5.81a5.93,5.93,0,0,0,3.08,4.17l-.39,3.13a1.46,1.46,0,0,0,1.45,1.65l1.34,0a15.06,15.06,0,0,1,2.79.06,4.9,4.9,0,0,0,4.13-1.08c.88-.72,1.84-1.45,2.9-2.22a1.2,1.2,0,0,1,1.43-.08c.11.06.43.26.24,1a5.82,5.82,0,0,0-.12,1.14c0,.13,0,.29,0,.46a1.45,1.45,0,0,0,1.28,1.54,17.12,17.12,0,0,0,6.43-.71l.42-.11.24.3c.6.78,1.22,1.58,1.8,2.38,1.21,1.69,2.38,3.39,3.75,5.41h0v.14a1,1,0,0,1-.82,1.24c-2.75,1.07-3,1.89-2.69,4.57l0,.14a7,7,0,0,0,3.1,5.33c.64.43.87.81.86,1s-.25.66-1.15,1.22l-1.19.77-1,.64a1.49,1.49,0,0,0-.66,1.26,1.44,1.44,0,0,0,.73,1.23l.69.4c.34.2.61.35.86.51s.69.42,1,.63a12.11,12.11,0,0,1,2.06,1.38,4.83,4.83,0,0,0,5.32,1.12,10.65,10.65,0,0,1,2.94-.45c1.25,0,2.22.64,3.67,1.79.19.14.37.29.55.44a9.47,9.47,0,0,0,4,2.28,34.21,34.21,0,0,0,9.29.59c4.86-.48,7.48,2.5,10.5,6l.52.59a.56.56,0,0,1,.08.21c.07.37.15.74.22,1.11a12.73,12.73,0,0,1,.38,5.41,10,10,0,0,1-.45,1.34q-.15.39-.3.81a1.44,1.44,0,0,0,.12,1.23,1.46,1.46,0,0,0,1,.7l.36,0h.06l.68.39a5.21,5.21,0,0,1,1.06.66c.25.57-.67,1.17-.85,1.29l-2.64,1.64-1.16.73a1.47,1.47,0,0,0-.53,1.92l.09.17a4.42,4.42,0,0,0,.49.86,4.34,4.34,0,0,0,1.13,1c2.88,1.77,3.92,3.37,3.7,5.68a1.46,1.46,0,0,0,.9,1.5c.48.2.94.34,1.38.48a3.7,3.7,0,0,1,2.19,1.19c.55.73.43,1.19,0,2.4-.1.3-.21.59-.3.88a1.47,1.47,0,0,0,.8,1.77c.55.24,1.07.5,1.6.74a38.07,38.07,0,0,0,3.62,1.57l.6.21a17.54,17.54,0,0,0,5.37,1.28,1.45,1.45,0,0,0,1.12-.47,1.43,1.43,0,0,0,.39-1.14c0-.33-.07-.64-.1-1a10.69,10.69,0,0,1-.13-1.59c0-.34.06-.46,0-.47l.1,0,.1,0a1,1,0,0,1,.18.31,10.65,10.65,0,0,1,.71,2.63c.24,1.83,1.27,3,2.77,3.06a3.72,3.72,0,0,0,3.13-1.72,19.21,19.21,0,0,0,1.42-3.72l.07-.23a6.17,6.17,0,0,0,.19-1.31,2.44,2.44,0,0,1,.06-.61.88.88,0,0,1,.46-.6,1,1,0,0,1,.81.27c1.37,1.09,1.57,1.75,1.05,3.39a6.73,6.73,0,0,0-.22,1c0,.19-.08.41-.13.68a1.47,1.47,0,0,0,2.33,1.46,9.73,9.73,0,0,1,4.5-1.71c.6-.11,1.22-.24,1.84-.4,2.28-.61,3.87,0,5.32,2,.63.9,2.57,3.62,6,1.87a.54.54,0,0,1,.33-.09l.07.1c.38.76.19.95.06,1.08s-.33.31-.5.45a9.4,9.4,0,0,0-.83.76,4.34,4.34,0,0,0-1.28,3.26,4.13,4.13,0,0,0,1.66,2.94,40.28,40.28,0,0,0,4,2.8,2.86,2.86,0,0,0,2.3.47,3.3,3.3,0,0,0,1.93-1.81c.18-.33.37-.71.49-.88a3.5,3.5,0,0,1,.6,0l.26.74c.48,1.28.95,2.6,1.47,3.9a3,3,0,0,0,2.19,2.16,3.07,3.07,0,0,0,2.81-1.34,8.05,8.05,0,0,0,.57-.79,3.87,3.87,0,0,1,.44-.58c1.17-.91,2.1-1.34,2.7-1.24q.67.12,1.44,1.29l.3.47c.43.68.85,1.32,1.21,2a3.68,3.68,0,0,0,4.27,1.94c.48-.09,1-.15,1.55-.21a13.47,13.47,0,0,0,3.36,6.29,5.8,5.8,0,0,0,3.43,2.22c2.89.63,5.5,1.25,7.94,1.88.81.21,1.6.46,2.44.72a35.7,35.7,0,0,0,4.13,1.1,6.66,6.66,0,0,1,3.86,1.74c2.8,2.83,6.14,2.5,9.07,2.2l.49,0a7.22,7.22,0,0,0,5.07-3.07,1.6,1.6,0,0,1,1.3-.65c.6-.05,1,.07,1.42.89a7.09,7.09,0,0,0,7.51,3.71,1.81,1.81,0,0,1,.46,0v2.51a1.46,1.46,0,0,0,.57,1.16,1.44,1.44,0,0,0,1.25.27l.94-.23c.61-.15,1.15-.28,1.68-.43a3.11,3.11,0,0,1,2.73.22,3,3,0,0,1,.84,2.5c0,.81-.08,1.51-.14,2.14-.21,2.08.52,3.42,2.18,4a3.67,3.67,0,0,0,4.43-1.7,3.62,3.62,0,0,1,.22-.32c2,3.92,4.39,4.67,8.75,2.92,3.29-1.3,5.28-1.17,7.37.5,1.34,1.07,3.47,1.83,5.93-.66a6.75,6.75,0,0,1,2.86-1.62c1.43,2.58,3.82,4.33,7.28,5.34.63.18.95.67,1.38,1.63a5.49,5.49,0,0,0,3.27,3.08,5.24,5.24,0,0,1,1.46,1.13c.3.29.61.64.92,1a12.37,12.37,0,0,0,1.57,1.59,4.54,4.54,0,0,0,3.35,1.2,14,14,0,0,0,4.89-1.69c3-1.84,4.12-1.87,6.85-.14a3.43,3.43,0,0,0,.82.35l.12,0a1.42,1.42,0,0,0,.84.06,3.18,3.18,0,0,0,2.4-3.25l0-.21a16.35,16.35,0,0,1,2.54-7.27c.59-.92,1.12-1.07,1.72-1,4.17.36,6.85,1.9,8.44,4.89a19.2,19.2,0,0,1,1.2,3,4.61,4.61,0,0,0,3.39,3.38,14.19,14.19,0,0,0,7.92-.15,16.53,16.53,0,0,0,1.9-.85,6.65,6.65,0,0,1,3.16-1,2.55,2.55,0,0,0,1.82-.93c1.17-1.43,1.9-2.25,3.22-2.28a2.66,2.66,0,0,0,2-1.35l.06-.07a.92.92,0,0,1,1-.47c.45,2.46,2.92,3.14,4.2,3.49a2.59,2.59,0,0,1,.83.44c1,.76,2,1.55,3.08,2.39l.79.62c.28,2,2.11,3.18,2.94,3.71l.95.59a19.2,19.2,0,0,1,3.66,2.64,12.25,12.25,0,0,0,6.32,3.05c.56.14,1.09.27,1.58.43a1.61,1.61,0,0,0,.44.06,1.43,1.43,0,0,0,1.07-.47l1.84-2c1.32-1.41,2.56-2.75,3.76-4.14.85-1,1.65-2,2.44-3s1.78-2.28,2.72-3.35a35.87,35.87,0,0,1,4.13-4,1.23,1.23,0,0,1,1-.32,1.21,1.21,0,0,1,.79.56,3.2,3.2,0,0,1,.28,1.74,4,4,0,0,0,2.28,3.94c.79.41,1.56.84,2.33,1.28s1.62.9,2.45,1.33a5.46,5.46,0,0,0,2.26.63c5.11.21,9.2-2.05,12.19-4.05a4,4,0,0,0,1.42-5.13c-1.15-2.52-1.39-5.26-.79-9.16a7,7,0,0,1,2.8-5,19,19,0,0,0,6.64-9.24,15.69,15.69,0,0,1,3.07-4.72c1.18-1.35,2.18-1.89,3.26-1.76,4.47.52,6.47-2.47,7.7-5.13l.45-1a19.31,19.31,0,0,1,1-2,1.71,1.71,0,0,1,2.24-.88,10.21,10.21,0,0,0,6.23.36,7.72,7.72,0,0,1,2.28-.17l1.87.14c3.27.23,6.66.47,10,.88a8.56,8.56,0,0,0,6.45-1.51,9.38,9.38,0,0,1,4.93-2,4.2,4.2,0,0,0,4-3.34c.07-.32.16-.63.26-.94a16.53,16.53,0,0,0,.51-2.1c.35-2.43.74-5.31,1-8.23a2.78,2.78,0,0,1,1.18-2.29c2.76-1.92,5.7-4,8.55-6.09l.48-.35a12.14,12.14,0,0,0,3.2-3c1.33-2,3.21-2.93,6.26-3a37.65,37.65,0,0,0,9.13-1.76,26.22,26.22,0,0,1,6.2-1.19c6.32-.28,11.33-3.26,15.29-9.09A3.16,3.16,0,0,0,628.82,360.57Z"/><path class="cls-2" d="M143.35,59.07c1.36-4.48,3.69-7.54,7.14-9.38a6.72,6.72,0,0,1,.88-.35,9,9,0,0,0,5.4-4.57A34.18,34.18,0,0,1,159.2,41l.61-.86a11.45,11.45,0,0,0,2-7.28c-.07-1.9-.25-3.81-.42-5.66l-.15-1.61c-.13-1.46.11-2.27.86-2.89a3.36,3.36,0,0,0,.95-1.34,34.94,34.94,0,0,1,5.3-8c.89-1.11,1.81-2.25,2.67-3.43a18,18,0,0,0,1.4-2.46l.18-.36c.65-1.29,3.87-3,5.22-2.71l2,.36a77.67,77.67,0,0,1,7.88,1.67A12.78,12.78,0,0,1,191.76,9a40.29,40.29,0,0,1,3.65,3.54l.81.86a12,12,0,0,0,6.36,3.51,18.44,18.44,0,0,1,3.09.86A12.12,12.12,0,0,1,212,23.46c1.92,3.54,3.72,7.82,2.53,12.72A13.8,13.8,0,0,1,211,42.45c-2,2-3.66,3.89-5.2,5.69a23.75,23.75,0,0,0-2.06,3l-.57.91a6.77,6.77,0,0,0,.14,8c1.79,2.3,2,5,2.17,7.87l0,.77c.17,2.3.13,4.68.09,7,0,.87,0,1.74,0,2.61,0,4.09.37,8.41,3.33,12.21a7.72,7.72,0,0,1,1,2.45c.34,1.21.65,2.45,1,3.65.35,1.42.72,2.88,1.15,4.31.69,2.37.29,4.78-.13,7.32l0,.17a18.91,18.91,0,0,0,3,13.85,23.9,23.9,0,0,1,3.21,7.76c.67,2.82,1.58,6.53,2.63,10.2a18.24,18.24,0,0,0,7.91,10.26c1.19.79,3,1,5.32.72a3.14,3.14,0,0,1,3,.84,13,13,0,0,0,1.76,1.45l.36.26a7.36,7.36,0,0,0,8.46.64,4.34,4.34,0,0,1,3.51-.29,4.57,4.57,0,0,1,2.69,2.46,11.77,11.77,0,0,1,.69,4.8c0,.41,0,.81,0,1.21a6.38,6.38,0,0,0,4.94,6.47c2.58.76,4.31.07,5.78-2.34a39.84,39.84,0,0,1,2.87-4.11,2.47,2.47,0,0,1,.69-.58c2.39,0,4.49.14,5.88,1.86a34.62,34.62,0,0,1,2.51,3.76,3.49,3.49,0,0,0,4.68,1.7c2.13-.85,3.72-.31,5.33,1.8a11,11,0,0,0,2.79,2.65c2.54,1.64,4.61,1.43,6.95-.74.43-.4.88-.81,1.13-1a15.15,15.15,0,0,1,1.22,1,7.14,7.14,0,0,0,6.82,1.42,33.46,33.46,0,0,1,6.34-.62c2-.06,4.77-.15,6.68-2.75a5.11,5.11,0,0,1,.74.15l3.66,1c1.27.33,2.54.67,3.82,1,1.5.39,3,.77,4.58,1.16l.74.19a6.39,6.39,0,0,0-.29,1.79,5.7,5.7,0,0,0,3.26,5.29c1.07.65,1.06.69.95,1.2a3.46,3.46,0,0,0,1.43,3.07,10.93,10.93,0,0,1,3.65,4.31A8.93,8.93,0,0,0,344,193c.25.22.5.44.73.66a4.17,4.17,0,0,1,1.41,2.75c.32,3.33,1.62,4.22,4.4,5l.29.07c.88.22,1.06.31,1.18.6a3,3,0,0,0,2.09,1.57c1.77.33,2.57,1.56,2.94,4.53.32,2.6,1.07,5.08,4.13,6v.09a5.84,5.84,0,0,0,1.19,4.1,7.54,7.54,0,0,0,.23,5.36c.16.51.31,1,.41,1.46a5.26,5.26,0,0,0,1.34,2.34q.25.3.48.6a3.87,3.87,0,0,0,.51.59l.06.06c.15,2.36,2,3.11,3.09,3.57a15.94,15.94,0,0,1,2.94,1.74l.72.49a3.1,3.1,0,0,0,1.46,3,3.12,3.12,0,0,1,.44.39,10.91,10.91,0,0,0,3.63,2.94,7.29,7.29,0,0,1,2.91,2.39,2.93,2.93,0,0,0,2.35,1.16l.36.05c.24.07,1.11.47,1.91.85l-.56.44c-.58.46-1.19.94-1.76,1.45a.9.9,0,0,1-.23.16,1.09,1.09,0,0,1-.46-.3,3.12,3.12,0,0,1-.24-.3,2.75,2.75,0,0,0-1.67-1.22c-.52-.09-.79-.33-1.45-1.12-2.25-2.71-5.14-3.32-8.37-1.75l-1.19.61c-.48.25-1,.5-1.45.73-3.88,1.79-5.81,4.72-5.72,8.72a10.21,10.21,0,0,1-1.68,5.79,12.4,12.4,0,0,0-1.33,3.09,3.27,3.27,0,0,1-1.75,2.24,63.24,63.24,0,0,1-7.11,2.39,6.88,6.88,0,0,0-4.93,4.71,9.5,9.5,0,0,0-.42,2l0,.45a3.61,3.61,0,0,1-1,2.43,4.12,4.12,0,0,0-.95,3.2c.1,1.07.26,2.14.41,3.17s.28,2,.38,2.94a4.54,4.54,0,0,1-.3,1.57c-.55,1.71-2,2.87-3.49,4.09-.35.28-.7.56-1,.84a10.64,10.64,0,0,0-3.39,4.8,26.49,26.49,0,0,1-2.29,5.32c-.1.18-.19.37-.28.56a15.53,15.53,0,0,0-4.9-7.29,5.09,5.09,0,0,0-6.78.09,12.15,12.15,0,0,0-1.44,1.55,9.38,9.38,0,0,1-1.06,1.16c-.9.77-1.87,1.48-2.9,2.23l-.64.47-3.61-1.87a1.46,1.46,0,0,0-1.12-.1l-1,.31c-.41-.47-.79-.92-1.12-1.36a.91.91,0,0,1-.05-.21,5.65,5.65,0,0,0-5.26-5,3.91,3.91,0,0,0-4.1,1.94,1.26,1.26,0,0,1-.8.63,1.14,1.14,0,0,1-.9-.23,7.45,7.45,0,0,0-.62-.42c-.95-.62-1.1-.81-1.08-1.32.05-1.63-1.69-2.86-1.89-3-1.52-1-1.51-2.34-1.34-4.74l0-.67a1.45,1.45,0,0,0-.52-1.21,5.85,5.85,0,0,0-.52-.38,3.46,3.46,0,0,1-.5-.4,4,4,0,0,0-3.3-2.09c-.27,0-.64-.09-.88-.14,0-.28-.07-.77-.1-1.25a1.45,1.45,0,0,0-.82-1.23l-.33-.17c-.26-.13-.54-.28-.82-.4a.65.65,0,0,1-.43-.62,9.28,9.28,0,0,0-.52-3.43c-.3-.82-.32-1-.13-1.44a4.09,4.09,0,0,0-1-4.84,17.38,17.38,0,0,1-1.21-1.41c-.2-.24-.39-.48-.59-.71a1.45,1.45,0,0,0-1.78-.36c-.31.15-.61.34-.92.53a5.64,5.64,0,0,1-.95.51c-.08-.13-.17-.33-.24-.48a6.83,6.83,0,0,0-.44-.84A3.41,3.41,0,0,0,274.8,263a2.66,2.66,0,0,1-.49-.26,3.68,3.68,0,0,1-.5-.76c-.13-.22-.26-.45-.4-.67a1.46,1.46,0,0,0-1.91-.51L271,261c0-.16,0-.37,0-.67a4.57,4.57,0,0,0-.53-2.37,1.46,1.46,0,0,0-.85-.65l-.14-.05a1.85,1.85,0,0,0-1.4-.07c-.39.16-.89.36-1.15.43-.16-.14-.43-.42-.67-.67l-.24-.25a7,7,0,0,1-.63-.79,5.24,5.24,0,0,0-3.41-2.46c-.14-.23-.33-.59-.45-.82l-.29-.56a7,7,0,0,0-2.17-2.2c-.8-.59-1.29-1-1.48-1.58a2.22,2.22,0,0,0-1.06-1.19l-.09-.06-1.78-1.15c-1.3-.84-2.65-1.7-3.88-2.62a7.14,7.14,0,0,1-1.28-1.41,14,14,0,0,0-1-1.22,14.26,14.26,0,0,1-1.58-2.06,4,4,0,0,1-.66-1.36c-.19-2.71-1.71-4.49-4.53-5.28-1.74-.49-3-1-3.67-2.18-.37-.61-.72-1.24-1.08-1.86-.53-.92-1.09-1.88-1.69-2.81a7.15,7.15,0,0,0-1.9-1.81,6.33,6.33,0,0,0-1-.57,4.89,4.89,0,0,1-.51-.25,6,6,0,0,0-5.68-2.33,4.35,4.35,0,0,1-1.95-.46l-.48-.18a2,2,0,0,1-1.41-1.62c-.92-4.21-4-6.3-6.52-7.64a60.87,60.87,0,0,1-13-8.86,14.59,14.59,0,0,0-2.21-1.71,13.41,13.41,0,0,1-6.31-8c-.14-.47-.3-1-.47-1.53-.78-2.52-1.76-5.65-1-7.71a1.47,1.47,0,0,0-.9-1.87h0a3.73,3.73,0,0,0-.32-.63,5.32,5.32,0,0,0-3.79-2.17,5,5,0,0,1-4.17-4.71,23.92,23.92,0,0,0-.51-3l-.21-1c-.13-.66-.28-1.31-.43-2a23.53,23.53,0,0,1-.7-4.15l0-.39a7.64,7.64,0,0,0-.66-3.25c-1-1.93-.81-3.4.49-4.76a13,13,0,0,0,1.05-1.3l.2-.28a1.47,1.47,0,0,0,.25-1.28l-.4-1.46c-.27-1-.49-1.8-.72-2.6,0-.09,0-.18-.07-.27a4.35,4.35,0,0,0-.66-1.58,4.37,4.37,0,0,1-.7-3.24c.08-.72.21-1.44.35-2.21s.31-1.78.4-2.72l0-.44a7,7,0,0,0-.37-4,29.09,29.09,0,0,0-3.8-5.25,2,2,0,0,1-.51-2,12,12,0,0,0,.24-3.64c-.39-3.27-1.69-3.73-4.47-3.51a3.9,3.9,0,0,1-1.27,0,4,4,0,0,1-.64-1.21c-.23-.54-.45-1.09-.69-1.66l-.34-.85a1.48,1.48,0,0,0-.82-.81,1.5,1.5,0,0,0-1.16,0,3.94,3.94,0,0,1-3.42.25,4.09,4.09,0,0,0-2.18-.08l-.4,0c-1.45.16-1.92-.19-2.31-.94a26.07,26.07,0,0,0-1.74-2.72c-.27-.39-.55-.78-.82-1.19a1.47,1.47,0,0,0-2-.44,10.88,10.88,0,0,0-1.86,1.54,6.7,6.7,0,0,1-1.34,1.1l-1.62-2.56c.8-1.87-.27-3.76-.89-4.85s-.28-2.18.59-3.87c.13-.24.25-.48.37-.73a7.35,7.35,0,0,1,1-1.31l.23-.27c.47.07,1,.16,1.52.27,3,.59,5-.42,6.28-3.16a3.49,3.49,0,0,1,.32-.54,3.65,3.65,0,0,0,2.49-3.46c0-.27.08-.52.13-.72.84-3-.24-4.59-1.29-5.45-.71-.58-.93-1-.41-2.27a3.73,3.73,0,0,0-1.23-4.77,1.45,1.45,0,0,0-1.32-.21l-2,.65a3.8,3.8,0,0,0-5.21-1.36,1.4,1.4,0,0,1-.67-.08,18.46,18.46,0,0,1-2.06-1.14c-.42-.25-.84-.51-1.27-.74a5,5,0,0,1-2.81-3.77c-.42-2.74-.89-5.48-1.35-8.12a6.43,6.43,0,0,0-.22-.89c.3-.72.69-1.63.93-2.18A12.93,12.93,0,0,0,143.35,59.07Z"/><path class="cls-2" d="M348.12,322.55a5.09,5.09,0,0,0,1.76.94l-.77.95a1.49,1.49,0,0,0-.18,1.56,1.47,1.47,0,0,0,1.32.83h2.29a9.63,9.63,0,0,1-.07,2.32c0,.29-.06.57-.08.85a4.21,4.21,0,0,0,1.19,3.61,4.12,4.12,0,0,0,3.61,1,3,3,0,0,0,.87-.25l.22-.08a1,1,0,0,1,1.37,1,12.69,12.69,0,0,1-.15,1.78c0,.32-.08.64-.11,1a1.47,1.47,0,0,0,1.66,1.6l.19,0a3.24,3.24,0,0,1,.38.67,4.13,4.13,0,0,0,1.89,2.19,1.39,1.39,0,0,0,.72.14l4.24-.24,1,.77a1.47,1.47,0,0,0,1.31.28l1.11-.3.82,1.12c.16.21.35.42.53.63s.29.33.38.45l-.19.38c-.14.26-.28.52-.4.8a1.47,1.47,0,0,0,.66,1.85,3.31,3.31,0,0,0,2.63.42,3.49,3.49,0,0,0,2-2l0-.05.85.5a1.48,1.48,0,0,0,1.64-.1l.45-.34a6.11,6.11,0,0,1,1.48,4.22,1.46,1.46,0,0,0,.52,1,1.45,1.45,0,0,0,1.11.33,2.73,2.73,0,0,1,3.35,2.14,1.49,1.49,0,0,0,.7.84,4.72,4.72,0,0,0,2.4.44h.69a.59.59,0,0,1,.08.19,1.47,1.47,0,0,0,1.93.93l1.91-.73a1.42,1.42,0,0,0,.72.73l.4.18.52.24c1.46.8,1.46.8,1.07,2.55a25.7,25.7,0,0,0-.42,2.66l-.08.66a1.94,1.94,0,0,0,.3,1.22.41.41,0,0,1,.05.09,1.54,1.54,0,0,0,.79.76l.57.22-.66,3.17a23.63,23.63,0,0,1-2.72-.8,4.82,4.82,0,0,0-4.4.1,7.67,7.67,0,0,0-1.63,1.47l-3.4-1.87a1.42,1.42,0,0,0-1.14-.11,1.46,1.46,0,0,0-.88.75,1.53,1.53,0,0,1-2.06.83,1.46,1.46,0,0,0-1.67.74l-.24.47c-.91-.91-1.74-.88-3.52-.27l-.12,0a1.66,1.66,0,0,1-.5.07,11.39,11.39,0,0,0-7.34-1.54,4.8,4.8,0,0,0-2.44-2.61,3.6,3.6,0,0,1-1.12-1.23,5.66,5.66,0,0,0-3.68-2.56c-.28-.07-.58-.13-.88-.18-1.1-.19-1.16-.28-1.28-.67-.42-1.44-2.42-1.47-2.92-1.4a5.18,5.18,0,0,0-3.72,2c-1.42,1.89-3.65,2.64-6.56,3.19a10,10,0,0,1-1.51.11,7.18,7.18,0,0,0-4.19,1,4.86,4.86,0,0,1-1-.2,20.86,20.86,0,0,1-2.14-.73l-.55-.21L335.59,363a1.46,1.46,0,0,0-1.92-.49l-1.5.82c-1.39.76-2.66,1.46-4,2.14l-1-.16a17.31,17.31,0,0,1-2.89-.62c-2.48-.87-5.16-1.91-8.2-3.2a3,3,0,0,1-1-1c-.47-.65-.93-1.33-1.38-2-.65-1-1.33-2-2.09-2.93a5.6,5.6,0,0,0-2.79-1.67,6.21,6.21,0,0,0-2.11-.16l-.54,0-75.76.35a12.21,12.21,0,0,1-2.25-.09,11.91,11.91,0,0,1-.47-2l0-.11c-.36-1.86-.81-3.76-1.35-5.66a32.86,32.86,0,0,0-1.42-3.76,20,20,0,0,1-1.62-4.92l0-.31a5.56,5.56,0,0,0-.88-2.73,17.41,17.41,0,0,1-1.51-2.63,12.92,12.92,0,0,0-3.28-4.64,12.22,12.22,0,0,0-2.63-4.43,12.37,12.37,0,0,1-1.86-2.71c-.44-1-.93-2-1.4-2.95-.62-1.25-1.22-2.44-1.7-3.68a12.68,12.68,0,0,1-1-4.26,24.94,24.94,0,0,0-1.5-7.21,3.36,3.36,0,0,0-3.26-2.7h0a1.63,1.63,0,0,1-.29-.57c-.58-1.64-2-3.46-5.17-2.79a3.8,3.8,0,0,1-.78.12v0a5.09,5.09,0,0,0-4.28-2.85c-1.46-.2-2.41-1.38-3.51-2.74l-.43-.52a7.6,7.6,0,0,1-.95-2.07c-.09-.26-.18-.53-.28-.8a5.88,5.88,0,0,0,.06-4.17,10.06,10.06,0,0,1-.3-1.64,1.44,1.44,0,0,0-.49-1c-1.12-1-1.34-2.36-1.62-4.08,0-.13-.05-.27-.07-.4l.06-.06a16,16,0,0,1,1.29-1.06c1.93-1.29,2.49-3.19,3-4.86.15-.5.29-1,.46-1.43a3.63,3.63,0,0,0-.73-3.3l-.6-.74a17.15,17.15,0,0,0-3.59-3.68,4.65,4.65,0,0,1-1.93-2.72,5.42,5.42,0,0,0-1.77-2.34c-1.85-1.57-2.86-2.78-2.55-4.31a1.43,1.43,0,0,0-.29-1.2c-.45-.58-.91-1.11-1.35-1.63a20.94,20.94,0,0,1-2.28-3c-.39-.69-.83-1.34-1.25-2-1.1-1.65-2.15-3.2-2.15-5.12a4.62,4.62,0,0,0-.73-2.18c-.11-.2-.22-.41-.31-.61a9.41,9.41,0,0,0-3.15-3.72l-.42-.34a1.54,1.54,0,0,0-.49-.79c-2.24-1.83-4.26-5.23-3.57-7.21a3.12,3.12,0,0,0-1-3.43l-.22-.17a10,10,0,0,0-2.78-1.74c-3.15-1.13-3.36-1.42-3.24-4.49a4.11,4.11,0,0,0-1.09-3.17,7.89,7.89,0,0,1-1.91-2.93c-.23-.48-.46-1-.73-1.47-.43-.79-.37-.86-.15-1.13a3.8,3.8,0,0,0,.44-3.22c-.46-1.47-1-2.9-1.53-4.41-.19-.49-.37-1-.56-1.51h0a13.43,13.43,0,0,0,3.46-1.3c2.48-1.5,4.26-1.78,6.13-.95a3.15,3.15,0,0,0,4.1-1.31,1.55,1.55,0,0,0,.29-.92c1.65.85,3.35,1.71,5.06,2.49a6.61,6.61,0,0,0,2.64.73,2.74,2.74,0,0,0,.95-.15,2.25,2.25,0,0,0,1.38-1.2,2.91,2.91,0,0,0,.12-.39,2.39,2.39,0,0,1,.67,1.13c.08,2.94,1.35,4.28,4.38,4.61A4.55,4.55,0,0,1,182,199a5.56,5.56,0,0,0,3.19,1.25,4.43,4.43,0,0,0,3.32-1.8l.19-.07a4.62,4.62,0,0,0,.83-.42l.16-.11a3.08,3.08,0,0,0,1.44-1.69l.06-.22a20.56,20.56,0,0,0,.54-2.51,16.58,16.58,0,0,0,7.29,8.73,11.53,11.53,0,0,1,1.76,1.37,63.59,63.59,0,0,0,13.58,9.29c3,1.58,4.49,3.28,5,5.68a4.9,4.9,0,0,0,3.25,3.74l.43.16a7,7,0,0,0,3.25.66,3.09,3.09,0,0,1,3.09,1.14,4,4,0,0,0,1.63,1.17,3.86,3.86,0,0,1,.55.29,4.55,4.55,0,0,1,1.16,1c.56.87,1.07,1.75,1.61,2.68.37.65.74,1.29,1.12,1.92,1.27,2.09,3.34,2.91,5.38,3.48,1.64.47,2.3,1.19,2.4,2.67a5.94,5.94,0,0,0,1.12,2.75,16.72,16.72,0,0,0,1.91,2.47c.27.29.53.63.81,1a9.79,9.79,0,0,0,1.85,2c1.32,1,2.7,1.86,4,2.72.59.38,1.17.75,1.75,1.14l.11.07a6.46,6.46,0,0,0,2.39,2.66,4.7,4.7,0,0,1,1.36,1.28c.08.14.16.31.25.47.54,1,1.15,2.25,2.4,2.35.69.05,1,.41,1.7,1.33a8.76,8.76,0,0,0,.89,1.1l.23.24c1.5,1.55,2.2,1.88,3.92,1.33v.1a3.89,3.89,0,0,0,1.9,3.73,1.45,1.45,0,0,0,1.37,0l.35-.18a4.39,4.39,0,0,0,.71.86,4.81,4.81,0,0,0,1.21.75l.4.2c.08.15.15.3.22.46a3.09,3.09,0,0,0,2.93,2.2,4.8,4.8,0,0,0,2.16-.79,16.32,16.32,0,0,0,1.19,1.34c.77.77.52,1.29.41,1.51a4.44,4.44,0,0,0,0,3.72,6.44,6.44,0,0,1,.34,2.32,3.56,3.56,0,0,0,2.19,3.4l.28.13c.21,2.23.78,2.9,3.44,3.28.79.11.95.25,1.12.58a3.71,3.71,0,0,0,1.14,1.21c-.16,2.35-.29,5.22,2.63,7.21a2.14,2.14,0,0,1,.6.63,4.31,4.31,0,0,0,2.42,3.72l.49.33a4,4,0,0,0,3.22.74,4.14,4.14,0,0,0,2.73-2c.27-.44.44-.59,1.32-.51a2.71,2.71,0,0,1,2.61,2.43,3.27,3.27,0,0,0,.59,1.57c.43.59.89,1.11,1.37,1.67l.53.61a1.46,1.46,0,0,0,1.56.44l1.3-.41,3.88,2a1.49,1.49,0,0,0,1.56-.13l1.35-1c1.08-.79,2.1-1.53,3.09-2.38a12.29,12.29,0,0,0,1.4-1.52,9.58,9.58,0,0,1,1.08-1.17l.05,0a2.15,2.15,0,0,1,2.87-.11c2.65,2.39,3.95,4.6,4.35,7.37a1.48,1.48,0,0,0,1.45,1.26h0a2.18,2.18,0,0,0,1.08,2.09c.84.39,1.2,1.15,1.7,2.35.14.34.28.68.44,1a1.48,1.48,0,0,0,1.08.81l.2,0a2.2,2.2,0,0,0,1,0c1.21-.29,1.64-.26,2.37.49a5.22,5.22,0,0,0,4.82,1.12l2.47,3.94a1.39,1.39,0,0,0,.15.19,3.05,3.05,0,0,0-.56,1.87A4,4,0,0,0,348.12,322.55Z"/><path class="cls-2" d="M128.35,138.37a20.56,20.56,0,0,1,2.47-13.48,6.33,6.33,0,0,0,.71-3.74c-.39-3.32-.84-6.69-1.26-9.94q-.47-3.54-.92-7.09a4.88,4.88,0,0,1,.1-1.13c0-.24.08-.49.11-.73a14.85,14.85,0,0,0-1.57-8,41.24,41.24,0,0,0-3-5c-.43-.64-.86-1.29-1.28-2-.14-.22-.28-.52-.44-.83s-.32-.64-.51-1c.79-.32,1.67-.63,2.09-.76h0c.38.72.8,1.41,1.2,2.08a14,14,0,0,1,2.3,5.31,20.65,20.65,0,0,0,1.1,4c.19.54.38,1.08.54,1.63.11.35.23.7.34,1.05a16.11,16.11,0,0,1,.61,2.13,10.73,10.73,0,0,0,2.25,4.79,12.8,12.8,0,0,1,1.64,3.57l.36,1a9.17,9.17,0,0,0,2.19,3.73c1.66,1.57,2,3.83,2.21,6a1.78,1.78,0,0,1-1.12,1.78,7.15,7.15,0,0,0-3.92,4.87l-.44,1.5c-1.21,4.06-2.47,8.25-2.47,12.74,0,1.46-.3,1.93-.81,2.25a3,3,0,0,0-1.39,3.41,10,10,0,0,0,4.13,6.71,18.69,18.69,0,0,1,5.91,6,4.1,4.1,0,0,0,3.6,2.35c.67,0,1.33.09,2,.15a13.87,13.87,0,0,0,6.63-.49,17.4,17.4,0,0,1,4.82-.82c.64,0,1.28-.1,1.91-.17a1.12,1.12,0,0,1,.77.11,1.27,1.27,0,0,1,.3.82,19,19,0,0,1,0,3.69,4.12,4.12,0,0,0,1.62,3.95c1.08.77,1,1.09.89,1.36a1.47,1.47,0,0,0,.79,1.79c2,.92,2.62,1.71,2.54,3.37a6.45,6.45,0,0,0,1.47,3.71c.18.28.36.55.52.82.48.82,1,1.61,1.5,2.38a30.72,30.72,0,0,1,2.4,4.12,8.42,8.42,0,0,1,.42,3.13c0,.39,0,.79.05,1.17a2.13,2.13,0,0,0,.06.45c-.16-.07-.35-.14-.57-.25-2.1-1-4.22-2.05-6.26-3.1l-.11-.06a1.47,1.47,0,0,0-2,.63c0,.08-.06.16-.09.23a1.26,1.26,0,0,1-.24-.3,12.27,12.27,0,0,0-2.92-3.69,3.42,3.42,0,0,1-1-1.39,7.69,7.69,0,0,0-5-4.85,4.33,4.33,0,0,1-1.87-1.25,6.56,6.56,0,0,0-5.84-3,2.46,2.46,0,0,1-1.93-.56,11.06,11.06,0,0,0-7.84-2.82h-.29c-.46-.42-.95-.81-1.41-1.18-1.6-1.29-3-2.39-3.47-4.24a3.44,3.44,0,0,0-3-2.35l-.29,0c-1.07.06-1.11,0-1.17-.13a7.23,7.23,0,0,1-.72-2.5c-.23-2.34-.33-4.7-.42-7.11a4.13,4.13,0,0,1,.11-1.42,16.08,16.08,0,0,0,1.31-3.43,16.49,16.49,0,0,1,.75-2.19A14.08,14.08,0,0,0,128.35,138.37Z"/><path class="cls-2" d="M134.86,68.45c1.35-1.18,2.73-2.32,4.2-3.53l.28-.24c.41,2.4.84,4.87,1.22,7.33a7.87,7.87,0,0,0,4.28,5.88c.4.22.78.46,1.17.69a22.43,22.43,0,0,0,2.38,1.3,4,4,0,0,0,3.15.05c.72-.37,1-.4,1.65.58a2.59,2.59,0,0,0,.8.77l.24.17a1.46,1.46,0,0,0,1.35.25l1.93-.62a1.3,1.3,0,0,1-.14.75,4.43,4.43,0,0,0,1.24,5.69c.23.18.82.66.33,2.38a8.69,8.69,0,0,0-.21,1.12c-.13,1-.17,1-.55,1.09a3.38,3.38,0,0,0-2,2c-.74,1.53-1.42,1.88-3.07,1.55l-1.83-.32-.6-.1a1.46,1.46,0,0,0-1.41.54c-.24.31-.48.59-.71.85a9.7,9.7,0,0,0-1.38,1.93c-.11.23-.22.45-.34.67-.87,1.69-2.07,4-.54,6.67.91,1.6.91,2.1.59,2.5a1.46,1.46,0,0,0-.11,1.71l2.67,4.21a1.48,1.48,0,0,0,1.32.68,6.12,6.12,0,0,0,4-2.13l.28-.27a20.92,20.92,0,0,1,1.51,2.34,4.82,4.82,0,0,0,5.2,2.49l.54-.08a6.2,6.2,0,0,1,.68-.07,6.55,6.55,0,0,0,4.28.21q.25.63.51,1.23c1.12,2.61,2.07,3.2,4.83,3a9.46,9.46,0,0,1,1.17,0,7.74,7.74,0,0,1,.17,1,9,9,0,0,1-.21,2.73,4.94,4.94,0,0,0,1.16,4.43,26.72,26.72,0,0,1,3.43,4.7,5.36,5.36,0,0,1,.05,2.33l0,.47c-.08.81-.22,1.61-.37,2.47s-.28,1.58-.37,2.41a7.19,7.19,0,0,0,1.25,5.29,3.71,3.71,0,0,1,.18.58,3.37,3.37,0,0,0,.1.34l.71,2.56.21.78a8.57,8.57,0,0,1-.6.75c-1.51,1.57-2.91,4.25-1,8.08a4.88,4.88,0,0,1,.36,2.07l0,.42a26.21,26.21,0,0,0,.78,4.66c.14.62.28,1.24.4,1.87.07.35.15.71.22,1.07a22.65,22.65,0,0,1,.46,2.67,7.81,7.81,0,0,0,6.55,7.32,3,3,0,0,1,1.86.86,3,3,0,0,1,0,2c-.14.55-.22,1.08-.31,1.6-.05.31-.1.61-.16.91-.15.76-.31,1.51-.49,2.35l-.26,1.19a1.5,1.5,0,0,0,.17,1,7.15,7.15,0,0,0,.43.63,3.66,3.66,0,0,1,.5.77,11.48,11.48,0,0,1-.53,3.15h0a3.3,3.3,0,0,1-.3.22l-.19.13-.25.11a2.92,2.92,0,0,0-1.25.8c-.9,1.06-1.23,1.19-2.63.17a6.66,6.66,0,0,0-3.22-1c-1.66-.18-1.73-.37-1.77-1.78,0-1.79-1.5-3.16-2.78-4.37-.42-.4-.82-.78-1.09-1.1a1.27,1.27,0,0,0-.27-.25,8.17,8.17,0,0,0-.62-2.69,32.85,32.85,0,0,0-2.61-4.52c-.49-.74-1-1.51-1.43-2.26-.18-.31-.39-.63-.6-.95a5.08,5.08,0,0,1-1-2,5.71,5.71,0,0,0-3.27-5.68,4.54,4.54,0,0,0-2.18-3.36c-.27-.18-.48-.41-.4-1.3a22.51,22.51,0,0,0,0-4.26,4,4,0,0,0-1.39-2.8,3.83,3.83,0,0,0-2.93-.74c-.6.07-1.21.12-1.81.17a19.91,19.91,0,0,0-5.64,1,11.28,11.28,0,0,1-5.3.31c-.72-.06-1.46-.14-2.23-.16-.35,0-.73-.12-1.12-.82a21.57,21.57,0,0,0-6.77-7,7.05,7.05,0,0,1-2.95-4.83,1.38,1.38,0,0,1,0-.36l.09-.06a5.15,5.15,0,0,0,2.19-4.73c0-4.07,1.14-7.88,2.35-11.92l.44-1.51a4.19,4.19,0,0,1,2.32-3,4.72,4.72,0,0,0,2.83-4.66c-.2-2.67-.72-5.69-3.11-8a6.22,6.22,0,0,1-1.46-2.62l-.34-1a15.44,15.44,0,0,0-2.08-4.38,7.89,7.89,0,0,1-1.7-3.54,18.07,18.07,0,0,0-.71-2.53c-.1-.32-.21-.64-.31-1-.18-.58-.38-1.16-.58-1.75a18,18,0,0,1-1-3.47,16.48,16.48,0,0,0-2.69-6.44c-.44-.72-.85-1.4-1.21-2.1a2.43,2.43,0,0,0-.81-.85l.59-1.22C129.32,76.79,132.23,70.76,134.86,68.45Z"/><path class="cls-2" d="M116.18,90c.21-.86.8-1.44,2-1.95.39-.18.77-.4,1.14-.61a9.83,9.83,0,0,1,.9-.48c.16.24.35.64.49.91s.36.73.58,1.08c.43.68.87,1.35,1.32,2a38,38,0,0,1,2.75,4.58,11.74,11.74,0,0,1,1.3,6.43c0,.2,0,.39-.08.59a6.57,6.57,0,0,0-.11,2c.29,2.37.6,4.73.91,7.1.43,3.25.87,6.6,1.25,9.9a3.39,3.39,0,0,1-.32,1.92,23.42,23.42,0,0,0-2.85,15.33c.29,2.26.45,4.3-.53,6.48a19.44,19.44,0,0,0-.89,2.56,14.27,14.27,0,0,1-1.06,2.84,5.45,5.45,0,0,0-.48,2.95c.09,2.45.19,4.86.43,7.29a10.2,10.2,0,0,0,1,3.54c1,1.89,2.83,1.79,4,1.72H128a1.29,1.29,0,0,1,.27.25c.76,2.72,2.71,4.29,4.44,5.68.5.4,1,.78,1.42,1.19a3,3,0,0,0,2.17.65A8.21,8.21,0,0,1,142.1,176a5.28,5.28,0,0,0,4.07,1.3c1.3-.09,2.23.44,3.3,1.86a7,7,0,0,0,3.23,2.26,4.75,4.75,0,0,1,3.24,3.06,6.37,6.37,0,0,0,1.84,2.64,9.54,9.54,0,0,1,2.25,2.85,3.23,3.23,0,0,0,.27.44A9.66,9.66,0,0,0,153,192a10.7,10.7,0,0,1-2.72,1l-.37.1a1.45,1.45,0,0,0-1,1.62l-1.69.27a1.45,1.45,0,0,0-1.22,1.28,7.43,7.43,0,0,1-.53,2.6,7.92,7.92,0,0,1-2.51,1,5.73,5.73,0,0,0-2.63,1.6,25.33,25.33,0,0,0-2.09,2.71l-.25.34-.15,0a8.3,8.3,0,0,0-2-1.56,4.81,4.81,0,0,1-1.67-1.38,10.16,10.16,0,0,0-3-2.77c-.46-.33-.89-.63-1.27-1a3.2,3.2,0,0,1-1.3-3.38c.82-2,.87-3.65.13-4.9a5,5,0,0,0-3.55-2.14,11,11,0,0,1-.33-1.09,6.61,6.61,0,0,0-2.34-4.24,2.36,2.36,0,0,1-.23-.5,7.41,7.41,0,0,0-.35-.75l-.49-.92a18.75,18.75,0,0,0-1.44-2.46c-.74-1-.71-1.61-.43-2.24a6,6,0,0,0-.24-5.31c-.22-.46-.43-.92-.63-1.39l.21-.25c1-1.1,3.22-3.4,1.35-6.53a2.91,2.91,0,0,1,0-.81,44.88,44.88,0,0,0-.18-10.38,57.51,57.51,0,0,1-.4-7.1c.08-3,0-6-.18-9-.06-1.34-.11-2.68-.15-4a3.27,3.27,0,0,1,.07-.68,39.32,39.32,0,0,0,0-15c-.38-2.35-.65-4.77-.92-7.12-.2-1.78-.41-3.62-.66-5.44a9,9,0,0,0-1.2-3.53,1.45,1.45,0,0,0-.17-.86C115.72,96.46,115.75,91.72,116.18,90Z"/><path class="cls-2" d="M114.91,102.74c.24,1.71.44,3.47.63,5.17.27,2.38.54,4.84.94,7.27a36.51,36.51,0,0,1,.06,13.91,6.63,6.63,0,0,0-.14,1.4q.06,2,.15,4c.13,2.88.25,5.85.18,8.75a59.22,59.22,0,0,0,.41,7.46,41.59,41.59,0,0,1,.19,9.7,4.11,4.11,0,0,0,.32,2.68c.62,1,.45,1.58-.94,3.05-.21.23-.41.48-.63.75l-.29.36a1.47,1.47,0,0,0-.2,1.53l.31.71c.24.52.47,1.05.72,1.56a3.12,3.12,0,0,1,.22,2.83,4.89,4.89,0,0,0,.72,5.19,15.17,15.17,0,0,1,1.21,2.08c.17.33.34.66.52,1a4.9,4.9,0,0,1,.21.46,3.69,3.69,0,0,0,1.16,1.72c.71.51,1,1.2,1.26,2.54a14.14,14.14,0,0,0,.5,1.62c.07.2.14.4.2.59a1.47,1.47,0,0,0,1.22,1c1.67.2,2.16.63,2.3.87a3.13,3.13,0,0,1-.33,2.31A6,6,0,0,0,128,200c.47.4,1,.76,1.46,1.1a8.27,8.27,0,0,1,2.18,1.94,7.25,7.25,0,0,0,2.63,2.32,5.58,5.58,0,0,1,1.41,1.06,3.2,3.2,0,0,0,2.05,1,4.13,4.13,0,0,1,.44.1,1.47,1.47,0,0,0,1.61-.54c.29-.39.56-.77.83-1.15a22.8,22.8,0,0,1,1.86-2.41,2.78,2.78,0,0,1,1.28-.77c3.63-1,4.48-1.65,5-4.65,0,.13.09.25.13.37.54,1.47,1.05,2.86,1.49,4.27a1.48,1.48,0,0,1,0,.59,3.67,3.67,0,0,0-.07,4.3c.23.41.43.84.64,1.3a10.75,10.75,0,0,0,2.62,3.88,2.7,2.7,0,0,1,.12.87c-.18,4.36.84,5.81,5.17,7.36a7.3,7.3,0,0,1,1.94,1.27l.23.18a.24.24,0,0,1,.09.19c-.83,2.37.15,5,1.6,7.19a15.81,15.81,0,0,0-1.77-.74,3.63,3.63,0,0,1-2.56-1.86,8.26,8.26,0,0,0-4-4,1.48,1.48,0,0,0-1.89.54c-.15.24-.32.47-.48.7a6.48,6.48,0,0,0-1.18,2.21c-.18.73-.41.83-.91.88a6.7,6.7,0,0,0-4,2.21,10.74,10.74,0,0,1-1.07.93,10.8,10.8,0,0,0-2.84,3.6l-.23.41-.07.11a15.72,15.72,0,0,0-3.75-2.31,13,13,0,0,1-1.48-.79,13.29,13.29,0,0,0-3.72-3.28,10.87,10.87,0,0,1-3-2.62,1.46,1.46,0,0,0-2.21-.22l-1.25,1.18c-.46-1.26-.62-2-.18-2.84a3.17,3.17,0,0,0-.14-2.67l-.13-.31a11.16,11.16,0,0,0-1.46-2.67c-1.27-1.56-1.76-3.38-1.66-6.26a13.39,13.39,0,0,0-.8-4.33c-.09-.3-.19-.61-.27-.91a3.55,3.55,0,0,0-3.46-2.63c-2.86,0-5.76.05-8.57.11l-1.32,0a2.75,2.75,0,0,0-1,.23c.12-.63.26-1.29.41-2,.77-3.47,1.64-7.41.52-11v0a2.8,2.8,0,0,0,0-1c-.32-1.26-.68-2.48-1.07-3.83-.16-.53-.33-1.07-.51-1.6a19.76,19.76,0,0,1-.82-2.94,23.9,23.9,0,0,1,.95-11.52,2.28,2.28,0,0,1,.21-.44,3.64,3.64,0,0,0,2.27-3.45c.18-1.65,1-3.14,2.7-5.15a1.48,1.48,0,0,0,.34-1.21,1.5,1.5,0,0,0-.43-.8l.25-.31c.8-1.08,2.14-2.89.74-5-1.22-1.88-1.46-3.34-.79-4.88a1.65,1.65,0,0,0,.14-.79,21.81,21.81,0,0,1,2-7.82,14.84,14.84,0,0,0,1.47-9.1,2.08,2.08,0,0,1,0-1c.8-2.38.37-4.57,0-6.69l-.12-.61a7.65,7.65,0,0,1-.24-1.9c.32-4.19-1-8-2.2-11.27a8.94,8.94,0,0,0-1-2A36.55,36.55,0,0,0,114.91,102.74Z"/><path class="cls-2" d="M141.34,239.75a10.53,10.53,0,0,0-1,2.69,7.33,7.33,0,0,1-.91,2.3,20.44,20.44,0,0,0-2.5,6.36l-.27,1a4,4,0,0,0,1.39,4c.62.36.83.93,1.16,1.89.07.23.15.45.23.66a1.59,1.59,0,0,1,0,.5c-.33.24-.64.49-.95.73a5.36,5.36,0,0,1-2.51,1.43c-.06-.23-.11-.49-.16-.77a5.19,5.19,0,0,0-1.32-3,5.6,5.6,0,0,0-3.57-1l-.74-.05a6.91,6.91,0,0,0-2.68.29,12.5,12.5,0,0,0-1.53.61,8.15,8.15,0,0,1-1.34.52,7.52,7.52,0,0,0-1.91.77,8.91,8.91,0,0,0-2.25-1.19c-.52-.24-1.29-.59-1.57-.75l-1-1a26.68,26.68,0,0,1-2.68-2.91,22.33,22.33,0,0,1-1.42-2.32,18.73,18.73,0,0,0-2-3.15A46.29,46.29,0,0,1,104.37,235,6.69,6.69,0,0,0,99,230.68a2,2,0,0,1-1.92-1.48c-.77-2.14-1.43-4.11-2-6-.34-1.85.25-4.4.79-6.7a20,20,0,0,0,.77-4.94,3.23,3.23,0,0,1,0-1,2.15,2.15,0,0,1,.9-.36,38.37,38.37,0,0,1,4.45-.91l.75-.1a10.48,10.48,0,0,0,5.72-2l1.18,0c2.79-.06,5.67-.12,8.5-.11a.63.63,0,0,1,.65.5c.09.32.18.64.28,1a11.14,11.14,0,0,1,.68,3.38c-.08,2.55.13,5.53,2.31,8.21a8.26,8.26,0,0,1,1,2l.14.32a2.14,2.14,0,0,1,.12.37c-1,2.05-.3,3.82.28,5.39a16,16,0,0,1,.54,1.61,1.49,1.49,0,0,0,1,1,1.46,1.46,0,0,0,1.41-.35l1.79-1.69a18.64,18.64,0,0,0,2.69,2.08,10.69,10.69,0,0,1,3,2.59,6.39,6.39,0,0,0,2.56,1.69c1.12.55,3.21,1.57,3.48,2.38a1.45,1.45,0,0,0,.39.58A3.15,3.15,0,0,0,141.34,239.75Z"/><path class="cls-2" d="M109.61,266.08c-2.89-2.58-10.11-8.54-12.39-10.32-1.44-1.12-2.93-2.21-4.36-3.26-.89-.64-1.77-1.28-2.65-1.94s-1.58-1.23-2.35-1.86l-.47-.38c-.29-.24-.56-.49-.8-.7l-.3-.27a1.49,1.49,0,0,0-1.64-.2l-1.27.64c-1.08.54-2.09,1.05-3.1,1.62a3.6,3.6,0,0,0-1.63,1.91,8.68,8.68,0,0,1-2.13,3.14,3.46,3.46,0,0,0-.71-.78,38.19,38.19,0,0,0-3.31-2.22c-.45-.27-.9-.56-1.36-.85a1.46,1.46,0,0,0-1.67.06l-.27.2h0a12.23,12.23,0,0,0-1.52-3l-.05-.07c-1.39-1.86-2.15-3-1.59-4.62a1.45,1.45,0,0,0-.67-1.75,6.32,6.32,0,0,0-2.71-.83,3.6,3.6,0,0,1-.51-2c.27-.46.53-.88.81-1.29l.28-.41c1.28-1.88,2.73-4,2-7.09a1,1,0,0,1,.23.07c1.49.59,3.66,1.06,5.29-1.69a11.06,11.06,0,0,1,.83-.88,17.61,17.61,0,0,0,1.83-2,3,3,0,0,0,1.23-1c.7-.89,1.21-2.35-.28-4.27a4,4,0,0,1-.44-1.09c-.07-.23-.15-.47-.23-.69s-.15-.47-.22-.7-.19-.62-.3-.92-.29-.69-.44-1a5.6,5.6,0,0,1-.52-1.41c-.11-.74-.14-1.51-.18-2.32l0-.56h.12c1,.06,1.7.12,2.11.17a9.27,9.27,0,0,0,3.5,4.92,15.22,15.22,0,0,1,1.58,1.5c.28.32.55.66.82,1a16.27,16.27,0,0,0,2.34,2.52c2,1.62,4.51,3.19,7.77,2.51a8.28,8.28,0,0,0,.81-.24l.47-.14a.63.63,0,0,1,.66.43,7.24,7.24,0,0,0,.32,1.06s0,.08.07.13c.52,1.6,1.08,3.24,1.71,5a4.94,4.94,0,0,0,4.29,3.4,3.79,3.79,0,0,1,3.08,2.56,49.15,49.15,0,0,0,7.88,13,17.36,17.36,0,0,1,1.71,2.68,22.72,22.72,0,0,0,1.64,2.66,30.53,30.53,0,0,0,2.95,3.24q.54.51,1.05,1.05a8.45,8.45,0,0,0,2.36,1.27c.53.24,1.32.6,1.56.74l.12.07a5.43,5.43,0,0,0-.22,1.21,4.37,4.37,0,0,0-4.52.38,8.12,8.12,0,0,1-2.37.79A7,7,0,0,0,109.61,266.08Z"/><path class="cls-2" d="M52.75,230.28c-.29-1.3-1.51-1.93-3.49-2.83a16.61,16.61,0,0,0-2-.78,2,2,0,0,1-1.6-1.69,9,9,0,0,0-1.39-2.88c-.41-.63-.85-1.2-1.28-1.76a1.68,1.68,0,0,0,.27-.42,10.73,10.73,0,0,1,.88-1.31A9.51,9.51,0,0,0,48,211.34a3.71,3.71,0,0,1,2.1-3c.92-.56,1.8-1.19,2.64-1.8l1.14-.81a1.44,1.44,0,0,0,.61-1.08,5.61,5.61,0,0,0,1.8,1c1.23.44,1.48,1.12,1.56,1.66a13.32,13.32,0,0,0,2.85,5.85,12,12,0,0,1,2.26,4.21,1.81,1.81,0,0,0,.63,1c1.38,1.21,2,2.34,2,3.57a1.48,1.48,0,0,0,.88,1.4l1.28.55,2.27,1-.41.41a8.16,8.16,0,0,0-1.28,1.47c-.48.8-.58.89-1.68.45a3.2,3.2,0,0,0-3.33.42,2.87,2.87,0,0,0-.85,2.9,4,4,0,0,1-.39,2.87,1.4,1.4,0,0,0-.81,0c-1,.32-2.23.6-3.4.87a31.29,31.29,0,0,0-3.84,1l-.83.31a1.52,1.52,0,0,1-1.55-.24,1.48,1.48,0,0,1-.5-1.48,3.81,3.81,0,0,1,.5-.66l.09-.09A3.29,3.29,0,0,0,52.75,230.28Z"/><path class="cls-2" d="M68.67,185.23c-.1-.34-.2-.68-.27-1-.34-1.5-.29-2,.28-2.5a4.23,4.23,0,0,0,.9-1.22l.55.23a4.74,4.74,0,0,1,1.06.52l.5.64a5.38,5.38,0,0,1,.9,1.36l.09.27c.77,2.27,1.35,2.66,3.84,2.66h.19a5.71,5.71,0,0,0,4.9,1.36c.61.75,1.2,1.51,1.78,2.24a50.07,50.07,0,0,0,5.19,5.95,4.76,4.76,0,0,1,1.19,2.61,9,9,0,0,0,1,2.81c-.9,2.07.7,5.14,1.91,7.45.23.45.45.87.54,1.09a1.37,1.37,0,0,0,.46.57,7.05,7.05,0,0,0-.06,1.4,19,19,0,0,1-.7,4.17,37.2,37.2,0,0,0-.9,4.84,3.37,3.37,0,0,0-1.18.05,6.52,6.52,0,0,0-.72.21c-.17.05-.33.11-.51.15-1.93.4-3.52-.48-5.32-1.92a13.66,13.66,0,0,1-1.89-2.07c-.29-.36-.59-.73-.89-1.08a17.6,17.6,0,0,0-1.88-1.8c-1.56-1.35-2.52-2.27-2.64-3.92s-1.85-1.71-4.72-1.88H72a1.61,1.61,0,0,0-.31,0,12,12,0,0,1,.39-5.42c.3-1.31.54-2.63.76-3.9.1-.55.19-1.08.29-1.61a1.49,1.49,0,0,0-.7-1.54,7.47,7.47,0,0,1-3.64-4.57l-.07-.26a4.58,4.58,0,0,1-.14-.53C69.62,188.58,69.1,186.73,68.67,185.23Z"/><path class="cls-2" d="M66.52,154.93c2.34-1.7,5-3.62,6.48-4.44a7.71,7.71,0,0,0,3.73-3.77,22.79,22.79,0,0,1,5.76-8.16,7.74,7.74,0,0,0,1.06-1.23c.11-.16.23-.32.35-.47l1.8-2.23c1.6-2,3.26-4,4.94-6a6.18,6.18,0,0,1,1.89-1.44,5.14,5.14,0,0,0,3-4.55,3.65,3.65,0,0,1,.1-.53,5.41,5.41,0,0,0,.17-1.31c-.07-2.12,1.05-3.89,2.24-5.77l.44-.7a5.52,5.52,0,0,1,3.44-2.49,15.08,15.08,0,0,0,2.71-1c.39-.17.77-.35,1.16-.51l.65-.28a5.55,5.55,0,0,1,1.33-.48c1.81-.28,1.81-.28,2.44,1.5,1.08,3,2.31,6.5,2,10.07a9.8,9.8,0,0,0,.29,2.71l.12.59c.36,1.82.7,3.54.14,5.18a5,5,0,0,0-.1,2.44,11.89,11.89,0,0,1-1.22,7.34,24.69,24.69,0,0,0-2.26,8.94h0a7.74,7.74,0,0,0,1.13,7.4c.21.33.24.51-.66,1.72l-.18.23a3,3,0,0,0-.85,2.4,2.28,2.28,0,0,0,.18.52,11.3,11.3,0,0,0-2.55,5.74c-.1.92-.16.94-.49,1.05a3.42,3.42,0,0,0-1.85,2.21,26.71,26.71,0,0,0-1.07,12.93,21.2,21.2,0,0,0,.93,3.4c.16.5.33,1,.48,1.49.37,1.29.71,2.45,1,3.63v.06a2.74,2.74,0,0,0,.08,1.13c.94,2.87.15,6.45-.55,9.61-.27,1.21-.52,2.35-.68,3.44a1.41,1.41,0,0,0,.07.68c-.59.13-1.21.21-1.87.3l-.79.11a39.81,39.81,0,0,0-4.8,1,6.8,6.8,0,0,0-1.19.43c-.08-.16-.16-.33-.26-.51-1.42-2.73-2-4.39-1.85-4.89a1.86,1.86,0,0,0,.08-2.44,4.87,4.87,0,0,1-.93-2.26,7.46,7.46,0,0,0-2.05-4.09A46,46,0,0,1,85.7,188c-.74-.94-1.51-1.92-2.33-2.9a1.47,1.47,0,0,0-1.25-.53l-.5.05c-1.41.14-2.3.18-3-.68a2.27,2.27,0,0,0-1.93-.66h-1c-.07-.18-.15-.43-.23-.67l-.1-.27A7.45,7.45,0,0,0,74,180.05c-.15-.19-.3-.37-.44-.56A5.1,5.1,0,0,0,71.23,178a5.4,5.4,0,0,1-1.07-.51,1.46,1.46,0,0,0-1.26-.62,3.76,3.76,0,0,0-1.61-.6v-.13a4.1,4.1,0,0,0-.87-3c-.84-.82-.84-1.44,0-3,1.36-2.5,1.17-5.05-.58-7.8-.8-1.26-1.57-2.56-2.38-3.93l-.54-.91C64,156.79,65.21,155.88,66.52,154.93Z"/><path class="cls-2" d="M32.2,185.16a4.82,4.82,0,0,1,3.07-3.25,12.06,12.06,0,0,0,3.27-2.23c.35-.3.7-.61,1.06-.89,3.44-2.66,7.28-6,9.67-10.74.87-1.73,1.63-3.53,2.36-5.26l.69-1.63a9.79,9.79,0,0,1,.66-1.34,5.55,5.55,0,0,1,1,.28,7.26,7.26,0,0,0,6.6-.74l.33.55c.82,1.4,1.6,2.71,2.43,4,1.18,1.86,1.32,3.26.48,4.82-.63,1.15-2.08,3.84.43,6.4a6.49,6.49,0,0,1,.08,1.07,10.6,10.6,0,0,0,.08,1.24,1.43,1.43,0,0,0,.51.93,2.2,2.2,0,0,0,.82.53,7.18,7.18,0,0,0,.9.21l.3.06a1.53,1.53,0,0,1-.29.39c-1.92,1.8-1.43,4-1.13,5.28.08.39.2.78.31,1.17.41,1.46.62,2.34.06,3.29a3.22,3.22,0,0,0,0,2.6l.07.22a10.14,10.14,0,0,0,4.1,5.76l-.12.67c-.21,1.23-.44,2.51-.73,3.74a14.84,14.84,0,0,0-.38,6.78,17.84,17.84,0,0,1,.29,2.93c0,.84.08,1.72.21,2.61a8.33,8.33,0,0,0,.75,2.21,8.5,8.5,0,0,1,.36.82c.09.24.17.49.24.74s.17.58.28.86l.18.56a6,6,0,0,0,.93,2,2.87,2.87,0,0,1,.31.49,1.57,1.57,0,0,0-.43.15,2.61,2.61,0,0,1-.37-.14l-2.75-1.18-.44-.19a7.62,7.62,0,0,0-2.71-4.64,15.14,15.14,0,0,0-2.65-4.9,10.92,10.92,0,0,1-2.33-4.58,4.89,4.89,0,0,0-3.48-4,2.47,2.47,0,0,1-.92-.48,4.69,4.69,0,0,0-4.46-1.34,2.18,2.18,0,0,1-1.18-.21c-2.26-1.28-4.52-2.64-6.71-4l-1.8-1.09a2.77,2.77,0,0,1-.29-.22,3.49,3.49,0,0,0-1.36-.76c-2.11-.51-3.75-1.89-5.49-3.36-.58-.49-1.18-1-1.8-1.48C32,189,31.24,188.18,32.2,185.16Z"/><path class="cls-2" d="M24.86,229.46a1.47,1.47,0,0,0-1.7.56l-.13.17a2.1,2.1,0,0,0-.45.88,8.27,8.27,0,0,0-.18,1.39,1.49,1.49,0,0,0-1-.06c-.4.13-.81.29-1.23.45a6.82,6.82,0,0,1-2.17.59,12.67,12.67,0,0,1-3.24-.52c-.52-.12-1-.24-1.54-.34l-.92-.2a12.89,12.89,0,0,0-2.14-.39,3.37,3.37,0,0,1-3.5-2.82l-.12-.48a5.53,5.53,0,0,0-.66-1.79c-.81-1.25-.64-1.91-.11-2.58a1.48,1.48,0,0,0,.1-1.68l-1.06-1.72.56-.58c1-1.09,2.12-2.21,3.21-3.26l.43-.4a8.28,8.28,0,0,0,2.26-2.88,4.38,4.38,0,0,1,3.37-2.5,1.44,1.44,0,0,0,1-.69,1.41,1.41,0,0,0,.13-1.17l-.19-.67c-.15-.49-.28-1-.47-1.42-.07-.2-.11-.28.19-.78a13.67,13.67,0,0,0,1.24-3.3l.13-.46a4.52,4.52,0,0,0,.09-1.61l0-.33c-.11-3.13,0-5.11,2.53-6.18a1.49,1.49,0,0,0,.81-.88,1.42,1.42,0,0,0-.11-1.19c-1.12-2-.89-3.45.82-5.29a8,8,0,0,0,1.79-2.77c.54-1.51,1.84-2.31,3.34-3.23l.66-.41h.24a13.17,13.17,0,0,1,1.17,4.18,1.43,1.43,0,0,0,1,1.21,5.8,5.8,0,0,0,2.5,6c.57.43,1.12.9,1.7,1.39,1.91,1.61,3.88,3.27,6.63,4l.26.2a6.09,6.09,0,0,0,.63.46l1.8,1.08c2.2,1.33,4.49,2.7,6.77,4a5.13,5.13,0,0,0,2,.58l-.26.18c-.84.61-1.63,1.18-2.46,1.68A6.6,6.6,0,0,0,45,211.15a6.63,6.63,0,0,1-2.79,5.19,9.08,9.08,0,0,0-1.75,2.5s0,0,0,0l-.17.07L39,219.6c-1,.54-2.13,1.11-3.17,1.75-.55.34-2.33,1.57-2,3.08a10.47,10.47,0,0,1,.17,1.67,7,7,0,0,0,1.48,4.69,9.94,9.94,0,0,1,1,1.59c.13.24.27.48.41.71a2.39,2.39,0,0,1,.46,1.3,3.81,3.81,0,0,1-2-.31c-.37-.11-.74-.23-1.12-.32a16.28,16.28,0,0,1-7.43-3.46,3.78,3.78,0,0,0-1.63-.74Z"/><path class="cls-2" d="M61.77,258.75a1.45,1.45,0,0,0-1.11,1.74c.25,1.14,0,1.24-.13,1.3a1.85,1.85,0,0,1-1.51-.54,4,4,0,0,1-.36-1.56,4.23,4.23,0,0,0-2.89-4.23,3.4,3.4,0,0,1-2.45-2.6,4.88,4.88,0,0,0-1.86-2.51c-.16-.14-.32-.27-.47-.42a5.74,5.74,0,0,1,.43-1.39,4.66,4.66,0,0,0-.44-5.09,1.48,1.48,0,0,0-1.59-.58c-1,.26-1.71-.06-2.89-1.27a15.51,15.51,0,0,0-1.73-1.55c-2.82-2.16-4.32-2.1-7,.29a1.39,1.39,0,0,0-.47.89,2.13,2.13,0,0,1-1-.62l-.07-.06a1.5,1.5,0,0,0-.63-.37,4.47,4.47,0,0,0-2.13,0,3.21,3.21,0,0,1-3-.75c-.73-.61-1.94-1.56-2.74-2.11a5.39,5.39,0,0,1-2.4-4.47,19.38,19.38,0,0,0,8.29,3.77c.3.07.6.17.91.26a5.71,5.71,0,0,0,4.74-.08,1.5,1.5,0,0,0,.56-.53,4.44,4.44,0,0,0-.33-4.69c-.13-.21-.25-.43-.37-.64a12.24,12.24,0,0,0-1.39-2.09c-.62-.7-.69-1.55-.76-2.88a16.28,16.28,0,0,0-.13-1.67,3.36,3.36,0,0,1,.57-.46c1-.58,1.93-1.09,3-1.64l.2-.1a19.81,19.81,0,0,1,1.17,1.6,6.73,6.73,0,0,1,1,1.91,4.89,4.89,0,0,0,3.57,3.85,16.72,16.72,0,0,1,1.73.65c.32.15,1.14.52,1.62.81l-.23.27-.08.09a4.51,4.51,0,0,0-1.17,2,4.39,4.39,0,0,0,1.5,4.27,4.45,4.45,0,0,0,4.5.72L55,238a30.89,30.89,0,0,1,3.48-.92l1.4-.33-.21.34a4.78,4.78,0,0,0-.06,3.73,4.59,4.59,0,0,0-2.94,2.24,6,6,0,0,0-.71,4.69l.13.41a8.93,8.93,0,0,1,.52,2.15c.21,3.07,1.77,5.46,4.76,7.29.71.43.71.54.72.65a3,3,0,0,0,0,.44A1.22,1.22,0,0,0,61.77,258.75Z"/><path class="cls-2" d="M101.38,275.15l-.56-.44a5.86,5.86,0,0,0,.23-1.76c-.17-3.15-2.06-5-5.31-5.15l-.55,0c-.33,0-.66-.05-1-.06-2.52,0-3.5-.37-4-2.13s-2.13-2.8-4.3-2.68l-1.07,0a8.24,8.24,0,0,0-5.41,1.44,5,5,0,0,1-.71,0H78.3c-.56,0-1.13,0-1.7,0a19.12,19.12,0,0,0-3.68.21,6.6,6.6,0,0,0-2.37,1.06l-.64-.8c-1.15-1.45-2.34-3-3.55-4.4l-.26-.3c-.7-.82-1.1-1.31-1.12-2a3.72,3.72,0,0,0-2.12-3.06c-2.15-1.32-3.22-2.9-3.36-5a11.89,11.89,0,0,0-.66-2.85l-.12-.38a3.14,3.14,0,0,1,.42-2.3,1.76,1.76,0,0,1,1-.9,12.25,12.25,0,0,1,1.71-.21l.35.07h.13l.27,0a1.65,1.65,0,0,1,.31,0c-.28,2.46,1.1,4.3,2.33,6l0,.07a10.49,10.49,0,0,1,1.21,2.51c.21.53.42,1.08.68,1.65a1.49,1.49,0,0,0,1,.83,1.47,1.47,0,0,0,1.25-.25l1-.73L71,254a36.51,36.51,0,0,1,3,2,4.06,4.06,0,0,1,.44.83c.14.3.29.63.46.95a1.51,1.51,0,0,0,1.16.75,1.46,1.46,0,0,0,1.27-.55c.38-.47.8-.93,1.21-1.37a11.63,11.63,0,0,0,2.9-4.37.91.91,0,0,1,.28-.27c.94-.53,1.93-1,3-1.55l.4-.2.45.38L86,251c.79.65,1.6,1.31,2.44,1.94l2.68,2c1.42,1,2.89,2.11,4.28,3.2,2.28,1.77,9.48,7.72,12.28,10.22,11.48,10.08,7.16,11.42,6.35,12.28-.09.1-5.05-3.76-5.13-3.66-.74.5-5.18-4-5.7-3.55A12,12,0,0,0,101.38,275.15Z"/><path class="cls-2" d="M626.22,363c-3.46,5.09-7.59,7.57-13,7.82a29.13,29.13,0,0,0-6.89,1.3,35.42,35.42,0,0,1-8.42,1.64c-2.52.1-6.15.66-8.6,4.37a10.13,10.13,0,0,1-2.47,2.21l-.5.37c-2.83,2.08-5.75,4.13-8.49,6a5.65,5.65,0,0,0-2.42,4.42c-.27,2.86-.66,5.69-1,8.09a11.9,11.9,0,0,1-.42,1.69c-.1.35-.2.7-.29,1a1.28,1.28,0,0,1-1.32,1.14,12.16,12.16,0,0,0-6.45,2.56,5.71,5.71,0,0,1-4.36,1c-3.36-.43-6.79-.67-10.11-.91l-1.86-.13a10.28,10.28,0,0,0-3.16.24,7.36,7.36,0,0,1-4.5-.24,4.59,4.59,0,0,0-5.83,2.14,21.59,21.59,0,0,0-1.13,2.33l-.42.95c-1.3,2.79-2.53,3.7-4.7,3.44-3.06-.35-5.12,2-5.8,2.74a18.24,18.24,0,0,0-3.61,5.65,16.08,16.08,0,0,1-5.62,7.88,9.79,9.79,0,0,0-4,7,18.66,18.66,0,0,0,1,10.82,1.05,1.05,0,0,1-.37,1.47c-3.9,2.6-7.12,3.7-10.45,3.56a2.5,2.5,0,0,1-1-.3c-.8-.41-1.59-.85-2.37-1.29s-1.59-.9-2.4-1.32a1.11,1.11,0,0,1-.71-1.26,6,6,0,0,0-.76-3.43,4,4,0,0,0-2.79-1.84,4.15,4.15,0,0,0-3.27.93,38.61,38.61,0,0,0-4.47,4.3c-1,1.13-1.94,2.32-2.84,3.47-.76,1-1.55,2-2.36,2.91-1.15,1.35-2.38,2.67-3.67,4.06l-1.24,1.33-.84-.21c-1.83-.45-3.56-.88-4.95-2.27a21.78,21.78,0,0,0-4.2-3.08l-.92-.57c-1.46-.92-1.64-1.43-1.6-1.84a1.48,1.48,0,0,0-.56-1.28l-1.33-1c-1.09-.85-2.1-1.65-3.13-2.42a5.39,5.39,0,0,0-1.81-.93c-2.11-.58-2.17-1-2.11-1.69a1.46,1.46,0,0,0-1-1.5,6,6,0,0,0-2.06-.4,3.79,3.79,0,0,0-3.18,1.66l-.05.07-.14.19c-2.35.22-3.73,1.8-4.85,3.18a10,10,0,0,0-4.15,1.31,14.73,14.73,0,0,1-1.59.73,11.57,11.57,0,0,1-6.31,0c-.22-.05-.79-.17-1.22-1.44a22.05,22.05,0,0,0-1.4-3.45c-2.07-3.88-5.6-6-10.78-6.42a4.56,4.56,0,0,0-4.43,2.37,19.45,19.45,0,0,0-3,8.55l0,.22c0,.12,0,.27,0,.4-3.48-2.1-5.86-2-9.61.34a11.62,11.62,0,0,1-3.81,1.29,2.68,2.68,0,0,1-1-.57,11.3,11.3,0,0,1-1.21-1.26c-.34-.39-.7-.8-1.1-1.19a7.69,7.69,0,0,0-2.47-1.76,2.55,2.55,0,0,1-1.61-1.53,5.22,5.22,0,0,0-3.24-3.25c-3.13-.91-5-2.39-5.95-4.8a1.47,1.47,0,0,0-1.7-.87,10.56,10.56,0,0,0-5.39,2.71c-1.13,1.14-1.54.81-2,.43-3.7-3-7.27-2.13-10.28-.93-3.33,1.33-4.05,1-5.56-2.62a3.37,3.37,0,0,0-.44-.74l-.28-.39a1.45,1.45,0,0,0-1.18-.65,1.5,1.5,0,0,0-1.22.61l-.54.73c-.39.53-.76,1-1.1,1.54-.5.74-.77.65-1.07.55a.44.44,0,0,1-.17-.08s-.09-.17,0-.81.12-1.46.15-2.33a5.76,5.76,0,0,0-2-4.91,5.87,5.87,0,0,0-5.33-.74l-.72.19V428.3a1.47,1.47,0,0,0-1.33-1.46l-.71-.08a6,6,0,0,0-1.71-.08,4.14,4.14,0,0,1-4.6-2.25,4.18,4.18,0,0,0-4.2-2.36,4.51,4.51,0,0,0-3.36,1.74,4.3,4.3,0,0,1-3.06,2l-.5,0c-3,.3-5,.39-6.69-1.35a9.72,9.72,0,0,0-5.43-2.57,31.72,31.72,0,0,1-3.78-1c-.83-.26-1.7-.53-2.58-.76-2.48-.64-5.11-1.26-8-1.9a3,3,0,0,1-1.79-1.21c-1.66-2.05-2.84-3.69-2.82-6.06a1.51,1.51,0,0,0-.49-1.11,1.49,1.49,0,0,0-1.16-.36l-1.12.13c-.75.08-1.45.16-2.15.3s-.9,0-1.14-.47c-.41-.76-.87-1.48-1.32-2.17l-.3-.46a5.1,5.1,0,0,0-3.41-2.61c-2-.33-3.79.88-5,1.82a5,5,0,0,0-1.09,1.28c-.12.19-.24.36-.34.49l-.05.05v0c-.51-1.29-1-2.59-1.44-3.85l-.59-1.61a1.45,1.45,0,0,0-1.22-.94c-2.92-.32-3.61-.17-4.9,2.31l-.1.2a39.25,39.25,0,0,1-3.68-2.57,1.44,1.44,0,0,1-.59-.88,1.55,1.55,0,0,1,.51-1.05,7.8,7.8,0,0,1,.58-.53c.23-.2.46-.4.67-.61a3.58,3.58,0,0,0,.48-4.47,3,3,0,0,0-1.77-1.56,3.33,3.33,0,0,0-2.57.25c-.86.44-1.28.47-2.3-1a7.3,7.3,0,0,0-8.46-3.15c-.52.14-1.07.24-1.64.35a20.9,20.9,0,0,0-2.76.68c.19-1.94-.58-3.46-2.4-4.9a3.83,3.83,0,0,0-3.46-.77,3.69,3.69,0,0,0-2.4,2.47,5.06,5.06,0,0,0-.21,1.4,3.82,3.82,0,0,1-.07.6l-.07.24a17.18,17.18,0,0,1-1.14,3.1,1.31,1.31,0,0,1-.35.22,1.7,1.7,0,0,1-.12-.47,13.12,13.12,0,0,0-.92-3.41,3.12,3.12,0,0,0-6.05,1.26,9.66,9.66,0,0,0,0,1.08,23.82,23.82,0,0,1-2.77-.87l-.61-.22a33.93,33.93,0,0,1-3.35-1.45l-.43-.2a4.59,4.59,0,0,0-.58-4.71,6.34,6.34,0,0,0-3.66-2.23l-.18-.06c-.14-3.59-2.6-5.69-4.89-7.14l2.39-1.49c2-1.23,2.77-3.18,2-4.95a4.77,4.77,0,0,0-2.34-2.07l-.36-.2a8.52,8.52,0,0,0,.33-1.08,15.12,15.12,0,0,0-.36-6.66c-.08-.36-.15-.71-.22-1.07a3.43,3.43,0,0,0-.76-1.58l-.51-.58c-3.11-3.56-6.64-7.59-13-7a31.1,31.1,0,0,1-8.48-.55,7.38,7.38,0,0,1-2.72-1.68l-.59-.47c-1.49-1.17-3.19-2.51-5.61-2.4a12.35,12.35,0,0,0-3.81.62,2,2,0,0,1-2.35-.54,15.43,15.43,0,0,0-2.55-1.75c-.19-.1-.37-.21-.55-.32l.14-.09c2.06-1.3,2.51-2.71,2.53-3.66a4.12,4.12,0,0,0-2.16-3.47,4,4,0,0,1-1.83-3.27l0-.13c0-.39-.1-.83-.11-1.07a9.73,9.73,0,0,1,.95-.41,3.9,3.9,0,0,0,2.69-4v-.1a2.38,2.38,0,0,0-.36-1.42c-1.16-1.72-2.53-3.71-3.94-5.67-.61-.86-1.25-1.68-1.87-2.48l-.81-1a1.47,1.47,0,0,0-1.48-.54l-1.38.33a20.8,20.8,0,0,1-3.95.71,3.64,3.64,0,0,0-1.65-3.83,4.17,4.17,0,0,0-4.67.21c-1.11.81-2.1,1.57-3,2.33a2,2,0,0,1-1.83.46,15.09,15.09,0,0,0-2.91-.12l.31-2.48a1.45,1.45,0,0,0-.9-1.54A3.33,3.33,0,0,1,139,305.8c-.35-1.58-.31-2.17.63-3,2.6-2.34,2.26-3.79.92-6.34-.12-.21-.23-.43-.34-.65a19.15,19.15,0,0,0-1-1.86,8.42,8.42,0,0,0-4.88-4l.06-.18c.06-.18.14-.36.21-.54a6.67,6.67,0,0,0,.5-1.58c.46-3.14-.73-5-3.86-6a7.69,7.69,0,0,1-1.44-.75l-.55-.33-.09-.07a2,2,0,0,0-1.57-.71c-1.08.08-1.38-.35-2.13-2.06l-.17-.38a3,3,0,0,0-.53-.79,3.15,3.15,0,0,1-.3-.36,1.49,1.49,0,0,0-1.1-.56,1.44,1.44,0,0,0-1.13.47l-.58.6c-.43.45-.88.92-1.29,1.44-.22.28-.4.45-1.19.27s-.7-.38-.72-.65c-.16-3.25-2.24-4.89-4.17-6.17a10.3,10.3,0,0,1-2.19-2.33l-.52-.66a4.22,4.22,0,0,1,3-2.42,10.66,10.66,0,0,0,3.25-1.15,1.54,1.54,0,0,1,2.36.31,3.16,3.16,0,0,0,.93.68l.4.24a1.46,1.46,0,0,0,2.24-1.24c0-.25,0-.47,0-.68,0-.45,0-.84,0-1.26-.12-1.62.12-2,1.71-2.36a10.9,10.9,0,0,0,1.82-.69,9.26,9.26,0,0,1,1.19-.48,3.85,3.85,0,0,1,1.52-.17l.86.06a5,5,0,0,1,1.76.28,4.79,4.79,0,0,1,.42,1.44,10.93,10.93,0,0,0,.31,1.32,3.5,3.5,0,0,0,.34.75,2.6,2.6,0,0,1,.13.24,1.49,1.49,0,0,0,1.06.78c2.5.42,4.19-.93,5.54-2,.37-.29.72-.57,1.06-.8,1.23-.82,1.11-2.88.79-3.75a5.49,5.49,0,0,1-.2-.57,5.8,5.8,0,0,0-2.32-3.4,1.74,1.74,0,0,1-.18-.8l.27-1a18.41,18.41,0,0,1,2.09-5.46,10.36,10.36,0,0,0,1.32-3.19,7,7,0,0,1,.84-2.16,2.55,2.55,0,0,0-.28-3.07c-.4-.35-.41-.36.23-1.34.12-.19.24-.38.34-.56l.25-.42a8.8,8.8,0,0,1,2-2.67,12.85,12.85,0,0,0,1.4-1.19,4.1,4.1,0,0,1,2.26-1.43,3.75,3.75,0,0,0,3.47-3.09,2.87,2.87,0,0,1,.47-.86,5.47,5.47,0,0,1,1.55,2A6.55,6.55,0,0,0,160,231.8a14.11,14.11,0,0,1,1.53.65c.31.15.65.31,1,.47a1.44,1.44,0,0,0,1.06.05l1.14-.38a19.83,19.83,0,0,0,1.71,1.52,6.91,6.91,0,0,1,2.29,2.54,7.17,7.17,0,0,0,.45.92,3.48,3.48,0,0,1,.37.78c0,2.8,1.41,4.89,2.65,6.74.41.61.79,1.19,1.13,1.77a22,22,0,0,0,2.6,3.47c.3.35.6.7.9,1.07-.24,3.13,2.24,5.24,3.62,6.41a2.83,2.83,0,0,1,.88,1,7.55,7.55,0,0,0,3.06,4.25,14.86,14.86,0,0,1,3,3.09l.62.76a1.6,1.6,0,0,1,.22.52c-.19.51-.35,1-.49,1.54-.47,1.58-.8,2.58-1.8,3.25a14.11,14.11,0,0,0-1.61,1.31l-.65.56a1.49,1.49,0,0,0-.49,1.4c.08.39.14.77.2,1.15a9.53,9.53,0,0,0,2.14,5.38,13.77,13.77,0,0,0,.32,1.58c.31,1.31.41,1.93,0,2.38a1.44,1.44,0,0,0-.23,1.51c.19.47.35.93.51,1.37a9.44,9.44,0,0,0,1.45,3l.41.5c1.24,1.53,2.78,3.44,5.4,3.79,1.3.18,1.73.58,2,1.22,1,2.12,3.13,1.69,4,1.5,1.17-.24,1.5,0,1.81.91.74,2.07,2.09,2.51,3.1,2.51h.17a2.5,2.5,0,0,1,.29.68,22.18,22.18,0,0,1,1.36,6.37,15.46,15.46,0,0,0,1.16,5.25c.53,1.36,1.18,2.66,1.81,3.92.45.92.93,1.87,1.34,2.81a14.41,14.41,0,0,0,2.27,3.4,9.56,9.56,0,0,1,2.11,3.46,2.68,2.68,0,0,0,.93,1.38,10.23,10.23,0,0,1,2.51,3.67,19.23,19.23,0,0,0,1.81,3.1,3.91,3.91,0,0,1,.3,1.33l0,.36a22.4,22.4,0,0,0,1.83,5.65,31.88,31.88,0,0,1,1.29,3.41c.52,1.82,1,3.64,1.29,5.4l0,.12c.76,4,1.39,4.49,5.61,4.47l75.77-.35.66,0a4.14,4.14,0,0,1,1.15,0,2.93,2.93,0,0,1,1.32.69c.69.86,1.3,1.77,1.95,2.74.46.68.94,1.39,1.45,2.08a5.56,5.56,0,0,0,2.2,2c3.1,1.31,5.84,2.38,8.38,3.26a18.28,18.28,0,0,0,3.39.75l.94.16a3.14,3.14,0,0,0,1.9-.3c1.29-.69,2.58-1.39,4-2.16l.31-.16.9,1.36a1.44,1.44,0,0,0,.73.58c.32.11.64.24,1,.36.78.29,1.59.6,2.44.83,1.13.29,2.42.55,3.38-.17a4.28,4.28,0,0,1,2.66-.59,12.59,12.59,0,0,0,2-.16c3.1-.58,6.26-1.51,8.37-4.31a2.26,2.26,0,0,1,1.74-.88h0a4,4,0,0,0,3.32,2.06c.22,0,.45.07.66.13a2.75,2.75,0,0,1,1.9,1.22,6.21,6.21,0,0,0,2.24,2.31c1,.54,1.12,1,1.15,1.4a1.46,1.46,0,0,0,1,1.25l.22.09a2.23,2.23,0,0,0,1.27.26,8.78,8.78,0,0,1,6.08,1.1,3.69,3.69,0,0,0,2.93.17l.12,0,.69-.23c.13.18.3.44.45.66s.18.24.34.42l.23.27a1.48,1.48,0,0,0,1.28.51,1.45,1.45,0,0,0,1.14-.78l.8-1.53a4.26,4.26,0,0,0,3.37-1.3l3.26,1.79a1.46,1.46,0,0,0,1.75-.25c.28-.28.53-.56.76-.83a6.08,6.08,0,0,1,1.06-1c.28-.18.7-.28,1.82.15a30.92,30.92,0,0,0,3.13.93l1.36.35a1.45,1.45,0,0,0,1.15-.16,1.43,1.43,0,0,0,.67-.95l1.23-5.88a1.46,1.46,0,0,0-.89-1.66l-.94-.38a22.77,22.77,0,0,1,.36-2.33c.7-3.13.2-4.26-2.53-5.76l-.14-.07.05-.5a1.44,1.44,0,0,0-.56-1.31,1.48,1.48,0,0,0-1.42-.21l-2.79,1.07a3.69,3.69,0,0,0-2.82-.88h-.56a5.34,5.34,0,0,0-4.7-3.42,8,8,0,0,0-3.4-5.73,1.46,1.46,0,0,0-1.72,0l-.6.45-1-.61a1.46,1.46,0,0,0-1.24-.11,2.57,2.57,0,0,0-1.14.81,5.52,5.52,0,0,0-.95-1.34c-.12-.14-.25-.28-.36-.42l-.95-1.29-.46-.63a1.46,1.46,0,0,0-1.56-.55l-1.37.36-.81-.66a1.46,1.46,0,0,0-1-.32l-4.26.25a4.87,4.87,0,0,1-.35-.65,4,4,0,0,0-1.79-2.06,12.36,12.36,0,0,0,.11-1.75,4,4,0,0,0-1.52-3.14,4.05,4.05,0,0,0-3.47-.63,4.39,4.39,0,0,0-.61.21l-.19.07a1.47,1.47,0,0,1-1.2-.2,1.58,1.58,0,0,1-.28-1.24c0-.26.05-.52.08-.78a9.3,9.3,0,0,0-.36-4.63,1.47,1.47,0,0,0-1.37-.93h-.35l.68-.85a1.46,1.46,0,0,0,.17-1.58,1.49,1.49,0,0,0-1.38-.8l-.65,0c-.36,0-.6,0-.85.05a1.9,1.9,0,0,1-1.28-.45,1.32,1.32,0,0,1-.44-.64.78.78,0,0,1,.12-.19,7.09,7.09,0,0,1,1.31-.66c.34-.15.73-.31,1.17-.52a1.46,1.46,0,0,0-.62-2.79h-2.45l-2.64-4.21a1.47,1.47,0,0,0-1.82-.58,2.9,2.9,0,0,1-2.8-.09,4.59,4.59,0,0,0-4.49-1.42v0a7,7,0,0,0-2.53-3.53,11.51,11.51,0,0,1,.95-2.44,29.66,29.66,0,0,0,2.53-5.9,8,8,0,0,1,2.48-3.4l1-.79c1.7-1.37,3.62-2.93,4.44-5.46a7.08,7.08,0,0,0,.43-2.76c-.11-1-.26-2.08-.4-3.08s-.3-2-.39-3a2,2,0,0,1,.07-.82,6.45,6.45,0,0,0,1.87-4.14l.06-.5a7.36,7.36,0,0,1,.27-1.41,4,4,0,0,1,2.93-2.86,65.22,65.22,0,0,0,7.45-2.5,6.07,6.07,0,0,0,3.45-4.11,10.05,10.05,0,0,1,1-2.36,13,13,0,0,0,2.14-7.43c-.06-2.84,1.18-4.69,4-6,.53-.25,1.05-.52,1.58-.79l1.11-.57c2-1,3.46-.68,4.83,1a5.27,5.27,0,0,0,2.92,2.08l.12.16a4.76,4.76,0,0,0,.62.71,3.18,3.18,0,0,0,4.59.15c.51-.45,1.05-.87,1.61-1.32a12.13,12.13,0,0,0,6.89,1.9l0,0a2.38,2.38,0,0,1-.22.18,4.84,4.84,0,0,0-.43.34,1.49,1.49,0,0,0-.52,1,1.47,1.47,0,0,0,.35,1.08c.09.11.17.22.26.32a4.23,4.23,0,0,0,.9,1,20.1,20.1,0,0,1,4.17,4.91,4.19,4.19,0,0,0,4.16,1.77c2-.19,3.58.77,5.32,2.28A1.48,1.48,0,0,0,409,263l2.27-1.36.46.6a1.45,1.45,0,0,0,1.63.5,1.69,1.69,0,0,0,1.29-1c.12-.3.25-.62.35-.84l.68.12.11,0c.62.11,2.37.14,3-1a7.21,7.21,0,0,1,.47-.71,4.55,4.55,0,0,0,1.11-4c0-.06.05-.11.07-.16l.3-.65.66.21a1.47,1.47,0,0,0,1.37-.26c.33-.27.67-.51,1-.75a10.09,10.09,0,0,0,2.3-2,15.55,15.55,0,0,0,1.62-3l.11-.24.23.07a1.47,1.47,0,0,0,1.07-.09l1.22-.6c.95-.46,1.85-.9,2.72-1.39a7.93,7.93,0,0,0,1.64-1.31l.08-.08a2.64,2.64,0,0,0,.55-.79s.05-.08,0-.08h0a3.32,3.32,0,0,1,.36-.3,2.56,2.56,0,0,0,1.27-2v-.07c0-1.34,0-3.16-1.1-4.24a1.89,1.89,0,0,1-.44-.92c1.1-.54,1.45-1.11,2-2.78a1.45,1.45,0,0,0-.14-1.17,4.19,4.19,0,0,0-1.36-1.31l0,0a2.55,2.55,0,0,0,1.63-1.4l.16,0,.31-.09,2.16-.61.94-.25a1.48,1.48,0,0,0,1.07-1.42v-.92a5.42,5.42,0,0,1,.74.18l.25.07A5.74,5.74,0,0,0,445,231.6,4.19,4.19,0,0,0,452,231a2.41,2.41,0,0,1,.69-.41,6.48,6.48,0,0,0,.6-.33A1.46,1.46,0,0,0,454,229v-2.65a3.64,3.64,0,0,1,.35.77,5.74,5.74,0,0,0,.36.81,1.45,1.45,0,0,0,.75.65l4.82,1.86a1.51,1.51,0,0,0,1.72-.52h0c.07.08.14.17.22.25s.29.32.44.48a6.1,6.1,0,0,0,2.58,2c2.24.69,3.91,2.23,5.68,3.86l.78.72a9.82,9.82,0,0,0,2.21,1.38c.28.13.55.27.82.41l4.16,2.33a1.48,1.48,0,0,0,1.13.13l4.1-1.19.55.63,2.66,3.08c.1.12.21.23.33.35a1.59,1.59,0,0,1,.13.13,7.84,7.84,0,0,0,2.69,4.19c-.57,3.16,0,4.57,2.7,6.44l-.92,3.73a1.43,1.43,0,0,0,.25,1.23,1.44,1.44,0,0,0,1.11.59c.34,0,.66,0,1,.07a7.22,7.22,0,0,0,2.45-.06,4.67,4.67,0,0,0,1-.4,5.9,5.9,0,0,0,.67,2.88,3,3,0,0,1,0,.7,7.48,7.48,0,0,0,0,.82v.39a3.73,3.73,0,0,0,.27,1.73c.39.86.86,1.66,1.31,2.44l.52.9a1.47,1.47,0,0,0,.92.71,1.5,1.5,0,0,0,1.15-.19c.5-.33.92-.61,1.26-.88.05.21.12.43.2.68l-.53.39a1.43,1.43,0,0,0-.55,1.57c.8,2.91,1.79,6.54,6.14,8.1a1.47,1.47,0,0,0,1.95-1.19l.13-1c1,1.09,1.87,2.77,1.75,3.45-.76,4.21,0,5.42,4.35,6.82a1.48,1.48,0,0,0,1.68-.59l1-1.58.23.05a3.62,3.62,0,0,0,3.44-.58l.24.06c.35.08.75.18,1.14.24a1.48,1.48,0,0,0,1.47-.66v0h0a5.38,5.38,0,0,0,5.11,3.17h.13a4.91,4.91,0,0,1,.55,0c.12.3.08.38-.22.59a6.93,6.93,0,0,0-1,.85c-.16.16-.34.34-.57.55a1.47,1.47,0,0,0,.75,2.52,18.48,18.48,0,0,1,1.82.42c1.68.45,3.59,1,5.69,0a6,6,0,0,1,.71.15c.54.15,1.08.35,1.66.56l.21.07,1.07,2.46a7.51,7.51,0,0,1-1.12.76c-.43.27-.92.56-1.4.92a1.5,1.5,0,0,0-.57,1.29,1.46,1.46,0,0,0,.78,1.18l1.7.9a5.49,5.49,0,0,0,3.28,3.8,6.65,6.65,0,0,1,1.71,1.54c.33.36.68.74,1.07,1.12a1.46,1.46,0,0,0,1.89.12l.69-.51,1,2.19c-1.06,1.5-1.75,2.68-1.43,4a3.38,3.38,0,0,0,1.61,1.95l-.59.45a1.47,1.47,0,0,0-.58,1.2,1.45,1.45,0,0,0,.64,1.17l3.5,2.41a1.47,1.47,0,0,0,1.75-.07l2.38-1.93c1.13.24,1.19.47,1.28,2a4.13,4.13,0,0,0,1.61,3.51,11.4,11.4,0,0,1-.16,2.83c-.09.26-.33.43-1.31,1.07a1.48,1.48,0,0,0-.66,1.15,1.46,1.46,0,0,0,.53,1.21c.26.22.52.49.8.78.94,1,2.22,2.33,4.36,2a5.4,5.4,0,0,0,2.87-1.22,1.9,1.9,0,0,0,.25.24l3.68,2.75.14,1a4.19,4.19,0,0,0,3,3.73,3.74,3.74,0,0,1,.71.69l.22.24a6.89,6.89,0,0,1,.77,1.18c1.83,3.23,4.09,5.14,7.12,6a18.93,18.93,0,0,1,3.15,1.34l.06,0-.18.25a1.46,1.46,0,0,0,.57,2.2l3.48,1.59a1,1,0,0,1,1.42,1.3,1.49,1.49,0,0,0,1.25.42l1.56-.22c1.1-.16,2.14-.31,3.18-.44A1.9,1.9,0,0,1,600,355l-1.33,1.8a1.47,1.47,0,0,0,0,1.75l1.53,2a1.47,1.47,0,0,0,1.59.53c.45-.14.93-.24,1.38-.34a8.28,8.28,0,0,0,3.24-1.21,10.85,10.85,0,0,0,2.49-2.93c1.37,1.43,3.33,3,6.41,2.35a5.58,5.58,0,0,0,4.52-4.53s0,0,0,.12c.69,3.67,3.83,4.09,5.7,4.33l.33.05.27,0c0,.17-.08.35-.13.53l0,.1a3,3,0,0,0,.5,2.71l0,.06A4.86,4.86,0,0,1,626.22,363Z"/></g></g></svg>