<svg xmlns="http://www.w3.org/2000/svg" viewBox="0 0 128.04 77.62"><defs><style>.cls-1{fill:#f0a200;}.cls-2{fill:#193e2e;}</style></defs><title>1CartagenaDato</title><g id="Capa_2" data-name="Capa 2"><g id="Capa_1-2" data-name="Capa 1"><path class="cls-1" d="M126.77,27.65H1.27a1.27,1.27,0,0,1,0-2.54h125.5a1.27,1.27,0,0,1,0,2.54Z"/><path class="cls-2" d="M2,11,6.61.18H9.35V11h1.19V13.3H9.35v2.91H6.88V13.3H2Zm4.85,0V5L4.34,11Z"/><path class="cls-2" d="M15,13.78v2.43H12.6V13.78Z"/><path class="cls-2" d="M22.63,4.12c0-1.44-.5-1.83-1.31-1.83S20,2.72,20,3.87v1H17.64V4c0-2.57,1.28-4,3.75-4s3.76,1.46,3.76,4v.41c0,1.72-.55,2.79-1.77,3.3,1.26.55,1.77,1.74,1.77,3.36v1.26c0,2.56-1.28,4-3.76,4s-3.75-1.47-3.75-4V11H20v1.49c0,1.14.5,1.58,1.3,1.58s1.31-.39,1.31-1.81V11c0-1.49-.5-2-1.65-2h-.85V6.71h1c.94,0,1.51-.42,1.51-1.7Z"/><path class="cls-2" d="M30,11v1.49c0,1.14.51,1.56,1.31,1.56s1.3-.42,1.3-1.56V9c0-1.15-.5-1.58-1.3-1.58S30,7.85,30,9v.48H27.64L28.1.18h6.64V2.47H30.37l-.21,3.82a2.41,2.41,0,0,1,2.2-1.16c1.85,0,2.79,1.3,2.79,3.66v3.57c0,2.56-1.28,4-3.75,4s-3.76-1.47-3.76-4V11Z"/><path class="cls-2" d="M45.13,12.22c0,2.7-1.24,4.17-3.85,4.17s-3.75-1.47-3.75-4V12h2.38v.57c0,1.14.5,1.58,1.3,1.58s1.4-.44,1.4-2V9.2a2.38,2.38,0,0,1-2.33,1.42c-1.86,0-2.8-1.3-2.8-3.66V4c0-2.57,1.35-4,3.83-4s3.82,1.46,3.82,4ZM42.61,6.75V3.87c0-1.15-.5-1.56-1.3-1.56S40,2.72,40,3.87V6.75c0,1.15.5,1.58,1.31,1.58S42.61,7.9,42.61,6.75Z"/><path class="cls-2" d="M54.7,7.3H58V9.59H54.7v6.62H52.18V.18h6.66V2.47H54.7Z"/><path class="cls-2" d="M69.39,16.21H66.85l-.43-2.91H63.33l-.44,2.91H60.58l2.56-16h3.69Zm-5.74-5.09h2.42L64.86,3Z"/><path class="cls-2" d="M77.38,11.56,79.1.18h3.5v16H80.22V4.72L78.48,16.21H76.1L74.22,4.88V16.21H72V.18h3.51Z"/><path class="cls-2" d="M85.92.18h2.51v16H85.92Z"/><path class="cls-2" d="M91.75.18h2.52V13.92h4.14v2.29H91.75Z"/><path class="cls-2" d="M101,.18h2.52v16H101Z"/><path class="cls-2" d="M115,16.21h-2.54L112,13.3h-3.09l-.44,2.91h-2.31l2.57-16h3.68Zm-5.74-5.09h2.43L110.45,3Z"/><path class="cls-2" d="M121,0c2.45,0,3.7,1.46,3.7,4v.5h-2.38V3.87c0-1.15-.45-1.58-1.25-1.58s-1.26.43-1.26,1.58c0,3.29,4.92,3.91,4.92,8.49,0,2.56-1.28,4-3.76,4s-3.75-1.47-3.75-4v-1h2.38v1.14c0,1.14.5,1.56,1.3,1.56s1.31-.42,1.31-1.56c0-3.3-4.92-3.91-4.92-8.49C117.32,1.46,118.58,0,121,0Z"/><path class="cls-2" d="M26.71,42.32V43.5h-.89V42.26c0-1.52-.59-2.68-2.16-2.68s-2.16,1.16-2.16,2.68v7.4c0,1.53.59,2.67,2.16,2.67s2.16-1.14,2.16-2.67V48h.89V49.6c0,2.06-.89,3.6-3.07,3.6s-3.07-1.54-3.07-3.6V42.32c0-2,.89-3.6,3.07-3.6S26.71,40.27,26.71,42.32Z"/><path class="cls-2" d="M30.42,49.93l-.72,3.15h-.85L32,38.82h1.36L36.5,53.08h-.94l-.71-3.15Zm.14-.81h4.15l-2.1-9.22Z"/><path class="cls-2" d="M41.71,38.84c2.17,0,3,1.2,3,3.22V43.3c0,1.67-.65,2.62-2.06,3,1.47.32,2.06,1.36,2.06,2.91v2.21a3.25,3.25,0,0,0,.34,1.71h-1a3.27,3.27,0,0,1-.31-1.71V49.14c0-1.9-1-2.42-2.66-2.42H39.67v6.36h-.93V38.84Zm-.53,7c1.67,0,2.64-.47,2.64-2.38V42.14c0-1.53-.59-2.44-2.13-2.44h-2v6.16Z"/><path class="cls-2" d="M49.8,53.08V39.7H46.92v-.86h6.73v.86H50.74V53.08Z"/><path class="cls-2" d="M56.21,49.93l-.71,3.15h-.85l3.11-14.26h1.36l3.17,14.26h-.93l-.71-3.15Zm.15-.81h4.15l-2.1-9.22Z"/><path class="cls-2" d="M70.6,42.32v1.06h-.9V42.26c0-1.52-.59-2.68-2.15-2.68s-2.16,1.16-2.16,2.68v7.4c0,1.53.59,2.67,2.16,2.67s2.15-1.14,2.15-2.67V46.59H67.81v-.85H70.6V49.6c0,2.06-.9,3.6-3.07,3.6s-3.08-1.54-3.08-3.6V42.32c0-2,.9-3.6,3.08-3.6S70.6,40.27,70.6,42.32Z"/><path class="cls-2" d="M77.8,45.43v.86H73.91v5.94h4.68v.85H73V38.84h5.61v.86H73.91v5.73Z"/><path class="cls-2" d="M81.79,53.08h-.86V38.84h1.22l4.28,12v-12h.85V53.08h-1L81.79,40.39Z"/><path class="cls-2" d="M91.07,49.93l-.72,3.15H89.5l3.11-14.26H94l3.18,14.26h-.94l-.71-3.15Zm.14-.81h4.15l-2.1-9.22Z"/><path class="cls-2" d="M106.49,38.84c2.19,0,3.15,1.45,3.15,3.54v7.16c0,2.1-1,3.54-3.15,3.54h-3.14V38.84Zm0,13.39c1.58,0,2.23-1.08,2.23-2.65V42.34c0-1.56-.67-2.64-2.23-2.64h-2.18V52.23Z"/><path class="cls-2" d="M116.82,45.43v.86h-3.88v5.94h4.68v.85H112V38.84h5.62v.86h-4.68v5.73Z"/><path class="cls-2" d="M120,53.08V38.84h.93V52.23h4.48v.85Z"/><path class="cls-2" d="M85.06,66.74v1.18h-.89V66.68c0-1.53-.59-2.69-2.16-2.69s-2.15,1.16-2.15,2.69v7.4c0,1.52.59,2.66,2.15,2.66s2.16-1.14,2.16-2.66V72.39h.89V74c0,2-.89,3.6-3.07,3.6s-3.07-1.55-3.07-3.6V66.74c0-2.06.89-3.6,3.07-3.6S85.06,64.68,85.06,66.74Z"/><path class="cls-2" d="M88.34,70.8v6.7H87.4V63.26h.94V70h4.43V63.26h1V77.5h-1V70.8Z"/><path class="cls-2" d="M97.54,74.34l-.72,3.16H96l3.11-14.26h1.36l3.18,14.26h-.94L102,74.34Zm.14-.81h4.15l-2.1-9.21Z"/><path class="cls-2" d="M106.79,63.26V77.5h-.93V63.26Z"/><path class="cls-2" d="M112.2,63.26c2.18,0,3,1.2,3,3.21v1.24c0,1.67-.65,2.63-2,3,1.46.33,2,1.36,2,2.91v2.22a3.16,3.16,0,0,0,.35,1.71h-1a3.41,3.41,0,0,1-.3-1.71V73.55c0-1.89-1-2.42-2.67-2.42h-1.48V77.5h-.94V63.26Zm-.53,7c1.67,0,2.65-.47,2.65-2.38V66.55c0-1.52-.59-2.44-2.14-2.44h-2v6.17Z"/><path class="cls-2" d="M119.26,74.34l-.71,3.16h-.85l3.11-14.26h1.36l3.17,14.26h-.93l-.71-3.16Zm.15-.81h4.14l-2.09-9.21Zm3.58-13-1.71,1.94h-.71L122,60.55Z"/></g></g></svg>