<svg xmlns="http://www.w3.org/2000/svg" viewBox="0 0 248.8 179.36"><defs><style>.cls-1{fill:none;stroke:#006837;stroke-linecap:round;stroke-linejoin:round;stroke-width:0.5px;}</style></defs><title>1Cartagena</title><g id="Capa_2" data-name="Capa 2"><g id="Capa_1-2" data-name="Capa 1"><path class="cls-1" d="M197.38,131.46a4.91,4.91,0,0,0,1.75.95l-.76,1a1.44,1.44,0,0,0-.18,1.55,1.46,1.46,0,0,0,1.32.84h2.29a9.65,9.65,0,0,1-.07,2.32l-.09.85a4.24,4.24,0,0,0,1.19,3.61,4.14,4.14,0,0,0,3.62,1,4.19,4.19,0,0,0,.87-.25l.22-.08a1,1,0,0,1,1.36,1,11.38,11.38,0,0,1-.14,1.78l-.12,1a1.49,1.49,0,0,0,.45,1.2,1.43,1.43,0,0,0,1.21.39h.2a3.44,3.44,0,0,1,.38.67,4.12,4.12,0,0,0,1.89,2.19,1.44,1.44,0,0,0,.71.14l4.25-.25,1,.78a1.48,1.48,0,0,0,1.3.28l1.11-.31.83,1.13c.16.21.34.42.53.63s.29.33.38.45l-.2.37a8.43,8.43,0,0,0-.39.8,1.47,1.47,0,0,0,.65,1.86,3.29,3.29,0,0,0,2.64.41,3.45,3.45,0,0,0,2-2l0,0,.85.5A1.47,1.47,0,0,0,230,156l.45-.35a6.12,6.12,0,0,1,1.48,4.22,1.56,1.56,0,0,0,.52,1,1.46,1.46,0,0,0,1.12.33,2.73,2.73,0,0,1,3.35,2.13,1.44,1.44,0,0,0,.7.85,4.69,4.69,0,0,0,2.4.44h.69a.6.6,0,0,1,.08.2,1.47,1.47,0,0,0,1.92.93l1.91-.73a1.44,1.44,0,0,0,.72.72l.41.19a4.85,4.85,0,0,1,.51.24c1.46.8,1.46.8,1.07,2.54a25.81,25.81,0,0,0-.41,2.67l-.08.65a1.9,1.9,0,0,0,.3,1.22l.05.1a1.45,1.45,0,0,0,.79.75l.57.23-.67,3.17a27.29,27.29,0,0,1-2.72-.8,4.84,4.84,0,0,0-4.4.09,7.93,7.93,0,0,0-1.62,1.48l-3.4-1.87a1.45,1.45,0,0,0-2,.64,1.54,1.54,0,0,1-2.06.83,1.46,1.46,0,0,0-1.68.74l-.24.47c-.91-.91-1.74-.88-3.51-.28l-.12,0a1.44,1.44,0,0,1-.5.07,11.39,11.39,0,0,0-7.34-1.54,4.82,4.82,0,0,0-2.44-2.6,3.46,3.46,0,0,1-1.12-1.24A5.68,5.68,0,0,0,211,171a8.76,8.76,0,0,0-.89-.18c-1.1-.19-1.16-.28-1.27-.67-.42-1.44-2.42-1.47-2.93-1.41a5.25,5.25,0,0,0-3.71,2c-1.43,1.9-3.65,2.65-6.56,3.19a9,9,0,0,1-1.52.11,7.16,7.16,0,0,0-4.18,1.06,6.38,6.38,0,0,1-1.05-.2,21,21,0,0,1-2.14-.74l-.55-.21-1.38-2.09a1.48,1.48,0,0,0-1.93-.48l-1.49.82c-1.39.76-2.66,1.45-4,2.14l-1-.17a16.25,16.25,0,0,1-2.88-.62c-2.48-.86-5.17-1.91-8.21-3.19a3,3,0,0,1-1-1c-.47-.64-.94-1.32-1.38-2-.66-1-1.33-2-2.09-2.93a5.66,5.66,0,0,0-2.79-1.68,6.49,6.49,0,0,0-2.11-.16l-.54,0L79.73,163a13.19,13.19,0,0,1-2.25-.09,11.91,11.91,0,0,1-.47-2l0-.12c-.35-1.85-.81-3.76-1.35-5.66a30.29,30.29,0,0,0-1.41-3.75,20,20,0,0,1-1.62-4.92l0-.32a5.56,5.56,0,0,0-.88-2.72,16.73,16.73,0,0,1-1.52-2.64,13,13,0,0,0-3.27-4.63,12.29,12.29,0,0,0-2.64-4.43A12.14,12.14,0,0,1,62.41,129c-.44-1-.93-2-1.4-2.94-.63-1.26-1.22-2.45-1.71-3.68a13.24,13.24,0,0,1-1-4.26,24.94,24.94,0,0,0-1.5-7.21,3.34,3.34,0,0,0-3.26-2.7h0s-.13-.09-.29-.56c-.59-1.64-2-3.46-5.17-2.79a4.71,4.71,0,0,1-.78.11v0A5.16,5.16,0,0,0,43,102.12c-1.47-.19-2.41-1.37-3.51-2.73l-.43-.52a7.12,7.12,0,0,1-.95-2.08c-.09-.26-.19-.52-.29-.8a5.86,5.86,0,0,0,.06-4.16,9,9,0,0,1-.29-1.65,1.47,1.47,0,0,0-.5-1c-1.12-1-1.34-2.35-1.62-4.07,0-.14,0-.27-.07-.41a.18.18,0,0,0,.07,0,11.82,11.82,0,0,1,1.29-1.06c1.93-1.3,2.48-3.19,3-4.86a15,15,0,0,1,.47-1.43,3.66,3.66,0,0,0-.74-3.3l-.59-.75a17.58,17.58,0,0,0-3.59-3.67,4.57,4.57,0,0,1-1.93-2.72,5.46,5.46,0,0,0-1.78-2.34c-1.85-1.57-2.85-2.78-2.54-4.32a1.48,1.48,0,0,0-.29-1.2c-.46-.57-.91-1.11-1.36-1.63a20.58,20.58,0,0,1-2.28-3c-.39-.68-.82-1.33-1.24-2-1.11-1.64-2.15-3.2-2.16-5.11A4.51,4.51,0,0,0,21,45.08a6,6,0,0,1-.31-.62,9.4,9.4,0,0,0-3.16-3.71l-.42-.35a1.43,1.43,0,0,0-.49-.78c-2.23-1.83-4.25-5.23-3.56-7.21A3.1,3.1,0,0,0,12,29l-.21-.17A9.7,9.7,0,0,0,9,27.07c-3.14-1.13-3.35-1.42-3.23-4.49a4.14,4.14,0,0,0-1.09-3.17,8,8,0,0,1-1.92-2.94c-.22-.48-.45-1-.72-1.47-.43-.78-.37-.85-.16-1.13a3.71,3.71,0,0,0,.44-3.21c-.45-1.48-1-2.9-1.53-4.41-.18-.5-.37-1-.55-1.51h0a13.49,13.49,0,0,0,3.47-1.3c2.48-1.5,4.25-1.78,6.12-1A3.16,3.16,0,0,0,14,1.17a1.49,1.49,0,0,0,.28-.92c1.66.85,3.36,1.7,5.07,2.49A6.78,6.78,0,0,0,22,3.47a2.83,2.83,0,0,0,1-.16,2.22,2.22,0,0,0,1.37-1.19,2.25,2.25,0,0,0,.12-.4,2.32,2.32,0,0,1,.68,1.14c.08,2.94,1.34,4.28,4.37,4.61a4.79,4.79,0,0,1,1.82.46,5.44,5.44,0,0,0,3.18,1.25,4.42,4.42,0,0,0,3.33-1.79L38,7.31a3.55,3.55,0,0,0,.82-.42l.16-.1A3.1,3.1,0,0,0,40.41,5.1l.06-.22A20.75,20.75,0,0,0,41,2.36a16.54,16.54,0,0,0,7.3,8.74,11,11,0,0,1,1.75,1.37,64.1,64.1,0,0,0,13.58,9.29c3,1.58,4.5,3.28,5,5.68a4.89,4.89,0,0,0,3.24,3.73l.44.17a6.91,6.91,0,0,0,3.24.65,3.11,3.11,0,0,1,3.09,1.14,4.08,4.08,0,0,0,1.64,1.18,3,3,0,0,1,.54.28,5,5,0,0,1,1.17,1c.56.86,1.06,1.74,1.6,2.68.37.64.74,1.29,1.13,1.92,1.27,2.08,3.33,2.9,5.37,3.48,1.65.46,2.3,1.18,2.4,2.66a6.05,6.05,0,0,0,1.13,2.76,17.26,17.26,0,0,0,1.9,2.47,12.7,12.7,0,0,1,.81,1,9.77,9.77,0,0,0,1.85,2c1.32,1,2.71,1.87,4.05,2.73L104,58.42a.41.41,0,0,0,.11.07,6.49,6.49,0,0,0,2.39,2.67,4.52,4.52,0,0,1,1.35,1.28c.08.14.17.3.25.47.54,1.05,1.15,2.24,2.41,2.34.69.06,1,.42,1.69,1.34a10.91,10.91,0,0,0,.89,1.09l.24.24c1.49,1.55,2.19,1.88,3.92,1.33v.11a3.83,3.83,0,0,0,1.9,3.72,1.45,1.45,0,0,0,1.37,0l.35-.18a4.32,4.32,0,0,0,.71.86,4.89,4.89,0,0,0,1.2.75,3.72,3.72,0,0,1,.4.2,3.29,3.29,0,0,1,.23.46,3.09,3.09,0,0,0,2.92,2.2,4.73,4.73,0,0,0,2.17-.8c.37.46.75.91,1.18,1.35.77.77.52,1.29.42,1.51a4.38,4.38,0,0,0,0,3.71,6.29,6.29,0,0,1,.33,2.33,3.6,3.6,0,0,0,2.2,3.4l.27.12c.21,2.24.78,2.91,3.44,3.28.8.11,1,.26,1.13.59a3.81,3.81,0,0,0,1.14,1.21c-.16,2.35-.3,5.22,2.62,7.21a2.33,2.33,0,0,1,.61.62,4.32,4.32,0,0,0,2.42,3.73,5.78,5.78,0,0,1,.48.33,4,4,0,0,0,3.22.73,4.13,4.13,0,0,0,2.74-2c.26-.45.43-.6,1.32-.52a2.72,2.72,0,0,1,2.61,2.43,3.32,3.32,0,0,0,.58,1.57c.44.59.89,1.12,1.38,1.67l.53.62a1.45,1.45,0,0,0,1.56.44l1.3-.41,3.87,2a1.47,1.47,0,0,0,1.56-.13l1.35-1c1.08-.79,2.1-1.53,3.09-2.39a11.65,11.65,0,0,0,1.41-1.51,9.55,9.55,0,0,1,1.07-1.17l.06,0a2.13,2.13,0,0,1,2.86-.11c2.65,2.39,4,4.59,4.36,7.37a1.46,1.46,0,0,0,1.45,1.25h0a2.17,2.17,0,0,0,1.07,2.1c.85.39,1.2,1.15,1.71,2.35.14.34.28.67.44,1a1.41,1.41,0,0,0,1.07.8l.21,0a2.21,2.21,0,0,0,1,0c1.21-.28,1.64-.25,2.37.49a5.22,5.22,0,0,0,4.82,1.13l2.47,3.94a1.33,1.33,0,0,0,.14.19,3,3,0,0,0-.55,1.86A4,4,0,0,0,197.38,131.46Z"/></g></g></svg>