<svg xmlns="http://www.w3.org/2000/svg" viewBox="0 0 128.04 53.2"><defs><style>.cls-1{fill:#f0a200;}.cls-2{fill:#193e2e;}</style></defs><title>1ElDoncelloDato</title><g id="Capa_2" data-name="Capa 2"><g id="Capa_1-2" data-name="Capa 1"><path class="cls-1" d="M126.77,27.65H1.27a1.27,1.27,0,0,1,0-2.54h125.5a1.27,1.27,0,0,1,0,2.54Z"/><path class="cls-2" d="M4.18,2.2A2.49,2.49,0,0,0,7,.18H8.64v16H6.13V4H4.18Z"/><path class="cls-2" d="M15,13.78v2.43H12.6V13.78Z"/><path class="cls-2" d="M20,11v1.49c0,1.14.51,1.56,1.31,1.56s1.3-.42,1.3-1.56V9c0-1.15-.5-1.58-1.3-1.58S20,7.85,20,9v.48H17.66l.46-9.3h6.64V2.47H20.39l-.21,3.82a2.41,2.41,0,0,1,2.2-1.16c1.85,0,2.79,1.3,2.79,3.66v3.57c0,2.56-1.28,4-3.75,4s-3.76-1.47-3.76-4V11Z"/><path class="cls-2" d="M27.55,4c0-2.57,1.35-4,3.82-4S35.2,1.46,35.2,4v8.33c0,2.56-1.36,4-3.83,4s-3.82-1.47-3.82-4Zm2.52,8.49c0,1.14.5,1.58,1.3,1.58s1.31-.44,1.31-1.58V3.87c0-1.15-.51-1.58-1.31-1.58s-1.3.43-1.3,1.58Z"/><path class="cls-2" d="M37.58,4.17C37.58,1.46,38.81,0,41.42,0s3.75,1.46,3.75,4v.41H42.79V3.87c0-1.15-.5-1.58-1.3-1.58s-1.4.43-1.4,2V7.19a2.4,2.4,0,0,1,2.34-1.42c1.85,0,2.79,1.3,2.79,3.66v2.93c0,2.56-1.35,4-3.82,4s-3.82-1.47-3.82-4Zm2.51,5.47v2.88c0,1.14.51,1.56,1.31,1.56s1.3-.42,1.3-1.56V9.64c0-1.15-.5-1.58-1.3-1.58S40.09,8.49,40.09,9.64Z"/><path class="cls-2" d="M54.7,7.3H58V9.59H54.7v6.62H52.18V.18h6.66V2.47H54.7Z"/><path class="cls-2" d="M69.39,16.21H66.85l-.43-2.91H63.33l-.44,2.91H60.58l2.56-16h3.69Zm-5.74-5.09h2.42L64.86,3Z"/><path class="cls-2" d="M77.38,11.56,79.1.18h3.5v16H80.22V4.72L78.48,16.21H76.1L74.22,4.88V16.21H72V.18h3.51Z"/><path class="cls-2" d="M85.92.18h2.51v16H85.92Z"/><path class="cls-2" d="M91.75.18h2.52V13.92h4.14v2.29H91.75Z"/><path class="cls-2" d="M101,.18h2.52v16H101Z"/><path class="cls-2" d="M115,16.21h-2.54L112,13.3h-3.09l-.44,2.91h-2.31l2.57-16h3.68Zm-5.74-5.09h2.43L110.45,3Z"/><path class="cls-2" d="M121,0c2.45,0,3.7,1.46,3.7,4v.5h-2.38V3.87c0-1.15-.45-1.58-1.25-1.58s-1.26.43-1.26,1.58c0,3.29,4.92,3.91,4.92,8.49,0,2.56-1.28,4-3.76,4s-3.75-1.47-3.75-4v-1h2.38v1.14c0,1.14.5,1.56,1.3,1.56s1.31-.42,1.31-1.56c0-3.3-4.92-3.91-4.92-8.49C117.32,1.46,118.58,0,121,0Z"/><path class="cls-2" d="M46.67,45.43v.86H42.79v5.94h4.67v.85H41.85V38.84h5.61v.86H42.79v5.73Z"/><path class="cls-2" d="M49.8,53.08V38.84h.94V52.23h4.48v.85Z"/><path class="cls-2" d="M64.53,38.84c2.2,0,3.16,1.45,3.16,3.54v7.16c0,2.1-1,3.54-3.16,3.54H61.4V38.84Zm0,13.39c1.59,0,2.24-1.08,2.24-2.65V42.34c0-1.56-.67-2.64-2.24-2.64H62.34V52.23Z"/><path class="cls-2" d="M70,42.32c0-2.07,1-3.6,3.11-3.6s3.15,1.53,3.15,3.6V49.6c0,2.08-1,3.6-3.15,3.6S70,51.68,70,49.6Zm.93,7.34c0,1.55.61,2.69,2.18,2.69s2.22-1.14,2.22-2.69v-7.4c0-1.55-.63-2.68-2.22-2.68s-2.18,1.13-2.18,2.68Z"/><path class="cls-2" d="M79.47,53.08h-.86V38.84h1.22l4.28,12v-12H85V53.08h-1L79.47,40.39Z"/><path class="cls-2" d="M93.46,42.32V43.5h-.89V42.26c0-1.52-.59-2.68-2.16-2.68s-2.15,1.16-2.15,2.68v7.4c0,1.53.59,2.67,2.15,2.67s2.16-1.14,2.16-2.67V48h.89V49.6c0,2.06-.89,3.6-3.07,3.6s-3.07-1.54-3.07-3.6V42.32c0-2,.9-3.6,3.07-3.6S93.46,40.27,93.46,42.32Z"/><path class="cls-2" d="M100.63,45.43v.86H96.74v5.94h4.68v.85H95.81V38.84h5.61v.86H96.74v5.73Z"/><path class="cls-2" d="M103.76,53.08V38.84h.94V52.23h4.47v.85Z"/><path class="cls-2" d="M111.39,53.08V38.84h.94V52.23h4.47v.85Z"/><path class="cls-2" d="M119,42.32c0-2.07,1-3.6,3.11-3.6s3.15,1.53,3.15,3.6V49.6c0,2.08-1,3.6-3.15,3.6S119,51.68,119,49.6Zm.94,7.34c0,1.55.61,2.69,2.17,2.69s2.22-1.14,2.22-2.69v-7.4c0-1.55-.63-2.68-2.22-2.68s-2.17,1.13-2.17,2.68Z"/></g></g></svg>