<svg xmlns="http://www.w3.org/2000/svg" viewBox="0 0 44.93 118.03"><defs><style>.cls-1{fill:none;stroke:#006837;stroke-linecap:round;stroke-linejoin:round;stroke-width:0.5px;}</style></defs><title>1ElPaujil</title><g id="Capa_2" data-name="Capa 2"><g id="Capa_1-2" data-name="Capa 1"><path class="cls-1" d="M.56,3.29a2.92,2.92,0,0,1,2-2A11.38,11.38,0,0,0,3.68.73a8.68,8.68,0,0,1,.9-.48c.15.24.35.64.48.9a11.46,11.46,0,0,0,.59,1.09c.42.68.87,1.34,1.31,2A38.24,38.24,0,0,1,9.72,8.84,11.71,11.71,0,0,1,11,15.26q0,.3-.09.6a7.2,7.2,0,0,0-.11,1.95q.45,3.56.92,7.11c.42,3.24.86,6.6,1.25,9.9a3.42,3.42,0,0,1-.32,1.92A23.42,23.42,0,0,0,9.82,52.07c.29,2.25.45,4.29-.53,6.47A20.51,20.51,0,0,0,8.4,61.1a14.05,14.05,0,0,1-1.07,2.84,5.55,5.55,0,0,0-.47,3c.09,2.46.19,4.87.43,7.29a10.07,10.07,0,0,0,1,3.54c1,1.9,2.83,1.79,3.95,1.73h.07a1.59,1.59,0,0,1,.27.24c.75,2.73,2.71,4.3,4.44,5.69.5.4,1,.78,1.41,1.18a3,3,0,0,0,2.17.66,8.24,8.24,0,0,1,5.85,2.07,5.28,5.28,0,0,0,4.06,1.3c1.31-.09,2.24.44,3.31,1.86a7,7,0,0,0,3.23,2.25,4.78,4.78,0,0,1,3.24,3.07,6.43,6.43,0,0,0,1.84,2.64,9.31,9.31,0,0,1,2.24,2.84,4.92,4.92,0,0,0,.28.45c-2.92-.68-5.41.47-7.33,1.63a11,11,0,0,1-2.71,1l-.37.1A1.46,1.46,0,0,0,33.21,108l-1.68.27a1.44,1.44,0,0,0-1.22,1.28,7.06,7.06,0,0,1-.54,2.59,7.46,7.46,0,0,1-2.5,1,5.65,5.65,0,0,0-2.63,1.6,27.82,27.82,0,0,0-2.1,2.7l-.24.35-.15,0a8.83,8.83,0,0,0-2-1.56,4.71,4.71,0,0,1-1.67-1.38,10.44,10.44,0,0,0-3-2.77c-.46-.32-.89-.63-1.27-1a3.19,3.19,0,0,1-1.31-3.37c.83-2,.88-3.65.14-4.9a5,5,0,0,0-3.55-2.15,10.13,10.13,0,0,1-.33-1.08,6.56,6.56,0,0,0-2.35-4.24c-.06-.1-.16-.34-.23-.5a6.56,6.56,0,0,0-.35-.76l-.48-.92a20.6,20.6,0,0,0-1.44-2.45c-.75-1-.72-1.61-.43-2.24a6,6,0,0,0-.24-5.32c-.22-.45-.43-.92-.63-1.38l.21-.25c1-1.11,3.22-3.41,1.34-6.53a3.86,3.86,0,0,1,.06-.82,44.35,44.35,0,0,0-.19-10.38A59.26,59.26,0,0,1,4,56.69c.07-3-.06-6-.18-8.95-.06-1.33-.12-2.67-.15-4a3.18,3.18,0,0,1,.07-.67,39.32,39.32,0,0,0,0-15c-.38-2.35-.66-4.78-.92-7.12-.2-1.78-.41-3.63-.66-5.44A9.31,9.31,0,0,0,1,11.93a1.44,1.44,0,0,0-.17-.85C.1,9.79.12,5,.56,3.29Z"/></g></g></svg>