<svg xmlns="http://www.w3.org/2000/svg" viewBox="0 0 50.7 98.88"><defs><style>.cls-1{fill:#0b6d41;stroke:#006837;stroke-linecap:round;stroke-linejoin:round;stroke-width:0.5px;}</style></defs><title>1FlorenciaRoll</title><g id="Capa_2" data-name="Capa 2"><g id="Capa_1-2" data-name="Capa 1"><path class="cls-1" d="M3.86,45.82c2.34-1.7,5-3.63,6.48-4.45a7.63,7.63,0,0,0,3.73-3.77,22.63,22.63,0,0,1,5.76-8.15,8.25,8.25,0,0,0,1.06-1.24c.11-.16.23-.32.35-.47L23,25.52c1.6-2,3.26-4.06,4.94-6A6.16,6.16,0,0,1,29.86,18a5.15,5.15,0,0,0,3-4.54A3.75,3.75,0,0,1,33,13a5.41,5.41,0,0,0,.17-1.31c-.07-2.11,1.05-3.89,2.24-5.77l.44-.69A5.45,5.45,0,0,1,39.28,2.7a15.87,15.87,0,0,0,2.71-1c.39-.18.77-.36,1.16-.51L43.8.86A5.94,5.94,0,0,1,45.13.39c1.81-.28,1.81-.28,2.44,1.49,1.08,3.05,2.31,6.5,2,10.07a9.8,9.8,0,0,0,.29,2.71l.12.59a10.05,10.05,0,0,1,.14,5.18,4.93,4.93,0,0,0-.1,2.45,11.84,11.84,0,0,1-1.23,7.34,24.63,24.63,0,0,0-2.25,8.94h0a7.73,7.73,0,0,0,1.13,7.41c.21.33.24.5-.66,1.71l-.18.23a2.94,2.94,0,0,0-.85,2.4,2.37,2.37,0,0,0,.18.53,11.23,11.23,0,0,0-2.55,5.73c-.1.93-.16.94-.49,1a3.48,3.48,0,0,0-1.86,2.22,26.71,26.71,0,0,0-1.07,12.93,21.81,21.81,0,0,0,.94,3.4c.16.49.33,1,.47,1.49.38,1.28.71,2.44,1,3.62v.06a2.47,2.47,0,0,0,.08,1.14c.94,2.86.15,6.45-.55,9.61-.27,1.2-.52,2.34-.68,3.43a1.34,1.34,0,0,0,.07.69c-.59.12-1.21.21-1.87.3l-.79.1a40.39,40.39,0,0,0-4.81,1,7,7,0,0,0-1.18.43c-.08-.16-.17-.32-.26-.51-1.43-2.73-2-4.39-1.85-4.88a1.87,1.87,0,0,0,.08-2.45A4.73,4.73,0,0,1,30,88.53a7.44,7.44,0,0,0-2.05-4.08A47.8,47.8,0,0,1,23,78.84c-.73-.94-1.5-1.91-2.32-2.9a1.45,1.45,0,0,0-1.25-.52l-.5,0c-1.41.15-2.3.19-3-.68A2.3,2.3,0,0,0,14,74.12h-.15c-.27,0-.6,0-.83,0-.07-.17-.15-.43-.23-.66l-.1-.28a7.39,7.39,0,0,0-1.39-2.24l-.43-.55a5,5,0,0,0-2.32-1.49,4.74,4.74,0,0,1-1.06-.52,1.47,1.47,0,0,0-1.26-.61,3.77,3.77,0,0,0-1.62-.61V67a4.1,4.1,0,0,0-.88-3c-.83-.83-.83-1.45,0-3,1.36-2.5,1.17-5.05-.58-7.79C2.36,52,1.6,50.68.79,49.31.62,49,.43,48.7.25,48.4,1.3,47.68,2.55,46.77,3.86,45.82Z"/></g></g></svg>