<svg xmlns="http://www.w3.org/2000/svg" viewBox="0 0 328.21 17.33"><defs><style>.cls-1{fill:#193e2e;}</style></defs><title>1Fuente familias</title><g id="Capa_2" data-name="Capa 2"><g id="Capa_1-2" data-name="Capa 1"><path class="cls-1" d="M4.62,9.64v.86H.94v6.44H0V2.71H5.41v.85H.94V9.64Z"/><path class="cls-1" d="M8.54,13.51c0,1.52.57,2.7,2.14,2.7s2.14-1.18,2.14-2.7V2.71h.87V13.46c0,2-.85,3.61-3,3.61s-3-1.57-3-3.61V2.71h.93Z"/><path class="cls-1" d="M20.93,9.3v.85H17.05v5.94h4.68v.85H16.11V2.71h5.62v.85H17.05V9.3Z"/><path class="cls-1" d="M24.92,16.94h-.85V2.71h1.22l4.27,12v-12h.86V16.94h-1L24.92,4.25Z"/><path class="cls-1" d="M35.3,16.94V3.56H32.39V2.71h6.73v.85H36.23V16.94Z"/><path class="cls-1" d="M46,9.3v.85H42.09v5.94h4.68v.85H41.16V2.71h5.61v.85H42.09V9.3Z"/><path class="cls-1" d="M50,7.4V9.19h-.92V7.4Zm0,7.75v1.79h-.92V15.15Z"/><path class="cls-1" d="M62.52,6.18V7.36h-.89V6.12c0-1.52-.59-2.68-2.16-2.68S57.31,4.6,57.31,6.12v7.41c0,1.52.59,2.66,2.16,2.66s2.16-1.14,2.16-2.66V11.84h.89v1.62c0,2.06-.89,3.61-3.07,3.61s-3.07-1.55-3.07-3.61V6.18c0-2,.89-3.6,3.07-3.6S62.52,4.13,62.52,6.18Z"/><path class="cls-1" d="M64.8,6.18c0-2.07,1-3.6,3.11-3.6s3.15,1.53,3.15,3.6v7.28c0,2.08-1,3.61-3.15,3.61s-3.11-1.53-3.11-3.61Zm.94,7.35c0,1.54.61,2.68,2.17,2.68s2.22-1.14,2.22-2.68V6.12c0-1.54-.63-2.68-2.22-2.68s-2.17,1.14-2.17,2.68Z"/><path class="cls-1" d="M79.51,6.18V7.36h-.9V6.12c0-1.52-.59-2.68-2.15-2.68S74.3,4.6,74.3,6.12v7.41c0,1.52.59,2.66,2.16,2.66s2.15-1.14,2.15-2.66V11.84h.9v1.62c0,2.06-.9,3.61-3.07,3.61s-3.07-1.55-3.07-3.61V6.18c0-2,.89-3.6,3.07-3.6S79.51,4.13,79.51,6.18Z"/><path class="cls-1" d="M87.93,6.18V7.36H87V6.12c0-1.52-.59-2.68-2.16-2.68S82.72,4.6,82.72,6.12v7.41c0,1.52.59,2.66,2.16,2.66S87,15.05,87,13.53V11.84h.89v1.62c0,2.06-.89,3.61-3.07,3.61s-3.07-1.55-3.07-3.61V6.18c0-2,.89-3.6,3.07-3.6S87.93,4.13,87.93,6.18Z"/><path class="cls-1" d="M91.64,13.79l-.72,3.15h-.85L93.18,2.68h1.36l3.18,14.26h-.94l-.71-3.15Zm.14-.81h4.15l-2.1-9.22Z"/><path class="cls-1" d="M104.74,16.92h-.94l-3-12.59V16.94H100V2.71h1.34l3,12.59,3-12.59h1.34V16.94h-.89V4.29Z"/><path class="cls-1" d="M121.09,6.18V7.36h-.89V6.12c0-1.52-.59-2.68-2.16-2.68s-2.15,1.16-2.15,2.68v7.41c0,1.52.59,2.66,2.15,2.66s2.16-1.14,2.16-2.66V11.84h.89v1.62c0,2.06-.89,3.61-3.07,3.61S115,15.52,115,13.46V6.18c0-2,.9-3.6,3.07-3.6S121.09,4.13,121.09,6.18Z"/><path class="cls-1" d="M124.8,13.79l-.71,3.15h-.86l3.11-14.26h1.37l3.17,14.26h-.94l-.71-3.15Zm.14-.81h4.15L127,3.76Z"/><path class="cls-1" d="M139.3,6.18v7.28a4.09,4.09,0,0,1-.67,2.47,1.16,1.16,0,0,0,1.12.57H140v.83h-.24A1.8,1.8,0,0,1,138,16.5a3.1,3.1,0,0,1-1.87.57c-2.18,0-3.13-1.53-3.13-3.61V6.18c0-2.07,1-3.6,3.13-3.6S139.3,4.11,139.3,6.18ZM134,6.12v7.41c0,1.54.63,2.68,2.2,2.68s2.2-1.14,2.2-2.68V6.12c0-1.54-.63-2.68-2.2-2.68S134,4.58,134,6.12Z"/><path class="cls-1" d="M142.72,13.51c0,1.52.57,2.7,2.14,2.7S147,15,147,13.51V2.71h.88V13.46c0,2-.86,3.61-3,3.61s-3.05-1.57-3.05-3.61V2.71h.93Z"/><path class="cls-1" d="M155.11,9.3v.85h-3.88v5.94h4.67v.85h-5.61V2.71h5.61v.85h-4.67V9.3Z"/><path class="cls-1" d="M160.65,16.94V3.56h-2.89V2.71h6.73v.85h-2.91V16.94Z"/><path class="cls-1" d="M167.06,13.79l-.72,3.15h-.85L168.6,2.68H170l3.18,14.26h-.94l-.71-3.15Zm.14-.81h4.15l-2.1-9.22Zm3.58-13-1.71,1.93h-.71L169.8,0Z"/><path class="cls-1" d="M175.13,9.4h3.75v.85h-3.75Z"/><path class="cls-1" d="M189.86,9.64v.86h-3.68v6.44h-.93V2.71h5.41v.85h-4.48V9.64Z"/><path class="cls-1" d="M197.72,9.3v.85h-3.89v5.94h4.68v.85H192.9V2.71h5.61v.85h-4.68V9.3Z"/><path class="cls-1" d="M204,2.71c2.2,0,3.16,1.44,3.16,3.53V13.4c0,2.1-1,3.54-3.16,3.54h-3.13V2.71Zm0,13.38c1.59,0,2.24-1.08,2.24-2.64V6.2c0-1.56-.67-2.64-2.24-2.64h-2.17V16.09Z"/><path class="cls-1" d="M214.32,9.3v.85h-3.89v5.94h4.68v.85H209.5V2.71h5.61v.85h-4.68V9.3Z"/><path class="cls-1" d="M217.23,16.09a5.68,5.68,0,0,0,.83,0c1.34-.1,2-.82,2-2.56V2.71H221V13.45c0,2.5-1.12,3.41-2.85,3.49a7.21,7.21,0,0,1-.93,0Z"/><path class="cls-1" d="M224.31,13.51c0,1.52.57,2.7,2.13,2.7s2.14-1.18,2.14-2.7V2.71h.87V13.46c0,2-.85,3.61-3,3.61s-3-1.57-3-3.61V2.71h.94Z"/><path class="cls-1" d="M232.73,16.94h-.85V2.71h1.22l4.27,12v-12h.85V16.94h-1L232.73,4.25Z"/><path class="cls-1" d="M243.05,16.94V3.56h-2.89V2.71h6.73v.85H244V16.94Z"/><path class="cls-1" d="M249.45,13.79l-.71,3.15h-.85L251,2.68h1.36l3.18,14.26h-.94l-.71-3.15Zm.15-.81h4.15l-2.1-9.22Z"/><path class="cls-1" d="M263.78,6.14v.31h-.9V6.08c0-1.5-.57-2.64-2.11-2.64s-2.12,1.12-2.12,2.62c0,3.46,5.15,3.52,5.15,7.45,0,2.05-.9,3.56-3.07,3.56s-3.08-1.51-3.08-3.56v-.74h.9v.8c0,1.52.59,2.62,2.16,2.62s2.15-1.1,2.15-2.62c0-3.42-5.14-3.48-5.14-7.45,0-2.13.93-3.52,3-3.54S263.78,4.09,263.78,6.14Z"/><path class="cls-1" d="M276.17,6.18V7.36h-.9V6.12c0-1.52-.59-2.68-2.15-2.68S271,4.6,271,6.12v7.41c0,1.52.59,2.66,2.16,2.66s2.15-1.14,2.15-2.66V11.84h.9v1.62c0,2.06-.9,3.61-3.07,3.61S270,15.52,270,13.46V6.18c0-2,.9-3.6,3.08-3.6S276.17,4.13,276.17,6.18Z"/><path class="cls-1" d="M279.87,13.79l-.71,3.15h-.85l3.11-14.26h1.36L286,16.94H285l-.71-3.15ZM280,13h4.15l-2.09-9.22Z"/><path class="cls-1" d="M294.38,6.18v7.28a4.16,4.16,0,0,1-.67,2.47,1.14,1.14,0,0,0,1.11.57h.23v.83h-.25a1.78,1.78,0,0,1-1.68-.83,3.11,3.11,0,0,1-1.88.57c-2.17,0-3.13-1.53-3.13-3.61V6.18c0-2.07,1-3.6,3.13-3.6S294.38,4.11,294.38,6.18Zm-5.33-.06v7.41c0,1.54.63,2.68,2.19,2.68s2.2-1.14,2.2-2.68V6.12c0-1.54-.63-2.68-2.2-2.68S289.05,4.58,289.05,6.12Z"/><path class="cls-1" d="M297.8,13.51c0,1.52.56,2.7,2.13,2.7s2.14-1.18,2.14-2.7V2.71h.87V13.46c0,2-.85,3.61-3,3.61s-3.05-1.57-3.05-3.61V2.71h.94Z"/><path class="cls-1" d="M310.19,9.3v.85H306.3v5.94H311v.85h-5.62V2.71H311v.85H306.3V9.3Z"/><path class="cls-1" d="M315.72,16.94V3.56h-2.89V2.71h6.73v.85h-2.9V16.94Z"/><path class="cls-1" d="M322.13,13.79l-.71,3.15h-.86l3.11-14.26H325l3.17,14.26h-.94l-.71-3.15Zm.14-.81h4.15l-2.09-9.22Zm3.58-13-1.71,1.93h-.71L324.88,0Z"/></g></g></svg>