<svg xmlns="http://www.w3.org/2000/svg" viewBox="0 0 57.65 132.48"><defs><style>.cls-1{fill:#0b6d41;stroke:#006837;stroke-linecap:round;stroke-linejoin:round;stroke-width:0.5px;}</style></defs><title>1Lamontanitaroll</title><g id="Capa_2" data-name="Capa 2"><g id="Capa_1-2" data-name="Capa 1"><path class="cls-1" d="M9.69.25c.24,1.72.43,3.47.62,5.17.27,2.39.55,4.85.95,7.27.62,3.83,1.2,8.86.06,13.91a6.68,6.68,0,0,0-.15,1.4c0,1.35.1,2.71.16,4.06.12,2.87.25,5.85.17,8.74a63,63,0,0,0,.41,7.46,41.68,41.68,0,0,1,.2,9.71,4,4,0,0,0,.32,2.67c.62,1,.44,1.59-.94,3.06a6.92,6.92,0,0,0-.63.75l-.29.35a1.46,1.46,0,0,0-.2,1.54l.31.7c.23.53.46,1,.71,1.57a3.1,3.1,0,0,1,.23,2.82,4.88,4.88,0,0,0,.71,5.19,16.48,16.48,0,0,1,1.21,2.08l.53,1a4.89,4.89,0,0,1,.2.46,3.71,3.71,0,0,0,1.17,1.71c.71.52,1,1.2,1.26,2.54A12.56,12.56,0,0,0,17.2,86c.07.2.14.39.2.58a1.46,1.46,0,0,0,1.21,1c1.68.21,2.16.64,2.3.88.23.39.12,1.21-.33,2.3a6,6,0,0,0,2.14,6.73c.48.4,1,.75,1.46,1.09a8.17,8.17,0,0,1,2.19,1.94A7.25,7.25,0,0,0,29,102.88a5.41,5.41,0,0,1,1.41,1.06,3.25,3.25,0,0,0,2.06,1c.15,0,.31,0,.44.09a1.47,1.47,0,0,0,1.61-.53c.29-.39.56-.78.83-1.16a25.39,25.39,0,0,1,1.85-2.41,2.84,2.84,0,0,1,1.29-.77c3.63-1,4.48-1.65,5-4.64,0,.12.1.24.14.37.54,1.47,1,2.86,1.48,4.26a1.22,1.22,0,0,1,0,.6A3.65,3.65,0,0,0,45,105c.22.41.42.84.64,1.3a10.68,10.68,0,0,0,2.61,3.88,2.23,2.23,0,0,1,.12.87c-.17,4.37.84,5.81,5.17,7.36a7.66,7.66,0,0,1,2,1.28l.22.18a.17.17,0,0,1,.09.18c-.82,2.38.16,5,1.6,7.2a13.54,13.54,0,0,0-1.77-.74,3.7,3.7,0,0,1-2.56-1.86,8.19,8.19,0,0,0-4-4,1.47,1.47,0,0,0-1.88.55c-.15.24-.32.47-.48.69a6.24,6.24,0,0,0-1.18,2.21c-.18.73-.42.83-.92.88a6.73,6.73,0,0,0-4,2.21,10.91,10.91,0,0,1-1.07.94,10.67,10.67,0,0,0-2.84,3.6l-.23.4-.07.11a15.56,15.56,0,0,0-3.75-2.3,15,15,0,0,1-1.49-.8,13.27,13.27,0,0,0-3.71-3.28,10.84,10.84,0,0,1-3-2.61,1.46,1.46,0,0,0-2.22-.23L21,124.2c-.46-1.27-.63-2-.18-2.85a3.23,3.23,0,0,0-.14-2.66l-.14-.31a10.39,10.39,0,0,0-1.46-2.68c-1.27-1.56-1.75-3.37-1.66-6.26a13.33,13.33,0,0,0-.8-4.32l-.27-.92a3.52,3.52,0,0,0-3.46-2.62c-2.86,0-5.76,0-8.56.1l-1.32,0a2.42,2.42,0,0,0-1,.23c.13-.64.27-1.3.42-2,.77-3.48,1.64-7.41.52-11v0a2.76,2.76,0,0,0,0-1c-.33-1.26-.68-2.48-1.07-3.83-.16-.53-.34-1.06-.52-1.59a19.88,19.88,0,0,1-.82-3A23.78,23.78,0,0,1,1.52,68a1.81,1.81,0,0,1,.21-.44A3.64,3.64,0,0,0,4,64.11C4.18,62.47,5,61,6.7,59A1.45,1.45,0,0,0,7,57.76a1.42,1.42,0,0,0-.42-.8l.24-.32c.81-1.08,2.15-2.89.75-5-1.23-1.89-1.46-3.35-.79-4.88A1.8,1.8,0,0,0,7,45.93a21.66,21.66,0,0,1,2-7.83A14.73,14.73,0,0,0,10.38,29a2.29,2.29,0,0,1,0-1c.81-2.38.38-4.57,0-6.68l-.12-.62A7.15,7.15,0,0,1,10,18.8c.31-4.18-1-8-2.2-11.27a8.63,8.63,0,0,0-1-2A38.26,38.26,0,0,0,9.69.25Z"/></g></g></svg>