<svg xmlns="http://www.w3.org/2000/svg" viewBox="0 0 631 465.74"><defs><style>.cls-1{fill:none;stroke:#006837;stroke-miterlimit:10;stroke-width:3px;}</style></defs><title>1lineamapa</title><g id="Capa_2" data-name="Capa 2"><g id="Capa_1-2" data-name="Capa 1"><path class="cls-1" d="M628.82,360.57a.53.53,0,0,1,0-.21l0-.1c.34-1.41.56-2.26,0-3.09s-1.4-.92-2.59-1.08l-.32,0c-2.22-.29-3-.61-3.21-2-.33-1.78-1.71-2.68-4.1-2.68h0a1.46,1.46,0,0,0-1.45,1.33c-.24,2.48-1.11,3.16-2.44,3.44s-2.33-.17-3.53-1.37a2.4,2.4,0,0,0,.51-1.86,3.16,3.16,0,0,0-1.61-2,1.46,1.46,0,0,0-1.24-.11,1.41,1.41,0,0,0-.88.87c-.13.33-.23.66-.33,1a6.58,6.58,0,0,1-.52,1.34l-.35.54a9.66,9.66,0,0,1-2.09,2.67,6.24,6.24,0,0,1-2.11.7l-.59.13-.29-.39,1.25-1.7a1.43,1.43,0,0,0,.2-1.34c-.68-2-2.23-2.88-4.61-2.58l-1.9.26a3.27,3.27,0,0,0-.3-3.15,1.48,1.48,0,0,0-1-.69,1.51,1.51,0,0,0-1.2.35l-2.26,2-1-.44.16-.22a1.47,1.47,0,0,0-.57-2.21c-.56-.25-1.09-.51-1.61-.77a21,21,0,0,0-3.64-1.53c-2.27-.64-3.93-2.07-5.38-4.62a9,9,0,0,0-1.15-1.71l-.19-.21a4.51,4.51,0,0,0-2.06-1.54c-.56-.17-.83-.41-1-1.35-.08-.48-.14-1-.19-1.3l0-.31a1.46,1.46,0,0,0-.57-1l-3-2.26.91-1.26a1.47,1.47,0,0,0-1.3-2.32l-3.09.24a1.47,1.47,0,0,0-1.36,1.5c0,.52,0,1.15-1.64,1.41-.49.08-.81-.12-1.53-.85,1.4-1.27,1.38-2.51,1.34-6.26a1.46,1.46,0,0,0-1.09-1.39c-.29-.08-.46-.13-.52-1.31-.17-3.13-1.23-4.32-4.35-4.88a1.49,1.49,0,0,0-1.18.31l-2,1.66-.93-.63.8-.61a1.46,1.46,0,0,0-.24-2.49,12.61,12.61,0,0,1-2.08-1.15,15.17,15.17,0,0,1,1.43-2.22,1.44,1.44,0,0,0,.13-1.47l-2.15-4.59a1.49,1.49,0,0,0-1-.8,1.43,1.43,0,0,0-1.23.25l-1.09.8-.08-.09a9.21,9.21,0,0,0-2.59-2.2c-1.39-.68-1.7-1.37-1.75-2.19a1.45,1.45,0,0,0-.78-1.21l-.16-.09a3.41,3.41,0,0,0,1.75-2.82,1.49,1.49,0,0,0-.13-.59l-1.53-3.52a1.48,1.48,0,0,0-.86-.8c-.26-.08-.52-.18-.77-.27-.61-.23-1.25-.46-1.91-.64a3.79,3.79,0,0,0-2.64,0,4.18,4.18,0,0,1-3.07.05,3.23,3.23,0,0,0,.46-3.41,3,3,0,0,0-3.34-1.81h-.11a2.54,2.54,0,0,1-2.44-1.55c-.2-.4-.4-.81-.66-1.36l-.47-1a1.47,1.47,0,0,0-2.55-.15l-.88,1.37a6.23,6.23,0,0,0-1.34-.21,1.64,1.64,0,0,0-1.4.67c-.16.23-.17.25-1,.06a4.51,4.51,0,0,0-2-.11,1.47,1.47,0,0,0-.9.62l-.88,1.33c-1.77-.62-1.71-.94-1.31-3.16.45-2.5-2.4-6.91-5-7.73a1.66,1.66,0,0,0-1.21.1l-.08,0a1.45,1.45,0,0,0-1,1.19l-.14.94a7.88,7.88,0,0,1-2.36-4.24l.6-.44a1.45,1.45,0,0,0,.5-1.71c-.6-1.55-.6-1.55.16-3.13l.07-.15a3.38,3.38,0,0,0-.15-2.91c-.67-1.17-2.4-1-3-.85a3.71,3.71,0,0,0-1.37.81l-.23.18a1.45,1.45,0,0,0-.6,1.41,12.05,12.05,0,0,1,.17,1.46c-.33-.58-.64-1.13-.9-1.68a3.81,3.81,0,0,1,0-.5,6,6,0,0,0,0-.6,5.14,5.14,0,0,1,0-.55,4.1,4.1,0,0,0-.32-2.09,2.92,2.92,0,0,1-.28-2.13,3.58,3.58,0,0,0-.1-1.61c0-.18-.09-.38-.12-.61a1.47,1.47,0,0,0-2.18-1c-.37.2-.7.42-1,.62a5.56,5.56,0,0,1-1.37.74,3.2,3.2,0,0,1-.79,0l.76-3.05a1.47,1.47,0,0,0-.64-1.6c-2.68-1.7-2.76-1.88-2.12-4.8A1.47,1.47,0,0,0,493,247c-1.34-1.11-2.15-2-2.38-3.24a2.9,2.9,0,0,0-.91-1.48,1.53,1.53,0,0,1-.18-.18L486.87,239l-1.15-1.34a1.47,1.47,0,0,0-1.52-.44l-4.42,1.27-3.63-2c-.31-.18-.63-.33-.95-.49a6.41,6.41,0,0,1-1.54-.93c-.26-.22-.51-.46-.76-.69-1.94-1.78-3.94-3.63-6.8-4.52a4.38,4.38,0,0,1-1.26-1.12c-.17-.2-.35-.39-.52-.56a6.05,6.05,0,0,1-.57-.86c-.14-.23-.28-.47-.45-.72a1.42,1.42,0,0,0-1.18-.67,1.54,1.54,0,0,0-1.22.58l-.62.84-3.21-1.24h0c-.35-.91-1.44-3.7-5-2.46a1.48,1.48,0,0,0-1,1.39v3.13a4,4,0,0,0-1.41,1.13c-.47.65-.93,1-1.23,1.07s-.83-.28-1.42-.85c-.86-.83-1.05-1.76-.74-3.58a1.45,1.45,0,0,0-.33-1.2,1.53,1.53,0,0,0-1.13-.52,3.77,3.77,0,0,1-1.05-.2,4.21,4.21,0,0,0-3.81.33,1.47,1.47,0,0,0-.66,1.22v.9l-2.09.58-.24.07c-.69.19-1.72.47-2,1.5l-.26,0a3.42,3.42,0,0,0-1.23.31,1.49,1.49,0,0,0-.76.87,3.25,3.25,0,0,0,1.63,4l.08.05a.41.41,0,0,1,0,.09,8.08,8.08,0,0,1-1.18.5,1.47,1.47,0,0,0-.79,2,5,5,0,0,1,.24.72,4.69,4.69,0,0,0,1.25,2.42,4.84,4.84,0,0,1,.24,1.81l-.14.1a6.62,6.62,0,0,0-.72.63,3.16,3.16,0,0,0-.47.7.31.31,0,0,1,0,.1l0,0a5.62,5.62,0,0,1-1,.85c-.81.45-1.67.87-2.59,1.31l-.72.36-.9-.26a1.46,1.46,0,0,0-1.73.76c-.24.49-.46,1-.67,1.45a12.45,12.45,0,0,1-1.28,2.43,8,8,0,0,1-1.67,1.43l-.49.36-1.15-.37a1.48,1.48,0,0,0-1.79.77l-.3.65-.56,1.22a.75.75,0,0,1-.07.12,2.06,2.06,0,0,0-.22,1.81c.19.48,0,.78-.6,1.69-.14.19-.27.38-.4.58h-.2l-.11,0c-1.83-.33-2.7-.18-3.38.74l0-.06a1.48,1.48,0,0,0-1.92-.36l-2.5,1.49a9.12,9.12,0,0,0-6.69-2.29c-.88.08-1.18-.1-1.45-.51a23.36,23.36,0,0,0-4.59-5.4.05.05,0,0,0,0,0,12.76,12.76,0,0,0,.74-1.25c.08-.15.15-.3.23-.44a1.46,1.46,0,0,0-.59-2c-.13-.07-.25-.16-.38-.24a3.07,3.07,0,0,0-2.11-.74,7.22,7.22,0,0,1-2.61-.18,1.42,1.42,0,0,0,.47-.87,1.44,1.44,0,0,0-1.23-1.64c-.42-.11-2.18-.94-3.24-1.43a17.4,17.4,0,0,0-3.05-1.29c-.17,0-.38-.07-.58-.1l-.43-.06a10.32,10.32,0,0,0-3.75-3.11,8.56,8.56,0,0,1-2.73-2.12,4.82,4.82,0,0,0-1-1,4.28,4.28,0,0,1-.37-.32.26.26,0,0,1,0-.1c.41-1.23-.77-2.34-1.21-2.64-.27-.17-.53-.36-.8-.54a18.93,18.93,0,0,0-3.48-2c-1.29-.53-1.29-.67-1.28-1.2a2.42,2.42,0,0,0-.89-1.77,2.08,2.08,0,0,1-.21-.22c-.19-.27-.4-.53-.62-.79a3.71,3.71,0,0,1-.72-1.05,17.87,17.87,0,0,0-.48-1.75c-.48-1.52-.75-2.51-.23-3.56a2.39,2.39,0,0,0-.44-2.7c-.56-.49-.6-1.15-.62-2.36a13.57,13.57,0,0,0-.06-1.4,1.45,1.45,0,0,0-1.25-1.29c-1.9-.28-2.51-1.08-2.84-3.73-.21-1.7-.77-6.2-5.28-7l0,0a4.17,4.17,0,0,0-3.1-2.13l-.26-.06c-2-.52-2.06-.67-2.22-2.39a7,7,0,0,0-2.3-4.59c-.26-.25-.54-.49-.82-.74a6.85,6.85,0,0,1-1.7-1.88,13.8,13.8,0,0,0-4.54-5.44,1.32,1.32,0,0,1-.29-.37c.39-2.42-1.32-3.46-2.35-4.09s-1.84-1.12-1.85-2.78a4.34,4.34,0,0,1,.22-1.14c.11-.42.18-.84.24-1.17l0-.3a1.46,1.46,0,0,0-1.07-1.68l-2.09-.53L328,170.27l-3.8-1c-1.22-.33-2.45-.64-3.69-1a3.25,3.25,0,0,0-3.81,1c-1,1.35-2.38,1.49-4.41,1.55a35.16,35.16,0,0,0-6.92.7,4.29,4.29,0,0,1-4.27-.82c-2.71-2.27-3.64-2.25-6.25.16-1.34,1.24-1.94,1.32-3.34.41a8.4,8.4,0,0,1-2.05-2c-2.42-3.17-5.36-4.09-8.75-2.74-.5.2-.64.25-1.08-.48a37,37,0,0,0-2.74-4.1c-2.37-3-6-2.94-8.16-2.94a4.25,4.25,0,0,0-3,1.67,42.56,42.56,0,0,0-3.08,4.42c-.83,1.35-1.23,1.41-2.44,1.05a3.5,3.5,0,0,1-2.85-3.74c0-.38,0-.77,0-1.15a14.24,14.24,0,0,0-.95-6,7.43,7.43,0,0,0-4.42-4.05,7.3,7.3,0,0,0-5.86.48,4.49,4.49,0,0,1-5.32-.41l-.38-.28A11.69,11.69,0,0,1,239,150a6.06,6.06,0,0,0-5.52-1.7,5.58,5.58,0,0,1-3.31-.26,15.55,15.55,0,0,1-6.72-8.62c-1-3.63-1.92-7.29-2.58-10.07a27,27,0,0,0-3.62-8.7,15.9,15.9,0,0,1-2.58-11.76l0-.17c.46-2.76.94-5.62,0-8.63-.41-1.38-.77-2.81-1.12-4.19s-.63-2.49-1-3.74a9.73,9.73,0,0,0-1.52-3.44c-2.41-3.11-2.72-6.84-2.7-10.41,0-.85,0-1.71,0-2.57,0-2.36.08-4.81-.1-7.24l-.05-.76c-.21-3.18-.43-6.46-2.78-9.48a3.82,3.82,0,0,1,0-4.64c.21-.3.4-.62.6-.93a19.18,19.18,0,0,1,1.8-2.6c1.5-1.76,3.16-3.57,5.08-5.56a16.64,16.64,0,0,0,4.27-7.62c1.42-5.86-.62-10.78-2.8-14.81a15.13,15.13,0,0,0-7.77-7,20,20,0,0,0-3.6-1,9.28,9.28,0,0,1-4.82-2.66c-.27-.29-.53-.57-.81-.85a41.62,41.62,0,0,0-3.92-3.81,15.27,15.27,0,0,0-5.17-3,79.14,79.14,0,0,0-8.16-1.74l-2-.35c-2.64-.49-7.1,1.78-8.35,4.27l-.19.37a15.27,15.27,0,0,1-1.16,2.05c-.81,1.12-1.71,2.23-2.57,3.31a37.74,37.74,0,0,0-5.71,8.65.68.68,0,0,1-.14.24,5.88,5.88,0,0,0-1.9,5.39l.15,1.63c.17,1.81.34,3.68.41,5.5a8.59,8.59,0,0,1-1.43,5.49l-.59.85a37,37,0,0,0-2.64,4.08,6.18,6.18,0,0,1-3.73,3.16,8.17,8.17,0,0,0-1.34.54c-4.17,2.23-7,5.86-8.54,11.06l-.45,1.05-.7,1.63-.16.1-2.07,1.72c-1.48,1.22-2.88,2.37-4.26,3.58-3.08,2.71-6.14,9.05-8.37,13.68-.39.82-.75,1.57-1.08,2.24a12.15,12.15,0,0,0-4.08,1.94,9.09,9.09,0,0,0-1.57.76,8.22,8.22,0,0,1-.85.46,5.79,5.79,0,0,0-3.65,3.93,23.87,23.87,0,0,0-.15,7.71,1.5,1.5,0,0,0-.41.71,12.74,12.74,0,0,0-.29,2.25c0,.44-.07.85-.13,1.24a26,26,0,0,1-2.83,5.27l0,.06a9.19,9.19,0,0,0-2.15.11,8.38,8.38,0,0,0-2.07.7l-.56.25c-.43.17-.86.36-1.28.55a12.62,12.62,0,0,1-2.21.87A8.37,8.37,0,0,0,96,112.76l-.43.67c-1.3,2.08-2.78,4.41-2.69,7.43a3.43,3.43,0,0,1-.1.57,6.56,6.56,0,0,0-.17,1,2.22,2.22,0,0,1-1.41,2.09,8.93,8.93,0,0,0-2.8,2.16c-1.7,2-3.38,4.09-5,6.09L81.63,135l-.45.58a5.74,5.74,0,0,1-.65.8,25.38,25.38,0,0,0-6.5,9.2,4.78,4.78,0,0,1-2.44,2.33,80.4,80.4,0,0,0-6.79,4.64c-1.84,1.33-3.57,2.59-4.67,3.28a1.39,1.39,0,0,0-.57.68,4.57,4.57,0,0,1-4.61.81c-3.13-1.08-4.14-.09-5.32,2.67-.24.55-.47,1.1-.7,1.65-.71,1.69-1.45,3.43-2.28,5.08-2.13,4.19-5.66,7.28-8.85,9.74-.4.32-.79.65-1.18,1a9.74,9.74,0,0,1-2.45,1.74,7.94,7.94,0,0,0-3.8,3,8.23,8.23,0,0,0-1.92-3.87,1.5,1.5,0,0,0-1.08-.38c-.24,0-.43,0-.6,0a2.79,2.79,0,0,0-1.64.34c-.26.17-.52.34-.8.5-1.72,1.06-3.67,2.26-4.55,4.75a5.72,5.72,0,0,1-1.18,1.75c-2.21,2.37-2.83,4.8-1.87,7.38-3.18,2.14-3.05,5.76-3,8.26a3.71,3.71,0,0,0,0,.47,3.76,3.76,0,0,1,0,.57l-.13.48a10.91,10.91,0,0,1-.95,2.59,3.59,3.59,0,0,0-.39,3.34c.06.15.12.31.17.47a6.9,6.9,0,0,0-3.93,3.76A5.65,5.65,0,0,1,7,214.52l-.46.44c-1.14,1.09-2.24,2.24-3.31,3.35-.44.47-.89.93-1.33,1.39a1.46,1.46,0,0,0-.2,1.79l1.16,1.9a4.88,4.88,0,0,0,.53,5.1,3.28,3.28,0,0,1,.28.87c.05.21.09.42.15.63A6.28,6.28,0,0,0,10,234.92a10.17,10.17,0,0,1,1.66.31c.34.08.69.17,1,.23l1.42.32a17.16,17.16,0,0,0,3.9.6h0a9.19,9.19,0,0,0,3.22-.8c.35-.13.69-.27,1-.37a1.62,1.62,0,0,0,.39-.21,8.46,8.46,0,0,0,3.4,4.74c.69.47,1.83,1.36,2.52,1.94A6.12,6.12,0,0,0,34.07,243a2,2,0,0,1,.44-.06,6.49,6.49,0,0,0,3.73,1.44,2.19,2.19,0,0,0,2.43-2.69c.75-.54,1.06-.31,2.32.64a15,15,0,0,1,1.41,1.27A6.15,6.15,0,0,0,49,245.88a1.59,1.59,0,0,1-.17,1.34,9.17,9.17,0,0,0-.74,2.38c0,.17-.06.31-.09.43a1.48,1.48,0,0,0,.35,1.39c.42.44.83.81,1.2,1.13a5.77,5.77,0,0,1,.94.94,6.32,6.32,0,0,0,4.22,4.68c.9.37,1.06.79,1,1.46a7.17,7.17,0,0,0,.59,2.77,4.5,4.5,0,0,0,4,2.34,3.34,3.34,0,0,0,1.34-.26,3.11,3.11,0,0,0,2-2.65l.23.27.23.27c1.19,1.4,2.31,2.83,3.5,4.33l1.47,1.84a1.46,1.46,0,0,0,1.86.37c.27-.15.56-.34.87-.55a5.35,5.35,0,0,1,1.65-.86,17.36,17.36,0,0,1,3.11-.16c.62,0,1.24,0,1.85,0h.34a3.82,3.82,0,0,0,2.44-.63c1-.81,2.19-.83,3.68-.84l1.18,0c.44,0,1.18,0,1.32.54,1.16,4.2,4.8,4.25,6.77,4.28l.81.05.62.05c1.79.09,2.45.72,2.54,2.38a4.75,4.75,0,0,1-.18,1.06c-.07.27-.14.55-.19.85a1.46,1.46,0,0,0,.52,1.42l2.66,2.09a1.64,1.64,0,0,0,2.64-1.41,5.2,5.2,0,0,1,.78-.87,4.45,4.45,0,0,0,1.25,1.87c.66.59,1.21,1.05,1.74,1.48a20.37,20.37,0,0,0,4.18,2.77,6,6,0,0,0,2.35.43,6.72,6.72,0,0,0,3.61-.95,3.27,3.27,0,0,0,.74-.69l.22.06a3.79,3.79,0,0,0,4.15-1.3c.12-.16.25-.31.38-.46.68,1.45,1.74,3.17,4.22,3.22a2.49,2.49,0,0,0,.49.36l.54.32a10,10,0,0,0,2,1c1.79.6,2.14,1.12,1.89,2.84a3.91,3.91,0,0,1-.31.88c-.09.23-.19.47-.27.72-.14.41-.27.81-.41,1.26l-.21.64a1.46,1.46,0,0,0,1.39,1.91c2.09,0,3.22,1.12,4.35,2.88.32.5.59,1.05.89,1.62q.16.35.36.69c.9,1.72.9,1.72-.29,2.8-2.16,1.94-1.94,3.93-1.53,5.81a5.93,5.93,0,0,0,3.08,4.17l-.39,3.13a1.46,1.46,0,0,0,1.45,1.65l1.34,0a15.06,15.06,0,0,1,2.79.06,4.9,4.9,0,0,0,4.13-1.08c.88-.72,1.84-1.45,2.9-2.22a1.2,1.2,0,0,1,1.43-.08c.11.06.43.26.24,1a5.82,5.82,0,0,0-.12,1.14c0,.13,0,.29,0,.46a1.45,1.45,0,0,0,1.28,1.54,17.12,17.12,0,0,0,6.43-.71l.42-.11.24.3c.6.78,1.22,1.58,1.8,2.38,1.21,1.69,2.38,3.39,3.75,5.41h0v.14a1,1,0,0,1-.82,1.24c-2.75,1.07-3,1.89-2.69,4.57l0,.14a7,7,0,0,0,3.1,5.33c.64.43.87.81.86,1s-.25.66-1.15,1.22l-1.19.77-1,.64a1.49,1.49,0,0,0-.66,1.26,1.44,1.44,0,0,0,.73,1.23l.69.4c.34.2.61.35.86.51s.69.42,1,.63a12.11,12.11,0,0,1,2.06,1.38,4.83,4.83,0,0,0,5.32,1.12,10.65,10.65,0,0,1,2.94-.45c1.25,0,2.22.64,3.67,1.79.19.14.37.29.55.44a9.47,9.47,0,0,0,4,2.28,34.21,34.21,0,0,0,9.29.59c4.86-.48,7.48,2.5,10.5,6l.52.59a.56.56,0,0,1,.08.21c.07.37.15.74.22,1.11a12.73,12.73,0,0,1,.38,5.41,10,10,0,0,1-.45,1.34q-.15.39-.3.81a1.44,1.44,0,0,0,.12,1.23,1.46,1.46,0,0,0,1,.7l.36,0h.06l.68.39a5.21,5.21,0,0,1,1.06.66c.25.57-.67,1.17-.85,1.29l-2.64,1.64-1.16.73a1.47,1.47,0,0,0-.53,1.92l.09.17a4.42,4.42,0,0,0,.49.86,4.34,4.34,0,0,0,1.13,1c2.88,1.77,3.92,3.37,3.7,5.68a1.46,1.46,0,0,0,.9,1.5c.48.2.94.34,1.38.48a3.7,3.7,0,0,1,2.19,1.19c.55.73.43,1.19,0,2.4-.1.3-.21.59-.3.88a1.47,1.47,0,0,0,.8,1.77c.55.24,1.07.5,1.6.74a38.07,38.07,0,0,0,3.62,1.57l.6.21a17.54,17.54,0,0,0,5.37,1.28,1.45,1.45,0,0,0,1.12-.47,1.43,1.43,0,0,0,.39-1.14c0-.33-.07-.64-.1-1a10.69,10.69,0,0,1-.13-1.59c0-.34.06-.46,0-.47l.1,0,.1,0a1,1,0,0,1,.18.31,10.65,10.65,0,0,1,.71,2.63c.24,1.83,1.27,3,2.77,3.06a3.72,3.72,0,0,0,3.13-1.72,19.21,19.21,0,0,0,1.42-3.72l.07-.23a6.17,6.17,0,0,0,.19-1.31,2.44,2.44,0,0,1,.06-.61.88.88,0,0,1,.46-.6,1,1,0,0,1,.81.27c1.37,1.09,1.57,1.75,1.05,3.39a6.73,6.73,0,0,0-.22,1c0,.19-.08.41-.13.68a1.47,1.47,0,0,0,2.33,1.46,9.73,9.73,0,0,1,4.5-1.71c.6-.11,1.22-.24,1.84-.4,2.28-.61,3.87,0,5.32,2,.63.9,2.57,3.62,6,1.87a.54.54,0,0,1,.33-.09l.07.1c.38.76.19.95.06,1.08s-.33.31-.5.45a9.4,9.4,0,0,0-.83.76,4.34,4.34,0,0,0-1.28,3.26,4.13,4.13,0,0,0,1.66,2.94,40.28,40.28,0,0,0,4,2.8,2.86,2.86,0,0,0,2.3.47,3.3,3.3,0,0,0,1.93-1.81c.18-.33.37-.71.49-.88a3.5,3.5,0,0,1,.6,0l.26.74c.48,1.28.95,2.6,1.47,3.9a3,3,0,0,0,2.19,2.16,3.07,3.07,0,0,0,2.81-1.34,8.05,8.05,0,0,0,.57-.79,3.87,3.87,0,0,1,.44-.58c1.17-.91,2.1-1.34,2.7-1.24q.67.12,1.44,1.29l.3.47c.43.68.85,1.32,1.21,2a3.68,3.68,0,0,0,4.27,1.94c.48-.09,1-.15,1.55-.21a13.47,13.47,0,0,0,3.36,6.29,5.8,5.8,0,0,0,3.43,2.22c2.89.63,5.5,1.25,7.94,1.88.81.21,1.6.46,2.44.72a35.7,35.7,0,0,0,4.13,1.1,6.66,6.66,0,0,1,3.86,1.74c2.8,2.83,6.14,2.5,9.07,2.2l.49,0a7.22,7.22,0,0,0,5.07-3.07,1.6,1.6,0,0,1,1.3-.65c.6-.05,1,.07,1.42.89a7.09,7.09,0,0,0,7.51,3.71,1.81,1.81,0,0,1,.46,0v2.51a1.46,1.46,0,0,0,.57,1.16,1.44,1.44,0,0,0,1.25.27l.94-.23c.61-.15,1.15-.28,1.68-.43a3.11,3.11,0,0,1,2.73.22,3,3,0,0,1,.84,2.5c0,.81-.08,1.51-.14,2.14-.21,2.08.52,3.42,2.18,4a3.67,3.67,0,0,0,4.43-1.7,3.62,3.62,0,0,1,.22-.32c2,3.92,4.39,4.67,8.75,2.92,3.29-1.3,5.28-1.17,7.37.5,1.34,1.07,3.47,1.83,5.93-.66a6.75,6.75,0,0,1,2.86-1.62c1.43,2.58,3.82,4.33,7.28,5.34.63.18.95.67,1.38,1.63a5.49,5.49,0,0,0,3.27,3.08,5.24,5.24,0,0,1,1.46,1.13c.3.29.61.64.92,1a12.37,12.37,0,0,0,1.57,1.59,4.54,4.54,0,0,0,3.35,1.2,14,14,0,0,0,4.89-1.69c3-1.84,4.12-1.87,6.85-.14a3.43,3.43,0,0,0,.82.35l.12,0a1.42,1.42,0,0,0,.84.06,3.18,3.18,0,0,0,2.4-3.25l0-.21a16.35,16.35,0,0,1,2.54-7.27c.59-.92,1.12-1.07,1.72-1,4.17.36,6.85,1.9,8.44,4.89a19.2,19.2,0,0,1,1.2,3,4.61,4.61,0,0,0,3.39,3.38,14.19,14.19,0,0,0,7.92-.15,16.53,16.53,0,0,0,1.9-.85,6.65,6.65,0,0,1,3.16-1,2.55,2.55,0,0,0,1.82-.93c1.17-1.43,1.9-2.25,3.22-2.28a2.66,2.66,0,0,0,2-1.35l.06-.07a.92.92,0,0,1,1-.47c.45,2.46,2.92,3.14,4.2,3.49a2.59,2.59,0,0,1,.83.44c1,.76,2,1.55,3.08,2.39l.79.62c.28,2,2.11,3.18,2.94,3.71l.95.59a19.2,19.2,0,0,1,3.66,2.64,12.25,12.25,0,0,0,6.32,3.05c.56.14,1.09.27,1.58.43a1.61,1.61,0,0,0,.44.06,1.43,1.43,0,0,0,1.07-.47l1.84-2c1.32-1.41,2.56-2.75,3.76-4.14.85-1,1.65-2,2.44-3s1.78-2.28,2.72-3.35a35.87,35.87,0,0,1,4.13-4,1.23,1.23,0,0,1,1-.32,1.21,1.21,0,0,1,.79.56,3.2,3.2,0,0,1,.28,1.74,4,4,0,0,0,2.28,3.94c.79.41,1.56.84,2.33,1.28s1.62.9,2.45,1.33a5.46,5.46,0,0,0,2.26.63c5.11.21,9.2-2.05,12.19-4.05a4,4,0,0,0,1.42-5.13c-1.15-2.52-1.39-5.26-.79-9.16a7,7,0,0,1,2.8-5,19,19,0,0,0,6.64-9.24,15.69,15.69,0,0,1,3.07-4.72c1.18-1.35,2.18-1.89,3.26-1.76,4.47.52,6.47-2.47,7.7-5.13l.45-1a19.31,19.31,0,0,1,1-2,1.71,1.71,0,0,1,2.24-.88,10.21,10.21,0,0,0,6.23.36,7.72,7.72,0,0,1,2.28-.17l1.87.14c3.27.23,6.66.47,10,.88a8.56,8.56,0,0,0,6.45-1.51,9.38,9.38,0,0,1,4.93-2,4.2,4.2,0,0,0,4-3.34c.07-.32.16-.63.26-.94a16.53,16.53,0,0,0,.51-2.1c.35-2.43.74-5.31,1-8.23a2.78,2.78,0,0,1,1.18-2.29c2.76-1.92,5.7-4,8.55-6.09l.48-.35a12.14,12.14,0,0,0,3.2-3c1.33-2,3.21-2.93,6.26-3a37.65,37.65,0,0,0,9.13-1.76,26.22,26.22,0,0,1,6.2-1.19c6.32-.28,11.33-3.26,15.29-9.09A3.16,3.16,0,0,0,628.82,360.57Z"/></g></g></svg>