<svg xmlns="http://www.w3.org/2000/svg" viewBox="0 0 46.91 54.84"><defs><style>.cls-1{fill:none;stroke:#006837;stroke-linecap:round;stroke-linejoin:round;stroke-width:0.5px;}</style></defs><title>1Milan</title><g id="Capa_2" data-name="Capa 2"><g id="Capa_1-2" data-name="Capa 1"><path class="cls-1" d="M46.66,33a10.61,10.61,0,0,0-1,2.68A7.39,7.39,0,0,1,44.73,38a20.39,20.39,0,0,0-2.5,6.35q-.13.51-.27,1a4.05,4.05,0,0,0,1.39,4c.62.36.83.93,1.16,1.89.08.22.15.45.23.66a1.33,1.33,0,0,1,0,.5c-.33.24-.64.49-.95.73a5.32,5.32,0,0,1-2.51,1.43c-.06-.23-.11-.5-.16-.77a5.16,5.16,0,0,0-1.32-3,5.49,5.49,0,0,0-3.57-1.05l-.74,0a6.68,6.68,0,0,0-2.67.29,10.6,10.6,0,0,0-1.53.61A9.71,9.71,0,0,1,30,51.1a7.18,7.18,0,0,0-1.91.77,8.91,8.91,0,0,0-2.25-1.19c-.52-.24-1.29-.59-1.57-.75l-1-1A25.6,25.6,0,0,1,20.57,46a22.36,22.36,0,0,1-1.43-2.32,18.73,18.73,0,0,0-2-3.15A46.45,46.45,0,0,1,9.69,28.28,6.68,6.68,0,0,0,4.3,23.94a2,2,0,0,1-1.92-1.49c-.77-2.14-1.43-4.11-2-6C0,14.59.61,12,1.14,9.74a20,20,0,0,0,.77-4.95,3.23,3.23,0,0,1,.05-1,2.51,2.51,0,0,1,.9-.35,36.38,36.38,0,0,1,4.45-.91l.76-.1a10.55,10.55,0,0,0,5.71-2L15,.36C17.75.3,20.63.24,23.46.25a.63.63,0,0,1,.65.49l.28,1a11.14,11.14,0,0,1,.68,3.38,11.66,11.66,0,0,0,2.32,8.21,8.63,8.63,0,0,1,1,2l.14.32a1.29,1.29,0,0,1,.12.37c-.95,2.05-.3,3.82.28,5.39A15.21,15.21,0,0,1,29.51,23a1.46,1.46,0,0,0,2.42.68l1.79-1.7A18.48,18.48,0,0,0,36.41,24a10.88,10.88,0,0,1,3,2.6A6.5,6.5,0,0,0,42,28.3c1.12.55,3.21,1.58,3.48,2.39a1.45,1.45,0,0,0,.39.58A3.18,3.18,0,0,0,46.66,33Z"/></g></g></svg>