<svg xmlns="http://www.w3.org/2000/svg" viewBox="0 0 128.04 53.2"><defs><style>.cls-1{fill:#f0a200;}.cls-2{fill:#193e2e;}</style></defs><title>1Morelia2018</title><g id="Capa_2" data-name="Capa 2"><g id="Capa_1-2" data-name="Capa 1"><path class="cls-1" d="M126.77,27.65H1.27a1.27,1.27,0,0,1,0-2.54h125.5a1.27,1.27,0,0,1,0,2.54Z"/><path class="cls-2" d="M30.78,4.6V16.21H28.51V.18h3.16l2.59,9.59V.18H36.5v16H33.91Z"/><path class="cls-2" d="M39,4c0-2.57,1.35-4,3.82-4s3.82,1.46,3.82,4v8.33c0,2.56-1.35,4-3.82,4S39,14.92,39,12.36Zm2.52,8.49c0,1.14.5,1.58,1.3,1.58s1.3-.44,1.3-1.58V3.87c0-1.15-.5-1.58-1.3-1.58s-1.3.43-1.3,1.58Z"/><path class="cls-2" d="M58.93,16.21a4.92,4.92,0,0,1-.23-2V11.72c0-1.49-.5-2-1.65-2h-.87v6.53H53.67V.18h3.8c2.61,0,3.73,1.22,3.73,3.69V5.13c0,1.65-.53,2.72-1.65,3.25,1.26.52,1.67,1.74,1.67,3.41v2.47a4.78,4.78,0,0,0,.27,2ZM56.18,2.47V7.39h1c.94,0,1.51-.41,1.51-1.69V4.12c0-1.14-.39-1.65-1.28-1.65Z"/><path class="cls-2" d="M66.3,6.94h3.46V9.22H66.3v4.7h4.35v2.29H63.78V.18h6.87V2.47H66.3Z"/><path class="cls-2" d="M76.9,7.28h3.52v5.08c0,2.56-1.28,4-3.75,4s-3.75-1.47-3.75-4V4c0-2.57,1.28-4,3.75-4s3.75,1.46,3.75,4V5.58H78V3.87c0-1.15-.5-1.58-1.3-1.58s-1.31.43-1.31,1.58v8.65c0,1.14.51,1.56,1.31,1.56s1.3-.42,1.3-1.56V9.57H76.9Z"/><path class="cls-2" d="M83,.18h2.52v16H83Z"/><path class="cls-2" d="M91.62,0c2.44,0,3.7,1.46,3.7,4v.5H92.94V3.87c0-1.15-.45-1.58-1.26-1.58s-1.26.43-1.26,1.58c0,3.29,4.93,3.91,4.93,8.49,0,2.56-1.29,4-3.76,4s-3.75-1.47-3.75-4v-1h2.38v1.14c0,1.14.5,1.56,1.3,1.56s1.31-.42,1.31-1.56c0-3.3-4.92-3.91-4.92-8.49C87.91,1.46,89.17,0,91.62,0Z"/><path class="cls-2" d="M97,.18h7.78V2.47h-2.63V16.21H99.6V2.47H97Z"/><path class="cls-2" d="M112,16.21a4.92,4.92,0,0,1-.23-2V11.72c0-1.49-.5-2-1.65-2h-.86v6.53h-2.52V.18h3.8c2.61,0,3.73,1.22,3.73,3.69V5.13c0,1.65-.53,2.72-1.65,3.25,1.26.52,1.67,1.74,1.67,3.41v2.47a4.78,4.78,0,0,0,.27,2ZM109.29,2.47V7.39h1c.94,0,1.51-.41,1.51-1.69V4.12c0-1.14-.39-1.65-1.28-1.65Z"/><path class="cls-2" d="M125,16.21h-2.54l-.43-2.91H119l-.44,2.91h-2.31l2.56-16h3.69Zm-5.74-5.09h2.42L120.5,3Z"/><path class="cls-2" d="M75.4,53.06h-.94l-3-12.59V53.08h-.83V38.84H72l3,12.59,3-12.59h1.34V53.08h-.89V40.43Z"/><path class="cls-2" d="M81.65,42.32c0-2.07.95-3.6,3.11-3.6s3.15,1.53,3.15,3.6V49.6c0,2.08-1,3.6-3.15,3.6s-3.11-1.52-3.11-3.6Zm.93,7.34c0,1.55.61,2.69,2.18,2.69S87,51.21,87,49.66v-7.4c0-1.55-.63-2.68-2.21-2.68s-2.18,1.13-2.18,2.68Z"/><path class="cls-2" d="M93.24,38.84c2.18,0,3.05,1.2,3.05,3.22V43.3c0,1.67-.65,2.62-2.05,3,1.46.32,2.05,1.36,2.05,2.91v2.21a3.16,3.16,0,0,0,.35,1.71h-1a3.38,3.38,0,0,1-.3-1.71V49.14c0-1.9-1-2.43-2.67-2.43H91.21v6.37h-.94V38.84Zm-.53,7c1.67,0,2.65-.47,2.65-2.38V42.14c0-1.53-.59-2.44-2.14-2.44h-2v6.16Z"/><path class="cls-2" d="M103.76,45.43v.86H99.88v5.94h4.67v.85H98.94V38.84h5.61v.86H99.88v5.73Z"/><path class="cls-2" d="M106.89,53.08V38.84h.94V52.23h4.47v.85Z"/><path class="cls-2" d="M115.46,38.84V53.08h-.94V38.84Z"/><path class="cls-2" d="M119.26,49.93l-.71,3.15h-.85l3.11-14.26h1.36l3.18,14.26h-.94l-.71-3.15Zm.15-.81h4.15l-2.1-9.22Z"/></g></g></svg>