<svg xmlns="http://www.w3.org/2000/svg" viewBox="0 0 26.03 41.17"><defs><style>.cls-1{fill:none;stroke:#006837;stroke-linecap:round;stroke-linejoin:round;stroke-width:0.5px;}</style></defs><title>1Morelia</title><g id="Capa_2" data-name="Capa 2"><g id="Capa_1-2" data-name="Capa 1"><path class="cls-1" d="M.73,5C.63,4.64.54,4.31.46,4,.12,2.47.17,2,.74,1.47A4.27,4.27,0,0,0,1.65.25l.54.23A5.27,5.27,0,0,1,3.25,1c.16.22.33.43.5.65A5.28,5.28,0,0,1,4.66,3l.09.27c.77,2.26,1.34,2.66,3.84,2.66h.18a5.68,5.68,0,0,0,4.9,1.35c.62.76,1.21,1.51,1.78,2.25a48.39,48.39,0,0,0,5.2,5.94,4.89,4.89,0,0,1,1.19,2.62,8.62,8.62,0,0,0,1,2.81c-.9,2.06.7,5.14,1.9,7.45.24.45.46.87.55,1.09a1.41,1.41,0,0,0,.45.57,7.9,7.9,0,0,0-.05,1.4,18.93,18.93,0,0,1-.7,4.16,35.73,35.73,0,0,0-.9,4.85,3.35,3.35,0,0,0-1.18,0c-.25.06-.49.14-.73.22a4.1,4.1,0,0,1-.5.14c-1.94.41-3.53-.47-5.32-1.92a12.64,12.64,0,0,1-1.89-2.06c-.3-.37-.59-.73-.9-1.09A18.44,18.44,0,0,0,11.74,34C10.18,32.6,9.21,31.69,9.09,30s-1.85-1.72-4.72-1.88l-.31,0a1.56,1.56,0,0,0-.31,0,12.09,12.09,0,0,1,.38-5.42c.31-1.32.54-2.63.77-3.91.09-.54.19-1.08.29-1.6a1.47,1.47,0,0,0-.71-1.54A7.48,7.48,0,0,1,.85,11.12l-.08-.26c0-.15-.11-.38-.14-.53C1.69,8.34,1.16,6.49.73,5Z"/></g></g></svg>