<svg xmlns="http://www.w3.org/2000/svg" viewBox="0 0 63.1 133.16"><defs><style>.cls-1{fill:#0b6d41;stroke:#006837;stroke-linecap:round;stroke-linejoin:round;stroke-width:0.5px;}</style></defs><title>1PuertoricoRoll_1</title><g id="Capa_2" data-name="Capa 2"><g id="Capa_1-2" data-name="Capa 1"><path class="cls-1" d="M8.5,4C9.85,2.83,11.23,1.69,12.69.48L13,.25c.41,2.4.83,4.87,1.21,7.33a7.91,7.91,0,0,0,4.29,5.88q.59.33,1.17.69A23.29,23.29,0,0,0,22,15.45a3.91,3.91,0,0,0,3.15,0c.73-.36,1-.4,1.66.59a2.48,2.48,0,0,0,.8.77l.24.17a1.46,1.46,0,0,0,1.35.24l1.92-.62a1.18,1.18,0,0,1-.13.75,4.43,4.43,0,0,0,1.24,5.69c.22.18.82.67.33,2.39a7.26,7.26,0,0,0-.21,1.12c-.14,1-.17,1-.55,1.09a3.39,3.39,0,0,0-2,2c-.74,1.54-1.43,1.88-3.07,1.56-.64-.13-1.28-.23-1.83-.32l-.61-.11a1.46,1.46,0,0,0-1.4.55c-.25.31-.49.59-.71.85a9.31,9.31,0,0,0-1.38,1.93l-.34.67c-.88,1.68-2.07,4-.54,6.67.91,1.6.91,2.09.58,2.49a1.47,1.47,0,0,0-.1,1.72l2.67,4.21a1.49,1.49,0,0,0,1.32.68,6.13,6.13,0,0,0,4-2.14l.28-.27a24.59,24.59,0,0,1,1.5,2.34A4.83,4.83,0,0,0,35.36,53,5,5,0,0,0,35.9,53a4.73,4.73,0,0,1,.68-.08,6.55,6.55,0,0,0,4.28.22l.51,1.23c1.12,2.61,2.06,3.19,4.83,3a8.67,8.67,0,0,1,1.17,0,7.74,7.74,0,0,1,.17,1A9.71,9.71,0,0,1,47.33,61a4.94,4.94,0,0,0,1.16,4.43,26.67,26.67,0,0,1,3.42,4.7A5.33,5.33,0,0,1,52,72.45l0,.47c-.08.8-.22,1.61-.37,2.46s-.29,1.59-.37,2.41a7.22,7.22,0,0,0,1.25,5.3,3.54,3.54,0,0,1,.18.57l.09.35c.23.79.45,1.58.71,2.56l.22.78a7,7,0,0,1-.61.74c-1.5,1.58-2.9,4.26-1,8.08a5.09,5.09,0,0,1,.36,2.08l0,.42a27.19,27.19,0,0,0,.77,4.65c.15.63.29,1.25.41,1.87.07.36.14.72.22,1.07a22.8,22.8,0,0,1,.46,2.68,7.8,7.8,0,0,0,6.55,7.31,3,3,0,0,1,1.85.87,2.88,2.88,0,0,1,0,2c-.14.55-.23,1.09-.31,1.61,0,.3-.1.61-.16.91-.15.75-.31,1.51-.49,2.34l-.26,1.2a1.41,1.41,0,0,0,.17,1,6.5,6.5,0,0,0,.43.62,3.6,3.6,0,0,1,.49.78,10.83,10.83,0,0,1-.53,3.15h0l-.3.21-.19.13a1.19,1.19,0,0,1-.26.11,3,3,0,0,0-1.24.81c-.91,1.06-1.23,1.19-2.64.16a6.7,6.7,0,0,0-3.22-1c-1.65-.18-1.72-.36-1.76-1.77,0-1.79-1.5-3.17-2.78-4.38a13.89,13.89,0,0,1-1.09-1.1,1.61,1.61,0,0,0-.28-.24,8.21,8.21,0,0,0-.61-2.7A32.78,32.78,0,0,0,45,116.5c-.48-.74-1-1.51-1.42-2.27-.19-.31-.4-.63-.61-1a5.08,5.08,0,0,1-1-2,5.71,5.71,0,0,0-3.27-5.68,4.5,4.5,0,0,0-2.19-3.36c-.26-.19-.47-.41-.39-1.31a21.53,21.53,0,0,0,0-4.25,3.94,3.94,0,0,0-1.38-2.8,3.79,3.79,0,0,0-2.93-.74c-.6.07-1.21.12-1.82.16a20.27,20.27,0,0,0-5.63,1,11.29,11.29,0,0,1-5.3.32c-.72-.07-1.47-.14-2.23-.16-.36,0-.74-.12-1.12-.83a21.67,21.67,0,0,0-6.77-7A7,7,0,0,1,6,81.82c0-.25,0-.35,0-.36l.09-.07a5.16,5.16,0,0,0,2.2-4.73c0-4.06,1.14-7.87,2.34-11.91l.45-1.51a4.22,4.22,0,0,1,2.31-3,4.71,4.71,0,0,0,2.84-4.66c-.2-2.66-.72-5.69-3.11-7.95A6.28,6.28,0,0,1,11.65,45c-.12-.32-.23-.64-.34-1a15.58,15.58,0,0,0-2.08-4.38,8,8,0,0,1-1.7-3.54,17.69,17.69,0,0,0-.71-2.53c-.11-.32-.21-.65-.31-1-.18-.59-.38-1.17-.58-1.75a18.06,18.06,0,0,1-1-3.48,16.65,16.65,0,0,0-2.69-6.43c-.44-.72-.85-1.4-1.21-2.1A2.27,2.27,0,0,0,.25,18c.19-.4.39-.8.59-1.23C3,12.36,5.87,6.32,8.5,4Z"/></g></g></svg>