<svg xmlns="http://www.w3.org/2000/svg" viewBox="0 0 128.04 77.62"><defs><style>.cls-1{fill:#f0a200;}.cls-2{fill:#193e2e;}</style></defs><title>1SanJoseDato</title><g id="Capa_2" data-name="Capa 2"><g id="Capa_1-2" data-name="Capa 1"><path class="cls-1" d="M126.77,27.65H1.27a1.27,1.27,0,0,1,0-2.54h125.5a1.27,1.27,0,0,1,0,2.54Z"/><path class="cls-2" d="M6.31,2.29C5.51,2.29,5,2.72,5,3.87V5.58H2.63V4c0-2.57,1.28-4,3.75-4s3.75,1.46,3.75,4c0,5-5,6.91-5,9.54a2.06,2.06,0,0,0,0,.35H9.9v2.29H2.63v-2c0-4.72,5-5.5,5-10.12C7.61,2.68,7.11,2.29,6.31,2.29Z"/><path class="cls-2" d="M15,13.78v2.43H12.6V13.78Z"/><path class="cls-2" d="M19.33,2.2a2.49,2.49,0,0,0,2.77-2h1.7v16H21.28V4h-2Z"/><path class="cls-2" d="M35.15.18v2.2L31.44,16.21H28.92L32.61,2.47h-5V.18Z"/><path class="cls-2" d="M41.35,16.39c-2.54,0-3.93-1.47-3.93-4V11.1A3.52,3.52,0,0,1,39,7.76a3.33,3.33,0,0,1-1.55-3.23V4c0-2.57,1.39-4,3.93-4s3.94,1.46,3.94,4v.5a3.37,3.37,0,0,1-1.56,3.23,3.52,3.52,0,0,1,1.56,3.34v1.26C45.29,14.92,43.89,16.39,41.35,16.39ZM39.93,5c0,1.28.6,1.7,1.42,1.7s1.42-.42,1.42-1.7V4.12c0-1.44-.62-1.83-1.42-1.83s-1.42.39-1.42,1.83Zm1.42,9.09c.8,0,1.4-.39,1.42-1.81V10.8c0-1.26-.52-1.8-1.42-1.8s-1.42.54-1.42,1.8v1.49C39.93,13.71,40.55,14.1,41.35,14.1Z"/><path class="cls-2" d="M54.7,7.3H58V9.59H54.7v6.62H52.18V.18h6.66V2.47H54.7Z"/><path class="cls-2" d="M69.39,16.21H66.85l-.43-2.91H63.33l-.44,2.91H60.58l2.56-16h3.69Zm-5.74-5.09h2.42L64.86,3Z"/><path class="cls-2" d="M77.38,11.56,79.1.18h3.5v16H80.22V4.72L78.48,16.21H76.1L74.22,4.88V16.21H72V.18h3.51Z"/><path class="cls-2" d="M85.92.18h2.51v16H85.92Z"/><path class="cls-2" d="M91.75.18h2.52V13.92h4.14v2.29H91.75Z"/><path class="cls-2" d="M101,.18h2.52v16H101Z"/><path class="cls-2" d="M115,16.21h-2.54L112,13.3h-3.09l-.44,2.91h-2.31l2.57-16h3.68Zm-5.74-5.09h2.43L110.45,3Z"/><path class="cls-2" d="M121,0c2.45,0,3.7,1.46,3.7,4v.5h-2.38V3.87c0-1.15-.45-1.58-1.25-1.58s-1.26.43-1.26,1.58c0,3.29,4.92,3.91,4.92,8.49,0,2.56-1.28,4-3.76,4s-3.75-1.47-3.75-4v-1h2.38v1.14c0,1.14.5,1.56,1.3,1.56s1.31-.42,1.31-1.56c0-3.3-4.92-3.91-4.92-8.49C117.32,1.46,118.58,0,121,0Z"/><path class="cls-2" d="M72,42.28v.31h-.89v-.37c0-1.51-.57-2.64-2.12-2.64s-2.11,1.11-2.11,2.62c0,3.46,5.14,3.52,5.14,7.44,0,2.06-.89,3.56-3.07,3.56s-3.07-1.5-3.07-3.56v-.73h.89v.8c0,1.52.59,2.62,2.16,2.62s2.15-1.1,2.15-2.62c0-3.42-5.14-3.48-5.14-7.45,0-2.13.94-3.52,3-3.54S72,40.23,72,42.28Z"/><path class="cls-2" d="M75.71,49.93,75,53.08h-.85l3.11-14.26h1.36l3.18,14.26h-.94l-.71-3.15Zm.14-.81H80L77.9,39.9Z"/><path class="cls-2" d="M84.88,53.08H84V38.84h1.22l4.27,12v-12h.85V53.08h-1L84.88,40.39Z"/><path class="cls-2" d="M96.54,52.23a5.68,5.68,0,0,0,.83,0c1.34-.1,2-.82,2-2.57V38.84h.93V49.58c0,2.5-1.12,3.42-2.85,3.5a7.21,7.21,0,0,1-.93,0Z"/><path class="cls-2" d="M102.66,42.32c0-2.07,1-3.6,3.11-3.6s3.16,1.53,3.16,3.6V49.6c0,2.08-1,3.6-3.16,3.6s-3.11-1.52-3.11-3.6Zm.94,7.34c0,1.55.61,2.69,2.17,2.69S108,51.21,108,49.66v-7.4c0-1.55-.63-2.68-2.22-2.68s-2.17,1.13-2.17,2.68Z"/><path class="cls-2" d="M117.29,42.28v.31h-.9v-.37c0-1.51-.56-2.64-2.11-2.64s-2.12,1.11-2.12,2.62c0,3.46,5.15,3.52,5.15,7.44,0,2.06-.89,3.56-3.07,3.56s-3.07-1.5-3.07-3.56v-.73h.89v.8c0,1.52.59,2.62,2.16,2.62s2.15-1.1,2.15-2.62c0-3.42-5.14-3.48-5.14-7.45,0-2.13.93-3.52,3-3.54S117.29,40.23,117.29,42.28Z"/><path class="cls-2" d="M124.45,45.43v.86h-3.88v5.94h4.67v.85h-5.61V38.84h5.61v.86h-4.67v5.73Zm-.35-9.33L122.4,38h-.72l1.45-1.93Z"/><path class="cls-2" d="M49.93,63.26c2.19,0,3.15,1.44,3.15,3.54V74c0,2.09-1,3.54-3.15,3.54H46.79V63.26Zm0,13.38c1.58,0,2.23-1.08,2.23-2.64V66.76c0-1.57-.67-2.65-2.23-2.65H47.73V76.64Z"/><path class="cls-2" d="M60.26,69.85v.85H56.38v5.94h4.67v.86H55.44V63.26h5.61v.85H56.38v5.74Z"/><path class="cls-2" d="M63.4,77.5V63.26h.93V76.64h4.48v.86Z"/><path class="cls-2" d="M79.61,70.19v.86H75.93V77.5H75V63.26H80.4v.85H75.93v6.08Z"/><path class="cls-2" d="M85.61,63.26c2.18,0,3,1.2,3,3.21v1.24c0,1.67-.65,2.63-2,3,1.46.33,2,1.36,2,2.91v2.22A3.16,3.16,0,0,0,89,77.5H88a3.41,3.41,0,0,1-.3-1.71V73.55c0-1.89-1-2.42-2.67-2.42H83.58V77.5h-.94V63.26Zm-.53,7c1.67,0,2.65-.47,2.65-2.38V66.55c0-1.52-.59-2.44-2.14-2.44h-2v6.17Z"/><path class="cls-2" d="M92.67,74.34,92,77.5h-.85l3.11-14.26h1.36L98.75,77.5h-.93l-.71-3.16Zm.14-.81H97l-2.09-9.21Z"/><path class="cls-2" d="M107.06,66.74v1.05h-.9V66.68c0-1.53-.59-2.69-2.16-2.69s-2.15,1.16-2.15,2.69v7.4c0,1.52.59,2.66,2.15,2.66s2.16-1.14,2.16-2.66V71h-1.89v-.86h2.79V74c0,2-.9,3.6-3.08,3.6s-3.07-1.55-3.07-3.6V66.74c0-2.06.9-3.6,3.07-3.6S107.06,64.68,107.06,66.74Z"/><path class="cls-2" d="M110.33,74.06c0,1.52.57,2.7,2.14,2.7s2.13-1.18,2.13-2.7V63.26h.88V74c0,2-.86,3.6-3,3.6s-3-1.57-3-3.6V63.26h.93Z"/><path class="cls-2" d="M119.26,74.34l-.71,3.16h-.85l3.11-14.26h1.36l3.18,14.26h-.94l-.71-3.16Zm.15-.81h4.15l-2.1-9.21Z"/></g></g></svg>