<svg xmlns="http://www.w3.org/2000/svg" viewBox="0 0 243.84 298.43"><defs><style>.cls-1{fill:#0b6d41;stroke:#006837;stroke-linecap:round;stroke-linejoin:round;stroke-width:0.5px;}</style></defs><title>1SanVicenteRoll</title><g id="Capa_2" data-name="Capa 2"><g id="Capa_1-2" data-name="Capa 1"><path class="cls-1" d="M1.72,54.89c1.36-4.47,3.69-7.54,7.14-9.38a5.57,5.57,0,0,1,.88-.34,9,9,0,0,0,5.4-4.58,35,35,0,0,1,2.43-3.75l.61-.86a11.46,11.46,0,0,0,2-7.29c-.07-1.9-.25-3.81-.42-5.66l-.15-1.61c-.13-1.45.11-2.27.86-2.89a3.39,3.39,0,0,0,.95-1.33,35,35,0,0,1,5.3-8c.89-1.1,1.81-2.25,2.67-3.43a18.47,18.47,0,0,0,1.4-2.45L30.93,3c.65-1.28,3.87-3,5.22-2.7l2,.35A77.67,77.67,0,0,1,46,2.3a12.71,12.71,0,0,1,4.12,2.48,39,39,0,0,1,3.65,3.54l.81.85A12.06,12.06,0,0,0,61,12.69a17.53,17.53,0,0,1,3.09.86,12.12,12.12,0,0,1,6.28,5.74C72.24,22.83,74,27.1,72.85,32a13.78,13.78,0,0,1-3.53,6.28c-2,2-3.66,3.88-5.2,5.68a23.85,23.85,0,0,0-2.06,3l-.57.9a6.79,6.79,0,0,0,.14,8c1.79,2.29,2,5,2.17,7.86l.05.78c.17,2.29.13,4.67.09,7,0,.87,0,1.73,0,2.6,0,4.1.36,8.41,3.32,12.22a7.53,7.53,0,0,1,1,2.45c.34,1.2.65,2.44,1,3.65.35,1.41.72,2.87,1.15,4.31.7,2.36.29,4.77-.13,7.32l0,.17a18.88,18.88,0,0,0,3,13.84,23.87,23.87,0,0,1,3.21,7.77c.67,2.82,1.58,6.52,2.63,10.19A18.3,18.3,0,0,0,87,146.27c1.19.79,3,1,5.32.72a3.1,3.1,0,0,1,3,.84,12.91,12.91,0,0,0,1.76,1.44l.36.27a7.36,7.36,0,0,0,8.46.63,4.3,4.3,0,0,1,3.51-.28,4.54,4.54,0,0,1,2.69,2.46,11.77,11.77,0,0,1,.69,4.8c0,.4,0,.8,0,1.21a6.37,6.37,0,0,0,4.94,6.46c2.58.77,4.31.07,5.78-2.33a37.78,37.78,0,0,1,2.87-4.11,2.47,2.47,0,0,1,.69-.58c2.39,0,4.49.13,5.88,1.85a33.81,33.81,0,0,1,2.51,3.77,3.49,3.49,0,0,0,4.68,1.7c2.13-.85,3.72-.32,5.33,1.79a11,11,0,0,0,2.79,2.65c2.54,1.64,4.61,1.43,6.95-.73a13.56,13.56,0,0,1,1.13-1,13,13,0,0,1,1.22.94,7.17,7.17,0,0,0,6.82,1.43,31.9,31.9,0,0,1,6.34-.62c2-.07,4.77-.15,6.68-2.75a4,4,0,0,1,.74.15l3.66.95,3.82,1,4.58,1.16.74.18a6.46,6.46,0,0,0-.29,1.8,5.68,5.68,0,0,0,3.26,5.28c1.07.66,1.06.7.95,1.2a3.47,3.47,0,0,0,1.43,3.08,10.93,10.93,0,0,1,3.65,4.31,9,9,0,0,0,2.43,2.88c.25.22.5.44.73.66a4.17,4.17,0,0,1,1.41,2.75c.32,3.34,1.62,4.22,4.4,5l.29.07c.88.22,1.06.31,1.19.6a3,3,0,0,0,2.08,1.58c1.77.33,2.57,1.55,2.94,4.53.32,2.59,1.07,5.08,4.13,6v.09a5.86,5.86,0,0,0,1.19,4.11,7.51,7.51,0,0,0,.23,5.35c.16.52.31,1,.41,1.46a5.36,5.36,0,0,0,1.34,2.35c.17.2.33.39.48.6a4.3,4.3,0,0,0,.51.58l.06.06c.15,2.36,2,3.11,3.09,3.57a17.14,17.14,0,0,1,2.94,1.74l.72.49a3.12,3.12,0,0,0,1.46,3,2.61,2.61,0,0,1,.44.38,10.91,10.91,0,0,0,3.63,2.94,7.38,7.38,0,0,1,2.91,2.39,2.9,2.9,0,0,0,2.35,1.16l.36.05c.24.07,1.11.48,1.91.85l-.56.45c-.58.46-1.18.93-1.76,1.44a1.3,1.3,0,0,1-.23.17,1.21,1.21,0,0,1-.46-.31,1.73,1.73,0,0,1-.24-.3,2.74,2.74,0,0,0-1.67-1.21c-.52-.09-.79-.34-1.45-1.13-2.25-2.71-5.14-3.31-8.37-1.74-.4.19-.79.4-1.19.6s-1,.5-1.45.73c-3.88,1.79-5.81,4.73-5.72,8.73a10.15,10.15,0,0,1-1.68,5.78,12.4,12.4,0,0,0-1.33,3.09,3.22,3.22,0,0,1-1.75,2.24,63.36,63.36,0,0,1-7.11,2.4,6.85,6.85,0,0,0-4.93,4.7,9.5,9.5,0,0,0-.42,2l-.05.45a3.65,3.65,0,0,1-1,2.44,4.12,4.12,0,0,0-1,3.2c.1,1.07.26,2.13.41,3.16s.28,2,.38,2.94a4.63,4.63,0,0,1-.3,1.58c-.55,1.71-2,2.86-3.49,4.08-.35.28-.7.56-1,.85a10.62,10.62,0,0,0-3.39,4.79,26.81,26.81,0,0,1-2.29,5.33c-.1.18-.19.36-.28.55a15.58,15.58,0,0,0-4.9-7.29,5.09,5.09,0,0,0-6.78.1,10.94,10.94,0,0,0-1.44,1.55,10,10,0,0,1-1.06,1.15c-.9.78-1.87,1.49-2.9,2.24l-.64.47-3.61-1.88a1.46,1.46,0,0,0-1.12-.09l-1,.3c-.41-.47-.79-.91-1.12-1.36a.62.62,0,0,1-.05-.21,5.66,5.66,0,0,0-5.26-5,3.91,3.91,0,0,0-4.1,1.95,1.27,1.27,0,0,1-.8.62,1.14,1.14,0,0,1-.9-.23c-.19-.14-.4-.28-.62-.42-.95-.62-1.1-.8-1.08-1.32,0-1.63-1.69-2.86-1.89-3-1.52-1-1.51-2.33-1.34-4.74l0-.66a1.44,1.44,0,0,0-.52-1.21,5.86,5.86,0,0,0-.52-.39,3.46,3.46,0,0,1-.5-.4,4,4,0,0,0-3.3-2.08c-.27,0-.64-.09-.88-.14,0-.29-.07-.77-.1-1.26a1.45,1.45,0,0,0-.82-1.23l-.33-.16-.82-.41a.63.63,0,0,1-.43-.61A9.33,9.33,0,0,0,142,269c-.3-.82-.32-1-.13-1.43a4.1,4.1,0,0,0-1-4.85,17.19,17.19,0,0,1-1.21-1.4l-.58-.71a1.47,1.47,0,0,0-1.79-.37c-.31.16-.61.34-.92.53a5.1,5.1,0,0,1-.95.52c-.08-.14-.17-.34-.24-.49a7.63,7.63,0,0,0-.44-.84,3.45,3.45,0,0,0-1.58-1.22,3.46,3.46,0,0,1-.49-.26,3.68,3.68,0,0,1-.5-.76c-.12-.22-.26-.45-.4-.68a1.46,1.46,0,0,0-1.91-.51l-.53.28c0-.17,0-.38,0-.67a4.65,4.65,0,0,0-.52-2.37,1.53,1.53,0,0,0-.86-.66l-.14-.05a1.81,1.81,0,0,0-1.4-.06c-.39.15-.89.35-1.15.42a8.35,8.35,0,0,1-.67-.67l-.24-.24a9.49,9.49,0,0,1-.63-.79,5.21,5.21,0,0,0-3.41-2.47c-.14-.22-.33-.59-.44-.81l-.3-.57a7.23,7.23,0,0,0-2.17-2.2c-.79-.59-1.29-1-1.48-1.57a2.25,2.25,0,0,0-1.06-1.2l-.09-.05L113,241.73c-1.3-.83-2.65-1.7-3.88-2.62a6.87,6.87,0,0,1-1.28-1.41c-.31-.4-.63-.82-1-1.22a13.72,13.72,0,0,1-1.58-2.06,3.92,3.92,0,0,1-.66-1.36c-.19-2.7-1.71-4.48-4.53-5.27-1.74-.5-3-1-3.66-2.19-.38-.61-.73-1.23-1.09-1.85-.53-.93-1.09-1.89-1.69-2.82a7.11,7.11,0,0,0-1.9-1.8,5.65,5.65,0,0,0-1-.57c-.18-.09-.46-.22-.51-.26A5.93,5.93,0,0,0,84.47,216a4.49,4.49,0,0,1-2-.46l-.48-.19a2,2,0,0,1-1.41-1.61c-.92-4.22-4-6.3-6.52-7.64a61.24,61.24,0,0,1-13-8.86,14.71,14.71,0,0,0-2.21-1.72,13.38,13.38,0,0,1-6.31-8c-.14-.47-.3-1-.47-1.53-.78-2.52-1.76-5.65-1-7.71a1.46,1.46,0,0,0-.9-1.86h0a3.82,3.82,0,0,0-.32-.64,5.38,5.38,0,0,0-3.79-2.17,4.94,4.94,0,0,1-4.17-4.7,23.92,23.92,0,0,0-.51-3l-.21-1c-.13-.65-.28-1.31-.43-2a23.53,23.53,0,0,1-.7-4.15l0-.4a7.64,7.64,0,0,0-.66-3.25c-1-1.93-.8-3.4.49-4.75a12,12,0,0,0,1-1.31c.08-.11.14-.2.2-.27a1.46,1.46,0,0,0,.25-1.29l-.4-1.45c-.27-1-.49-1.8-.72-2.6,0-.09,0-.18-.07-.28a4.31,4.31,0,0,0-.66-1.57,4.39,4.39,0,0,1-.7-3.25c.08-.72.21-1.44.35-2.2s.31-1.79.4-2.72l0-.44a7,7,0,0,0-.37-4,28.74,28.74,0,0,0-3.8-5.25,2.05,2.05,0,0,1-.51-2,11.63,11.63,0,0,0,.24-3.63c-.39-3.27-1.69-3.73-4.47-3.52a4.15,4.15,0,0,1-1.27,0,3.94,3.94,0,0,1-.64-1.22c-.23-.54-.45-1.08-.69-1.66l-.34-.84a1.46,1.46,0,0,0-2-.77,4,4,0,0,1-3.42.25,4.19,4.19,0,0,0-2.18-.09l-.4.06c-1.45.15-1.92-.2-2.31-.94a26.2,26.2,0,0,0-1.74-2.73c-.27-.38-.55-.78-.82-1.19a1.48,1.48,0,0,0-2-.44,11.37,11.37,0,0,0-1.86,1.54,6.7,6.7,0,0,1-1.34,1.1l-1.62-2.56c.8-1.87-.27-3.76-.89-4.84-.71-1.24-.28-2.18.59-3.87l.37-.73a7.37,7.37,0,0,1,1-1.32l.23-.27,1.52.27c3,.59,5-.41,6.28-3.16a3.21,3.21,0,0,1,.32-.53A3.68,3.68,0,0,0,20,87.24a5.2,5.2,0,0,1,.12-.71c.84-3-.24-4.6-1.29-5.46-.71-.58-.93-1-.41-2.26A3.73,3.73,0,0,0,17.2,74a1.48,1.48,0,0,0-1.32-.22l-2,.66a3.81,3.81,0,0,0-5.21-1.37A1.19,1.19,0,0,1,8,73,18.46,18.46,0,0,1,5.9,71.89c-.42-.25-.84-.5-1.27-.74a5,5,0,0,1-2.81-3.76C1.4,64.64.93,61.91.47,59.26a6.43,6.43,0,0,0-.22-.89c.3-.71.69-1.62.93-2.17A12.29,12.29,0,0,0,1.72,54.89Z"/></g></g></svg>