<svg xmlns="http://www.w3.org/2000/svg" viewBox="0 0 46.92 54.02"><defs><style>.cls-1{fill:#0b6d41;stroke:#006837;stroke-linecap:round;stroke-linejoin:round;stroke-width:0.5px;}</style></defs><title>1Sanjoseroll</title><g id="Capa_2" data-name="Capa 2"><g id="Capa_1-2" data-name="Capa 1"><path class="cls-1" d="M20.3,48.79a1.47,1.47,0,0,0-1.7.56l-.13.17a2.1,2.1,0,0,0-.45.88,8.27,8.27,0,0,0-.18,1.39,1.49,1.49,0,0,0-1-.06c-.4.13-.82.29-1.23.45a6.82,6.82,0,0,1-2.17.59,13.09,13.09,0,0,1-3.24-.51c-.52-.13-1-.25-1.54-.35-.31,0-.61-.13-.92-.2a14,14,0,0,0-2.14-.39A3.37,3.37,0,0,1,2.1,48.5L2,48a5.53,5.53,0,0,0-.66-1.79C.51,45,.68,44.32,1.21,43.65A1.46,1.46,0,0,0,1.3,42l-1-1.72.56-.58c1-1.09,2.12-2.21,3.21-3.26L4.45,36a8.33,8.33,0,0,0,2.26-2.89,4.38,4.38,0,0,1,3.37-2.5,1.44,1.44,0,0,0,1-.69,1.41,1.41,0,0,0,.13-1.17L11,28.1c-.15-.49-.28-1-.47-1.42-.07-.2-.11-.28.19-.78a13.67,13.67,0,0,0,1.24-3.3l.13-.46a4.48,4.48,0,0,0,.09-1.6l0-.34c-.11-3.13,0-5.11,2.53-6.18a1.44,1.44,0,0,0,.81-.88A1.42,1.42,0,0,0,15.36,12c-1.12-2-.89-3.45.82-5.28A8.27,8.27,0,0,0,18,3.89c.54-1.51,1.84-2.31,3.34-3.23L22,.25h.24a12.93,12.93,0,0,1,1.16,4.18,1.45,1.45,0,0,0,1,1.21,5.8,5.8,0,0,0,2.5,6c.57.43,1.12.9,1.7,1.39,1.91,1.61,3.87,3.27,6.63,4l.26.2a6.09,6.09,0,0,0,.63.46l1.8,1.08c2.2,1.33,4.48,2.7,6.77,4a5.08,5.08,0,0,0,2,.58l-.25.18c-.84.61-1.63,1.18-2.46,1.68a6.6,6.6,0,0,0-3.49,5.32,6.63,6.63,0,0,1-2.79,5.19,9.23,9.23,0,0,0-1.75,2.5v0l-.17.07-1.27.67c-1,.55-2.13,1.11-3.17,1.75-.55.34-2.33,1.57-2,3.08a10.47,10.47,0,0,1,.17,1.67A7,7,0,0,0,31,50.12a9.94,9.94,0,0,1,1,1.59c.13.24.27.48.41.71a2.39,2.39,0,0,1,.46,1.3,3.81,3.81,0,0,1-2.05-.31c-.37-.11-.74-.23-1.12-.32a16.28,16.28,0,0,1-7.43-3.46,3.83,3.83,0,0,0-1.63-.74Z"/></g></g></svg>