<svg xmlns="http://www.w3.org/2000/svg" viewBox="0 0 128.04 53.2"><defs><style>.cls-1{fill:#f0a200;}.cls-2{fill:#193e2e;}</style></defs><title>1SolanoDato</title><g id="Capa_2" data-name="Capa 2"><g id="Capa_1-2" data-name="Capa 1"><path class="cls-1" d="M126.77,27.65H1.27a1.27,1.27,0,0,1,0-2.54h125.5a1.27,1.27,0,0,1,0,2.54Z"/><path class="cls-2" d="M7.48,4.12c0-1.44-.51-1.83-1.31-1.83s-1.3.43-1.3,1.58v1H2.49V4c0-2.57,1.28-4,3.75-4S10,1.46,10,4v.41c0,1.72-.54,2.79-1.76,3.3C9.49,8.29,10,9.48,10,11.1v1.26c0,2.56-1.28,4-3.75,4s-3.75-1.47-3.75-4V11H4.87v1.49c0,1.14.5,1.58,1.3,1.58s1.31-.39,1.31-1.81V11c0-1.49-.51-2-1.65-2H5V6.71H6c.93,0,1.51-.42,1.51-1.7Z"/><path class="cls-2" d="M15,13.78v2.43H12.6V13.78Z"/><path class="cls-2" d="M17.62,4.17C17.62,1.46,18.85,0,21.46,0s3.76,1.46,3.76,4v.41H22.83V3.87c0-1.15-.5-1.58-1.3-1.58s-1.4.43-1.4,2V7.19a2.4,2.4,0,0,1,2.34-1.42c1.85,0,2.79,1.3,2.79,3.66v2.93c0,2.56-1.35,4-3.82,4s-3.82-1.47-3.82-4Zm2.51,5.47v2.88c0,1.14.51,1.56,1.31,1.56s1.3-.42,1.3-1.56V9.64c0-1.15-.5-1.58-1.3-1.58S20.13,8.49,20.13,9.64Z"/><path class="cls-2" d="M30,11v1.49c0,1.14.51,1.56,1.31,1.56s1.3-.42,1.3-1.56V9c0-1.15-.5-1.58-1.3-1.58S30,7.85,30,9v.48H27.64L28.1.18h6.64V2.47H30.37l-.21,3.82a2.41,2.41,0,0,1,2.2-1.16c1.85,0,2.79,1.3,2.79,3.66v3.57c0,2.56-1.28,4-3.75,4s-3.76-1.47-3.76-4V11Z"/><path class="cls-2" d="M37.53,4c0-2.57,1.35-4,3.82-4s3.82,1.46,3.82,4v8.33c0,2.56-1.35,4-3.82,4s-3.82-1.47-3.82-4Zm2.52,8.49c0,1.14.5,1.58,1.3,1.58s1.31-.44,1.31-1.58V3.87c0-1.15-.51-1.58-1.31-1.58s-1.3.43-1.3,1.58Z"/><path class="cls-2" d="M54.7,7.3H58V9.59H54.7v6.62H52.18V.18h6.66V2.47H54.7Z"/><path class="cls-2" d="M69.39,16.21H66.85l-.43-2.91H63.33l-.44,2.91H60.58l2.56-16h3.69Zm-5.74-5.09h2.42L64.86,3Z"/><path class="cls-2" d="M77.38,11.56,79.1.18h3.5v16H80.22V4.71l-1.74,11.5H76.1L74.22,4.88V16.21H72V.18h3.51Z"/><path class="cls-2" d="M85.92.18h2.51v16H85.92Z"/><path class="cls-2" d="M91.75.18h2.52V13.92h4.14v2.29H91.75Z"/><path class="cls-2" d="M101,.18h2.52v16H101Z"/><path class="cls-2" d="M115,16.21h-2.54L112,13.3h-3.09l-.44,2.91h-2.31l2.57-16h3.68Zm-5.74-5.09h2.43L110.45,3Z"/><path class="cls-2" d="M121,0c2.45,0,3.7,1.46,3.7,4v.5h-2.38V3.87c0-1.15-.45-1.58-1.25-1.58s-1.26.43-1.26,1.58c0,3.29,4.92,3.91,4.92,8.49,0,2.56-1.28,4-3.76,4s-3.75-1.47-3.75-4v-1h2.38v1.14c0,1.14.5,1.56,1.3,1.56s1.31-.42,1.31-1.56c0-3.3-4.92-3.91-4.92-8.49C117.32,1.46,118.58,0,121,0Z"/><path class="cls-2" d="M82,42.28v.31h-.89v-.37c0-1.51-.57-2.64-2.12-2.64S76.9,40.69,76.9,42.2c0,3.46,5.15,3.52,5.15,7.44,0,2.06-.89,3.56-3.07,3.56s-3.07-1.5-3.07-3.56v-.73h.89v.8c0,1.52.59,2.62,2.16,2.62s2.16-1.1,2.16-2.62c0-3.42-5.15-3.48-5.15-7.45,0-2.13.93-3.52,3-3.54S82,40.23,82,42.28Z"/><path class="cls-2" d="M84.31,42.32c0-2.07,1-3.6,3.11-3.6s3.16,1.53,3.16,3.6V49.6c0,2.08-1,3.6-3.16,3.6s-3.11-1.52-3.11-3.6Zm.94,7.34c0,1.55.61,2.69,2.17,2.69s2.22-1.14,2.22-2.69v-7.4c0-1.55-.63-2.68-2.22-2.68s-2.17,1.13-2.17,2.68Z"/><path class="cls-2" d="M92.94,53.08V38.84h.93V52.23h4.48v.85Z"/><path class="cls-2" d="M101.93,49.93l-.71,3.15h-.86l3.12-14.26h1.36L108,53.08h-.93l-.72-3.15Zm.14-.81h4.15l-2.09-9.22Z"/><path class="cls-2" d="M111.11,53.08h-.86V38.84h1.22l4.27,12v-12h.86V53.08h-1l-4.45-12.69Z"/><path class="cls-2" d="M119,42.32c0-2.07,1-3.6,3.11-3.6s3.15,1.53,3.15,3.6V49.6c0,2.08-1,3.6-3.15,3.6S119,51.68,119,49.6Zm.93,7.34c0,1.55.61,2.69,2.18,2.69s2.22-1.14,2.22-2.69v-7.4c0-1.55-.63-2.68-2.22-2.68s-2.18,1.13-2.18,2.68Z"/></g></g></svg>