<svg xmlns="http://www.w3.org/2000/svg" viewBox="0 0 57.36 37.58"><defs><style>.cls-1{fill:#0b6d41;stroke:#006837;stroke-linecap:round;stroke-linejoin:round;stroke-width:0.5px;}</style></defs><title>1SolitaRoll</title><g id="Capa_2" data-name="Capa 2"><g id="Capa_1-2" data-name="Capa 1"><path class="cls-1" d="M43,31.91l-.56-.44a5.86,5.86,0,0,0,.22-1.76c-.16-3.15-2-5-5.31-5.16-.18,0-.36,0-.54,0s-.67-.05-1-.06c-2.52,0-3.5-.37-4-2.14s-2.12-2.79-4.29-2.68c-.35,0-.71,0-1.07,0A8.24,8.24,0,0,0,21,21.11a5.14,5.14,0,0,1-.71,0h-.42c-.56,0-1.13,0-1.7,0a17.78,17.78,0,0,0-3.69.21,6.76,6.76,0,0,0-2.37,1.06l-.63-.8c-1.15-1.46-2.34-3-3.56-4.4l-.25-.3c-.7-.82-1.1-1.32-1.13-2a3.71,3.71,0,0,0-2.11-3.07C2.31,10.56,1.24,9,1.1,6.89A11.43,11.43,0,0,0,.45,4L.33,3.65A3.06,3.06,0,0,1,.75,1.36a1.76,1.76,0,0,1,1-.9A10.91,10.91,0,0,1,3.5.25a2,2,0,0,0,.35.06H4a1.24,1.24,0,0,0,.27,0l.31,0c-.28,2.46,1.09,4.31,2.33,6l.05.07A11.09,11.09,0,0,1,8.15,8.87c.2.53.42,1.09.68,1.66a1.47,1.47,0,0,0,2.21.58l1-.74.54.34c1.09.68,2.12,1.32,3,2a3.68,3.68,0,0,1,.44.82c.14.31.28.63.46.95a1.46,1.46,0,0,0,2.42.21c.39-.47.81-.93,1.22-1.38A11.67,11.67,0,0,0,23.05,9a.79.79,0,0,1,.28-.26c.94-.53,1.93-1,3-1.55l.4-.2.45.38.47.38c.79.64,1.6,1.31,2.44,1.94l2.68,2c1.42,1,2.88,2.1,4.28,3.19C39.3,16.6,46.5,22.55,49.3,25.05c11.48,10.08,7.16,11.42,6.35,12.28-.09.09-5-3.77-5.13-3.67-.74.51-5.18-4-5.7-3.55A11.56,11.56,0,0,0,43,31.91Z"/></g></g></svg>