<svg xmlns="http://www.w3.org/2000/svg" viewBox="0 0 515.55 235.25"><defs><style>.cls-1{fill:none;stroke:#006837;stroke-linecap:round;stroke-linejoin:round;stroke-width:0.5px;}</style></defs><title>1Solano</title><g id="Capa_2" data-name="Capa 2"><g id="Capa_1-2" data-name="Capa 1"><path class="cls-1" d="M515,136.85c-3.46,5.09-7.59,7.57-13,7.82a29.13,29.13,0,0,0-6.89,1.3,35.42,35.42,0,0,1-8.42,1.64c-2.52.1-6.15.66-8.6,4.37a10.13,10.13,0,0,1-2.47,2.21l-.5.37c-2.83,2.08-5.75,4.13-8.48,6a5.63,5.63,0,0,0-2.43,4.43c-.27,2.85-.66,5.68-1,8.08a11.9,11.9,0,0,1-.42,1.69c-.1.35-.2.7-.29,1.05a1.28,1.28,0,0,1-1.32,1.14,12.16,12.16,0,0,0-6.45,2.56,5.71,5.71,0,0,1-4.36,1c-3.36-.43-6.79-.67-10.11-.9l-1.86-.14a11,11,0,0,0-3.16.24,7.29,7.29,0,0,1-4.5-.24,4.59,4.59,0,0,0-5.83,2.15,21.65,21.65,0,0,0-1.13,2.33l-.42.94c-1.3,2.8-2.53,3.7-4.7,3.45-3.06-.36-5.12,2-5.8,2.73a18.36,18.36,0,0,0-3.61,5.65,16.16,16.16,0,0,1-5.62,7.89,9.77,9.77,0,0,0-4,7,18.66,18.66,0,0,0,1,10.82,1.06,1.06,0,0,1-.37,1.48c-3.9,2.6-7.12,3.7-10.45,3.56a2.74,2.74,0,0,1-1-.31c-.8-.41-1.58-.85-2.37-1.29s-1.59-.89-2.4-1.31a1.12,1.12,0,0,1-.71-1.26,6,6,0,0,0-.76-3.43,4,4,0,0,0-2.79-1.85,4.15,4.15,0,0,0-3.27.93,37.88,37.88,0,0,0-4.47,4.31c-1,1.13-1.94,2.32-2.84,3.47-.76,1-1.55,2-2.36,2.91-1.15,1.34-2.38,2.66-3.67,4L361.9,235l-.84-.21c-1.83-.45-3.56-.88-4.94-2.27a22.6,22.6,0,0,0-4.21-3.08l-.92-.57c-1.46-.92-1.63-1.43-1.6-1.84a1.48,1.48,0,0,0-.56-1.28l-1.33-1c-1.09-.85-2.1-1.64-3.13-2.42a5.18,5.18,0,0,0-1.81-.92c-2.11-.58-2.17-1-2.11-1.7a1.46,1.46,0,0,0-1-1.5,6,6,0,0,0-2.06-.4,3.79,3.79,0,0,0-3.18,1.66l-.05.07-.14.19c-2.35.22-3.73,1.8-4.85,3.18a9.81,9.81,0,0,0-4.14,1.32c-.56.27-1.08.53-1.6.72a11.57,11.57,0,0,1-6.31,0c-.21,0-.79-.17-1.22-1.44a22.05,22.05,0,0,0-1.4-3.45c-2.07-3.88-5.6-6-10.77-6.42a4.56,4.56,0,0,0-4.44,2.37,19.49,19.49,0,0,0-3,8.55l0,.23c0,.11,0,.26,0,.39-3.48-2.1-5.86-2-9.61.34a11.54,11.54,0,0,1-3.81,1.29,2.68,2.68,0,0,1-1-.57,11.3,11.3,0,0,1-1.21-1.26c-.34-.39-.7-.8-1.1-1.18A7.56,7.56,0,0,0,277,222a2.55,2.55,0,0,1-1.61-1.52,5.25,5.25,0,0,0-3.24-3.26c-3.13-.9-5-2.39-5.95-4.8a1.47,1.47,0,0,0-1.7-.87,10.64,10.64,0,0,0-5.39,2.71c-1.13,1.14-1.54.81-2,.43-3.7-3-7.27-2.13-10.28-.92-3.33,1.32-4,1-5.55-2.63a3.47,3.47,0,0,0-.45-.73l-.27-.4a1.48,1.48,0,0,0-1.19-.65,1.51,1.51,0,0,0-1.22.61l-.54.73c-.39.53-.76,1-1.1,1.54-.5.74-.77.66-1.07.55a.63.63,0,0,1-.17-.07,1.61,1.61,0,0,1,0-.81c.07-.7.12-1.47.15-2.34a5.77,5.77,0,0,0-2-4.91,5.87,5.87,0,0,0-5.33-.74l-.72.19v-1.95a1.47,1.47,0,0,0-1.33-1.46l-.71-.08a6,6,0,0,0-1.71-.08,4.13,4.13,0,0,1-4.6-2.25,4.18,4.18,0,0,0-4.2-2.36,4.51,4.51,0,0,0-3.36,1.74,4.3,4.3,0,0,1-3.06,2l-.49.05c-3,.3-5,.4-6.7-1.35a9.72,9.72,0,0,0-5.43-2.57,31.72,31.72,0,0,1-3.78-1c-.83-.26-1.7-.53-2.58-.76-2.48-.64-5.11-1.26-8-1.9a3,3,0,0,1-1.79-1.21c-1.66-2-2.84-3.69-2.82-6.06a1.45,1.45,0,0,0-.49-1.1,1.42,1.42,0,0,0-1.16-.36l-1.12.12c-.75.09-1.45.16-2.15.3s-.9,0-1.14-.47c-.41-.76-.87-1.48-1.32-2.17l-.3-.46a5.13,5.13,0,0,0-3.41-2.61c-2-.33-3.79.88-5,1.82a5.39,5.39,0,0,0-1.09,1.28,5,5,0,0,1-.34.49l-.05.05v0c-.51-1.29-1-2.58-1.44-3.85l-.59-1.6a1.46,1.46,0,0,0-1.22-.95c-2.92-.32-3.61-.16-4.9,2.31l-.1.2a39.25,39.25,0,0,1-3.68-2.57,1.41,1.41,0,0,1-.59-.88,1.55,1.55,0,0,1,.51-1,7.8,7.8,0,0,1,.58-.53c.23-.2.46-.39.67-.61a3.58,3.58,0,0,0,.48-4.47,3,3,0,0,0-1.77-1.56,3.3,3.3,0,0,0-2.57.26c-.86.43-1.28.47-2.29-1a7.33,7.33,0,0,0-8.47-3.15c-.52.14-1.07.24-1.64.36a20.81,20.81,0,0,0-2.76.67c.19-1.94-.58-3.46-2.4-4.9a3.83,3.83,0,0,0-3.46-.77,3.69,3.69,0,0,0-2.4,2.47,5.06,5.06,0,0,0-.21,1.4,3.82,3.82,0,0,1-.07.6l-.07.24a16.45,16.45,0,0,1-1.14,3.1,1.33,1.33,0,0,1-.35.23,2.31,2.31,0,0,1-.12-.48,13.12,13.12,0,0,0-.92-3.41,3.12,3.12,0,0,0-6,1.26,9.57,9.57,0,0,0,0,1.08,23.82,23.82,0,0,1-2.77-.87l-.61-.22a33.93,33.93,0,0,1-3.35-1.45l-.43-.2a4.59,4.59,0,0,0-.58-4.71,6.39,6.39,0,0,0-3.66-2.23l-.18-.06c-.14-3.59-2.6-5.69-4.89-7.14l2.39-1.49c2-1.23,2.77-3.17,2-5a4.83,4.83,0,0,0-2.35-2.07l-.36-.19a9.21,9.21,0,0,0,.33-1.09,15.13,15.13,0,0,0-.36-6.66c-.08-.35-.15-.71-.22-1.07a3.43,3.43,0,0,0-.76-1.58l-.51-.58c-3.11-3.56-6.64-7.58-13-7a31.1,31.1,0,0,1-8.48-.55,7.46,7.46,0,0,1-2.72-1.68l-.58-.47c-1.5-1.17-3.2-2.51-5.62-2.4a12.65,12.65,0,0,0-3.81.62,2,2,0,0,1-2.35-.54,14.77,14.77,0,0,0-2.55-1.74l-.55-.33.14-.09c2.06-1.3,2.51-2.7,2.53-3.66a4.14,4.14,0,0,0-2.16-3.47A4,4,0,0,1,55,103.07l0-.13c0-.39-.1-.82-.11-1.07.26-.14.77-.33,1-.41a3.89,3.89,0,0,0,2.69-4v-.09a2.41,2.41,0,0,0-.36-1.43C57,94.2,55.65,92.2,54.25,90.24c-.62-.86-1.26-1.68-1.88-2.48-.28-.34-.54-.69-.81-1a1.47,1.47,0,0,0-1.48-.54l-1.38.33a20.8,20.8,0,0,1-4,.71A3.63,3.63,0,0,0,43.1,83.4a4.15,4.15,0,0,0-4.67.22c-1.11.8-2.1,1.56-3,2.32a2,2,0,0,1-1.83.46,15.9,15.9,0,0,0-2.91-.12L31,83.81a1.45,1.45,0,0,0-.9-1.55,3.31,3.31,0,0,1-2.36-2.58c-.35-1.58-.3-2.16.63-3,2.6-2.35,2.26-3.8.92-6.35-.12-.21-.23-.43-.34-.65a19.15,19.15,0,0,0-1-1.86,8.42,8.42,0,0,0-4.88-4l.06-.18c.06-.18.14-.36.21-.54a6.67,6.67,0,0,0,.5-1.58c.46-3.14-.73-5-3.86-6.05a8.24,8.24,0,0,1-1.44-.74c-.18-.12-.37-.23-.55-.33l-.08-.08a2,2,0,0,0-1.58-.7c-1.08.07-1.38-.36-2.13-2.07L14,51.18a3,3,0,0,0-.53-.78c-.09-.1-.18-.22-.3-.37a1.47,1.47,0,0,0-2.23-.09l-.58.6C9.9,51,9.45,51.47,9,52c-.22.29-.4.45-1.19.27s-.7-.38-.72-.65C7,48.35,4.89,46.71,3,45.43A10.3,10.3,0,0,1,.77,43.1l-.52-.66a4.22,4.22,0,0,1,3-2.42,10.41,10.41,0,0,0,3.25-1.15,1.54,1.54,0,0,1,2.36.32,3.56,3.56,0,0,0,.93.68l.4.23a1.47,1.47,0,0,0,1.49,0,1.45,1.45,0,0,0,.76-1.28v-.68c0-.45,0-.84,0-1.26-.12-1.62.12-2,1.71-2.35a11.86,11.86,0,0,0,1.82-.7,11,11,0,0,1,1.19-.48,3.85,3.85,0,0,1,1.52-.17l.86.06a5,5,0,0,1,1.76.28A4.79,4.79,0,0,1,21.69,35,10.93,10.93,0,0,0,22,36.32a3.5,3.5,0,0,0,.34.75,2.6,2.6,0,0,1,.13.24,1.47,1.47,0,0,0,1.06.78c2.5.42,4.19-.93,5.54-2,.37-.3.72-.57,1.06-.8,1.23-.83,1.11-2.89.79-3.76-.07-.18-.14-.37-.2-.57a5.75,5.75,0,0,0-2.32-3.39,1.78,1.78,0,0,1-.18-.81l.27-1a18.41,18.41,0,0,1,2.09-5.46A10.31,10.31,0,0,0,31.9,17.1a6.92,6.92,0,0,1,.84-2.17,2.56,2.56,0,0,0-.28-3.07c-.4-.35-.41-.36.23-1.34.12-.19.24-.37.34-.56l.25-.41a8.56,8.56,0,0,1,2-2.67,11.89,11.89,0,0,0,1.4-1.2c.88-.83,1.45-1.34,2.26-1.42a3.77,3.77,0,0,0,3.47-3.1A2.87,2.87,0,0,1,42.86.3a5.47,5.47,0,0,1,1.55,2,6.58,6.58,0,0,0,4.31,3.38,14.11,14.11,0,0,1,1.53.65l1,.48a1.49,1.49,0,0,0,1.06.05l1.14-.38A19.68,19.68,0,0,0,55.18,8a6.94,6.94,0,0,1,2.29,2.55,9.65,9.65,0,0,0,.45.91,3.73,3.73,0,0,1,.37.79c0,2.79,1.41,4.89,2.65,6.73.41.61.79,1.19,1.13,1.78a22.51,22.51,0,0,0,2.6,3.46c.3.35.6.7.9,1.07-.24,3.13,2.24,5.24,3.62,6.41.67.58.84.87.88,1a7.48,7.48,0,0,0,3.06,4.25,14.86,14.86,0,0,1,3,3.09l.62.77a1.3,1.3,0,0,1,.22.51c-.19.52-.35,1-.49,1.54-.47,1.58-.8,2.58-1.8,3.25A14.11,14.11,0,0,0,73,47.4c-.21.19-.42.38-.64.56a1.48,1.48,0,0,0-.5,1.41c.08.38.14.76.2,1.14a9.53,9.53,0,0,0,2.14,5.38,13.35,13.35,0,0,0,.32,1.58c.31,1.31.41,1.93,0,2.38a1.44,1.44,0,0,0-.23,1.51c.19.47.35.93.51,1.37a9.33,9.33,0,0,0,1.45,3l.41.5C78,67.73,79.5,69.64,82.12,70c1.3.18,1.73.58,2,1.22,1,2.13,3.13,1.69,4,1.5,1.17-.24,1.5,0,1.81.91.74,2.07,2.09,2.51,3.11,2.51h0c.07,0,.11,0,.12,0a2.33,2.33,0,0,1,.29.68,22.18,22.18,0,0,1,1.36,6.37,15.46,15.46,0,0,0,1.16,5.25c.53,1.36,1.18,2.66,1.81,3.92.45.92.93,1.87,1.34,2.81a14.72,14.72,0,0,0,2.27,3.4A9.56,9.56,0,0,1,103.6,102a2.68,2.68,0,0,0,.93,1.38,10.52,10.52,0,0,1,2.52,3.68,18.77,18.77,0,0,0,1.8,3.09,4.2,4.2,0,0,1,.31,1.34l0,.35a22.27,22.27,0,0,0,1.83,5.65,28.11,28.11,0,0,1,1.29,3.41c.52,1.82,1,3.64,1.29,5.41l0,.11c.76,4,1.39,4.49,5.61,4.47l75.77-.35.66,0a4.14,4.14,0,0,1,1.15,0,2.93,2.93,0,0,1,1.32.69c.69.86,1.3,1.77,2,2.74.47.69.94,1.39,1.45,2.08a5.56,5.56,0,0,0,2.2,2c3.1,1.31,5.84,2.38,8.38,3.27a20.05,20.05,0,0,0,3.39.75l.94.15a3.07,3.07,0,0,0,1.9-.3c1.29-.68,2.58-1.39,4-2.16l.31-.16.9,1.36a1.44,1.44,0,0,0,.73.58l1,.36a22.54,22.54,0,0,0,2.44.83c1.13.29,2.43.55,3.38-.17a4.32,4.32,0,0,1,2.67-.59,11.66,11.66,0,0,0,2-.16c3.09-.58,6.25-1.5,8.36-4.31a2.23,2.23,0,0,1,1.74-.87h0a4,4,0,0,0,3.32,2.05,6.42,6.42,0,0,1,.66.13,2.75,2.75,0,0,1,1.9,1.22,6.31,6.31,0,0,0,2.24,2.32c1,.53,1.12,1,1.15,1.39a1.46,1.46,0,0,0,1,1.25l.22.09a2.23,2.23,0,0,0,1.27.26,8.89,8.89,0,0,1,6.08,1.1,3.69,3.69,0,0,0,2.93.17l.12,0c.24-.08.5-.17.69-.22.13.17.3.43.45.65s.18.24.34.42l.23.27a1.48,1.48,0,0,0,1.28.51,1.43,1.43,0,0,0,1.14-.78l.8-1.53a4.26,4.26,0,0,0,3.37-1.3l3.26,1.8a1.47,1.47,0,0,0,1.75-.26c.28-.28.53-.56.76-.83a6.08,6.08,0,0,1,1.06-1c.28-.17.7-.27,1.82.15a28.54,28.54,0,0,0,3.13.93l1.36.35a1.45,1.45,0,0,0,1.15-.16,1.43,1.43,0,0,0,.67-1l1.23-5.88a1.45,1.45,0,0,0-.89-1.66l-.94-.38a23.21,23.21,0,0,1,.36-2.33c.7-3.13.2-4.26-2.53-5.75l-.14-.08.05-.5a1.45,1.45,0,0,0-.56-1.31,1.48,1.48,0,0,0-1.42-.21l-2.79,1.07a3.69,3.69,0,0,0-2.82-.88c-.2,0-.39,0-.56,0a5.35,5.35,0,0,0-4.7-3.43,8,8,0,0,0-3.39-5.73,1.47,1.47,0,0,0-1.73,0l-.6.46-1-.61a1.46,1.46,0,0,0-1.24-.12,2.65,2.65,0,0,0-1.14.81,5.27,5.27,0,0,0-.95-1.33l-.36-.43c-.31-.41-.61-.83-.95-1.29l-.46-.63a1.46,1.46,0,0,0-1.56-.55l-1.36.37-.82-.66a1.47,1.47,0,0,0-1-.33l-4.26.25a4.87,4.87,0,0,1-.35-.65,4,4,0,0,0-1.79-2.06,12.36,12.36,0,0,0,.11-1.75,3.86,3.86,0,0,0-5-3.76,3,3,0,0,0-.6.2l-.2.07a1.47,1.47,0,0,1-1.2-.2,1.58,1.58,0,0,1-.28-1.24c0-.26.05-.52.08-.78a9.3,9.3,0,0,0-.36-4.63,1.46,1.46,0,0,0-1.36-.93h-.36l.68-.84a1.48,1.48,0,0,0,.17-1.59,1.5,1.5,0,0,0-1.38-.8l-.65,0-.85,0a1.81,1.81,0,0,1-1.27-.45,1.28,1.28,0,0,1-.45-.64.78.78,0,0,1,.12-.19,7.78,7.78,0,0,1,1.31-.66c.34-.14.73-.31,1.17-.52a1.46,1.46,0,0,0-.62-2.79h-2.45l-2.64-4.21a1.46,1.46,0,0,0-1.82-.57,2.9,2.9,0,0,1-2.8-.1,4.61,4.61,0,0,0-4.49-1.42v0a7,7,0,0,0-2.53-3.53,11.4,11.4,0,0,1,.95-2.43A29.39,29.39,0,0,0,227,71.19a8,8,0,0,1,2.48-3.39c.32-.27.64-.54,1-.8,1.7-1.37,3.62-2.92,4.44-5.46a7.08,7.08,0,0,0,.43-2.76c-.1-1-.26-2.08-.4-3.08s-.3-2-.39-3a2,2,0,0,1,.08-.82,6.46,6.46,0,0,0,1.86-4.13l.06-.5a7.48,7.48,0,0,1,.27-1.42A4,4,0,0,1,239.76,43a67.36,67.36,0,0,0,7.45-2.51,6.07,6.07,0,0,0,3.45-4.11,10.05,10.05,0,0,1,1-2.36,13,13,0,0,0,2.14-7.43c-.06-2.84,1.18-4.69,4-6,.53-.25,1.06-.52,1.58-.79s.74-.39,1.12-.57c2-1,3.45-.68,4.83,1a5.21,5.21,0,0,0,2.91,2.08l.12.16a4.76,4.76,0,0,0,.62.71,3.19,3.19,0,0,0,4.59.16c.51-.46,1.05-.88,1.61-1.33a12.06,12.06,0,0,0,6.89,1.9l0,0a2.38,2.38,0,0,1-.22.18l-.43.34a1.49,1.49,0,0,0-.52,1,1.45,1.45,0,0,0,.35,1.07l.26.33a4.42,4.42,0,0,0,.9,1,20.1,20.1,0,0,1,4.17,4.91,4.17,4.17,0,0,0,4.16,1.77c2-.18,3.58.77,5.32,2.28a1.46,1.46,0,0,0,1.71.15L300,35.5l.46.6a1.45,1.45,0,0,0,1.63.5,1.67,1.67,0,0,0,1.29-1c.12-.3.25-.62.35-.84l.68.12.11,0c.62.11,2.37.14,3-1,.13-.22.29-.45.47-.7a4.58,4.58,0,0,0,1.11-4l.07-.16.3-.65.66.21a1.47,1.47,0,0,0,1.37-.26c.33-.26.67-.51,1-.75a9.86,9.86,0,0,0,2.3-2,14.5,14.5,0,0,0,1.62-3c0-.07.07-.15.11-.23l.23.07a1.47,1.47,0,0,0,1.07-.1l1.22-.6c.95-.46,1.85-.9,2.72-1.39A7.61,7.61,0,0,0,323.49,19l.08-.08a2.75,2.75,0,0,0,.55-.78c0-.05.05-.09,0-.09h0c.06-.07.23-.19.36-.3a2.56,2.56,0,0,0,1.27-2v-.08c0-1.33,0-3.16-1.09-4.24a1.81,1.81,0,0,1-.45-.91c1.1-.55,1.45-1.12,2-2.79a1.45,1.45,0,0,0-.14-1.17,4.09,4.09,0,0,0-1.36-1.31l0,0a2.49,2.49,0,0,0,1.63-1.4l.16,0,.31-.09c.71-.21,1.42-.4,2.16-.6l.94-.26A1.47,1.47,0,0,0,331,1.43V.5a6.88,6.88,0,0,1,.74.18l.25.07a5.76,5.76,0,0,0,1.77,4.73,4.79,4.79,0,0,0,3.69,1.65,4.79,4.79,0,0,0,3.36-2.25,2.85,2.85,0,0,1,.69-.41l.6-.32a1.49,1.49,0,0,0,.68-1.25V.25a3.64,3.64,0,0,1,.35.77,6.46,6.46,0,0,0,.36.81,1.45,1.45,0,0,0,.75.65L349,4.34a1.51,1.51,0,0,0,1.72-.52h0c.07.08.14.17.22.25s.29.32.44.48a6,6,0,0,0,2.58,2c2.24.69,3.91,2.23,5.68,3.86l.78.72a9.82,9.82,0,0,0,2.21,1.38c.28.13.55.27.82.42l4.16,2.32a1.49,1.49,0,0,0,1.13.13l4.1-1.19.55.63,2.66,3.08c.1.12.21.23.33.35l.13.13a7.84,7.84,0,0,0,2.69,4.19c-.57,3.16,0,4.58,2.71,6.45L381,32.71a1.46,1.46,0,0,0,1.36,1.82c.34,0,.66,0,1,.07a7,7,0,0,0,2.45-.06,4.67,4.67,0,0,0,1-.4,5.9,5.9,0,0,0,.67,2.88,3,3,0,0,1,0,.7,7.47,7.47,0,0,0,0,.82v.39a3.73,3.73,0,0,0,.27,1.73,26.8,26.8,0,0,0,1.31,2.44l.52.9a1.46,1.46,0,0,0,2.07.52c.5-.33.92-.61,1.26-.88.05.21.12.44.2.68l-.53.39a1.44,1.44,0,0,0-.55,1.57c.8,2.92,1.79,6.54,6.15,8.1a1.47,1.47,0,0,0,1.94-1.18l.13-1c1,1.09,1.87,2.77,1.75,3.45-.76,4.21,0,5.43,4.36,6.82a1.47,1.47,0,0,0,1.67-.59l1-1.58.23,0a3.59,3.59,0,0,0,3.44-.57l.24.05c.36.09.75.18,1.14.24a1.48,1.48,0,0,0,1.47-.66v0h0a5.37,5.37,0,0,0,5.11,3.17h.13a5,5,0,0,1,.55,0c.12.3.08.38-.22.59a8.51,8.51,0,0,0-1,.85c-.16.16-.34.34-.57.55a1.46,1.46,0,0,0,.75,2.52c.62.1,1.23.27,1.82.42,1.68.45,3.59,1,5.69,0a4.49,4.49,0,0,1,.71.15c.54.14,1.08.34,1.66.55l.21.08,1.07,2.45a8.35,8.35,0,0,1-1.12.77,14.49,14.49,0,0,0-1.4.92,1.47,1.47,0,0,0-.57,1.28,1.45,1.45,0,0,0,.78,1.18l1.7.9a5.49,5.49,0,0,0,3.28,3.8,6.65,6.65,0,0,1,1.71,1.54c.33.37.68.75,1.07,1.12a1.46,1.46,0,0,0,1.89.12l.69-.51,1,2.19c-1.06,1.51-1.75,2.69-1.43,4a3.38,3.38,0,0,0,1.61,2l-.59.45a1.47,1.47,0,0,0,.06,2.38l3.5,2.4a1.46,1.46,0,0,0,1.75-.07l2.38-1.92c1.13.23,1.19.46,1.28,2a4.11,4.11,0,0,0,1.61,3.5,11.35,11.35,0,0,1-.16,2.83c-.09.26-.33.44-1.31,1.07a1.48,1.48,0,0,0-.66,1.15,1.45,1.45,0,0,0,.53,1.21,9.82,9.82,0,0,1,.8.79c.94,1,2.22,2.32,4.36,2a5.4,5.4,0,0,0,2.87-1.22,1.42,1.42,0,0,0,.25.24l3.68,2.75c0,.31.09.67.14,1a4.19,4.19,0,0,0,3,3.72,3.54,3.54,0,0,1,.71.7l.22.23a6.89,6.89,0,0,1,.77,1.18c1.83,3.24,4.09,5.14,7.12,6a18.93,18.93,0,0,1,3.15,1.34l.06,0-.18.25a1.48,1.48,0,0,0-.24,1.24,1.45,1.45,0,0,0,.81,1l3.48,1.59a1.5,1.5,0,0,0,1,.08,1.47,1.47,0,0,0,.4,1.22,1.46,1.46,0,0,0,1.25.42l1.56-.22,3.18-.44a2.09,2.09,0,0,1,1.11,0l-1.33,1.8a1.47,1.47,0,0,0,0,1.75l1.53,2a1.48,1.48,0,0,0,1.59.53c.45-.13.93-.24,1.39-.34a8.14,8.14,0,0,0,3.23-1.21,10.81,10.81,0,0,0,2.49-2.92c1.37,1.42,3.33,3,6.41,2.35a5.61,5.61,0,0,0,4.52-4.53s0,0,0,.11c.68,3.67,3.82,4.09,5.69,4.34l.33,0,.27,0c0,.16-.08.35-.13.52l0,.11a3,3,0,0,0,.5,2.71s0,0,0,.05A4.86,4.86,0,0,1,515,136.85Z"/></g></g></svg>