<svg xmlns="http://www.w3.org/2000/svg" viewBox="0 0 128.04 53.2"><defs><style>.cls-1{fill:#f0a200;}.cls-2{fill:#193e2e;}</style></defs><title>1ValparaisoDato</title><g id="Capa_2" data-name="Capa 2"><g id="Capa_1-2" data-name="Capa 1"><path class="cls-1" d="M126.77,27.65H1.27a1.27,1.27,0,0,1,0-2.54h125.5a1.27,1.27,0,0,1,0,2.54Z"/><path class="cls-2" d="M19.33,2.2a2.49,2.49,0,0,0,2.77-2h1.7v16H21.28V4h-2Z"/><path class="cls-2" d="M29.31,2.2a2.49,2.49,0,0,0,2.77-2h1.7v16H31.26V4h-2Z"/><path class="cls-2" d="M37.53,4c0-2.57,1.35-4,3.82-4s3.82,1.46,3.82,4v8.33c0,2.56-1.35,4-3.82,4s-3.82-1.47-3.82-4Zm2.52,8.49c0,1.14.5,1.58,1.3,1.58s1.31-.44,1.31-1.58V3.87c0-1.15-.51-1.58-1.31-1.58s-1.3.43-1.3,1.58Z"/><path class="cls-2" d="M54.7,7.3H58V9.59H54.7v6.62H52.18V.18h6.66V2.47H54.7Z"/><path class="cls-2" d="M69.39,16.21H66.85l-.43-2.91H63.33l-.44,2.91H60.58l2.56-16h3.69Zm-5.74-5.09h2.42L64.86,3Z"/><path class="cls-2" d="M77.38,11.56,79.1.18h3.5v16H80.22V4.71l-1.74,11.5H76.1L74.22,4.88V16.21H72V.18h3.51Z"/><path class="cls-2" d="M85.92.18h2.51v16H85.92Z"/><path class="cls-2" d="M91.75.18h2.52V13.92h4.14v2.29H91.75Z"/><path class="cls-2" d="M101,.18h2.52v16H101Z"/><path class="cls-2" d="M115,16.21h-2.54L112,13.3h-3.09l-.44,2.91h-2.31l2.57-16h3.68Zm-5.74-5.09h2.43L110.45,3Z"/><path class="cls-2" d="M121,0c2.45,0,3.7,1.46,3.7,4v.5h-2.38V3.87c0-1.15-.45-1.58-1.25-1.58s-1.26.43-1.26,1.58c0,3.29,4.92,3.91,4.92,8.49,0,2.56-1.28,4-3.76,4s-3.75-1.47-3.75-4v-1h2.38v1.14c0,1.14.5,1.56,1.3,1.56s1.31-.42,1.31-1.56c0-3.3-4.92-3.91-4.92-8.49C117.32,1.46,118.58,0,121,0Z"/><path class="cls-2" d="M45.61,38.84,48.5,52l2.89-13.16h.87L49.17,53.08H47.79L44.66,38.84Z"/><path class="cls-2" d="M55.36,49.93l-.71,3.15h-.86L56.9,38.82h1.37l3.17,14.26H60.5l-.71-3.15Zm.14-.81h4.15L57.56,39.9Z"/><path class="cls-2" d="M63.68,53.08V38.84h.94V52.23h4.47v.85Z"/><path class="cls-2" d="M74.26,38.84c2.2,0,3,1.39,3,3.46v1.55c0,2.26-1,3.37-3.29,3.37H72.25v5.86h-.94V38.84ZM74,46.37c1.64,0,2.36-.73,2.36-2.46V42.24c0-1.55-.53-2.54-2.12-2.54h-2v6.67Z"/><path class="cls-2" d="M80.63,49.93l-.71,3.15h-.86l3.11-14.26h1.37l3.17,14.26h-.94l-.71-3.15Zm.14-.81h4.15l-2.1-9.22Z"/><path class="cls-2" d="M91.92,38.84c2.18,0,3,1.2,3,3.22V43.3c0,1.67-.65,2.62-2,3,1.46.32,2,1.36,2,2.91v2.21a3.16,3.16,0,0,0,.35,1.71h-1a3.38,3.38,0,0,1-.3-1.71V49.14c0-1.9-1-2.43-2.67-2.43H89.88v6.37H89V38.84Zm-.53,7c1.67,0,2.65-.47,2.65-2.38V42.14c0-1.53-.59-2.44-2.14-2.44h-2v6.16Z"/><path class="cls-2" d="M99,49.93l-.71,3.15h-.86l3.12-14.26h1.36l3.17,14.26h-.93l-.72-3.15Zm.14-.81h4.15l-2.09-9.22Z"/><path class="cls-2" d="M108.44,36.08h1L107.71,38H107Zm-1.14,2.76h.94V53.08h-.94Z"/><path class="cls-2" d="M116.68,42.28v.31h-.9v-.37c0-1.51-.57-2.64-2.11-2.64s-2.12,1.11-2.12,2.62c0,3.46,5.15,3.52,5.15,7.44,0,2.06-.9,3.56-3.07,3.56s-3.07-1.5-3.07-3.56v-.73h.89v.8c0,1.52.59,2.62,2.16,2.62s2.15-1.1,2.15-2.62c0-3.42-5.14-3.48-5.14-7.45,0-2.13.93-3.52,3-3.54S116.68,40.23,116.68,42.28Z"/><path class="cls-2" d="M119,42.32c0-2.07,1-3.6,3.11-3.6s3.15,1.53,3.15,3.6V49.6c0,2.08-1,3.6-3.15,3.6S119,51.68,119,49.6Zm.93,7.34c0,1.55.61,2.69,2.18,2.69s2.22-1.14,2.22-2.69v-7.4c0-1.55-.63-2.68-2.22-2.68s-2.18,1.13-2.18,2.68Z"/></g></g></svg>