<svg xmlns="http://www.w3.org/2000/svg" viewBox="0 0 59.31 55.25"><defs><style>.cls-1{fill:#0b6d41;stroke:#006837;stroke-linecap:round;stroke-linejoin:round;stroke-width:0.5px;}</style></defs><title>1ValparaisoRoll</title><g id="Capa_2" data-name="Capa 2"><g id="Capa_1-2" data-name="Capa 1"><path class="cls-1" d="M47.73,55c-2.89-2.58-10.11-8.53-12.39-10.32-1.44-1.12-2.93-2.2-4.36-3.25-.89-.64-1.77-1.29-2.65-1.94S26.75,38.25,26,37.63l-.47-.39c-.29-.23-.56-.48-.8-.69l-.3-.27a1.46,1.46,0,0,0-1.63-.21l-1.28.65c-1.08.54-2.09,1.05-3.1,1.61a3.62,3.62,0,0,0-1.63,1.92,8.56,8.56,0,0,1-2.13,3.14,3.46,3.46,0,0,0-.71-.78,36.71,36.71,0,0,0-3.31-2.22l-1.36-.86a1.46,1.46,0,0,0-1.67.06l-.27.2h0a12,12,0,0,0-1.52-3l0-.07c-1.39-1.87-2.15-3-1.59-4.63a1.47,1.47,0,0,0-.66-1.75,6.52,6.52,0,0,0-2.72-.82,3.61,3.61,0,0,1-.51-2c.27-.45.53-.87.81-1.28l.28-.41c1.28-1.88,2.74-4,2-7.09a.87.87,0,0,1,.23.06c1.49.59,3.66,1.06,5.29-1.68a8.41,8.41,0,0,1,.83-.88,17,17,0,0,0,1.83-2.06,3,3,0,0,0,1.24-.95c.69-.89,1.2-2.35-.29-4.28a4,4,0,0,1-.44-1.08c-.07-.24-.15-.47-.23-.7s-.15-.46-.22-.7-.19-.62-.3-.92-.29-.68-.44-1a5.6,5.6,0,0,1-.52-1.41c-.11-.74-.14-1.51-.18-2.32l0-.56h.12c1,.06,1.7.11,2.11.16.52,2.33,2.16,3.75,3.5,4.92a16.41,16.41,0,0,1,1.58,1.5c.28.32.55.66.82,1a15.77,15.77,0,0,0,2.34,2.51c2,1.63,4.51,3.19,7.77,2.51a8.19,8.19,0,0,0,.81-.23l.47-.14a.63.63,0,0,1,.66.43A8.06,8.06,0,0,0,30.64,14l.07.12c.52,1.6,1.08,3.25,1.71,5a5,5,0,0,0,4.3,3.41,3.78,3.78,0,0,1,3.07,2.56,49.1,49.1,0,0,0,7.88,13,17.48,17.48,0,0,1,1.71,2.69A22.61,22.61,0,0,0,51,43.45a27.85,27.85,0,0,0,3,3.24l1,1.05A8.45,8.45,0,0,0,57.38,49c.53.25,1.32.61,1.56.75l.12.06A5.54,5.54,0,0,0,58.84,51a4.39,4.39,0,0,0-4.52.38A7.83,7.83,0,0,1,52,52.2,7,7,0,0,0,47.73,55Z"/></g></g></svg>