<svg xmlns="http://www.w3.org/2000/svg" viewBox="0 0 128.04 53.08"><defs><style>.cls-1{fill:#f0a200;}.cls-2{fill:#193e2e;}</style></defs><title>1Albania2018</title><g id="Capa_2" data-name="Capa 2"><g id="Capa_1-2" data-name="Capa 1"><path class="cls-1" d="M126.77,27.65H1.27a1.27,1.27,0,0,1,0-2.54h125.5a1.27,1.27,0,0,1,0,2.54Z"/><path class="cls-2" d="M36.71,4.6V16.21H34.44V.18H37.6l2.58,9.59V.18h2.25v16H39.84Z"/><path class="cls-2" d="M45,4c0-2.57,1.34-4,3.82-4s3.82,1.46,3.82,4v8.33c0,2.56-1.35,4-3.82,4S45,14.92,45,12.36Zm2.51,8.49c0,1.14.51,1.58,1.31,1.58s1.3-.44,1.3-1.58V3.87c0-1.15-.5-1.58-1.3-1.58s-1.31.43-1.31,1.58Z"/><path class="cls-2" d="M64.86,16.21a4.92,4.92,0,0,1-.23-2V11.72c0-1.49-.5-2-1.65-2h-.87v6.53H59.59V.18h3.8c2.61,0,3.73,1.22,3.73,3.69V5.13c0,1.65-.52,2.72-1.64,3.25,1.26.52,1.67,1.74,1.67,3.41v2.47a4.78,4.78,0,0,0,.27,2ZM62.11,2.47V7.39h1c.93,0,1.51-.41,1.51-1.69V4.12c0-1.14-.39-1.65-1.28-1.65Z"/><path class="cls-2" d="M72.23,6.94h3.45V9.22H72.23v4.7h4.35v2.29H69.71V.18h6.87V2.47H72.23Z"/><path class="cls-2" d="M86.51,4.14V6.23c0,2.56-1.24,4-3.75,4H81.57v6H79.05V.18h3.71C85.27.18,86.51,1.58,86.51,4.14ZM81.57,2.47V7.9h1.19c.8,0,1.23-.37,1.23-1.51V4c0-1.14-.43-1.51-1.23-1.51Z"/><path class="cls-2" d="M88.39,4c0-2.57,1.35-4,3.82-4S96,1.46,96,4v8.33c0,2.56-1.35,4-3.82,4s-3.82-1.47-3.82-4Zm2.52,8.49c0,1.14.5,1.58,1.3,1.58s1.31-.44,1.31-1.58V3.87c0-1.15-.51-1.58-1.31-1.58s-1.3.43-1.3,1.58Z"/><path class="cls-2" d="M103.84,16.21a4.92,4.92,0,0,1-.23-2V11.72c0-1.49-.5-2-1.65-2h-.87v6.53H98.57V.18h3.8c2.61,0,3.73,1.22,3.73,3.69V5.13c0,1.65-.52,2.72-1.64,3.25,1.25.52,1.67,1.74,1.67,3.41v2.47a4.78,4.78,0,0,0,.27,2ZM101.09,2.47V7.39h1c.93,0,1.51-.41,1.51-1.69V4.12c0-1.14-.39-1.65-1.29-1.65Z"/><path class="cls-2" d="M108,.18h7.78V2.47h-2.63V16.21h-2.52V2.47H108Z"/><path class="cls-2" d="M125,16.21h-2.54l-.43-2.91H119l-.44,2.91h-2.31l2.56-16h3.69Zm-5.74-5.09h2.42L120.5,3Z"/><path class="cls-2" d="M71.62,49.93l-.72,3.15h-.85l3.11-14.26h1.36L77.7,53.08h-.94l-.71-3.15Zm.14-.81h4.15l-2.1-9.22Z"/><path class="cls-2" d="M79.94,53.08V38.84h.93V52.23h4.48v.85Z"/><path class="cls-2" d="M90.56,38.84c2.13,0,2.9,1.06,2.9,3v.82c0,1.54-.42,2.5-1.87,2.8,1.55.31,2.14,1.45,2.14,3.06v1.24c0,2.05-.94,3.29-3.11,3.29H87.57V38.84Zm-.47,6.29c1.67,0,2.44-.45,2.44-2.26V42c0-1.49-.47-2.26-2-2.26h-2v5.43Zm.53,7.1c1.56,0,2.17-.88,2.17-2.46V48.48c0-1.85-.83-2.5-2.52-2.5H88.5v6.25Z"/><path class="cls-2" d="M97.43,49.93l-.71,3.15h-.85L99,38.82h1.36l3.17,14.26h-.93l-.71-3.15Zm.15-.81h4.14L99.63,39.9Z"/><path class="cls-2" d="M106.61,53.08h-.86V38.84H107l4.27,12v-12h.85V53.08h-1l-4.45-12.69Z"/><path class="cls-2" d="M115.46,38.84V53.08h-.94V38.84Z"/><path class="cls-2" d="M119.26,49.93l-.71,3.15h-.85l3.11-14.26h1.36l3.17,14.26h-.93l-.71-3.15Zm.15-.81h4.14l-2.09-9.22Z"/></g></g></svg>