<svg xmlns="http://www.w3.org/2000/svg" viewBox="0 0 128.04 53.24"><defs><style>.cls-1{fill:#f0a200;}.cls-2{fill:#193e2e;}</style></defs><title>1Albania sin registro</title><g id="Capa_2" data-name="Capa 2"><g id="Capa_1-2" data-name="Capa 1"><path class="cls-1" d="M126.77,27.65H1.27a1.27,1.27,0,0,1,0-2.54h125.5a1.27,1.27,0,0,1,0,2.54Z"/><path class="cls-2" d="M27.41,0c2.45,0,3.71,1.46,3.71,4v.5H28.74V3.87c0-1.15-.46-1.58-1.26-1.58s-1.26.43-1.26,1.58c0,3.29,4.92,3.91,4.92,8.49,0,2.56-1.28,4-3.75,4s-3.75-1.47-3.75-4v-1H26v1.14c0,1.14.5,1.56,1.3,1.56s1.31-.42,1.31-1.56c0-3.3-4.92-3.91-4.92-8.49C23.71,1.46,25,0,27.41,0Z"/><path class="cls-2" d="M33.5.18H36v16H33.5Z"/><path class="cls-2" d="M41,4.6V16.21H38.74V.18H41.9l2.59,9.59V.18h2.24v16H44.14Z"/><path class="cls-2" d="M59.18,16.21a4.92,4.92,0,0,1-.23-2V11.72c0-1.49-.5-2-1.65-2h-.86v6.53H53.92V.18h3.8c2.61,0,3.73,1.22,3.73,3.69V5.13c0,1.65-.53,2.72-1.65,3.25,1.26.52,1.67,1.74,1.67,3.41v2.47a4.61,4.61,0,0,0,.28,2ZM56.44,2.47V7.39h1c.94,0,1.51-.41,1.51-1.69V4.12c0-1.14-.39-1.65-1.28-1.65Z"/><path class="cls-2" d="M66.55,6.94H70V9.22H66.55v4.7H70.9v2.29H64V.18H70.9V2.47H66.55Z"/><path class="cls-2" d="M77.15,7.28h3.52v5.08c0,2.56-1.28,4-3.75,4s-3.75-1.47-3.75-4V4c0-2.57,1.28-4,3.75-4s3.75,1.46,3.75,4V5.58H78.29V3.87c0-1.15-.5-1.58-1.3-1.58s-1.3.43-1.3,1.58v8.65c0,1.14.5,1.56,1.3,1.56s1.3-.42,1.3-1.56V9.57H77.15Z"/><path class="cls-2" d="M83.22.18h2.51v16H83.22Z"/><path class="cls-2" d="M91.87,0c2.45,0,3.71,1.46,3.71,4v.5H93.2V3.87c0-1.15-.46-1.58-1.26-1.58s-1.26.43-1.26,1.58c0,3.29,4.92,3.91,4.92,8.49,0,2.56-1.28,4-3.76,4s-3.75-1.47-3.75-4v-1h2.38v1.14c0,1.14.5,1.56,1.31,1.56s1.3-.42,1.3-1.56c0-3.3-4.92-3.91-4.92-8.49C88.16,1.46,89.42,0,91.87,0Z"/><path class="cls-2" d="M97.22.18H105V2.47h-2.63V16.21H99.86V2.47H97.22Z"/><path class="cls-2" d="M112.28,16.21a5.13,5.13,0,0,1-.23-2V11.72c0-1.49-.5-2-1.64-2h-.87v6.53H107V.18h3.8c2.61,0,3.73,1.22,3.73,3.69V5.13c0,1.65-.53,2.72-1.65,3.25,1.26.52,1.67,1.74,1.67,3.41v2.47a4.61,4.61,0,0,0,.28,2ZM109.54,2.47V7.39h1c.94,0,1.51-.41,1.51-1.69V4.12c0-1.14-.39-1.65-1.28-1.65Z"/><path class="cls-2" d="M116.93,4c0-2.57,1.35-4,3.82-4s3.83,1.46,3.83,4v8.33c0,2.56-1.36,4-3.83,4s-3.82-1.47-3.82-4Zm2.52,8.49c0,1.14.5,1.58,1.3,1.58s1.31-.44,1.31-1.58V3.87c0-1.15-.51-1.58-1.31-1.58s-1.3.43-1.3,1.58Z"/><path class="cls-2" d="M71.64,50.08l-.7,3.16h-.85l3-14.27h1.36L77.74,53.2H76.8l-.73-3.14Zm.13-.81,4.15,0L73.78,40Z"/><path class="cls-2" d="M80,53.19,79.89,39h.94l.08,13.39,4.47,0v.86Z"/><path class="cls-2" d="M90.51,38.89c2.14,0,2.92,1,2.93,3v.82c0,1.54-.42,2.5-1.86,2.81,1.55.3,2.14,1.43,2.15,3v1.24c0,2.06-.92,3.3-3.09,3.32h-3l-.09-14.23Zm-.43,6.29c1.67,0,2.44-.47,2.43-2.28V42c0-1.49-.48-2.26-2-2.25h-2l0,5.43Zm.57,7.09c1.57,0,2.17-.89,2.16-2.47V48.52c0-1.85-.85-2.5-2.54-2.49H88.5l0,6.24Z"/><path class="cls-2" d="M97.45,49.93l-.69,3.16h-.85l3-14.27h1.36l3.25,14.24h-.93l-.73-3.15Zm.14-.81,4.15,0-2.15-9.21Z"/><path class="cls-2" d="M106.65,53h-.86l-.08-14.24h1.22l4.34,12-.06-12h.85L112.14,53h-1l-4.52-12.67Z"/><path class="cls-2" d="M115.42,38.75,115.5,53h-.94l-.08-14.24Z"/><path class="cls-2" d="M119.29,49.81l-.7,3.15h-.85l3-14.28h1.36l3.25,14.24h-.93l-.73-3.15Zm.13-.82,4.15,0-2.15-9.2Z"/></g></g></svg>