<svg xmlns="http://www.w3.org/2000/svg" viewBox="0 0 128.04 53.08"><defs><style>.cls-1{fill:#f0a200;}.cls-2{fill:#193e2e;}</style></defs><title>1Albania2017</title><g id="Capa_2" data-name="Capa 2"><g id="Capa_1-2" data-name="Capa 1"><path class="cls-1" d="M126.77,27.65H1.27a1.27,1.27,0,0,1,0-2.54h125.5a1.27,1.27,0,0,1,0,2.54Z"/><path class="cls-2" d="M31.35,4.17C31.35,1.46,32.59,0,35.2,0S39,1.46,39,4v.41H36.57V3.87c0-1.15-.5-1.58-1.31-1.58s-1.39.43-1.39,2V7.19A2.38,2.38,0,0,1,36.2,5.77c1.86,0,2.8,1.3,2.8,3.66v2.93c0,2.56-1.36,4-3.83,4s-3.82-1.47-3.82-4Zm2.52,5.47v2.88c0,1.14.5,1.56,1.3,1.56s1.31-.42,1.31-1.56V9.64c0-1.15-.51-1.58-1.31-1.58S33.87,8.49,33.87,9.64Z"/><path class="cls-2" d="M45.11,16.39c-2.54,0-3.94-1.47-3.94-4V11.1a3.52,3.52,0,0,1,1.56-3.34,3.32,3.32,0,0,1-1.56-3.23V4c0-2.57,1.4-4,3.94-4S49,1.46,49,4v.5a3.36,3.36,0,0,1-1.55,3.23A3.54,3.54,0,0,1,49,11.1v1.26C49,14.92,47.65,16.39,45.11,16.39ZM43.69,5c0,1.28.59,1.7,1.42,1.7s1.42-.42,1.42-1.7V4.12c0-1.44-.62-1.83-1.42-1.83s-1.42.39-1.42,1.83Zm1.42,9.09c.8,0,1.39-.39,1.42-1.81V10.8C46.53,9.54,46,9,45.11,9s-1.42.54-1.42,1.8v1.49C43.69,13.71,44.3,14.1,45.11,14.1Z"/><path class="cls-2" d="M63.23,10.23v2.13c0,2.56-1.28,4-3.75,4s-3.75-1.47-3.75-4V4c0-2.57,1.28-4,3.75-4s3.75,1.46,3.75,4V5.58H60.85V3.87c0-1.15-.5-1.58-1.3-1.58s-1.31.43-1.31,1.58v8.65c0,1.14.51,1.56,1.31,1.56s1.3-.42,1.3-1.56V10.23Z"/><path class="cls-2" d="M68.09.18V12.54c0,1.15.5,1.56,1.3,1.56s1.31-.41,1.31-1.56V.18h2.38v12.2c0,2.57-1.29,4-3.76,4s-3.75-1.46-3.75-4V.18Z"/><path class="cls-2" d="M75.71.18h2.52V13.92h4.14v2.29H75.71Z"/><path class="cls-2" d="M82.51.18h7.78V2.47H87.66V16.21H85.14V2.47H82.51Z"/><path class="cls-2" d="M92.3.18h2.52v16H92.3Z"/><path class="cls-2" d="M101.37,13.25,103.29.18h2.31l-2.47,16H99.37L96.9.18h2.54Z"/><path class="cls-2" d="M107.46,4c0-2.57,1.34-4,3.82-4s3.82,1.46,3.82,4v8.33c0,2.56-1.35,4-3.82,4s-3.82-1.47-3.82-4ZM110,12.52c0,1.14.51,1.58,1.31,1.58s1.3-.44,1.3-1.58V3.87c0-1.15-.5-1.58-1.3-1.58S110,2.72,110,3.87Z"/><path class="cls-2" d="M121,0c2.45,0,3.71,1.46,3.71,4v.5h-2.38V3.87c0-1.15-.46-1.58-1.26-1.58s-1.26.43-1.26,1.58c0,3.29,4.92,3.91,4.92,8.49,0,2.56-1.28,4-3.76,4s-3.75-1.47-3.75-4v-1h2.38v1.14c0,1.14.5,1.56,1.31,1.56s1.3-.42,1.3-1.56c0-3.3-4.92-3.91-4.92-8.49C117.32,1.46,118.58,0,121,0Z"/><path class="cls-2" d="M71.62,49.93l-.72,3.15h-.85l3.11-14.26h1.36L77.7,53.08h-.94l-.71-3.15Zm.14-.81h4.15l-2.1-9.22Z"/><path class="cls-2" d="M79.94,53.08V38.84h.93V52.23h4.48v.85Z"/><path class="cls-2" d="M90.56,38.84c2.13,0,2.9,1.06,2.9,3v.82c0,1.54-.42,2.5-1.87,2.8,1.55.31,2.14,1.45,2.14,3.06v1.24c0,2.05-.94,3.29-3.11,3.29H87.57V38.84Zm-.47,6.29c1.67,0,2.44-.45,2.44-2.26V42c0-1.49-.47-2.26-2-2.26h-2v5.43Zm.53,7.1c1.56,0,2.17-.88,2.17-2.46V48.48c0-1.85-.83-2.5-2.52-2.5H88.5v6.25Z"/><path class="cls-2" d="M97.43,49.93l-.71,3.15h-.85L99,38.82h1.36l3.17,14.26h-.93l-.71-3.15Zm.15-.81h4.14L99.63,39.9Z"/><path class="cls-2" d="M106.61,53.08h-.86V38.84H107l4.27,12v-12h.85V53.08h-1l-4.45-12.69Z"/><path class="cls-2" d="M115.46,38.84V53.08h-.94V38.84Z"/><path class="cls-2" d="M119.26,49.93l-.71,3.15h-.85l3.11-14.26h1.36l3.17,14.26h-.93l-.71-3.15Zm.15-.81h4.14l-2.09-9.22Z"/></g></g></svg>