<svg xmlns="http://www.w3.org/2000/svg" viewBox="0 0 128.04 77.88"><defs><style>.cls-1{fill:#f0a200;}.cls-2{fill:#193e2e;}</style></defs><title>1Belen2017</title><g id="Capa_2" data-name="Capa 2"><g id="Capa_1-2" data-name="Capa 1"><path class="cls-1" d="M126.77,27.65H1.27a1.27,1.27,0,0,1,0-2.54h125.5a1.27,1.27,0,0,1,0,2.54Z"/><path class="cls-2" d="M30.92,11,35.49.18h2.75V11h1.19V13.3H38.24v2.91H35.77V13.3H30.92Zm4.85,0V5l-2.54,6Z"/><path class="cls-2" d="M41.33,4.17C41.33,1.46,42.57,0,45.17,0s3.76,1.46,3.76,4v.41H46.55V3.87c0-1.15-.51-1.58-1.31-1.58s-1.39.43-1.39,2V7.19a2.38,2.38,0,0,1,2.33-1.42C48,5.77,49,7.07,49,9.43v2.93c0,2.56-1.35,4-3.82,4s-3.82-1.47-3.82-4Zm2.52,5.47v2.88c0,1.14.5,1.56,1.3,1.56s1.31-.42,1.31-1.56V9.64c0-1.15-.51-1.58-1.31-1.58S43.85,8.49,43.85,9.64Z"/><path class="cls-2" d="M63.23,10.23v2.13c0,2.56-1.28,4-3.75,4s-3.75-1.47-3.75-4V4c0-2.57,1.28-4,3.75-4s3.75,1.46,3.75,4V5.58H60.85V3.87c0-1.15-.5-1.58-1.3-1.58s-1.31.43-1.31,1.58v8.65c0,1.14.51,1.56,1.31,1.56s1.3-.42,1.3-1.56V10.23Z"/><path class="cls-2" d="M68.09.18V12.54c0,1.15.5,1.56,1.3,1.56s1.31-.41,1.31-1.56V.18h2.38v12.2c0,2.57-1.29,4-3.76,4s-3.75-1.46-3.75-4V.18Z"/><path class="cls-2" d="M75.71.18h2.52V13.92h4.14v2.29H75.71Z"/><path class="cls-2" d="M82.51.18h7.78V2.47H87.66V16.21H85.14V2.47H82.51Z"/><path class="cls-2" d="M92.3.18h2.52v16H92.3Z"/><path class="cls-2" d="M101.37,13.25,103.29.18h2.31l-2.47,16H99.37L96.9.18h2.54Z"/><path class="cls-2" d="M107.46,4c0-2.57,1.34-4,3.82-4s3.82,1.46,3.82,4v8.33c0,2.56-1.35,4-3.82,4s-3.82-1.47-3.82-4ZM110,12.52c0,1.14.51,1.58,1.31,1.58s1.3-.44,1.3-1.58V3.87c0-1.15-.5-1.58-1.3-1.58S110,2.72,110,3.87Z"/><path class="cls-2" d="M121,0c2.45,0,3.71,1.46,3.71,4v.5h-2.38V3.87c0-1.15-.46-1.58-1.26-1.58s-1.26.43-1.26,1.58c0,3.29,4.92,3.91,4.92,8.49,0,2.56-1.28,4-3.76,4s-3.75-1.47-3.75-4v-1h2.38v1.14c0,1.14.5,1.56,1.31,1.56s1.3-.42,1.3-1.56c0-3.3-4.92-3.91-4.92-8.49C117.32,1.46,118.58,0,121,0Z"/><path class="cls-2" d="M65.23,38.84c2.13,0,2.9,1.06,2.9,3v.82c0,1.54-.42,2.5-1.87,2.8,1.55.31,2.14,1.45,2.14,3.06v1.24c0,2.05-.94,3.29-3.11,3.29H62.24V38.84Zm-.47,6.29c1.67,0,2.44-.45,2.44-2.26V42c0-1.49-.47-2.26-2-2.26h-2v5.43Zm.53,7.1c1.56,0,2.17-.88,2.17-2.46V48.48c0-1.85-.83-2.5-2.52-2.5H63.17v6.25Z"/><path class="cls-2" d="M75.56,45.43v.86H71.68v5.94h4.67v.85H70.74V38.84h5.61v.86H71.68v5.73Z"/><path class="cls-2" d="M78.7,53.08V38.84h.93V52.23h4.48v.85Z"/><path class="cls-2" d="M91.15,45.43v.86H87.26v5.94h4.68v.85H86.32V38.84h5.62v.86H87.26v5.73ZM90.8,36.1,89.09,38h-.71l1.44-1.93Z"/><path class="cls-2" d="M95.13,53.08h-.85V38.84H95.5l4.27,12v-12h.86V53.08h-1L95.13,40.39Z"/><path class="cls-2" d="M110.15,38.84c2.19,0,3.15,1.45,3.15,3.54v7.16c0,2.1-1,3.54-3.15,3.54H107V38.84Zm0,13.39c1.58,0,2.24-1.08,2.24-2.65V42.34c0-1.56-.68-2.64-2.24-2.64H108V52.23Z"/><path class="cls-2" d="M120.48,45.43v.86H116.6v5.94h4.68v.85h-5.62V38.84h5.62v.86H116.6v5.73Z"/><path class="cls-2" d="M25.47,77.5V63.26h.94V76.64h4.47v.86Z"/><path class="cls-2" d="M33,66.74c0-2.08,1-3.6,3.11-3.6s3.15,1.52,3.15,3.6V74c0,2.07-.95,3.6-3.15,3.6S33,76.09,33,74ZM34,74.08c0,1.55.61,2.68,2.17,2.68s2.22-1.13,2.22-2.68v-7.4c0-1.55-.63-2.69-2.22-2.69S34,65.13,34,66.68Z"/><path class="cls-2" d="M47.67,66.7V67h-.9v-.37c0-1.5-.57-2.64-2.11-2.64s-2.12,1.12-2.12,2.63c0,3.45,5.15,3.51,5.15,7.44,0,2-.9,3.56-3.07,3.56s-3.08-1.51-3.08-3.56v-.73h.9v.79c0,1.53.59,2.62,2.16,2.62s2.15-1.09,2.15-2.62c0-3.42-5.14-3.48-5.14-7.44,0-2.14.93-3.52,3-3.54S47.67,64.64,47.67,66.7Z"/><path class="cls-2" d="M55.34,74.34l-.71,3.16h-.86l3.11-14.26h1.37L61.42,77.5h-.94l-.71-3.16Zm.14-.81h4.15l-2.09-9.21Z"/><path class="cls-2" d="M64.51,77.5h-.85V63.26h1.22l4.27,12v-12H70V77.5H69L64.51,64.8Z"/><path class="cls-2" d="M75.56,63.26c2.2,0,3.15,1.44,3.15,3.54V74c0,2.09-.95,3.54-3.15,3.54H72.43V63.26Zm0,13.38c1.59,0,2.24-1.08,2.24-2.64V66.76c0-1.57-.67-2.65-2.24-2.65H73.36V76.64Z"/><path class="cls-2" d="M82.42,74.34l-.71,3.16h-.86L84,63.24h1.37L88.5,77.5h-.94l-.71-3.16Zm.14-.81h4.15l-2.09-9.21Z"/><path class="cls-2" d="M96.92,66.74V74a4.08,4.08,0,0,1-.67,2.46,1.14,1.14,0,0,0,1.12.57h.22v.83h-.24a1.8,1.8,0,0,1-1.69-.83,3.08,3.08,0,0,1-1.87.57c-2.17,0-3.13-1.53-3.13-3.6V66.74c0-2.08,1-3.6,3.13-3.6S96.92,64.66,96.92,66.74Zm-5.33-.06v7.4c0,1.55.63,2.68,2.2,2.68S96,75.63,96,74.08v-7.4c0-1.55-.63-2.69-2.2-2.69S91.59,65.13,91.59,66.68Z"/><path class="cls-2" d="M100.34,74.06c0,1.52.57,2.7,2.14,2.7s2.13-1.18,2.13-2.7V63.26h.88V74c0,2-.86,3.6-3,3.6s-3-1.57-3-3.6V63.26h.93Z"/><path class="cls-2" d="M109.05,60.49h1l-1.71,1.93h-.71Zm-1.14,2.77h.94V77.5h-.94Z"/><path class="cls-2" d="M116.11,69.85v.85h-3.89v5.94h4.68v.86h-5.61V63.26h5.61v.85h-4.68v5.74Z"/><path class="cls-2" d="M125.24,66.7V67h-.89v-.37c0-1.5-.57-2.64-2.12-2.64s-2.11,1.12-2.11,2.63c0,3.45,5.14,3.51,5.14,7.44,0,2-.89,3.56-3.07,3.56s-3.07-1.51-3.07-3.56v-.73h.9v.79c0,1.53.59,2.62,2.15,2.62s2.16-1.09,2.16-2.62c0-3.42-5.15-3.48-5.15-7.44,0-2.14.94-3.52,3-3.54S125.24,64.64,125.24,66.7Z"/></g></g></svg>