<svg xmlns="http://www.w3.org/2000/svg" viewBox="0 0 128.04 53.2"><defs><style>.cls-1{fill:#f0a200;}.cls-2{fill:#193e2e;}</style></defs><title>1Curillo2017</title><g id="Capa_2" data-name="Capa 2"><g id="Capa_1-2" data-name="Capa 1"><path class="cls-1" d="M126.77,27.65H1.27a1.27,1.27,0,0,1,0-2.54h125.5a1.27,1.27,0,0,1,0,2.54Z"/><path class="cls-2" d="M26.38,4.12c0-1.44-.5-1.83-1.3-1.83s-1.31.43-1.31,1.58v1H21.39V4c0-2.57,1.28-4,3.76-4S28.9,1.46,28.9,4v.41c0,1.72-.55,2.79-1.76,3.3,1.26.55,1.76,1.74,1.76,3.36v1.26c0,2.56-1.28,4-3.75,4s-3.76-1.47-3.76-4V11h2.38v1.49c0,1.14.51,1.58,1.31,1.58s1.3-.39,1.3-1.81V11c0-1.49-.5-2-1.64-2h-.85V6.71h1c.94,0,1.51-.42,1.51-1.7Z"/><path class="cls-2" d="M36.36,4.12c0-1.44-.5-1.83-1.3-1.83s-1.31.43-1.31,1.58v1H31.37V4c0-2.57,1.28-4,3.76-4s3.75,1.46,3.75,4v.41c0,1.72-.55,2.79-1.76,3.3,1.26.55,1.76,1.74,1.76,3.36v1.26c0,2.56-1.28,4-3.75,4s-3.76-1.47-3.76-4V11h2.38v1.49c0,1.14.51,1.58,1.31,1.58s1.3-.39,1.3-1.81V11c0-1.49-.5-2-1.65-2h-.84V6.71h1c.94,0,1.51-.42,1.51-1.7Z"/><path class="cls-2" d="M41.28,4c0-2.57,1.35-4,3.83-4s3.82,1.46,3.82,4v8.33c0,2.56-1.35,4-3.82,4s-3.83-1.47-3.83-4Zm2.52,8.49c0,1.14.5,1.58,1.31,1.58s1.3-.44,1.3-1.58V3.87c0-1.15-.5-1.58-1.3-1.58s-1.31.43-1.31,1.58Z"/><path class="cls-2" d="M63.23,10.23v2.13c0,2.56-1.28,4-3.75,4s-3.75-1.47-3.75-4V4c0-2.57,1.28-4,3.75-4s3.75,1.46,3.75,4V5.58H60.85V3.87c0-1.15-.5-1.58-1.3-1.58s-1.31.43-1.31,1.58v8.65c0,1.14.51,1.56,1.31,1.56s1.3-.42,1.3-1.56V10.23Z"/><path class="cls-2" d="M68.09.18V12.54c0,1.15.5,1.56,1.3,1.56s1.31-.41,1.31-1.56V.18h2.38v12.2c0,2.57-1.29,4-3.76,4s-3.75-1.46-3.75-4V.18Z"/><path class="cls-2" d="M75.71.18h2.52V13.92h4.14v2.29H75.71Z"/><path class="cls-2" d="M82.51.18h7.78V2.47H87.66V16.21H85.14V2.47H82.51Z"/><path class="cls-2" d="M92.3.18h2.52v16H92.3Z"/><path class="cls-2" d="M101.37,13.25,103.29.18h2.31l-2.47,16H99.37L96.9.18h2.54Z"/><path class="cls-2" d="M107.46,4c0-2.57,1.34-4,3.82-4s3.82,1.46,3.82,4v8.33c0,2.56-1.35,4-3.82,4s-3.82-1.47-3.82-4ZM110,12.52c0,1.14.51,1.58,1.31,1.58s1.3-.44,1.3-1.58V3.87c0-1.15-.5-1.58-1.3-1.58S110,2.72,110,3.87Z"/><path class="cls-2" d="M121,0c2.45,0,3.71,1.46,3.71,4v.5h-2.38V3.87c0-1.15-.46-1.58-1.26-1.58s-1.26.43-1.26,1.58c0,3.29,4.92,3.91,4.92,8.49,0,2.56-1.28,4-3.76,4s-3.75-1.47-3.75-4v-1h2.38v1.14c0,1.14.5,1.56,1.31,1.56s1.3-.42,1.3-1.56c0-3.3-4.92-3.91-4.92-8.49C117.32,1.46,118.58,0,121,0Z"/><path class="cls-2" d="M80.91,42.32V43.5H80V42.26c0-1.52-.59-2.68-2.16-2.68s-2.15,1.16-2.15,2.68v7.4c0,1.53.58,2.67,2.15,2.67S80,51.19,80,49.66V48h.89V49.6c0,2.06-.89,3.6-3.07,3.6s-3.07-1.54-3.07-3.6V42.32c0-2,.89-3.6,3.07-3.6S80.91,40.27,80.91,42.32Z"/><path class="cls-2" d="M84.15,49.64c0,1.53.57,2.71,2.13,2.71s2.14-1.18,2.14-2.71V38.84h.87V49.6c0,2-.85,3.6-3,3.6s-3.05-1.56-3.05-3.6V38.84h.94Z"/><path class="cls-2" d="M94.69,38.84c2.17,0,3,1.2,3,3.22V43.3c0,1.67-.65,2.62-2.06,3,1.47.32,2.06,1.36,2.06,2.91v2.21a3.25,3.25,0,0,0,.34,1.71h-1a3.27,3.27,0,0,1-.31-1.71V49.14c0-1.9-1-2.42-2.66-2.42H92.65v6.36h-.93V38.84Zm-.53,7c1.67,0,2.64-.47,2.64-2.38V42.14c0-1.53-.59-2.44-2.13-2.44h-2v6.16Z"/><path class="cls-2" d="M101.32,38.84V53.08h-.94V38.84Z"/><path class="cls-2" d="M103.76,53.08V38.84h.94V52.23h4.47v.85Z"/><path class="cls-2" d="M111.39,53.08V38.84h.94V52.23h4.47v.85Z"/><path class="cls-2" d="M119,42.32c0-2.07,1-3.6,3.11-3.6s3.15,1.53,3.15,3.6V49.6c0,2.08-1,3.6-3.15,3.6S119,51.68,119,49.6Zm.93,7.34c0,1.55.61,2.69,2.18,2.69s2.22-1.14,2.22-2.69v-7.4c0-1.55-.63-2.68-2.22-2.68s-2.18,1.13-2.18,2.68Z"/></g></g></svg>