<svg xmlns="http://www.w3.org/2000/svg" viewBox="0 0 37.27 40.22"><defs><style>.cls-1{fill:none;stroke:#006837;stroke-linecap:round;stroke-linejoin:round;stroke-width:0.5px;}</style></defs><title>1Curillo</title><g id="Capa_2" data-name="Capa 2"><g id="Capa_1-2" data-name="Capa 1"><path class="cls-1" d="M36.71,36.9a1.46,1.46,0,0,0-1.12,1.75c.25,1.13,0,1.23-.13,1.29a1.82,1.82,0,0,1-1.5-.53,4,4,0,0,1-.37-1.57,4.22,4.22,0,0,0-2.89-4.23A3.35,3.35,0,0,1,28.26,31a5,5,0,0,0-1.87-2.51l-.47-.41a6.06,6.06,0,0,1,.43-1.39,4.63,4.63,0,0,0-.44-5.09A1.46,1.46,0,0,0,24.33,21c-1,.26-1.71-.06-2.9-1.28A15.62,15.62,0,0,0,19.7,18.2c-2.81-2.15-4.31-2.09-7,.29a1.48,1.48,0,0,0-.48.89,2.21,2.21,0,0,1-1-.61l-.07-.07a1.37,1.37,0,0,0-.63-.36,4.49,4.49,0,0,0-2.13,0,3.21,3.21,0,0,1-3-.74C4.66,17,3.45,16,2.66,15.47A5.38,5.38,0,0,1,.25,11a19.49,19.49,0,0,0,8.29,3.76c.31.07.61.17.91.26A5.68,5.68,0,0,0,14.19,15a1.42,1.42,0,0,0,.56-.53,4.42,4.42,0,0,0-.33-4.68c-.13-.21-.25-.43-.37-.65A12.16,12.16,0,0,0,12.66,7C12,6.3,12,5.45,11.91,4.12a16.16,16.16,0,0,0-.14-1.66A3.49,3.49,0,0,1,12.35,2c.94-.58,1.93-1.09,3-1.63l.21-.11c.4.52.81,1.06,1.17,1.6a6.85,6.85,0,0,1,1,1.92,4.93,4.93,0,0,0,3.58,3.85A14.51,14.51,0,0,1,23,8.27c.32.14,1.14.52,1.62.8l-.23.27-.08.09a4.64,4.64,0,0,0-1.17,2.05,4.37,4.37,0,0,0,1.5,4.26,4.46,4.46,0,0,0,4.5.73l.77-.3a31.48,31.48,0,0,1,3.48-.92c.47-.1.94-.21,1.4-.33l-.2.34A4.78,4.78,0,0,0,34.51,19a4.56,4.56,0,0,0-2.94,2.25,5.92,5.92,0,0,0-.71,4.69l.12.4a9.16,9.16,0,0,1,.52,2.15c.21,3.08,1.77,5.46,4.77,7.29.7.43.71.54.71.66a3.27,3.27,0,0,0,0,.44A1.63,1.63,0,0,0,36.71,36.9Z"/></g></g></svg>