<svg xmlns="http://www.w3.org/2000/svg" viewBox="0 0 128.04 53.2"><defs><style>.cls-1{fill:#f0a200;}.cls-2{fill:#193e2e;}</style></defs><title>1ElDoncello2016</title><g id="Capa_2" data-name="Capa 2"><g id="Capa_1-2" data-name="Capa 1"><path class="cls-1" d="M126.77,27.65H1.27a1.27,1.27,0,0,1,0-2.54h125.5a1.27,1.27,0,0,1,0,2.54Z"/><path class="cls-2" d="M38.9,12.22c0,2.7-1.23,4.17-3.84,4.17s-3.76-1.47-3.76-4V12h2.38v.57c0,1.14.51,1.58,1.31,1.58s1.4-.44,1.4-2V9.2a2.4,2.4,0,0,1-2.34,1.42c-1.85,0-2.79-1.3-2.79-3.66V4c0-2.57,1.35-4,3.82-4S38.9,1.46,38.9,4ZM36.39,6.75V3.87c0-1.15-.51-1.56-1.31-1.56s-1.3.41-1.3,1.56V6.75c0,1.15.5,1.58,1.3,1.58S36.39,7.9,36.39,6.75Z"/><path class="cls-2" d="M41.28,4c0-2.57,1.35-4,3.83-4s3.82,1.46,3.82,4v8.33c0,2.56-1.35,4-3.82,4s-3.83-1.47-3.83-4Zm2.52,8.49c0,1.14.5,1.58,1.31,1.58s1.3-.44,1.3-1.58V3.87c0-1.15-.5-1.58-1.3-1.58s-1.31.43-1.31,1.58Z"/><path class="cls-2" d="M63.23,10.23v2.13c0,2.56-1.28,4-3.75,4s-3.75-1.47-3.75-4V4c0-2.57,1.28-4,3.75-4s3.75,1.46,3.75,4V5.58H60.85V3.87c0-1.15-.5-1.58-1.3-1.58s-1.31.43-1.31,1.58v8.65c0,1.14.51,1.56,1.31,1.56s1.3-.42,1.3-1.56V10.23Z"/><path class="cls-2" d="M68.09.18V12.54c0,1.15.5,1.56,1.3,1.56s1.31-.41,1.31-1.56V.18h2.38v12.2c0,2.57-1.29,4-3.76,4s-3.75-1.46-3.75-4V.18Z"/><path class="cls-2" d="M75.71.18h2.52V13.92h4.14v2.29H75.71Z"/><path class="cls-2" d="M82.51.18h7.78V2.47H87.66V16.21H85.14V2.47H82.51Z"/><path class="cls-2" d="M92.3.18h2.52v16H92.3Z"/><path class="cls-2" d="M101.37,13.25,103.29.18h2.31l-2.47,16H99.37L96.9.18h2.54Z"/><path class="cls-2" d="M107.46,4c0-2.57,1.34-4,3.82-4s3.82,1.46,3.82,4v8.33c0,2.56-1.35,4-3.82,4s-3.82-1.47-3.82-4ZM110,12.52c0,1.14.51,1.58,1.31,1.58s1.3-.44,1.3-1.58V3.87c0-1.15-.5-1.58-1.3-1.58S110,2.72,110,3.87Z"/><path class="cls-2" d="M121,0c2.45,0,3.71,1.46,3.71,4v.5h-2.38V3.87c0-1.15-.46-1.58-1.26-1.58s-1.26.43-1.26,1.58c0,3.29,4.92,3.91,4.92,8.49,0,2.56-1.28,4-3.76,4s-3.75-1.47-3.75-4v-1h2.38v1.14c0,1.14.5,1.56,1.31,1.56s1.3-.42,1.3-1.56c0-3.3-4.92-3.91-4.92-8.49C117.32,1.46,118.58,0,121,0Z"/><path class="cls-2" d="M46.67,45.43v.86H42.79v5.94h4.67v.85H41.85V38.84h5.61v.86H42.79v5.73Z"/><path class="cls-2" d="M49.8,53.08V38.84h.94V52.23h4.48v.85Z"/><path class="cls-2" d="M64.53,38.84c2.2,0,3.16,1.45,3.16,3.54v7.16c0,2.1-1,3.54-3.16,3.54H61.4V38.84Zm0,13.39c1.59,0,2.24-1.08,2.24-2.65V42.34c0-1.56-.67-2.64-2.24-2.64H62.34V52.23Z"/><path class="cls-2" d="M70,42.32c0-2.07,1-3.6,3.11-3.6s3.15,1.53,3.15,3.6V49.6c0,2.08-1,3.6-3.15,3.6S70,51.68,70,49.6Zm.93,7.34c0,1.55.61,2.69,2.18,2.69s2.22-1.14,2.22-2.69v-7.4c0-1.55-.63-2.68-2.22-2.68s-2.18,1.13-2.18,2.68Z"/><path class="cls-2" d="M79.47,53.08h-.86V38.84h1.22l4.28,12v-12H85V53.08h-1L79.47,40.39Z"/><path class="cls-2" d="M93.46,42.32V43.5h-.89V42.26c0-1.52-.59-2.68-2.16-2.68s-2.15,1.16-2.15,2.68v7.4c0,1.53.59,2.67,2.15,2.67s2.16-1.14,2.16-2.67V48h.89V49.6c0,2.06-.89,3.6-3.07,3.6s-3.07-1.54-3.07-3.6V42.32c0-2,.9-3.6,3.07-3.6S93.46,40.27,93.46,42.32Z"/><path class="cls-2" d="M100.63,45.43v.86H96.74v5.94h4.68v.85H95.81V38.84h5.61v.86H96.74v5.73Z"/><path class="cls-2" d="M103.76,53.08V38.84h.94V52.23h4.47v.85Z"/><path class="cls-2" d="M111.39,53.08V38.84h.94V52.23h4.47v.85Z"/><path class="cls-2" d="M119,42.32c0-2.07,1-3.6,3.11-3.6s3.15,1.53,3.15,3.6V49.6c0,2.08-1,3.6-3.15,3.6S119,51.68,119,49.6Zm.94,7.34c0,1.55.61,2.69,2.17,2.69s2.22-1.14,2.22-2.69v-7.4c0-1.55-.63-2.68-2.22-2.68s-2.17,1.13-2.17,2.68Z"/></g></g></svg>