<svg xmlns="http://www.w3.org/2000/svg" viewBox="0 0 128.04 53.34"><defs><style>.cls-1{fill:#f0a200;}.cls-2{fill:#193e2e;}</style></defs><title>1Florencia SIN REGISTRO</title><g id="Capa_2" data-name="Capa 2"><g id="Capa_1-2" data-name="Capa 1"><path class="cls-1" d="M126.77,27.65H1.27a1.27,1.27,0,0,1,0-2.54h125.5a1.27,1.27,0,0,1,0,2.54Z"/><path class="cls-2" d="M27.41,0c2.45,0,3.71,1.46,3.71,4v.5H28.74V3.87c0-1.15-.46-1.58-1.26-1.58s-1.26.43-1.26,1.58c0,3.29,4.92,3.91,4.92,8.49,0,2.56-1.28,4-3.75,4s-3.75-1.47-3.75-4v-1H26v1.14c0,1.14.5,1.56,1.3,1.56s1.31-.42,1.31-1.56c0-3.3-4.92-3.91-4.92-8.49C23.71,1.46,25,0,27.41,0Z"/><path class="cls-2" d="M33.5.18H36v16H33.5Z"/><path class="cls-2" d="M41,4.6V16.21H38.74V.18H41.9l2.59,9.59V.18h2.24v16H44.14Z"/><path class="cls-2" d="M59.18,16.21a4.92,4.92,0,0,1-.23-2V11.72c0-1.49-.5-2-1.65-2h-.86v6.53H53.92V.18h3.8c2.61,0,3.73,1.22,3.73,3.69V5.13c0,1.65-.53,2.72-1.65,3.25,1.26.52,1.67,1.74,1.67,3.41v2.47a4.61,4.61,0,0,0,.28,2ZM56.44,2.47V7.39h1c.94,0,1.51-.41,1.51-1.69V4.12c0-1.14-.39-1.65-1.28-1.65Z"/><path class="cls-2" d="M66.55,6.94H70V9.22H66.55v4.7H70.9v2.29H64V.18H70.9V2.47H66.55Z"/><path class="cls-2" d="M77.15,7.28h3.52v5.08c0,2.56-1.28,4-3.75,4s-3.75-1.47-3.75-4V4c0-2.57,1.28-4,3.75-4s3.75,1.46,3.75,4V5.58H78.29V3.87c0-1.15-.5-1.58-1.3-1.58s-1.3.43-1.3,1.58v8.65c0,1.14.5,1.56,1.3,1.56s1.3-.42,1.3-1.56V9.57H77.15Z"/><path class="cls-2" d="M83.22.18h2.51v16H83.22Z"/><path class="cls-2" d="M91.87,0c2.45,0,3.71,1.46,3.71,4v.5H93.2V3.87c0-1.15-.46-1.58-1.26-1.58s-1.26.43-1.26,1.58c0,3.29,4.92,3.91,4.92,8.49,0,2.56-1.28,4-3.76,4s-3.75-1.47-3.75-4v-1h2.38v1.14c0,1.14.5,1.56,1.31,1.56s1.3-.42,1.3-1.56c0-3.3-4.92-3.91-4.92-8.49C88.16,1.46,89.42,0,91.87,0Z"/><path class="cls-2" d="M97.22.18H105V2.47h-2.63V16.21H99.86V2.47H97.22Z"/><path class="cls-2" d="M112.28,16.21a5.13,5.13,0,0,1-.23-2V11.72c0-1.49-.5-2-1.64-2h-.87v6.53H107V.18h3.8c2.61,0,3.73,1.22,3.73,3.69V5.13c0,1.65-.53,2.72-1.65,3.25,1.26.52,1.67,1.74,1.67,3.41v2.47a4.61,4.61,0,0,0,.28,2ZM109.54,2.47V7.39h1c.94,0,1.51-.41,1.51-1.69V4.12c0-1.14-.39-1.65-1.28-1.65Z"/><path class="cls-2" d="M116.93,4c0-2.57,1.35-4,3.82-4s3.83,1.46,3.83,4v8.33c0,2.56-1.36,4-3.83,4s-3.82-1.47-3.82-4Zm2.52,8.49c0,1.14.5,1.58,1.3,1.58s1.31-.44,1.31-1.58V3.87c0-1.15-.51-1.58-1.31-1.58s-1.3.43-1.3,1.58Z"/><path class="cls-2" d="M61.48,46v.85l-3.68,0,0,6.44H56.9l-.08-14.24,5.41,0v.85l-4.48,0,0,6.08Z"/><path class="cls-2" d="M64.55,53.27,64.47,39h.94l.07,13.39,4.48,0v.85Z"/><path class="cls-2" d="M72.06,42.47c0-2.07.94-3.6,3.09-3.62s3.16,1.51,3.18,3.59l0,7.28c0,2.07-.94,3.6-3.13,3.62s-3.12-1.51-3.14-3.59Zm1,7.34c0,1.55.62,2.68,2.19,2.67s2.21-1.15,2.2-2.7l0-7.4c0-1.55-.65-2.68-2.23-2.67S73,40.86,73,42.41Z"/><path class="cls-2" d="M83.64,38.93c2.17,0,3.06,1.18,3.07,3.19v1.24c0,1.67-.63,2.63-2,3,1.46.31,2.06,1.35,2.07,2.89v2.22a3.16,3.16,0,0,0,.36,1.71h-1a3.34,3.34,0,0,1-.32-1.71V49.21c0-1.89-1-2.42-2.68-2.41H81.65l0,6.37h-.94l-.08-14.24Zm-.49,7c1.67,0,2.64-.49,2.63-2.4V42.21c0-1.53-.6-2.44-2.15-2.43h-2l0,6.17Z"/><path class="cls-2" d="M94.19,45.46v.85l-3.89,0,0,5.94,4.68,0v.85l-5.61,0-.09-14.24,5.62,0v.86l-4.67,0,0,5.74Z"/><path class="cls-2" d="M98.22,53.08h-.85l-.08-14.24h1.22l4.34,12-.07-12h.85l.09,14.24h-1L98.15,40.39Z"/><path class="cls-2" d="M112.16,42.24v1.18h-.9V42.19c0-1.53-.6-2.69-2.17-2.68s-2.15,1.18-2.14,2.7l0,7.41c0,1.52.61,2.66,2.18,2.65s2.14-1.15,2.14-2.68V47.9h.89v1.62c0,2.06-.87,3.61-3,3.62s-3.08-1.53-3.09-3.58l0-7.28c0-2.06.87-3.61,3-3.62S112.15,40.19,112.16,42.24Z"/><path class="cls-2" d="M115.42,38.75,115.5,53h-.94l-.08-14.24Z"/><path class="cls-2" d="M119.29,49.81l-.7,3.15h-.85l3-14.28h1.36l3.25,14.24h-.93l-.73-3.15Zm.13-.82,4.15,0-2.15-9.2Z"/></g></g></svg>