<svg xmlns="http://www.w3.org/2000/svg" viewBox="0 0 128.04 53.2"><defs><style>.cls-1{fill:#f0a200;}.cls-2{fill:#193e2e;}</style></defs><title>1Florencia 2016</title><g id="Capa_2" data-name="Capa 2"><g id="Capa_1-2" data-name="Capa 1"><path class="cls-1" d="M126.77,27.65H1.27a1.27,1.27,0,0,1,0-2.54h125.5a1.27,1.27,0,0,1,0,2.54Z"/><path class="cls-2" d="M52.52,2.2a2.49,2.49,0,0,0,2.77-2H57v16H54.47V4H52.52Z"/><path class="cls-2" d="M72.71,10.23v2.13c0,2.56-1.28,4-3.75,4s-3.76-1.47-3.76-4V4c0-2.57,1.28-4,3.76-4s3.75,1.46,3.75,4V5.58H70.33V3.87c0-1.15-.5-1.58-1.31-1.58s-1.3.43-1.3,1.58v8.65c0,1.14.5,1.56,1.3,1.56s1.31-.42,1.31-1.56V10.23Z"/><path class="cls-2" d="M77.56.18V12.54c0,1.15.51,1.56,1.31,1.56s1.3-.41,1.3-1.56V.18h2.38v12.2c0,2.57-1.28,4-3.75,4S75,15,75,12.38V.18Z"/><path class="cls-2" d="M85.18.18H87.7V13.92h4.14v2.29H85.18Z"/><path class="cls-2" d="M92,.18h7.78V2.47H97.13V16.21H94.61V2.47H92Z"/><path class="cls-2" d="M101.78.18h2.52v16h-2.52Z"/><path class="cls-2" d="M110.84,13.25,112.76.18h2.32l-2.48,16h-3.75l-2.47-16h2.54Z"/><path class="cls-2" d="M116.93,4c0-2.57,1.35-4,3.82-4s3.83,1.46,3.83,4v8.33c0,2.56-1.36,4-3.83,4s-3.82-1.47-3.82-4Zm2.52,8.49c0,1.14.5,1.58,1.3,1.58s1.31-.44,1.31-1.58V3.87c0-1.15-.51-1.58-1.31-1.58s-1.3.43-1.3,1.58Z"/><path class="cls-2" d="M61.48,45.78v.85H57.8v6.45h-.93V38.84h5.41v.86H57.8v6.08Z"/><path class="cls-2" d="M64.52,53.08V38.84h.93V52.23h4.48v.85Z"/><path class="cls-2" d="M72.08,42.32c0-2.07,1-3.6,3.12-3.6s3.15,1.53,3.15,3.6V49.6c0,2.08-1,3.6-3.15,3.6s-3.12-1.52-3.12-3.6ZM73,49.66c0,1.55.61,2.69,2.18,2.69s2.21-1.14,2.21-2.69v-7.4c0-1.55-.63-2.68-2.21-2.68S73,40.71,73,42.26Z"/><path class="cls-2" d="M83.68,38.84c2.18,0,3,1.2,3,3.22V43.3c0,1.67-.65,2.62-2,3,1.46.32,2,1.36,2,2.91v2.21a3.16,3.16,0,0,0,.35,1.71h-1a3.37,3.37,0,0,1-.31-1.71V49.14c0-1.9-1-2.43-2.66-2.43H81.65v6.37h-.94V38.84Zm-.53,7c1.67,0,2.64-.47,2.64-2.38V42.14c0-1.53-.58-2.44-2.13-2.44h-2v6.16Z"/><path class="cls-2" d="M94.2,45.43v.86H90.31v5.94H95v.85H89.38V38.84H95v.86H90.31v5.73Z"/><path class="cls-2" d="M98.19,53.08h-.86V38.84h1.22l4.27,12v-12h.86V53.08h-1L98.19,40.39Z"/><path class="cls-2" d="M112.18,42.32V43.5h-.89V42.26c0-1.52-.59-2.68-2.16-2.68S107,40.74,107,42.26v7.4c0,1.53.59,2.67,2.15,2.67s2.16-1.14,2.16-2.67V48h.89V49.6c0,2.06-.89,3.6-3.07,3.6S106,51.66,106,49.6V42.32c0-2,.89-3.6,3.07-3.6S112.18,40.27,112.18,42.32Z"/><path class="cls-2" d="M115.46,38.84V53.08h-.94V38.84Z"/><path class="cls-2" d="M119.26,49.93l-.71,3.15h-.85l3.11-14.26h1.36l3.18,14.26h-.94l-.71-3.15Zm.15-.81h4.15l-2.1-9.22Z"/></g></g></svg>