<svg xmlns="http://www.w3.org/2000/svg" viewBox="0 0 423.91 19.4"><defs><style>.cls-1{fill:#193e2e;}</style></defs><title>1fUENTE 2</title><g id="Capa_2" data-name="Capa 2"><g id="Capa_1-2" data-name="Capa 1"><path class="cls-1" d="M4.66,12v.85L1,12.88l0,6.45H.08L0,5.1l5.41,0v.85L.94,6,1,12Z"/><path class="cls-1" d="M8.61,15.85c0,1.52.58,2.7,2.15,2.69s2.13-1.19,2.12-2.72L12.82,5h.87l.06,10.76c0,2-.83,3.6-3,3.62s-3.06-1.55-3.07-3.59L7.61,5.05h.93Z"/><path class="cls-1" d="M21,11.57v.85l-3.89,0,0,5.94,4.67,0v.85l-5.61,0L16.11,5l5.62,0v.86l-4.68,0,0,5.74Z"/><path class="cls-1" d="M25,19.19h-.86L24.07,5h1.22l4.34,12-.07-12h.85l.09,14.24h-1L24.93,6.5Z"/><path class="cls-1" d="M35.38,19.13,35.3,5.75l-2.91,0V4.91l6.73,0v.86H36.24l.08,13.39Z"/><path class="cls-1" d="M46,11.42v.86l-3.88,0,0,5.94,4.68,0v.86l-5.61,0L41.16,4.86l5.61,0v.85l-4.68,0,0,5.74Z"/><path class="cls-1" d="M50.06,9.51V11.3h-.92V9.51Zm0,7.75v1.79H49.2V17.26Z"/><path class="cls-1" d="M61.3,19h-.94L57.28,6.4,57.35,19h-.83L56.44,4.77h1.34l3.06,12.57,2.9-12.61h1.34L65.16,19h-.89L64.2,6.32Z"/><path class="cls-1" d="M68.46,4.71l.08,14.23h-.93L67.53,4.71Z"/><path class="cls-1" d="M71.84,18.92H71L70.9,4.69h1.22l4.34,12-.07-12h.86l.08,14.24h-1L71.77,6.23Z"/><path class="cls-1" d="M80.61,4.63l.08,14.24h-.94L79.67,4.64Z"/><path class="cls-1" d="M89.07,8v.31h-.9V8c0-1.51-.58-2.64-2.13-2.63S83.93,6.47,83.94,8c0,3.46,5.17,3.49,5.19,7.42,0,2.05-.87,3.56-3,3.57S83,17.48,83,15.42v-.73h.9v.8c0,1.52.61,2.62,2.17,2.61S88.2,17,88.2,15.45C88.18,12,83,12,83,8c0-2.14.91-3.53,3-3.56S89.06,6,89.07,8Z"/><path class="cls-1" d="M93.93,18.8,93.86,5.41,91,5.43V4.58l6.73,0v.85l-2.89,0,.08,13.38Z"/><path class="cls-1" d="M104.57,11.09v.85l-3.88,0,0,5.94,4.68,0v.85l-5.62,0L99.71,4.53l5.61,0v.86l-4.68,0,0,5.74Z"/><path class="cls-1" d="M110.64,4.46c2.17,0,3,1.19,3.07,3.2V8.9c0,1.67-.63,2.63-2,3,1.47.32,2.07,1.35,2.08,2.9V17a3.25,3.25,0,0,0,.35,1.71h-1a3.39,3.39,0,0,1-.32-1.71V14.74c0-1.89-1-2.41-2.68-2.4h-1.48l0,6.36h-.93l-.08-14.24Zm-.49,7c1.67,0,2.64-.48,2.63-2.39V7.75c0-1.53-.6-2.44-2.15-2.43h-2l0,6.16Z"/><path class="cls-1" d="M117.27,4.42l.08,14.24h-.94l-.08-14.24Z"/><path class="cls-1" d="M119.67,7.89c0-2.08.93-3.61,3.09-3.62s3.16,1.51,3.17,3.58l0,7.28c0,2.08-.94,3.61-3.14,3.62s-3.12-1.5-3.13-3.58Zm1,7.34c0,1.54.62,2.68,2.19,2.67s2.21-1.15,2.2-2.7l0-7.4c0-1.55-.65-2.68-2.23-2.67s-2.18,1.15-2.17,2.69Z"/><path class="cls-1" d="M135.38,4.32c2.19,0,3.16,1.43,3.17,3.52l0,7.16c0,2.1-.94,3.55-3.13,3.56l-3.14,0-.08-14.24Zm.05,13.39c1.59,0,2.23-1.1,2.22-2.66l0-7.24c0-1.57-.68-2.64-2.25-2.63h-2.18l.08,12.53Z"/><path class="cls-1" d="M145.75,10.85v.86l-3.88,0,0,5.94,4.68,0v.86l-5.61,0-.08-14.24,5.61,0v.85l-4.68,0,0,5.73Z"/><path class="cls-1" d="M155.94,4.2c2.2,0,3.16,1.43,3.18,3.52l0,7.16c0,2.1-.94,3.55-3.13,3.56l-3.14,0-.08-14.24ZM156,17.59c1.59,0,2.23-1.09,2.22-2.66l0-7.24c0-1.57-.69-2.64-2.25-2.63h-2.18l.07,12.53Z"/><path class="cls-1" d="M166.32,10.73v.86l-3.88,0,0,5.94,4.68,0v.86l-5.61,0-.08-14.24,5.61,0V5L162.4,5l0,5.74Z"/><path class="cls-1" d="M174.07,11v.85l-3.69,0,0,6.45h-.93l-.09-14.23,5.41,0V5l-4.48,0,0,6.09Z"/><path class="cls-1" d="M181.92,10.64v.86l-3.89,0,0,5.94,4.67,0v.86l-5.62,0-.08-14.24,5.62,0V4.9l-4.68,0,0,5.74Z"/><path class="cls-1" d="M186,18.27h-.85L185,4h1.22l4.34,12-.07-12h.85l.09,14.24h-1L185.88,5.58Z"/><path class="cls-1" d="M199.81,7.39v.3h-.9V7.33c0-1.5-.58-2.64-2.13-2.63s-2.11,1.13-2.1,2.64c0,3.45,5.17,3.49,5.19,7.41,0,2.06-.87,3.57-3.05,3.58s-3.08-1.49-3.09-3.54v-.74h.9v.79c0,1.53.61,2.62,2.17,2.62s2.15-1.12,2.14-2.64c0-3.42-5.16-3.45-5.18-7.42,0-2.13.91-3.52,3-3.55S199.8,5.33,199.81,7.39Z"/><path class="cls-1" d="M203.56,15l-.7,3.15H202L205,3.9h1.36l3.25,14.24h-.93L208,15Zm.13-.82,4.15,0L205.69,5Z"/><path class="cls-1" d="M218,3.85l-5.54,14.27h-.83l5.53-14.27Z"/><path class="cls-1" d="M227.27,3.79c2.2,0,3.16,1.43,3.18,3.53l0,7.16c0,2.09-.94,3.54-3.13,3.55l-3.14,0-.08-14.24Zm.06,13.39c1.59,0,2.23-1.09,2.22-2.66l0-7.24c0-1.57-.69-2.64-2.25-2.63h-2.18l.07,12.53Z"/><path class="cls-1" d="M233.72,3.76,233.81,18h-.94l-.08-14.24Z"/><path class="cls-1" d="M239.13,3.73c2.18,0,3.06,1.18,3.07,3.19V8.16c0,1.67-.63,2.63-2,3,1.47.32,2.07,1.35,2.07,2.9l0,2.22a3.2,3.2,0,0,0,.35,1.7h-1a3.36,3.36,0,0,1-.32-1.71V14c0-1.9-1.05-2.42-2.68-2.41h-1.48l0,6.37h-.93l-.09-14.24Zm-.48,7c1.66,0,2.64-.49,2.63-2.4V7c0-1.53-.61-2.44-2.15-2.43h-2l0,6.16Z"/><path class="cls-1" d="M249.69,10.26v.85l-3.89,0,0,5.94,4.68,0v.86l-5.62,0-.08-14.24,5.62,0v.86l-4.68,0,0,5.74Z"/><path class="cls-1" d="M258.89,7.09V8.27H258V7c0-1.53-.6-2.69-2.17-2.68s-2.15,1.18-2.14,2.7l0,7.4c0,1.53.61,2.67,2.18,2.66S258,16,258,14.44V12.75h.89v1.62c0,2.06-.87,3.61-3.05,3.62s-3.08-1.53-3.09-3.58l0-7.28c0-2.06.87-3.61,3.05-3.62S258.88,5,258.89,7.09Z"/><path class="cls-1" d="M267.31,7V8.22h-.9V7c0-1.53-.61-2.68-2.18-2.68S262.1,5.49,262.1,7l0,7.41c0,1.52.6,2.66,2.17,2.65s2.15-1.15,2.14-2.68V12.7h.89v1.63c0,2-.87,3.6-3.05,3.61s-3.08-1.53-3.09-3.58l0-7.28c0-2.06.87-3.61,3.05-3.62S267.3,5,267.31,7Z"/><path class="cls-1" d="M270.57,3.55l.08,14.23h-.94l-.08-14.24Z"/><path class="cls-1" d="M279.23,7l0,7.29c0,2.07-.93,3.6-3.13,3.61S273,16.37,273,14.29L273,7c0-2.07.93-3.6,3.09-3.62S279.22,4.9,279.23,7Zm-5.33,0,.05,7.41c0,1.54.62,2.68,2.19,2.67s2.21-1.15,2.2-2.7l0-7.4c0-1.55-.65-2.68-2.24-2.67S273.89,5.4,273.9,6.94ZM277.69.62,276,2.56h-.71L276.71.62Z"/><path class="cls-1" d="M282.51,17.72h-.85l-.09-14.24h1.23l4.34,12-.07-12h.85L288,17.68h-1L282.44,5Z"/><path class="cls-1" d="M297.44,3.39c2.2,0,3.16,1.43,3.18,3.52l0,7.16c0,2.1-.94,3.55-3.14,3.56l-3.13,0-.08-14.24Zm.06,13.39c1.59,0,2.23-1.09,2.22-2.66l0-7.24c0-1.57-.69-2.64-2.25-2.63h-2.18l.07,12.53Z"/><path class="cls-1" d="M307.82,9.92v.86l-3.88,0,0,5.94,4.68,0v.86l-5.61,0L303,3.36l5.61,0v.85l-4.68,0,0,5.74Z"/><path class="cls-1" d="M316.31,14.37l-.7,3.16h-.85l3-14.28h1.36l3.26,14.24h-.94l-.73-3.15Zm.13-.82,4.15,0-2.14-9.2Z"/><path class="cls-1" d="M325.5,17.47h-.85l-.09-14.23h1.22l4.35,12-.07-12h.85L331,17.44h-1L325.43,4.78Z"/><path class="cls-1" d="M335.88,17.41,335.8,4h-2.91V3.19l6.73,0V4l-2.89,0,.08,13.38Z"/><path class="cls-1" d="M342.59,3.13l.08,14.24h-.93l-.09-14.24Z"/><path class="cls-1" d="M346,17.35h-.86L345,3.12h1.22l4.34,12-.07-12h.86l.08,14.24h-1L345.89,4.66Z"/><path class="cls-1" d="M355.23,14.15l-.7,3.15h-.85l3-14.28h1.36l3.26,14.24h-.94l-.73-3.15Zm.13-.82,4.15,0-2.14-9.2Z"/><path class="cls-1" d="M366.45,3c2.18,0,3.06,1.18,3.07,3.19V7.43c0,1.67-.64,2.63-2,3,1.47.32,2.06,1.36,2.07,2.9l0,2.22a3.1,3.1,0,0,0,.35,1.7h-1a3.26,3.26,0,0,1-.32-1.71V13.28c0-1.9-1.05-2.42-2.68-2.41h-1.49l0,6.37h-.93L363.48,3ZM366,10c1.67,0,2.65-.49,2.63-2.4V6.28c0-1.53-.61-2.44-2.15-2.43h-2l0,6.17Z"/><path class="cls-1" d="M378.25,6.41V7.59h-.9V6.35c0-1.52-.61-2.68-2.17-2.67S373,4.85,373,6.38l0,7.4c0,1.53.6,2.66,2.17,2.65s2.15-1.15,2.14-2.68V12.07h.89v1.63c0,2.05-.87,3.6-3.05,3.62s-3.08-1.53-3.09-3.59l0-7.28c0-2.05.87-3.6,3.05-3.62S378.24,4.35,378.25,6.41Z"/><path class="cls-1" d="M386.8,6.36l0,7.28c0,2.07-.94,3.61-3.13,3.62s-3.12-1.51-3.14-3.58l0-7.29c0-2.07.94-3.6,3.09-3.61S386.78,4.28,386.8,6.36Zm-5.33,0,0,7.4c0,1.55.63,2.68,2.19,2.67s2.21-1.15,2.2-2.69l0-7.41c0-1.54-.65-2.68-2.23-2.67S381.46,4.78,381.47,6.33ZM385.25,0l-1.69,1.94h-.71L384.28,0Z"/><path class="cls-1" d="M391.68,17.09l-.07-13.38H388.7V2.87l6.73,0v.85l-2.89,0,.08,13.38Z"/><path class="cls-1" d="M398.4,2.81l.08,14.24h-.94l-.08-14.24Z"/><path class="cls-1" d="M406.94,6.24V7.42h-.9V6.19c0-1.53-.6-2.69-2.17-2.68s-2.15,1.18-2.14,2.7l0,7.41c0,1.52.61,2.66,2.18,2.65s2.14-1.15,2.13-2.68V11.9H407v1.62c0,2.06-.87,3.61-3.05,3.62s-3.08-1.53-3.09-3.58l0-7.28c0-2.06.87-3.61,3.05-3.62S406.93,4.19,406.94,6.24Z"/><path class="cls-1" d="M409.22,6.23c0-2.07.94-3.61,3.09-3.62s3.16,1.51,3.17,3.58l0,7.29c0,2.07-.94,3.6-3.14,3.61s-3.12-1.5-3.13-3.58Zm1,7.34c0,1.54.62,2.68,2.19,2.67s2.21-1.15,2.2-2.7l0-7.4c0-1.55-.65-2.68-2.23-2.67s-2.17,1.15-2.16,2.69Z"/><path class="cls-1" d="M423.85,6.11v.3H423V6.05c0-1.51-.58-2.64-2.13-2.63s-2.11,1.13-2.1,2.63c0,3.46,5.17,3.49,5.19,7.42,0,2-.88,3.56-3.05,3.57s-3.08-1.48-3.09-3.54v-.73h.9v.79c0,1.52.61,2.62,2.17,2.61S423,15.06,423,13.53c0-3.41-5.16-3.44-5.18-7.41,0-2.14.91-3.53,3-3.56S423.83,4.05,423.85,6.11Z"/></g></g></svg>