<svg xmlns="http://www.w3.org/2000/svg" viewBox="0 0 209.58 14.48"><defs><style>.cls-1{fill:#193e2e;}</style></defs><title>1Fuente erradicar</title><g id="Capa_2" data-name="Capa 2"><g id="Capa_1-2" data-name="Capa 1"><path class="cls-1" d="M4.62,7.06v.85H.94v6.45H0V.12H5.41V1H.94V7.06Z"/><path class="cls-1" d="M8.54,10.92c0,1.53.57,2.71,2.14,2.71s2.14-1.18,2.14-2.71V.12h.87V10.88c0,2-.85,3.6-3,3.6s-3-1.56-3-3.6V.12h.93Z"/><path class="cls-1" d="M20.93,6.71v.86H17.05v5.94h4.68v.85H16.11V.12h5.62V1H17.05V6.71Z"/><path class="cls-1" d="M24.92,14.36h-.85V.12h1.22l4.27,12V.12h.86V14.36h-1L24.92,1.67Z"/><path class="cls-1" d="M35.3,14.36V1H32.39V.12h6.73V1H36.23V14.36Z"/><path class="cls-1" d="M46,6.71v.86H42.09v5.94h4.68v.85H41.16V.12h5.61V1H42.09V6.71Z"/><path class="cls-1" d="M50,4.82V6.61h-.92V4.82Zm0,7.75v1.79h-.92V12.57Z"/><path class="cls-1" d="M61.22,14.34h-.94l-3-12.59V14.36h-.83V.12h1.34l3,12.59,3-12.59h1.34V14.36h-.89V1.71Z"/><path class="cls-1" d="M68.46.12V14.36h-.93V.12Z"/><path class="cls-1" d="M71.76,14.36H70.9V.12h1.22l4.28,12V.12h.85V14.36h-1L71.76,1.67Z"/><path class="cls-1" d="M80.61.12V14.36h-.94V.12Z"/><path class="cls-1" d="M89.05,3.56v.31h-.9V3.5C88.15,2,87.59.85,86,.85S83.92,2,83.92,3.48c0,3.46,5.15,3.52,5.15,7.44,0,2.06-.89,3.56-3.07,3.56s-3.07-1.5-3.07-3.56v-.73h.89V11c0,1.53.59,2.63,2.16,2.63s2.15-1.1,2.15-2.63C88.13,7.57,83,7.51,83,3.54,83,1.4,83.92,0,86,0S89.05,1.51,89.05,3.56Z"/><path class="cls-1" d="M93.85,14.36V1H90.94V.12h6.74V1H94.79V14.36Z"/><path class="cls-1" d="M104.53,6.71v.86h-3.88v5.94h4.68v.85H99.71V.12h5.62V1h-4.68V6.71Z"/><path class="cls-1" d="M110.64.12c2.17,0,3,1.2,3,3.22V4.58c0,1.67-.65,2.62-2.06,3,1.47.32,2.06,1.36,2.06,2.9v2.22a3.25,3.25,0,0,0,.34,1.71h-1a3.29,3.29,0,0,1-.31-1.71V10.41c0-1.89-1-2.42-2.66-2.42H108.6v6.37h-.93V.12Zm-.53,7c1.67,0,2.64-.47,2.64-2.38V3.42c0-1.53-.59-2.44-2.13-2.44h-2V7.14Z"/><path class="cls-1" d="M117.27.12V14.36h-.94V.12Z"/><path class="cls-1" d="M119.65,3.6c0-2.07,1-3.6,3.11-3.6s3.16,1.53,3.16,3.6v7.28c0,2.08-1,3.6-3.16,3.6s-3.11-1.52-3.11-3.6Zm.94,7.34c0,1.55.61,2.69,2.17,2.69S125,12.49,125,10.94V3.54C125,2,124.35.85,122.76.85S120.59,2,120.59,3.54Z"/><path class="cls-1" d="M135.38.12c2.19,0,3.15,1.45,3.15,3.54v7.16c0,2.1-1,3.54-3.15,3.54h-3.14V.12Zm0,13.39c1.58,0,2.23-1.08,2.23-2.65V3.62c0-1.57-.67-2.64-2.23-2.64h-2.18V13.51Z"/><path class="cls-1" d="M145.71,6.71v.86h-3.88v5.94h4.67v.85h-5.61V.12h5.61V1h-4.67V6.71Z"/><path class="cls-1" d="M156,.12c2.19,0,3.15,1.45,3.15,3.54v7.16c0,2.1-1,3.54-3.15,3.54h-3.14V.12Zm0,13.39c1.58,0,2.23-1.08,2.23-2.65V3.62c0-1.57-.67-2.64-2.23-2.64h-2.18V13.51Z"/><path class="cls-1" d="M166.28,6.71v.86H162.4v5.94h4.67v.85h-5.61V.12h5.61V1H162.4V6.71Z"/><path class="cls-1" d="M174,7.06v.85h-3.68v6.45h-.93V.12h5.41V1h-4.48V7.06Z"/><path class="cls-1" d="M181.89,6.71v.86H178v5.94h4.68v.85h-5.61V.12h5.61V1H178V6.71Z"/><path class="cls-1" d="M185.88,14.36H185V.12h1.22l4.27,12V.12h.86V14.36h-1L185.88,1.67Z"/><path class="cls-1" d="M199.79,3.56v.31h-.89V3.5c0-1.51-.57-2.65-2.12-2.65S194.66,2,194.66,3.48c0,3.46,5.15,3.52,5.15,7.44,0,2.06-.89,3.56-3.07,3.56s-3.07-1.5-3.07-3.56v-.73h.89V11c0,1.53.59,2.63,2.16,2.63s2.15-1.1,2.15-2.63c0-3.41-5.14-3.47-5.14-7.44,0-2.14.93-3.52,3-3.54S199.79,1.51,199.79,3.56Z"/><path class="cls-1" d="M203.49,11.21l-.71,3.15h-.85L205,.1h1.36l3.18,14.26h-.94l-.71-3.15Zm.15-.82h4.15l-2.1-9.21Z"/></g></g></svg>