<svg xmlns="http://www.w3.org/2000/svg" viewBox="0 0 128.04 53.08"><defs><style>.cls-1{fill:#f0a200;}.cls-2{fill:#193e2e;}</style></defs><title>1Milan2018</title><g id="Capa_2" data-name="Capa 2"><g id="Capa_1-2" data-name="Capa 1"><path class="cls-1" d="M126.77,27.65H1.27a1.27,1.27,0,0,1,0-2.54h125.5a1.27,1.27,0,0,1,0,2.54Z"/><path class="cls-2" d="M45.17,2.29c-.8,0-1.3.43-1.3,1.58V5.58H41.49V4c0-2.57,1.28-4,3.75-4S49,1.46,49,4c0,5-5,6.91-5,9.54a1.38,1.38,0,0,0,0,.35h4.76v2.29H41.49v-2c0-4.72,5-5.5,5-10.12C46.48,2.68,46,2.29,45.17,2.29Z"/><path class="cls-2" d="M63.23,10.23v2.13c0,2.56-1.28,4-3.75,4s-3.75-1.47-3.75-4V4c0-2.57,1.28-4,3.75-4s3.75,1.46,3.75,4V5.58H60.85V3.87c0-1.15-.5-1.58-1.3-1.58s-1.31.43-1.31,1.58v8.65c0,1.14.51,1.56,1.31,1.56s1.3-.42,1.3-1.56V10.23Z"/><path class="cls-2" d="M68.09.18V12.54c0,1.15.5,1.56,1.3,1.56s1.31-.41,1.31-1.56V.18h2.38v12.2c0,2.57-1.29,4-3.76,4s-3.75-1.46-3.75-4V.18Z"/><path class="cls-2" d="M75.71.18h2.52V13.92h4.14v2.29H75.71Z"/><path class="cls-2" d="M82.51.18h7.78V2.47H87.66V16.21H85.14V2.47H82.51Z"/><path class="cls-2" d="M92.3.18h2.52v16H92.3Z"/><path class="cls-2" d="M101.37,13.25,103.29.18h2.31l-2.47,16H99.37L96.9.18h2.54Z"/><path class="cls-2" d="M107.46,4c0-2.57,1.34-4,3.82-4s3.82,1.46,3.82,4v8.33c0,2.56-1.35,4-3.82,4s-3.82-1.47-3.82-4ZM110,12.52c0,1.14.51,1.58,1.31,1.58s1.3-.44,1.3-1.58V3.87c0-1.15-.5-1.58-1.3-1.58S110,2.72,110,3.87Z"/><path class="cls-2" d="M121,0c2.45,0,3.71,1.46,3.71,4v.5h-2.38V3.87c0-1.15-.46-1.58-1.26-1.58s-1.26.43-1.26,1.58c0,3.29,4.92,3.91,4.92,8.49,0,2.56-1.28,4-3.76,4s-3.75-1.47-3.75-4v-1h2.38v1.14c0,1.14.5,1.56,1.31,1.56s1.3-.42,1.3-1.56c0-3.3-4.92-3.91-4.92-8.49C117.32,1.46,118.58,0,121,0Z"/><path class="cls-2" d="M91.82,53.06h-.94l-3-12.59V53.08H87V38.84h1.34l3,12.59,3-12.59h1.34V53.08h-.89V40.43Z"/><path class="cls-2" d="M99.06,38.84V53.08h-.93V38.84Z"/><path class="cls-2" d="M101.5,53.08V38.84h.94V52.23h4.47v.85Z"/><path class="cls-2" d="M110.5,49.93l-.72,3.15h-.85L112,38.82h1.36l3.18,14.26h-.94l-.71-3.15Zm.14-.81h4.15l-2.1-9.22Zm3.58-13-1.71,1.93h-.71l1.44-1.93Z"/><path class="cls-2" d="M119.67,53.08h-.85V38.84H120l4.27,12v-12h.85V53.08h-1l-4.46-12.69Z"/></g></g></svg>