<svg xmlns="http://www.w3.org/2000/svg" viewBox="0 0 128.04 53.08"><defs><style>.cls-1{fill:#f0a200;}.cls-2{fill:#193e2e;}</style></defs><title>1Milan2016</title><g id="Capa_2" data-name="Capa 2"><g id="Capa_1-2" data-name="Capa 1"><path class="cls-1" d="M126.77,27.65H1.27a1.27,1.27,0,0,1,0-2.54h125.5a1.27,1.27,0,0,1,0,2.54Z"/><path class="cls-2" d="M52.52,2.2a2.49,2.49,0,0,0,2.77-2H57v16H54.47V4H52.52Z"/><path class="cls-2" d="M72.71,10.23v2.13c0,2.56-1.28,4-3.75,4s-3.76-1.47-3.76-4V4c0-2.57,1.28-4,3.76-4s3.75,1.46,3.75,4V5.58H70.33V3.87c0-1.15-.5-1.58-1.31-1.58s-1.3.43-1.3,1.58v8.65c0,1.14.5,1.56,1.3,1.56s1.31-.42,1.31-1.56V10.23Z"/><path class="cls-2" d="M77.56.18V12.54c0,1.15.51,1.56,1.31,1.56s1.3-.41,1.3-1.56V.18h2.38v12.2c0,2.57-1.28,4-3.75,4S75,15,75,12.38V.18Z"/><path class="cls-2" d="M85.18.18H87.7V13.92h4.14v2.29H85.18Z"/><path class="cls-2" d="M92,.18h7.78V2.47H97.13V16.21H94.61V2.47H92Z"/><path class="cls-2" d="M101.78.18h2.52v16h-2.52Z"/><path class="cls-2" d="M110.84,13.25,112.76.18h2.32l-2.48,16h-3.75l-2.47-16h2.54Z"/><path class="cls-2" d="M116.93,4c0-2.57,1.35-4,3.82-4s3.83,1.46,3.83,4v8.33c0,2.56-1.36,4-3.83,4s-3.82-1.47-3.82-4Zm2.52,8.49c0,1.14.5,1.58,1.3,1.58s1.31-.44,1.31-1.58V3.87c0-1.15-.51-1.58-1.31-1.58s-1.3.43-1.3,1.58Z"/><path class="cls-2" d="M91.82,53.06h-.94l-3-12.59V53.08H87V38.84h1.34l3,12.59,3-12.59h1.34V53.08h-.89V40.43Z"/><path class="cls-2" d="M99.06,38.84V53.08h-.93V38.84Z"/><path class="cls-2" d="M101.5,53.08V38.84h.94V52.23h4.47v.85Z"/><path class="cls-2" d="M110.5,49.93l-.72,3.15h-.85L112,38.82h1.36l3.18,14.26h-.94l-.71-3.15Zm.14-.81h4.15l-2.1-9.22Zm3.58-13-1.71,1.93h-.71l1.44-1.93Z"/><path class="cls-2" d="M119.67,53.08h-.85V38.84H120l4.27,12v-12h.85V53.08h-1l-4.46-12.69Z"/></g></g></svg>