<svg xmlns="http://www.w3.org/2000/svg" viewBox="0 0 128.04 53.2"><defs><style>.cls-1{fill:#f0a200;}.cls-2{fill:#193e2e;}</style></defs><title>1Montanita2016</title><g id="Capa_2" data-name="Capa 2"><g id="Capa_1-2" data-name="Capa 1"><path class="cls-1" d="M126.77,27.65H1.27a1.27,1.27,0,0,1,0-2.54h125.5a1.27,1.27,0,0,1,0,2.54Z"/><path class="cls-2" d="M18.51,2.2a2.5,2.5,0,0,0,2.77-2H23v16H20.45V4H18.51Z"/><path class="cls-2" d="M26.73,4c0-2.57,1.35-4,3.82-4s3.82,1.46,3.82,4v8.33c0,2.56-1.35,4-3.82,4s-3.82-1.47-3.82-4Zm2.51,8.49c0,1.14.51,1.58,1.31,1.58s1.3-.44,1.3-1.58V3.87c0-1.15-.5-1.58-1.3-1.58s-1.31.43-1.31,1.58Z"/><path class="cls-2" d="M44.3,12.22c0,2.7-1.23,4.17-3.84,4.17s-3.75-1.47-3.75-4V12h2.38v.57c0,1.14.5,1.58,1.3,1.58s1.4-.44,1.4-2V9.2a2.4,2.4,0,0,1-2.34,1.42c-1.85,0-2.79-1.3-2.79-3.66V4c0-2.57,1.35-4,3.82-4S44.3,1.46,44.3,4ZM41.79,6.75V3.87c0-1.15-.51-1.56-1.31-1.56s-1.3.41-1.3,1.56V6.75c0,1.15.5,1.58,1.3,1.58S41.79,7.9,41.79,6.75Z"/><path class="cls-2" d="M59.23,10.23v2.13c0,2.56-1.28,4-3.76,4s-3.75-1.47-3.75-4V4c0-2.57,1.28-4,3.75-4s3.76,1.46,3.76,4V5.58H56.85V3.87c0-1.15-.51-1.58-1.31-1.58s-1.3.43-1.3,1.58v8.65c0,1.14.5,1.56,1.3,1.56s1.31-.42,1.31-1.56V10.23Z"/><path class="cls-2" d="M64.65.18V12.54c0,1.15.51,1.56,1.31,1.56s1.3-.41,1.3-1.56V.18h2.38v12.2c0,2.57-1.28,4-3.75,4s-3.76-1.46-3.76-4V.18Z"/><path class="cls-2" d="M72.85.18h2.51V13.92h4.15v2.29H72.85Z"/><path class="cls-2" d="M80.22.18H88V2.47H85.37V16.21H82.85V2.47H80.22Z"/><path class="cls-2" d="M90.58.18H93.1v16H90.58Z"/><path class="cls-2" d="M100.22,13.25,102.14.18h2.32l-2.48,16H98.23L95.76.18H98.3Z"/><path class="cls-2" d="M106.88,4c0-2.57,1.35-4,3.82-4s3.83,1.46,3.83,4v8.33c0,2.56-1.35,4-3.83,4s-3.82-1.47-3.82-4Zm2.52,8.49c0,1.14.5,1.58,1.3,1.58s1.31-.44,1.31-1.58V3.87c0-1.15-.51-1.58-1.31-1.58s-1.3.43-1.3,1.58Z"/><path class="cls-2" d="M121,0c2.45,0,3.7,1.46,3.7,4v.5h-2.38V3.87c0-1.15-.45-1.58-1.25-1.58s-1.26.43-1.26,1.58c0,3.29,4.92,3.91,4.92,8.49,0,2.56-1.28,4-3.76,4s-3.75-1.47-3.75-4v-1h2.38v1.14c0,1.14.5,1.56,1.3,1.56s1.31-.42,1.31-1.56c0-3.3-4.92-3.91-4.92-8.49C117.32,1.46,118.58,0,121,0Z"/><path class="cls-2" d="M57.54,53.06H56.6l-3-12.59V53.08h-.84V38.84H54.1l3,12.59,3-12.59H61.4V53.08h-.9V40.43Z"/><path class="cls-2" d="M63.78,42.32c0-2.07,1-3.6,3.11-3.6s3.16,1.53,3.16,3.6V49.6c0,2.08-1,3.6-3.16,3.6s-3.11-1.52-3.11-3.6Zm.94,7.34c0,1.55.61,2.69,2.17,2.69s2.22-1.14,2.22-2.69v-7.4c0-1.55-.63-2.68-2.22-2.68s-2.17,1.13-2.17,2.68Z"/><path class="cls-2" d="M73.26,53.08h-.85V38.84h1.22l4.27,12v-12h.85V53.08h-1L73.26,40.39Z"/><path class="cls-2" d="M83.58,53.08V39.7H80.69v-.86h6.73v.86H84.51V53.08Z"/><path class="cls-2" d="M90,49.93l-.71,3.15h-.86l3.11-14.26H92.9l3.17,14.26h-.94l-.71-3.15Zm.14-.81h4.15l-2.1-9.22Z"/><path class="cls-2" d="M99.16,53.08h-.85V38.84h1.22l4.27,12v-12h.85V53.08h-1L99.16,40.39Zm4.54-16.31a1.37,1.37,0,0,1-1.18,1c-.75,0-1.24-.7-1.89-.68a1,1,0,0,0-.86.61l-.49-.32a1.43,1.43,0,0,1,1.27-1c.77,0,1.28.71,1.89.67a.93.93,0,0,0,.77-.61Z"/><path class="cls-2" d="M108,38.84V53.08h-.93V38.84Z"/><path class="cls-2" d="M112.85,53.08V39.7H110v-.86h6.73v.86h-2.91V53.08Z"/><path class="cls-2" d="M119.26,49.93l-.71,3.15h-.85l3.11-14.26h1.36l3.18,14.26h-.94l-.71-3.15Zm.15-.81h4.15l-2.1-9.22Z"/></g></g></svg>