<svg xmlns="http://www.w3.org/2000/svg" viewBox="0 0 128.04 53.2"><defs><style>.cls-1{fill:#f0a200;}.cls-2{fill:#193e2e;}</style></defs><title>1Paujil2018</title><g id="Capa_2" data-name="Capa 2"><g id="Capa_1-2" data-name="Capa 1"><path class="cls-1" d="M126.77,27.65H1.27a1.27,1.27,0,0,1,0-2.54h125.5a1.27,1.27,0,0,1,0,2.54Z"/><path class="cls-2" d="M23.09,2.2a2.5,2.5,0,0,0,2.77-2h1.69v16H25V4H23.09Z"/><path class="cls-2" d="M38.9,12.22c0,2.7-1.23,4.17-3.84,4.17s-3.76-1.47-3.76-4V12h2.38v.57c0,1.14.51,1.58,1.31,1.58s1.4-.44,1.4-2V9.2a2.4,2.4,0,0,1-2.34,1.42c-1.85,0-2.79-1.3-2.79-3.66V4c0-2.57,1.35-4,3.82-4S38.9,1.46,38.9,4ZM36.39,6.75V3.87c0-1.15-.51-1.56-1.31-1.56s-1.3.41-1.3,1.56V6.75c0,1.15.5,1.58,1.3,1.58S36.39,7.9,36.39,6.75Z"/><path class="cls-2" d="M45.11,16.39c-2.54,0-3.94-1.47-3.94-4V11.1a3.52,3.52,0,0,1,1.56-3.34,3.32,3.32,0,0,1-1.56-3.23V4c0-2.57,1.4-4,3.94-4S49,1.46,49,4v.5a3.36,3.36,0,0,1-1.55,3.23A3.54,3.54,0,0,1,49,11.1v1.26C49,14.92,47.65,16.39,45.11,16.39ZM43.69,5c0,1.28.59,1.7,1.42,1.7s1.42-.42,1.42-1.7V4.12c0-1.44-.62-1.83-1.42-1.83s-1.42.39-1.42,1.83Zm1.42,9.09c.8,0,1.39-.39,1.42-1.81V10.8C46.53,9.54,46,9,45.11,9s-1.42.54-1.42,1.8v1.49C43.69,13.71,44.3,14.1,45.11,14.1Z"/><path class="cls-2" d="M63.23,10.23v2.13c0,2.56-1.28,4-3.75,4s-3.75-1.47-3.75-4V4c0-2.57,1.28-4,3.75-4s3.75,1.46,3.75,4V5.58H60.85V3.87c0-1.15-.5-1.58-1.3-1.58s-1.31.43-1.31,1.58v8.65c0,1.14.51,1.56,1.31,1.56s1.3-.42,1.3-1.56V10.23Z"/><path class="cls-2" d="M68.09.18V12.54c0,1.15.5,1.56,1.3,1.56s1.31-.41,1.31-1.56V.18h2.38v12.2c0,2.57-1.29,4-3.76,4s-3.75-1.46-3.75-4V.18Z"/><path class="cls-2" d="M75.71.18h2.52V13.92h4.14v2.29H75.71Z"/><path class="cls-2" d="M82.51.18h7.78V2.47H87.66V16.21H85.14V2.47H82.51Z"/><path class="cls-2" d="M92.3.18h2.52v16H92.3Z"/><path class="cls-2" d="M101.37,13.25,103.29.18h2.31l-2.47,16H99.37L96.9.18h2.54Z"/><path class="cls-2" d="M107.46,4c0-2.57,1.34-4,3.82-4s3.82,1.46,3.82,4v8.33c0,2.56-1.35,4-3.82,4s-3.82-1.47-3.82-4ZM110,12.52c0,1.14.51,1.58,1.31,1.58s1.3-.44,1.3-1.58V3.87c0-1.15-.5-1.58-1.3-1.58S110,2.72,110,3.87Z"/><path class="cls-2" d="M121,0c2.45,0,3.71,1.46,3.71,4v.5h-2.38V3.87c0-1.15-.46-1.58-1.26-1.58s-1.26.43-1.26,1.58c0,3.29,4.92,3.91,4.92,8.49,0,2.56-1.28,4-3.76,4s-3.75-1.47-3.75-4v-1h2.38v1.14c0,1.14.5,1.56,1.31,1.56s1.3-.42,1.3-1.56c0-3.3-4.92-3.91-4.92-8.49C117.32,1.46,118.58,0,121,0Z"/><path class="cls-2" d="M69.74,45.43v.86H65.86v5.94h4.68v.85H64.92V38.84h5.62v.86H65.86v5.73Z"/><path class="cls-2" d="M72.88,53.08V38.84h.93V52.23h4.48v.85Z"/><path class="cls-2" d="M87.42,38.84c2.2,0,3,1.39,3,3.46v1.55c0,2.25-1,3.37-3.29,3.37H85.41v5.86h-.94V38.84Zm-.24,7.53c1.65,0,2.36-.73,2.36-2.46V42.24c0-1.55-.53-2.54-2.12-2.54h-2v6.67Z"/><path class="cls-2" d="M93.83,49.93l-.71,3.15h-.85l3.11-14.26h1.36l3.17,14.26H99l-.71-3.15Zm.14-.81h4.15L96,39.9Z"/><path class="cls-2" d="M103.05,49.64c0,1.53.57,2.71,2.13,2.71s2.14-1.18,2.14-2.71V38.84h.87V49.6c0,2-.85,3.6-3,3.6s-3-1.56-3-3.6V38.84h.94Z"/><path class="cls-2" d="M110.39,52.23a5.82,5.82,0,0,0,.84,0c1.34-.1,2-.82,2-2.57V38.84h.94V49.58c0,2.5-1.12,3.42-2.85,3.5a7.37,7.37,0,0,1-.94,0Z"/><path class="cls-2" d="M117.51,38.84V53.08h-.93V38.84Z"/><path class="cls-2" d="M120,53.08V38.84h.93V52.23h4.48v.85Z"/></g></g></svg>