<svg xmlns="http://www.w3.org/2000/svg" viewBox="0 0 128.04 53.2"><defs><style>.cls-1{fill:#f0a200;}.cls-2{fill:#193e2e;}</style></defs><title>1PuertoRico2016</title><g id="Capa_2" data-name="Capa 2"><g id="Capa_1-2" data-name="Capa 1"><path class="cls-1" d="M126.77,27.65H1.27a1.27,1.27,0,0,1,0-2.54h125.5a1.27,1.27,0,0,1,0,2.54Z"/><path class="cls-2" d="M21.37,4.17C21.37,1.46,22.61,0,25.22,0S29,1.46,29,4v.41H26.59V3.87c0-1.15-.5-1.58-1.31-1.58s-1.39.43-1.39,2V7.19a2.38,2.38,0,0,1,2.33-1.42c1.86,0,2.8,1.3,2.8,3.66v2.93c0,2.56-1.35,4-3.83,4s-3.82-1.47-3.82-4Zm2.52,5.47v2.88c0,1.14.5,1.56,1.3,1.56s1.31-.42,1.31-1.56V9.64c0-1.15-.51-1.58-1.31-1.58S23.89,8.49,23.89,9.64Z"/><path class="cls-2" d="M35.2,2.29c-.81,0-1.31.43-1.31,1.58V5.58H31.51V4c0-2.57,1.28-4,3.75-4S39,1.46,39,4c0,5-5,6.91-5,9.54a1.38,1.38,0,0,0,0,.35h4.76v2.29H31.51v-2c0-4.72,5-5.5,5-10.12C36.5,2.68,36,2.29,35.2,2.29Z"/><path class="cls-2" d="M40.89,11,45.47.18h2.75V11h1.19V13.3H48.22v2.91H45.75V13.3H40.89Zm4.86,0V5l-2.54,6Z"/><path class="cls-2" d="M63.23,10.23v2.13c0,2.56-1.28,4-3.75,4s-3.75-1.47-3.75-4V4c0-2.57,1.28-4,3.75-4s3.75,1.46,3.75,4V5.58H60.85V3.87c0-1.15-.5-1.58-1.3-1.58s-1.31.43-1.31,1.58v8.65c0,1.14.51,1.56,1.31,1.56s1.3-.42,1.3-1.56V10.23Z"/><path class="cls-2" d="M68.09.18V12.54c0,1.15.5,1.56,1.3,1.56s1.31-.41,1.31-1.56V.18h2.38v12.2c0,2.57-1.29,4-3.76,4s-3.75-1.46-3.75-4V.18Z"/><path class="cls-2" d="M75.71.18h2.52V13.92h4.14v2.29H75.71Z"/><path class="cls-2" d="M82.51.18h7.78V2.47H87.66V16.21H85.14V2.47H82.51Z"/><path class="cls-2" d="M92.3.18h2.52v16H92.3Z"/><path class="cls-2" d="M101.37,13.25,103.29.18h2.31l-2.47,16H99.37L96.9.18h2.54Z"/><path class="cls-2" d="M107.46,4c0-2.57,1.34-4,3.82-4s3.82,1.46,3.82,4v8.33c0,2.56-1.35,4-3.82,4s-3.82-1.47-3.82-4ZM110,12.52c0,1.14.51,1.58,1.31,1.58s1.3-.44,1.3-1.58V3.87c0-1.15-.5-1.58-1.3-1.58S110,2.72,110,3.87Z"/><path class="cls-2" d="M121,0c2.45,0,3.71,1.46,3.71,4v.5h-2.38V3.87c0-1.15-.46-1.58-1.26-1.58s-1.26.43-1.26,1.58c0,3.29,4.92,3.91,4.92,8.49,0,2.56-1.28,4-3.76,4s-3.75-1.47-3.75-4v-1h2.38v1.14c0,1.14.5,1.56,1.31,1.56s1.3-.42,1.3-1.56c0-3.3-4.92-3.91-4.92-8.49C117.32,1.46,118.58,0,121,0Z"/><path class="cls-2" d="M47.4,38.84c2.2,0,3.06,1.39,3.06,3.46v1.55c0,2.25-1,3.37-3.3,3.37H45.39v5.86h-.94V38.84Zm-.24,7.53c1.65,0,2.36-.73,2.36-2.46V42.24c0-1.55-.53-2.54-2.12-2.54h-2v6.67Z"/><path class="cls-2" d="M53.61,49.64c0,1.53.57,2.71,2.14,2.71s2.13-1.18,2.13-2.71V38.84h.88V49.6c0,2-.86,3.6-3,3.6s-3-1.56-3-3.6V38.84h.94Z"/><path class="cls-2" d="M66,45.43v.86H62.11v5.94h4.68v.85H61.18V38.84h5.61v.86H62.11v5.73Z"/><path class="cls-2" d="M72.1,38.84c2.18,0,3.05,1.2,3.05,3.22V43.3c0,1.67-.65,2.62-2.05,3,1.46.32,2.05,1.36,2.05,2.91v2.21a3.25,3.25,0,0,0,.35,1.71h-1a3.38,3.38,0,0,1-.3-1.71V49.14c0-1.9-1-2.42-2.67-2.42H70.07v6.36h-.94V38.84Zm-.53,7c1.67,0,2.65-.47,2.65-2.38V42.14c0-1.53-.59-2.44-2.14-2.44h-2v6.16Z"/><path class="cls-2" d="M80.2,53.08V39.7H77.31v-.86H84v.86h-2.9V53.08Z"/><path class="cls-2" d="M86,42.32c0-2.07,1-3.6,3.11-3.6s3.15,1.53,3.15,3.6V49.6c0,2.08-1,3.6-3.15,3.6S86,51.68,86,49.6Zm.93,7.34c0,1.55.61,2.69,2.18,2.69s2.22-1.14,2.22-2.69v-7.4c0-1.55-.63-2.68-2.22-2.68s-2.18,1.13-2.18,2.68Z"/><path class="cls-2" d="M101.52,38.84c2.18,0,3,1.2,3,3.22V43.3c0,1.67-.65,2.62-2,3,1.46.32,2,1.36,2,2.91v2.21a3.16,3.16,0,0,0,.35,1.71h-1a3.38,3.38,0,0,1-.3-1.71V49.14c0-1.9-1-2.42-2.67-2.42H99.49v6.36h-.94V38.84Zm-.53,7c1.67,0,2.65-.47,2.65-2.38V42.14c0-1.53-.59-2.44-2.14-2.44h-2v6.16Z"/><path class="cls-2" d="M108.16,38.84V53.08h-.94V38.84Z"/><path class="cls-2" d="M116.68,42.32V43.5h-.9V42.26c0-1.52-.59-2.68-2.15-2.68s-2.16,1.16-2.16,2.68v7.4c0,1.53.59,2.67,2.16,2.67s2.15-1.14,2.15-2.67V48h.9V49.6c0,2.06-.9,3.6-3.07,3.6s-3.07-1.54-3.07-3.6V42.32c0-2,.89-3.6,3.07-3.6S116.68,40.27,116.68,42.32Z"/><path class="cls-2" d="M119,42.32c0-2.07,1-3.6,3.11-3.6s3.15,1.53,3.15,3.6V49.6c0,2.08-1,3.6-3.15,3.6S119,51.68,119,49.6Zm.93,7.34c0,1.55.61,2.69,2.18,2.69s2.22-1.14,2.22-2.69v-7.4c0-1.55-.63-2.68-2.22-2.68s-2.18,1.13-2.18,2.68Z"/></g></g></svg>