<svg xmlns="http://www.w3.org/2000/svg" viewBox="0 0 128.04 77.62"><defs><style>.cls-1{fill:#f0a200;}.cls-2{fill:#193e2e;}</style></defs><title>1SanJose2017</title><g id="Capa_2" data-name="Capa 2"><g id="Capa_1-2" data-name="Capa 1"><path class="cls-1" d="M126.77,27.65H1.27a1.27,1.27,0,0,1,0-2.54h125.5a1.27,1.27,0,0,1,0,2.54Z"/><path class="cls-2" d="M23.09,2.2a2.5,2.5,0,0,0,2.77-2h1.69v16H25V4H23.09Z"/><path class="cls-2" d="M31.35,4.17C31.35,1.46,32.59,0,35.2,0S39,1.46,39,4v.41H36.57V3.87c0-1.15-.5-1.58-1.31-1.58s-1.39.43-1.39,2V7.19A2.38,2.38,0,0,1,36.2,5.77c1.86,0,2.8,1.3,2.8,3.66v2.93c0,2.56-1.36,4-3.83,4s-3.82-1.47-3.82-4Zm2.52,5.47v2.88c0,1.14.5,1.56,1.3,1.56s1.31-.42,1.31-1.56V9.64c0-1.15-.51-1.58-1.31-1.58S33.87,8.49,33.87,9.64Z"/><path class="cls-2" d="M45.11,16.39c-2.54,0-3.94-1.47-3.94-4V11.1a3.52,3.52,0,0,1,1.56-3.34,3.32,3.32,0,0,1-1.56-3.23V4c0-2.57,1.4-4,3.94-4S49,1.46,49,4v.5a3.36,3.36,0,0,1-1.55,3.23A3.54,3.54,0,0,1,49,11.1v1.26C49,14.92,47.65,16.39,45.11,16.39ZM43.69,5c0,1.28.59,1.7,1.42,1.7s1.42-.42,1.42-1.7V4.12c0-1.44-.62-1.83-1.42-1.83s-1.42.39-1.42,1.83Zm1.42,9.09c.8,0,1.39-.39,1.42-1.81V10.8C46.53,9.54,46,9,45.11,9s-1.42.54-1.42,1.8v1.49C43.69,13.71,44.3,14.1,45.11,14.1Z"/><path class="cls-2" d="M63.23,10.23v2.13c0,2.56-1.28,4-3.75,4s-3.75-1.47-3.75-4V4c0-2.57,1.28-4,3.75-4s3.75,1.46,3.75,4V5.58H60.85V3.87c0-1.15-.5-1.58-1.3-1.58s-1.31.43-1.31,1.58v8.65c0,1.14.51,1.56,1.31,1.56s1.3-.42,1.3-1.56V10.23Z"/><path class="cls-2" d="M68.09.18V12.54c0,1.15.5,1.56,1.3,1.56s1.31-.41,1.31-1.56V.18h2.38v12.2c0,2.57-1.29,4-3.76,4s-3.75-1.46-3.75-4V.18Z"/><path class="cls-2" d="M75.71.18h2.52V13.92h4.14v2.29H75.71Z"/><path class="cls-2" d="M82.51.18h7.78V2.47H87.66V16.21H85.14V2.47H82.51Z"/><path class="cls-2" d="M92.3.18h2.52v16H92.3Z"/><path class="cls-2" d="M101.37,13.25,103.29.18h2.31l-2.47,16H99.37L96.9.18h2.54Z"/><path class="cls-2" d="M107.46,4c0-2.57,1.34-4,3.82-4s3.82,1.46,3.82,4v8.33c0,2.56-1.35,4-3.82,4s-3.82-1.47-3.82-4ZM110,12.52c0,1.14.51,1.58,1.31,1.58s1.3-.44,1.3-1.58V3.87c0-1.15-.5-1.58-1.3-1.58S110,2.72,110,3.87Z"/><path class="cls-2" d="M121,0c2.45,0,3.71,1.46,3.71,4v.5h-2.38V3.87c0-1.15-.46-1.58-1.26-1.58s-1.26.43-1.26,1.58c0,3.29,4.92,3.91,4.92,8.49,0,2.56-1.28,4-3.76,4s-3.75-1.47-3.75-4v-1h2.38v1.14c0,1.14.5,1.56,1.31,1.56s1.3-.42,1.3-1.56c0-3.3-4.92-3.91-4.92-8.49C117.32,1.46,118.58,0,121,0Z"/><path class="cls-2" d="M72,42.28v.31h-.89v-.37c0-1.51-.57-2.64-2.12-2.64s-2.11,1.11-2.11,2.62c0,3.46,5.14,3.52,5.14,7.44,0,2.06-.89,3.56-3.07,3.56s-3.07-1.5-3.07-3.56v-.73h.89v.8c0,1.52.59,2.62,2.16,2.62s2.15-1.1,2.15-2.62c0-3.42-5.14-3.48-5.14-7.45,0-2.13.94-3.52,3-3.54S72,40.23,72,42.28Z"/><path class="cls-2" d="M75.71,49.93,75,53.08h-.85l3.11-14.26h1.36l3.18,14.26h-.94l-.71-3.15Zm.14-.81H80L77.9,39.9Z"/><path class="cls-2" d="M84.88,53.08H84V38.84h1.22l4.27,12v-12h.85V53.08h-1L84.88,40.39Z"/><path class="cls-2" d="M96.54,52.23a5.68,5.68,0,0,0,.83,0c1.34-.1,2-.82,2-2.57V38.84h.93V49.58c0,2.5-1.12,3.42-2.85,3.5a7.21,7.21,0,0,1-.93,0Z"/><path class="cls-2" d="M102.66,42.32c0-2.07,1-3.6,3.11-3.6s3.16,1.53,3.16,3.6V49.6c0,2.08-1,3.6-3.16,3.6s-3.11-1.52-3.11-3.6Zm.94,7.34c0,1.55.61,2.69,2.17,2.69S108,51.21,108,49.66v-7.4c0-1.55-.63-2.68-2.22-2.68s-2.17,1.13-2.17,2.68Z"/><path class="cls-2" d="M117.29,42.28v.31h-.9v-.37c0-1.51-.56-2.64-2.11-2.64s-2.12,1.11-2.12,2.62c0,3.46,5.15,3.52,5.15,7.44,0,2.06-.89,3.56-3.07,3.56s-3.07-1.5-3.07-3.56v-.73h.89v.8c0,1.52.59,2.62,2.16,2.62s2.15-1.1,2.15-2.62c0-3.42-5.14-3.48-5.14-7.45,0-2.13.93-3.52,3-3.54S117.29,40.23,117.29,42.28Z"/><path class="cls-2" d="M124.45,45.43v.86h-3.88v5.94h4.67v.85h-5.61V38.84h5.61v.86h-4.67v5.73Zm-.35-9.33L122.4,38h-.72l1.45-1.93Z"/><path class="cls-2" d="M49.93,63.26c2.19,0,3.15,1.44,3.15,3.54V74c0,2.09-1,3.54-3.15,3.54H46.79V63.26Zm0,13.38c1.58,0,2.23-1.08,2.23-2.64V66.76c0-1.57-.67-2.65-2.23-2.65H47.73V76.64Z"/><path class="cls-2" d="M60.26,69.85v.85H56.38v5.94h4.67v.86H55.44V63.26h5.61v.85H56.38v5.74Z"/><path class="cls-2" d="M63.4,77.5V63.26h.93V76.64h4.48v.86Z"/><path class="cls-2" d="M79.61,70.19v.86H75.93V77.5H75V63.26H80.4v.85H75.93v6.08Z"/><path class="cls-2" d="M85.61,63.26c2.18,0,3,1.2,3,3.21v1.24c0,1.67-.65,2.63-2,3,1.46.33,2,1.36,2,2.91v2.22A3.16,3.16,0,0,0,89,77.5H88a3.41,3.41,0,0,1-.3-1.71V73.55c0-1.89-1-2.42-2.67-2.42H83.58V77.5h-.94V63.26Zm-.53,7c1.67,0,2.65-.47,2.65-2.38V66.55c0-1.52-.59-2.44-2.14-2.44h-2v6.17Z"/><path class="cls-2" d="M92.67,74.34,92,77.5h-.85l3.11-14.26h1.36L98.75,77.5h-.93l-.71-3.16Zm.14-.81H97l-2.09-9.21Z"/><path class="cls-2" d="M107.06,66.74v1.05h-.9V66.68c0-1.53-.59-2.69-2.16-2.69s-2.15,1.16-2.15,2.69v7.4c0,1.52.59,2.66,2.15,2.66s2.16-1.14,2.16-2.66V71h-1.89v-.86h2.79V74c0,2-.9,3.6-3.08,3.6s-3.07-1.55-3.07-3.6V66.74c0-2.06.9-3.6,3.07-3.6S107.06,64.68,107.06,66.74Z"/><path class="cls-2" d="M110.33,74.06c0,1.52.57,2.7,2.14,2.7s2.13-1.18,2.13-2.7V63.26h.88V74c0,2-.86,3.6-3,3.6s-3-1.57-3-3.6V63.26h.93Z"/><path class="cls-2" d="M119.26,74.34l-.71,3.16h-.85l3.11-14.26h1.36l3.18,14.26h-.94l-.71-3.16Zm.15-.81h4.15l-2.1-9.21Z"/></g></g></svg>