<svg xmlns="http://www.w3.org/2000/svg" viewBox="0 0 128.04 77.62"><defs><style>.cls-1{fill:#f0a200;}.cls-2{fill:#193e2e;}</style></defs><title>1SanVicente2018</title><g id="Capa_2" data-name="Capa 2"><g id="Capa_1-2" data-name="Capa 1"><path class="cls-1" d="M126.77,27.65H1.27a1.27,1.27,0,0,1,0-2.54h125.5a1.27,1.27,0,0,1,0,2.54Z"/><path class="cls-2" d="M21.37,4.17C21.37,1.46,22.61,0,25.22,0S29,1.46,29,4v.41H26.59V3.87c0-1.15-.5-1.58-1.31-1.58s-1.39.43-1.39,2V7.19a2.38,2.38,0,0,1,2.33-1.42c1.86,0,2.8,1.3,2.8,3.66v2.93c0,2.56-1.35,4-3.83,4s-3.82-1.47-3.82-4Zm2.52,5.47v2.88c0,1.14.5,1.56,1.3,1.56s1.31-.42,1.31-1.56V9.64c0-1.15-.51-1.58-1.31-1.58S23.89,8.49,23.89,9.64Z"/><path class="cls-2" d="M30.92,11,35.49.18h2.75V11h1.19V13.3H38.24v2.91H35.77V13.3H30.92Zm4.85,0V5l-2.54,6Z"/><path class="cls-2" d="M43.05,2.2a2.5,2.5,0,0,0,2.77-2h1.69v16H45V4H43.05Z"/><path class="cls-2" d="M63.23,10.23v2.13c0,2.56-1.28,4-3.75,4s-3.75-1.47-3.75-4V4c0-2.57,1.28-4,3.75-4s3.75,1.46,3.75,4V5.58H60.85V3.87c0-1.15-.5-1.58-1.3-1.58s-1.31.43-1.31,1.58v8.65c0,1.14.51,1.56,1.31,1.56s1.3-.42,1.3-1.56V10.23Z"/><path class="cls-2" d="M68.09.18V12.54c0,1.15.5,1.56,1.3,1.56s1.31-.41,1.31-1.56V.18h2.38v12.2c0,2.57-1.29,4-3.76,4s-3.75-1.46-3.75-4V.18Z"/><path class="cls-2" d="M75.71.18h2.52V13.92h4.14v2.29H75.71Z"/><path class="cls-2" d="M82.51.18h7.78V2.47H87.66V16.21H85.14V2.47H82.51Z"/><path class="cls-2" d="M92.3.18h2.52v16H92.3Z"/><path class="cls-2" d="M101.37,13.25,103.29.18h2.31l-2.47,16H99.37L96.9.18h2.54Z"/><path class="cls-2" d="M107.46,4c0-2.57,1.34-4,3.82-4s3.82,1.46,3.82,4v8.33c0,2.56-1.35,4-3.82,4s-3.82-1.47-3.82-4ZM110,12.52c0,1.14.51,1.58,1.31,1.58s1.3-.44,1.3-1.58V3.87c0-1.15-.5-1.58-1.3-1.58S110,2.72,110,3.87Z"/><path class="cls-2" d="M121,0c2.45,0,3.71,1.46,3.71,4v.5h-2.38V3.87c0-1.15-.46-1.58-1.26-1.58s-1.26.43-1.26,1.58c0,3.29,4.92,3.91,4.92,8.49,0,2.56-1.28,4-3.76,4s-3.75-1.47-3.75-4v-1h2.38v1.14c0,1.14.5,1.56,1.31,1.56s1.3-.42,1.3-1.56c0-3.3-4.92-3.91-4.92-8.49C117.32,1.46,118.58,0,121,0Z"/><path class="cls-2" d="M48.48,42.28v.31h-.89v-.37c0-1.51-.57-2.64-2.12-2.64s-2.11,1.11-2.11,2.62c0,3.46,5.14,3.52,5.14,7.44,0,2.06-.89,3.56-3.07,3.56s-3.07-1.5-3.07-3.56v-.73h.89v.8c0,1.52.59,2.62,2.16,2.62s2.16-1.1,2.16-2.62c0-3.42-5.15-3.48-5.15-7.45,0-2.13.94-3.52,3-3.54S48.48,40.23,48.48,42.28Z"/><path class="cls-2" d="M52.19,49.93l-.72,3.15h-.85l3.11-14.26h1.36l3.18,14.26h-.94l-.71-3.15Zm.14-.81h4.15l-2.1-9.22Z"/><path class="cls-2" d="M61.36,53.08h-.85V38.84h1.22l4.27,12v-12h.85V53.08h-1L61.36,40.39Z"/><path class="cls-2" d="M74,38.84,76.88,52l2.89-13.16h.88l-3.1,14.24H76.17L73,38.84Z"/><path class="cls-2" d="M83.82,38.84V53.08h-.93V38.84Z"/><path class="cls-2" d="M92.35,42.32V43.5h-.9V42.26c0-1.52-.59-2.68-2.16-2.68s-2.15,1.16-2.15,2.68v7.4c0,1.53.59,2.67,2.15,2.67s2.16-1.14,2.16-2.67V48h.9V49.6c0,2.06-.9,3.6-3.08,3.6s-3.07-1.54-3.07-3.6V42.32c0-2,.9-3.6,3.07-3.6S92.35,40.27,92.35,42.32Z"/><path class="cls-2" d="M99.51,45.43v.86H95.62v5.94h4.68v.85H94.69V38.84h5.61v.86H95.62v5.73Z"/><path class="cls-2" d="M103.5,53.08h-.86V38.84h1.22l4.27,12v-12H109V53.08h-1L103.5,40.39Z"/><path class="cls-2" d="M113.81,53.08V39.7h-2.89v-.86h6.73v.86h-2.9V53.08Z"/><path class="cls-2" d="M124.45,45.43v.86h-3.88v5.94h4.67v.85h-5.61V38.84h5.61v.86h-4.67v5.73Z"/><path class="cls-2" d="M49.05,63.26c2.2,0,3.15,1.44,3.15,3.54V74c0,2.09-1,3.54-3.15,3.54H45.92V63.26Zm0,13.38c1.59,0,2.24-1.08,2.24-2.64V66.76c0-1.57-.67-2.65-2.24-2.65H46.85V76.64Z"/><path class="cls-2" d="M59.39,69.85v.85H55.5v5.94h4.68v.86H54.57V63.26h5.61v.85H55.5v5.74Z"/><path class="cls-2" d="M62.52,77.5V63.26h.94V76.64h4.47v.86Z"/><path class="cls-2" d="M80.2,66.74v1.18h-.9V66.68c0-1.53-.59-2.69-2.15-2.69S75,65.15,75,66.68v7.4c0,1.52.59,2.66,2.16,2.66s2.15-1.14,2.15-2.66V72.39h.9V74c0,2-.9,3.6-3.07,3.6s-3.07-1.55-3.07-3.6V66.74c0-2.06.89-3.6,3.07-3.6S80.2,64.68,80.2,66.74Z"/><path class="cls-2" d="M83.9,74.34l-.71,3.16h-.85l3.11-14.26h1.36L90,77.5h-.93l-.71-3.16Zm.15-.81H88.2l-2.1-9.21Z"/><path class="cls-2" d="M98.29,66.74v1.05h-.9V66.68c0-1.53-.59-2.69-2.15-2.69s-2.16,1.16-2.16,2.69v7.4c0,1.52.59,2.66,2.16,2.66s2.15-1.14,2.15-2.66V71H95.5v-.86h2.79V74c0,2-.9,3.6-3.08,3.6s-3.07-1.55-3.07-3.6V66.74c0-2.06.9-3.6,3.07-3.6S98.29,64.68,98.29,66.74Z"/><path class="cls-2" d="M101.56,74.06c0,1.52.57,2.7,2.14,2.7s2.13-1.18,2.13-2.7V63.26h.88V74c0,2-.86,3.6-3,3.6s-3.05-1.57-3.05-3.6V63.26h.93Z"/><path class="cls-2" d="M110.5,74.34l-.72,3.16h-.85L112,63.24h1.36l3.18,14.26h-.94l-.71-3.16Zm.14-.81h4.15l-2.1-9.21Zm3.58-13-1.71,1.94h-.71l1.44-1.94Z"/><path class="cls-2" d="M119.67,77.5h-.85V63.26H120l4.27,12v-12h.85V77.5h-1l-4.46-12.7Z"/></g></g></svg>