<svg xmlns="http://www.w3.org/2000/svg" viewBox="0 0 128.04 53.28"><defs><style>.cls-1{fill:#f0a200;}.cls-2{fill:#193e2e;}</style></defs><title>1Solita sin registro</title><g id="Capa_2" data-name="Capa 2"><g id="Capa_1-2" data-name="Capa 1"><path class="cls-1" d="M126.77,27.65H1.27a1.27,1.27,0,0,1,0-2.54h125.5a1.27,1.27,0,0,1,0,2.54Z"/><path class="cls-2" d="M27.41,0c2.45,0,3.71,1.46,3.71,4v.5H28.74V3.87c0-1.15-.46-1.58-1.26-1.58s-1.26.43-1.26,1.58c0,3.29,4.92,3.91,4.92,8.49,0,2.56-1.28,4-3.75,4s-3.75-1.47-3.75-4v-1H26v1.14c0,1.14.5,1.56,1.3,1.56s1.31-.42,1.31-1.56c0-3.3-4.92-3.91-4.92-8.49C23.71,1.46,25,0,27.41,0Z"/><path class="cls-2" d="M33.5.18H36v16H33.5Z"/><path class="cls-2" d="M41,4.6V16.21H38.74V.18H41.9l2.59,9.59V.18h2.24v16H44.14Z"/><path class="cls-2" d="M59.18,16.21a4.92,4.92,0,0,1-.23-2V11.72c0-1.49-.5-2-1.65-2h-.86v6.53H53.92V.18h3.8c2.61,0,3.73,1.22,3.73,3.69V5.13c0,1.65-.53,2.72-1.65,3.25,1.26.52,1.67,1.74,1.67,3.41v2.47a4.61,4.61,0,0,0,.28,2ZM56.44,2.47V7.39h1c.94,0,1.51-.41,1.51-1.69V4.12c0-1.14-.39-1.65-1.28-1.65Z"/><path class="cls-2" d="M66.55,6.94H70V9.22H66.55v4.7H70.9v2.29H64V.18H70.9V2.47H66.55Z"/><path class="cls-2" d="M77.15,7.28h3.52v5.08c0,2.56-1.28,4-3.75,4s-3.75-1.47-3.75-4V4c0-2.57,1.28-4,3.75-4s3.75,1.46,3.75,4V5.58H78.29V3.87c0-1.15-.5-1.58-1.3-1.58s-1.3.43-1.3,1.58v8.65c0,1.14.5,1.56,1.3,1.56s1.3-.42,1.3-1.56V9.57H77.15Z"/><path class="cls-2" d="M83.22.18h2.51v16H83.22Z"/><path class="cls-2" d="M91.87,0c2.45,0,3.71,1.46,3.71,4v.5H93.2V3.87c0-1.15-.46-1.58-1.26-1.58s-1.26.43-1.26,1.58c0,3.29,4.92,3.91,4.92,8.49,0,2.56-1.28,4-3.76,4s-3.75-1.47-3.75-4v-1h2.38v1.14c0,1.14.5,1.56,1.31,1.56s1.3-.42,1.3-1.56c0-3.3-4.92-3.91-4.92-8.49C88.16,1.46,89.42,0,91.87,0Z"/><path class="cls-2" d="M97.22.18H105V2.47h-2.63V16.21H99.86V2.47H97.22Z"/><path class="cls-2" d="M112.28,16.21a5.13,5.13,0,0,1-.23-2V11.72c0-1.49-.5-2-1.64-2h-.87v6.53H107V.18h3.8c2.61,0,3.73,1.22,3.73,3.69V5.13c0,1.65-.53,2.72-1.65,3.25,1.26.52,1.67,1.74,1.67,3.41v2.47a4.61,4.61,0,0,0,.28,2ZM109.54,2.47V7.39h1c.94,0,1.51-.41,1.51-1.69V4.12c0-1.14-.39-1.65-1.28-1.65Z"/><path class="cls-2" d="M116.93,4c0-2.57,1.35-4,3.82-4s3.83,1.46,3.83,4v8.33c0,2.56-1.36,4-3.83,4s-3.82-1.47-3.82-4Zm2.52,8.49c0,1.14.5,1.58,1.3,1.58s1.31-.44,1.31-1.58V3.87c0-1.15-.51-1.58-1.31-1.58s-1.3.43-1.3,1.58Z"/><path class="cls-2" d="M88.52,42.34v.3h-.89v-.37c0-1.5-.58-2.64-2.13-2.63s-2.11,1.13-2.1,2.64c0,3.45,5.17,3.48,5.19,7.41,0,2-.87,3.56-3,3.58s-3.08-1.49-3.09-3.54V49h.9v.79c0,1.53.61,2.62,2.17,2.61s2.15-1.11,2.14-2.63c0-3.42-5.16-3.45-5.18-7.42,0-2.13.91-3.52,3-3.56S88.51,40.28,88.52,42.34Z"/><path class="cls-2" d="M90.8,42.36c0-2.07.93-3.6,3.09-3.61s3.16,1.5,3.17,3.58l0,7.28c0,2.08-.94,3.61-3.14,3.62s-3.12-1.51-3.13-3.58Zm1,7.34c0,1.55.62,2.68,2.19,2.67s2.21-1.15,2.2-2.69l0-7.41c0-1.54-.65-2.68-2.24-2.67s-2.17,1.15-2.16,2.7Z"/><path class="cls-2" d="M99.49,53.07l-.08-14.23h.93l.08,13.38,4.47,0V53Z"/><path class="cls-2" d="M108,38.79,108.05,53h-.93L107,38.79Z"/><path class="cls-2" d="M112.89,53l-.07-13.39-2.89,0v-.85l6.74,0v.85l-2.91,0L113.83,53Z"/><path class="cls-2" d="M119.29,49.81l-.7,3.15h-.85l3-14.28h1.36l3.25,14.24h-.93l-.73-3.15Zm.13-.82,4.15,0-2.15-9.2Z"/></g></g></svg>