<svg xmlns="http://www.w3.org/2000/svg" viewBox="0 0 128.04 53.2"><defs><style>.cls-1{fill:#f0a200;}.cls-2{fill:#193e2e;}</style></defs><title>1Solano2016</title><g id="Capa_2" data-name="Capa 2"><g id="Capa_1-2" data-name="Capa 1"><path class="cls-1" d="M126.77,27.65H1.27a1.27,1.27,0,0,1,0-2.54h125.5a1.27,1.27,0,0,1,0,2.54Z"/><path class="cls-2" d="M23.09,2.2a2.5,2.5,0,0,0,2.77-2h1.69v16H25V4H23.09Z"/><path class="cls-2" d="M33.78,11v1.49c0,1.14.5,1.56,1.3,1.56s1.31-.42,1.31-1.56V9c0-1.15-.51-1.58-1.31-1.58s-1.3.43-1.3,1.58v.48H31.4l.45-9.3h6.64V2.47H34.12l-.21,3.82a2.41,2.41,0,0,1,2.2-1.16c1.85,0,2.79,1.3,2.79,3.66v3.57c0,2.56-1.28,4-3.75,4s-3.75-1.47-3.75-4V11Z"/><path class="cls-2" d="M45.11,16.39c-2.54,0-3.94-1.47-3.94-4V11.1a3.52,3.52,0,0,1,1.56-3.34,3.32,3.32,0,0,1-1.56-3.23V4c0-2.57,1.4-4,3.94-4S49,1.46,49,4v.5a3.36,3.36,0,0,1-1.55,3.23A3.54,3.54,0,0,1,49,11.1v1.26C49,14.92,47.65,16.39,45.11,16.39ZM43.69,5c0,1.28.59,1.7,1.42,1.7s1.42-.42,1.42-1.7V4.12c0-1.44-.62-1.83-1.42-1.83s-1.42.39-1.42,1.83Zm1.42,9.09c.8,0,1.39-.39,1.42-1.81V10.8C46.53,9.54,46,9,45.11,9s-1.42.54-1.42,1.8v1.49C43.69,13.71,44.3,14.1,45.11,14.1Z"/><path class="cls-2" d="M63.23,10.23v2.13c0,2.56-1.28,4-3.75,4s-3.75-1.47-3.75-4V4c0-2.57,1.28-4,3.75-4s3.75,1.46,3.75,4V5.58H60.85V3.87c0-1.15-.5-1.58-1.3-1.58s-1.31.43-1.31,1.58v8.65c0,1.14.51,1.56,1.31,1.56s1.3-.42,1.3-1.56V10.23Z"/><path class="cls-2" d="M68.09.18V12.54c0,1.15.5,1.56,1.3,1.56s1.31-.41,1.31-1.56V.18h2.38v12.2c0,2.57-1.29,4-3.76,4s-3.75-1.46-3.75-4V.18Z"/><path class="cls-2" d="M75.71.18h2.52V13.92h4.14v2.29H75.71Z"/><path class="cls-2" d="M82.51.18h7.78V2.47H87.66V16.21H85.14V2.47H82.51Z"/><path class="cls-2" d="M92.3.18h2.52v16H92.3Z"/><path class="cls-2" d="M101.37,13.25,103.29.18h2.31l-2.47,16H99.37L96.9.18h2.54Z"/><path class="cls-2" d="M107.46,4c0-2.57,1.34-4,3.82-4s3.82,1.46,3.82,4v8.33c0,2.56-1.35,4-3.82,4s-3.82-1.47-3.82-4ZM110,12.52c0,1.14.51,1.58,1.31,1.58s1.3-.44,1.3-1.58V3.87c0-1.15-.5-1.58-1.3-1.58S110,2.72,110,3.87Z"/><path class="cls-2" d="M121,0c2.45,0,3.71,1.46,3.71,4v.5h-2.38V3.87c0-1.15-.46-1.58-1.26-1.58s-1.26.43-1.26,1.58c0,3.29,4.92,3.91,4.92,8.49,0,2.56-1.28,4-3.76,4s-3.75-1.47-3.75-4v-1h2.38v1.14c0,1.14.5,1.56,1.31,1.56s1.3-.42,1.3-1.56c0-3.3-4.92-3.91-4.92-8.49C117.32,1.46,118.58,0,121,0Z"/><path class="cls-2" d="M82,42.28v.31h-.89v-.37c0-1.51-.57-2.64-2.12-2.64S76.9,40.69,76.9,42.2c0,3.46,5.15,3.52,5.15,7.44,0,2.06-.89,3.56-3.07,3.56s-3.07-1.5-3.07-3.56v-.73h.89v.8c0,1.52.59,2.62,2.16,2.62s2.16-1.1,2.16-2.62c0-3.42-5.15-3.48-5.15-7.45,0-2.13.93-3.52,3-3.54S82,40.23,82,42.28Z"/><path class="cls-2" d="M84.31,42.32c0-2.07,1-3.6,3.11-3.6s3.16,1.53,3.16,3.6V49.6c0,2.08-1,3.6-3.16,3.6s-3.11-1.52-3.11-3.6Zm.94,7.34c0,1.55.61,2.69,2.17,2.69s2.22-1.14,2.22-2.69v-7.4c0-1.55-.63-2.68-2.22-2.68s-2.17,1.13-2.17,2.68Z"/><path class="cls-2" d="M92.94,53.08V38.84h.93V52.23h4.48v.85Z"/><path class="cls-2" d="M101.93,49.93l-.71,3.15h-.86l3.12-14.26h1.36L108,53.08h-.93l-.72-3.15Zm.14-.81h4.15l-2.09-9.22Z"/><path class="cls-2" d="M111.11,53.08h-.86V38.84h1.22l4.27,12v-12h.86V53.08h-1l-4.45-12.69Z"/><path class="cls-2" d="M119,42.32c0-2.07,1-3.6,3.11-3.6s3.15,1.53,3.15,3.6V49.6c0,2.08-1,3.6-3.15,3.6S119,51.68,119,49.6Zm.93,7.34c0,1.55.61,2.69,2.18,2.69s2.22-1.14,2.22-2.69v-7.4c0-1.55-.63-2.68-2.22-2.68s-2.18,1.13-2.18,2.68Z"/></g></g></svg>