<svg xmlns="http://www.w3.org/2000/svg" viewBox="0 0 128.04 53.2"><defs><style>.cls-1{fill:#f0a200;}.cls-2{fill:#193e2e;}</style></defs><title>1Solita2017</title><g id="Capa_2" data-name="Capa 2"><g id="Capa_1-2" data-name="Capa 1"><path class="cls-1" d="M126.77,27.65H1.27a1.27,1.27,0,0,1,0-2.54h125.5a1.27,1.27,0,0,1,0,2.54Z"/><path class="cls-2" d="M33.78,11v1.49c0,1.14.5,1.56,1.3,1.56s1.31-.42,1.31-1.56V9c0-1.15-.51-1.58-1.31-1.58s-1.3.43-1.3,1.58v.48H31.4l.45-9.3h6.64V2.47H34.12l-.21,3.82a2.41,2.41,0,0,1,2.2-1.16c1.85,0,2.79,1.3,2.79,3.66v3.57c0,2.56-1.28,4-3.75,4s-3.75-1.47-3.75-4V11Z"/><path class="cls-2" d="M48.88.18v2.2L45.17,16.21H42.66L46.34,2.47h-5V.18Z"/><path class="cls-2" d="M63.23,10.23v2.13c0,2.56-1.28,4-3.75,4s-3.75-1.47-3.75-4V4c0-2.57,1.28-4,3.75-4s3.75,1.46,3.75,4V5.58H60.85V3.87c0-1.15-.5-1.58-1.3-1.58s-1.31.43-1.31,1.58v8.65c0,1.14.51,1.56,1.31,1.56s1.3-.42,1.3-1.56V10.23Z"/><path class="cls-2" d="M68.09.18V12.54c0,1.15.5,1.56,1.3,1.56s1.31-.41,1.31-1.56V.18h2.38v12.2c0,2.57-1.29,4-3.76,4s-3.75-1.46-3.75-4V.18Z"/><path class="cls-2" d="M75.71.18h2.52V13.92h4.14v2.29H75.71Z"/><path class="cls-2" d="M82.51.18h7.78V2.47H87.66V16.21H85.14V2.47H82.51Z"/><path class="cls-2" d="M92.3.18h2.52v16H92.3Z"/><path class="cls-2" d="M101.37,13.25,103.29.18h2.31l-2.47,16H99.37L96.9.18h2.54Z"/><path class="cls-2" d="M107.46,4c0-2.57,1.34-4,3.82-4s3.82,1.46,3.82,4v8.33c0,2.56-1.35,4-3.82,4s-3.82-1.47-3.82-4ZM110,12.52c0,1.14.51,1.58,1.31,1.58s1.3-.44,1.3-1.58V3.87c0-1.15-.5-1.58-1.3-1.58S110,2.72,110,3.87Z"/><path class="cls-2" d="M121,0c2.45,0,3.71,1.46,3.71,4v.5h-2.38V3.87c0-1.15-.46-1.58-1.26-1.58s-1.26.43-1.26,1.58c0,3.29,4.92,3.91,4.92,8.49,0,2.56-1.28,4-3.76,4s-3.75-1.47-3.75-4v-1h2.38v1.14c0,1.14.5,1.56,1.31,1.56s1.3-.42,1.3-1.56c0-3.3-4.92-3.91-4.92-8.49C117.32,1.46,118.58,0,121,0Z"/><path class="cls-2" d="M88.54,42.28v.31h-.89v-.37c0-1.51-.57-2.64-2.12-2.64s-2.11,1.11-2.11,2.62c0,3.46,5.14,3.52,5.14,7.44,0,2.06-.89,3.56-3.07,3.56s-3.07-1.5-3.07-3.56v-.73h.89v.8c0,1.52.59,2.62,2.16,2.62s2.16-1.1,2.16-2.62c0-3.42-5.15-3.48-5.15-7.45,0-2.13.94-3.52,3-3.54S88.54,40.23,88.54,42.28Z"/><path class="cls-2" d="M90.82,42.32c0-2.07,1-3.6,3.11-3.6s3.16,1.53,3.16,3.6V49.6c0,2.08-1,3.6-3.16,3.6s-3.11-1.52-3.11-3.6Zm.94,7.34c0,1.55.61,2.69,2.17,2.69s2.22-1.14,2.22-2.69v-7.4c0-1.55-.63-2.68-2.22-2.68s-2.17,1.13-2.17,2.68Z"/><path class="cls-2" d="M99.45,53.08V38.84h.93V52.23h4.48v.85Z"/><path class="cls-2" d="M108,38.84V53.08h-.93V38.84Z"/><path class="cls-2" d="M112.85,53.08V39.7H110v-.86h6.73v.86h-2.91V53.08Z"/><path class="cls-2" d="M119.26,49.93l-.71,3.15h-.85l3.11-14.26h1.36l3.18,14.26h-.94l-.71-3.15Zm.15-.81h4.15l-2.1-9.22Z"/></g></g></svg>