<svg xmlns="http://www.w3.org/2000/svg" viewBox="0 0 128.04 53.37"><defs><style>.cls-1{fill:#f0a200;}.cls-2{fill:#193e2e;}</style></defs><title>1Valparaiso sin registro</title><g id="Capa_2" data-name="Capa 2"><g id="Capa_1-2" data-name="Capa 1"><path class="cls-1" d="M126.77,27.65H1.27a1.27,1.27,0,0,1,0-2.54h125.5a1.27,1.27,0,0,1,0,2.54Z"/><path class="cls-2" d="M27.41,0c2.45,0,3.71,1.46,3.71,4v.5H28.74V3.87c0-1.15-.46-1.58-1.26-1.58s-1.26.43-1.26,1.58c0,3.29,4.92,3.91,4.92,8.49,0,2.56-1.28,4-3.75,4s-3.75-1.47-3.75-4v-1H26v1.14c0,1.14.5,1.56,1.3,1.56s1.31-.42,1.31-1.56c0-3.3-4.92-3.91-4.92-8.49C23.71,1.46,25,0,27.41,0Z"/><path class="cls-2" d="M33.5.18H36v16H33.5Z"/><path class="cls-2" d="M41,4.6V16.21H38.74V.18H41.9l2.59,9.59V.18h2.24v16H44.14Z"/><path class="cls-2" d="M59.18,16.21a4.92,4.92,0,0,1-.23-2V11.72c0-1.49-.5-2-1.65-2h-.86v6.53H53.92V.18h3.8c2.61,0,3.73,1.22,3.73,3.69V5.13c0,1.65-.53,2.72-1.65,3.25,1.26.52,1.67,1.74,1.67,3.41v2.47a4.61,4.61,0,0,0,.28,2ZM56.44,2.47V7.39h1c.94,0,1.51-.41,1.51-1.69V4.12c0-1.14-.39-1.65-1.28-1.65Z"/><path class="cls-2" d="M66.55,6.94H70V9.22H66.55v4.7H70.9v2.29H64V.18H70.9V2.47H66.55Z"/><path class="cls-2" d="M77.15,7.28h3.52v5.08c0,2.56-1.28,4-3.75,4s-3.75-1.47-3.75-4V4c0-2.57,1.28-4,3.75-4s3.75,1.46,3.75,4V5.58H78.29V3.87c0-1.15-.5-1.58-1.3-1.58s-1.3.43-1.3,1.58v8.65c0,1.14.5,1.56,1.3,1.56s1.3-.42,1.3-1.56V9.57H77.15Z"/><path class="cls-2" d="M83.22.18h2.51v16H83.22Z"/><path class="cls-2" d="M91.87,0c2.45,0,3.71,1.46,3.71,4v.5H93.2V3.87c0-1.15-.46-1.58-1.26-1.58s-1.26.43-1.26,1.58c0,3.29,4.92,3.91,4.92,8.49,0,2.56-1.28,4-3.76,4s-3.75-1.47-3.75-4v-1h2.38v1.14c0,1.14.5,1.56,1.31,1.56s1.3-.42,1.3-1.56c0-3.3-4.92-3.91-4.92-8.49C88.16,1.46,89.42,0,91.87,0Z"/><path class="cls-2" d="M97.22.18H105V2.47h-2.63V16.21H99.86V2.47H97.22Z"/><path class="cls-2" d="M112.28,16.21a5.13,5.13,0,0,1-.23-2V11.72c0-1.49-.5-2-1.64-2h-.87v6.53H107V.18h3.8c2.61,0,3.73,1.22,3.73,3.69V5.13c0,1.65-.53,2.72-1.65,3.25,1.26.52,1.67,1.74,1.67,3.41v2.47a4.61,4.61,0,0,0,.28,2ZM109.54,2.47V7.39h1c.94,0,1.51-.41,1.51-1.69V4.12c0-1.14-.39-1.65-1.28-1.65Z"/><path class="cls-2" d="M116.93,4c0-2.57,1.35-4,3.82-4s3.83,1.46,3.83,4v8.33c0,2.56-1.36,4-3.83,4s-3.82-1.47-3.82-4Zm2.52,8.49c0,1.14.5,1.58,1.3,1.58s1.31-.44,1.31-1.58V3.87c0-1.15-.51-1.58-1.31-1.58s-1.3.43-1.3,1.58Z"/><path class="cls-2" d="M45.57,39.15l3,13.14,2.81-13.18h.87l-3,14.25H47.83L44.62,39.15Z"/><path class="cls-2" d="M55.38,50.17l-.69,3.16h-.86l3-14.28h1.37l3.25,14.24h-.94l-.73-3.15Zm.14-.81,4.15,0-2.15-9.21Z"/><path class="cls-2" d="M63.72,53.28,63.64,39h.93l.08,13.38,4.48,0v.86Z"/><path class="cls-2" d="M74.22,39c2.19,0,3.06,1.37,3.07,3.44V44c0,2.26-1,3.38-3.28,3.39H72.25l0,5.86h-.94L71.27,39ZM74,46.51c1.64,0,2.35-.75,2.34-2.48V42.37c0-1.55-.54-2.54-2.13-2.53h-2l0,6.67Z"/><path class="cls-2" d="M80.65,50,80,53.19H79.1l3-14.27H83.5l3.25,14.24h-.94L85.08,50Zm.14-.81,4.15,0L82.79,40Z"/><path class="cls-2" d="M91.88,38.88c2.17,0,3.06,1.18,3.07,3.2v1.24c0,1.67-.63,2.62-2,3,1.46.31,2.06,1.35,2.07,2.89v2.22a3.16,3.16,0,0,0,.36,1.71h-1a3.32,3.32,0,0,1-.32-1.7V49.16c0-1.89-1-2.41-2.68-2.41H89.89l0,6.37H89L88.91,38.9Zm-.49,7c1.67,0,2.64-.48,2.63-2.39V42.16c0-1.52-.6-2.43-2.15-2.43l-2,0,0,6.16Z"/><path class="cls-2" d="M99,49.92l-.69,3.16h-.86l3-14.28h1.37L105.1,53h-.93l-.73-3.15Zm.14-.81,4.15,0-2.15-9.21Z"/><path class="cls-2" d="M108.38,36h1l-1.7,2H107Zm-1.12,2.77h.93L108.28,53h-.94Z"/><path class="cls-2" d="M116.66,42.18v.3h-.9v-.37c0-1.51-.58-2.64-2.13-2.63s-2.11,1.13-2.1,2.63c0,3.46,5.17,3.49,5.19,7.42,0,2.05-.88,3.56-3,3.58s-3.08-1.49-3.09-3.55v-.73h.9v.79c0,1.53.61,2.62,2.17,2.61s2.15-1.11,2.14-2.64c0-3.41-5.16-3.44-5.19-7.41,0-2.14.92-3.52,3-3.56S116.64,40.12,116.66,42.18Z"/><path class="cls-2" d="M118.94,42.2c0-2.07.93-3.6,3.09-3.62s3.16,1.51,3.17,3.59l0,7.28c0,2.07-.93,3.6-3.13,3.62S119,51.56,119,49.49Zm1,7.34c0,1.55.63,2.68,2.2,2.67s2.21-1.15,2.2-2.69l0-7.41c0-1.54-.65-2.68-2.24-2.67s-2.17,1.15-2.16,2.7Z"/></g></g></svg>