<?xml version="1.0" encoding="utf-8"?>
<!-- Generator: Adobe Illustrator 22.0.1, SVG Export Plug-In . SVG Version: 6.00 Build 0)  -->
<svg version="1.1" id="Capa_1" xmlns="http://www.w3.org/2000/svg" xmlns:xlink="http://www.w3.org/1999/xlink" x="0px" y="0px"
	 viewBox="0 0 300 301" style="enable-background:new 0 0 300 301;" xml:space="preserve">
<style type="text/css">
	.st0{fill:#193E2E;}
	.st1{enable-background:new    ;}
	.st2{fill:#FFFFFF;}
</style>
<title>2013Dato</title>
<g id="Capa_2_1_">
	<g id="Capa_1-2">
		<g>
			<rect class="st0" width="300" height="301"/>
		</g>
		<g class="st1">
			<path class="st2" d="M109.2,123.4h4.9v3.7h-4.9v8.1h-4.7v-8.1H89.4v-2.7l14.8-24.4h5V123.4z M94.5,123.4h10v-16.5l-0.1,0
				l-0.5,1.2L94.5,123.4z"/>
			<path class="st2" d="M124.2,135.3h-4.8v-4.9h4.8V135.3z"/>
			<path class="st2" d="M142.7,115.3c2.1,0,3.6-0.5,4.5-1.6c0.9-1.1,1.3-2.5,1.3-4.4c0-1.8-0.5-3.2-1.4-4.3c-1-1.1-2.4-1.6-4.3-1.6
				c-1.8,0-3.4,0.6-4.6,1.7c-1.2,1.1-1.8,2.6-1.8,4.3H132l-0.1-0.1c-0.1-2.6,0.9-4.9,3-6.8c2.1-1.9,4.7-2.8,8-2.8
				c3.3,0,5.8,0.8,7.7,2.5c1.9,1.7,2.8,4.1,2.8,7.3c0,1.6-0.4,3.1-1.3,4.5s-2.1,2.4-3.6,3.2c1.8,0.7,3.1,1.8,4,3.2
				c0.9,1.4,1.4,3.2,1.4,5.2c0,3.2-1,5.7-3.1,7.6c-2,1.8-4.7,2.7-7.9,2.7c-3,0-5.6-0.9-7.9-2.6c-2.3-1.8-3.4-4.1-3.3-7l0-0.1h4.5
				c0,1.7,0.6,3.1,1.8,4.3c1.2,1.2,2.8,1.8,4.8,1.8c1.9,0,3.5-0.6,4.6-1.8c1.1-1.2,1.7-2.8,1.7-4.7c0-2.2-0.5-3.9-1.5-5
				c-1-1.1-2.6-1.6-4.8-1.6h-3.9v-3.7H142.7z"/>
			<path class="st2" d="M182.1,135.3h-21.8V132l11-13.2c2-2.4,3.3-4.3,4-5.7c0.7-1.4,1.1-2.8,1.1-4.3c0-1.6-0.5-3-1.4-4
				c-1-1-2.3-1.6-3.9-1.6c-2.1,0-3.7,0.6-4.8,1.9c-1.1,1.3-1.6,2.9-1.6,4.8H160l0-0.1c-0.1-2.9,0.9-5.3,2.9-7.3s4.7-3,8.1-3
				c3.1,0,5.6,0.9,7.4,2.6s2.7,4,2.7,6.7c0,1.9-0.5,3.7-1.5,5.4c-1,1.8-2.6,4-4.7,6.7l-8.9,10.4l0,0.1h16V135.3z"/>
			<path class="st2" d="M210,135.3h-21.8V132l11-13.2c2-2.4,3.3-4.3,4-5.7c0.7-1.4,1.1-2.8,1.1-4.3c0-1.6-0.5-3-1.4-4
				c-1-1-2.3-1.6-3.9-1.6c-2.1,0-3.7,0.6-4.7,1.9s-1.6,2.9-1.6,4.8h-4.6l0-0.1c-0.1-2.9,0.9-5.3,2.9-7.3c2-2,4.7-3,8.1-3
				c3.1,0,5.6,0.9,7.4,2.6c1.8,1.7,2.7,4,2.7,6.7c0,1.9-0.5,3.7-1.5,5.4c-1,1.8-2.6,4-4.7,6.7l-8.9,10.4l0,0.1h16V135.3z"/>
		</g>
		<g class="st1">
			<path class="st2" d="M67.2,183.4l0,0.1c0.1,3.3-1.1,6.1-3.5,8.3s-5.5,3.3-9.5,3.3c-4,0-7.2-1.4-9.7-4.2
				c-2.5-2.8-3.8-6.4-3.8-10.7V174c0-4.3,1.3-7.9,3.8-10.7c2.5-2.8,5.7-4.2,9.7-4.2c4,0,7.1,1.1,9.5,3.2c2.4,2.1,3.5,4.9,3.4,8.4
				l0,0.1h-4.6c0-2.5-0.7-4.4-2.2-5.8c-1.5-1.4-3.5-2.2-6.1-2.2c-2.7,0-4.8,1.1-6.4,3.2c-1.6,2.1-2.4,4.8-2.4,8v6.3
				c0,3.2,0.8,5.9,2.4,8c1.6,2.1,3.7,3.2,6.4,3.2c2.6,0,4.7-0.7,6.1-2.1s2.2-3.4,2.2-5.9H67.2z"/>
			<path class="st2" d="M99.4,159.5v23.4c0,3.9-1.3,6.9-3.8,9.1c-2.5,2.2-5.8,3.3-9.7,3.3c-3.8,0-6.9-1.1-9.4-3.3
				c-2.4-2.2-3.6-5.2-3.6-9.1v-23.4h4.8v23.4c0,2.7,0.8,4.8,2.3,6.3c1.5,1.5,3.5,2.3,6,2.3c2.6,0,4.7-0.8,6.3-2.3
				c1.6-1.5,2.4-3.6,2.4-6.3v-23.4H99.4z"/>
		</g>
		<g class="st1">
			<path class="st2" d="M111.7,190.9h17.2v3.7H107v-35.2h4.8V190.9z"/>
		</g>
		<g class="st1">
			<path class="st2" d="M152.1,163.2h-11.6v31.4h-4.8v-31.4h-11.5v-3.7h27.8V163.2z"/>
			<path class="st2" d="M162.4,194.7h-4.8v-35.2h4.8V194.7z"/>
		</g>
		<g class="st1">
			<path class="st2" d="M181.8,185.4l0.8,2.9h0.1l0.8-2.9l9.1-26h5.1l-13.1,35.2h-4.1l-13.1-35.2h5.2L181.8,185.4z"/>
		</g>
		<g class="st1">
			<path class="st2" d="M229,180.2c0,4.3-1.3,7.9-4,10.7c-2.7,2.8-6.1,4.3-10.4,4.3c-4.1,0-7.4-1.4-10-4.3s-3.9-6.4-3.9-10.7V174
				c0-4.3,1.3-7.9,3.9-10.7s5.9-4.3,10-4.3c4.3,0,7.7,1.4,10.4,4.3c2.7,2.8,4,6.4,4,10.7V180.2z M224.2,173.9c0-3.2-0.9-5.9-2.6-7.9
				s-4.1-3.1-7-3.1c-2.8,0-5,1-6.6,3.1c-1.7,2.1-2.5,4.7-2.5,7.9v6.3c0,3.3,0.8,5.9,2.5,8c1.7,2.1,3.9,3.1,6.6,3.1
				c2.9,0,5.3-1,7-3.1c1.7-2.1,2.6-4.7,2.6-8V173.9z"/>
			<path class="st2" d="M254.6,185.8c0-1.6-0.6-2.9-1.7-4c-1.1-1.1-3.2-2-6-2.8c-3.6-0.9-6.4-2.2-8.4-3.9c-2-1.7-3-3.9-3-6.5
				c0-2.8,1.1-5.1,3.2-6.9s5-2.8,8.4-2.8c3.7,0,6.7,1.1,8.9,3.2c2.2,2.1,3.3,4.6,3.2,7.4l-0.1,0.1h-4.5c0-2-0.7-3.6-2.1-5
				c-1.4-1.3-3.2-2-5.4-2c-2.2,0-3.9,0.5-5.1,1.6c-1.2,1.1-1.8,2.5-1.8,4.2c0,1.5,0.6,2.8,1.9,3.8c1.3,1,3.4,1.9,6.3,2.7
				c3.5,0.9,6.2,2.3,8.1,4.1c1.9,1.8,2.8,4,2.8,6.6c0,2.8-1.1,5.1-3.3,6.8c-2.2,1.7-5.1,2.6-8.7,2.6c-3.4,0-6.4-1-9-2.9
				c-2.6-1.9-3.9-4.4-3.8-7.6l0-0.1h4.5c0,2.2,0.8,3.9,2.5,5.1c1.7,1.2,3.6,1.8,5.7,1.8c2.3,0,4-0.5,5.4-1.5
				C253.9,188.9,254.6,187.5,254.6,185.8z"/>
		</g>
	</g>
</g>
</svg>
